<?xml version="1.0" encoding="utf-8"?>
<svg xmlns="http://www.w3.org/2000/svg" id="Ebene_1" data-name="Ebene 1" viewBox="0 0 1191 842">
  <defs>
    <style>
      .cls-1, .cls-2 {
        stroke: #2e2e2f;
        stroke-miterlimit: 10;
        stroke-width: 3px;
      }

      .cls-1, .cls-2, .cls-3, .cls-4 {
        fill: none;
      }

      .cls-1, .cls-3, .cls-4 {
        stroke-linecap: round;
      }

      .cls-3 {
        stroke-linejoin: bevel;
      }

      .cls-3, .cls-4 {
        stroke: #000;
        stroke-width: 2px;
      }

      .cls-4 {
        stroke-linejoin: round;
      }

      .cls-5 {
        fill: #2e2e2f;
      }
    </style>
  </defs>
  <g>
    <path class="cls-4" d="M584.36,251.42c2.37-2.82,6.06-4.16,9.69-3.52"/>
    <path class="cls-4" d="M582.57,261.58c-1.26-3.46-.57-7.33,1.8-10.15"/>
    <path class="cls-4" d="M590.46,268.21c-3.63-.64-6.64-3.17-7.89-6.63"/>
    <path class="cls-4" d="M600.15,264.69c-2.37,2.82-6.06,4.16-9.69,3.52"/>
    <path class="cls-4" d="M601.95,254.54c1.26,3.46.57,7.33-1.8,10.15"/>
    <path class="cls-4" d="M588.22,246.68c4-1.42,8.46-.63,11.74,2.08"/>
    <polyline class="cls-4" points="600.38 249.06 599.5 248.62 598.62 248.62 597.74 248.62 597.3 248.62 596.43 248.18 595.55 248.18 595.11 248.18 594.23 247.74 593.79 247.74 592.92 247.74 592.48 247.74 591.6 247.31 590.72 247.31 590.28 247.31 589.41 246.87 588.53 246.87"/>
    <path class="cls-4" d="M580.39,255.87c.77-4.18,3.68-7.64,7.67-9.12"/>
    <polyline class="cls-4" points="588.53 246.87 588.09 247.74 587.21 248.18 586.77 248.62 586.33 249.5 585.9 249.94 585.46 250.38 585.02 250.82 584.58 251.25 584.14 252.13 583.7 252.57 583.26 253.01 582.82 253.45 582.39 254.33 581.95 254.76 581.51 255.2 581.07 256.08"/>
    <path class="cls-4" d="M584.43,267.24c-3.23-2.76-4.78-7.01-4.07-11.2"/>
    <polyline class="cls-4" points="580.63 256.08 581.07 256.96 581.51 257.84 581.51 258.28 581.95 259.15 581.95 259.59 582.39 260.47 582.39 260.91 582.82 261.79 583.26 262.22 583.26 263.1 583.7 263.54 583.7 264.42 584.14 264.86 584.14 265.73 584.58 266.61 585.02 267.05"/>
    <path class="cls-4" d="M596.3,269.43c-4,1.42-8.46.63-11.74-2.08"/>
    <polyline class="cls-4" points="585.02 267.49 585.9 267.49 586.77 267.49 587.21 267.93 588.09 267.93 588.53 267.93 589.41 267.93 590.28 268.37 590.72 268.37 591.6 268.37 592.04 268.37 592.92 268.81 593.36 268.81 594.23 268.81 595.11 269.25 595.55 269.25 596.43 269.25"/>
    <path class="cls-4" d="M604.12,260.24c-.77,4.18-3.68,7.64-7.67,9.12"/>
    <polyline class="cls-4" points="596.87 269.25 597.3 268.81 597.74 267.93 598.18 267.49 598.62 267.05 599.06 266.61 599.5 265.73 599.94 265.3 600.38 264.86 600.81 264.42 601.25 263.54 601.69 263.1 602.13 262.66 602.57 262.22 603.45 261.35 603.89 260.91 604.33 260.47"/>
    <path class="cls-4" d="M600.09,248.87c3.23,2.76,4.78,7.01,4.07,11.2"/>
    <polyline class="cls-4" points="604.33 260.03 603.89 259.15 603.89 258.71 603.45 257.84 603.45 257.4 603.01 256.52 603.01 256.08 602.57 255.2 602.13 254.76 602.13 253.89 601.69 253.45 601.69 252.57 601.25 252.13 601.25 251.25 600.81 250.38 600.38 249.94 600.38 249.06"/>
    <path class="cls-4" d="M611.78,258.06c0,10.78-8.74,19.53-19.53,19.53-10.78,0-19.53-8.74-19.53-19.53s8.74-19.53,19.53-19.53c10.78,0,19.53,8.74,19.53,19.53"/>
    <line class="cls-4" x1="588.53" y1="246.87" x2="588.53" y2="246.87"/>
    <polyline class="cls-4" points="580.63 256.08 580.63 256.08 581.07 256.08"/>
    <polyline class="cls-4" points="585.02 267.49 585.02 267.49 585.02 267.05"/>
    <polyline class="cls-4" points="596.87 269.25 596.87 269.25 596.43 269.25"/>
    <polyline class="cls-4" points="604.33 260.03 604.33 260.03 604.33 260.47"/>
    <line class="cls-4" x1="600.38" y1="249.06" x2="600.38" y2="249.06"/>
    <path class="cls-4" d="M614.86,258.06c0,12.48-10.12,22.6-22.6,22.6-12.48,0-22.6-10.12-22.6-22.6s10.12-22.6,22.6-22.6c12.48,0,22.6,10.12,22.6,22.6"/>
    <path class="cls-4" d="M594.06,247.9c3.63.64,6.64,3.17,7.89,6.63"/>
    <path class="cls-4" d="M58.24,134.7c2.37-2.82,6.06-4.16,9.69-3.52"/>
    <path class="cls-4" d="M56.44,144.85c-1.26-3.46-.57-7.33,1.8-10.15"/>
    <path class="cls-4" d="M64.34,151.49c-3.63-.64-6.64-3.17-7.89-6.63"/>
    <path class="cls-4" d="M74.03,147.97c-2.37,2.82-6.06,4.16-9.69,3.52"/>
    <path class="cls-4" d="M75.83,137.82c1.26,3.46.57,7.33-1.8,10.15"/>
    <path class="cls-4" d="M62.1,129.96c4-1.42,8.46-.63,11.74,2.08"/>
    <polyline class="cls-4" points="73.82 132.34 73.38 132.34 72.5 131.9 71.62 131.9 70.74 131.9 70.31 131.46 69.43 131.46 68.99 131.46 68.11 131.46 67.67 131.02 66.8 131.02 66.36 131.02 65.48 130.58 64.6 130.58 64.16 130.58 63.28 130.58 62.41 130.15"/>
    <path class="cls-4" d="M54.27,139.15c.77-4.18,3.68-7.64,7.67-9.12"/>
    <polyline class="cls-4" points="62.41 130.15 61.53 131.02 61.09 131.46 60.65 131.9 60.21 132.78 59.77 133.22 59.34 133.66 58.9 134.09 58.46 134.97 58.02 135.41 57.58 135.85 57.14 136.29 56.7 136.73 56.26 137.61 55.83 138.04 55.39 138.48 54.51 139.36"/>
    <path class="cls-4" d="M58.31,150.52c-3.23-2.76-4.78-7.01-4.07-11.2"/>
    <polyline class="cls-4" points="54.51 139.36 54.95 140.24 55.39 141.12 55.39 141.55 55.83 142.43 55.83 142.87 56.26 143.75 56.26 144.19 56.7 145.06 56.7 145.5 57.14 146.38 57.14 146.82 57.58 147.7 58.02 148.14 58.02 149.01 58.46 149.89 58.46 150.33"/>
    <path class="cls-4" d="M70.18,152.71c-4,1.42-8.46.63-11.74-2.08"/>
    <polyline class="cls-4" points="58.9 150.77 59.77 150.77 60.21 150.77 61.09 151.21 61.97 151.21 62.41 151.21 63.28 151.65 63.72 151.65 64.6 151.65 65.04 151.65 65.92 152.09 66.8 152.09 67.23 152.09 68.11 152.09 68.99 152.52 69.43 152.52 70.31 152.52"/>
    <path class="cls-4" d="M78,143.52c-.77,4.18-3.68,7.65-7.67,9.12"/>
    <polyline class="cls-4" points="70.74 152.52 71.18 152.09 71.62 151.21 72.06 150.77 72.5 150.33 72.94 149.89 73.38 149.01 73.82 148.58 74.25 148.14 74.69 147.7 75.13 147.26 75.57 146.38 76.01 145.94 76.45 145.5 76.89 145.06 77.77 144.19 78.2 143.75"/>
    <path class="cls-4" d="M73.97,132.15c3.23,2.76,4.78,7.01,4.07,11.2"/>
    <polyline class="cls-4" points="78.2 143.31 77.77 142.87 77.77 141.99 77.33 141.12 76.89 140.68 76.89 139.8 76.45 139.36 76.45 138.48 76.01 138.04 76.01 137.17 75.57 136.73 75.57 135.85 75.13 135.41 75.13 134.53 74.69 134.09 74.25 133.22 74.25 132.34"/>
    <path class="cls-4" d="M85.66,141.34c0,10.78-8.74,19.53-19.53,19.53s-19.53-8.74-19.53-19.53,8.74-19.53,19.53-19.53,19.53,8.74,19.53,19.53"/>
    <line class="cls-4" x1="62.41" y1="130.15" x2="62.41" y2="130.15"/>
    <line class="cls-4" x1="54.51" y1="139.36" x2="54.51" y2="139.36"/>
    <polyline class="cls-4" points="58.9 150.77 58.9 150.77 58.46 150.33"/>
    <line class="cls-4" x1="70.74" y1="152.52" x2="70.31" y2="152.52"/>
    <line class="cls-4" x1="78.2" y1="143.31" x2="78.2" y2="143.75"/>
    <line class="cls-4" x1="73.82" y1="132.34" x2="74.25" y2="132.34"/>
    <path class="cls-4" d="M88.74,141.34c0,12.48-10.12,22.6-22.6,22.6s-22.6-10.12-22.6-22.6,10.12-22.6,22.6-22.6,22.6,10.12,22.6,22.6"/>
    <path class="cls-4" d="M67.94,131.18c3.63.64,6.64,3.17,7.89,6.63"/>
    <polyline class="cls-4" points="864.97 540.86 868.48 541.74 870.24 535.16 871.55 535.16"/>
    <line class="cls-4" x1="866.73" y1="533.84" x2="866.73" y2="534.28"/>
    <line class="cls-4" x1="861.02" y1="532.96" x2="861.46" y2="532.52"/>
    <polyline class="cls-4" points="850.49 536.47 852.25 529.89 858.39 531.65 863.22 532.96 866.73 533.84"/>
    <polyline class="cls-4" points="850.49 536.47 841.28 533.84 840.4 533.4"/>
    <line class="cls-4" x1="843.03" y1="527.26" x2="841.28" y2="533.84"/>
    <line class="cls-4" x1="839.08" y1="526.38" x2="839.08" y2="525.94"/>
    <polyline class="cls-4" points="816.27 526.82 818.02 520.24 827.24 522.43 835.57 525.07 843.03 527.26"/>
    <polyline class="cls-4" points="816.27 526.82 803.54 522.87 802.22 522.43"/>
    <line class="cls-4" x1="805.3" y1="516.29" x2="803.54" y2="522.87"/>
    <line class="cls-4" x1="803.98" y1="516.29" x2="803.98" y2="515.85"/>
    <polyline class="cls-4" points="774.58 514.53 776.77 507.95 785.99 511.02 795.64 513.66 805.3 516.29"/>
    <line class="cls-4" x1="778.09" y1="508.39" x2="778.09" y2="508.83"/>
    <polyline class="cls-4" points="776.33 514.97 774.58 514.53 761.85 511.02 763.61 504.44 754.83 501.81 746.5 499.62 739.04 497.42 736.84 504"/>
    <line class="cls-4" x1="742.99" y1="498.3" x2="742.99" y2="498.74"/>
    <polyline class="cls-4" points="737.72 504 736.84 504 727.63 501.37 729.38 494.79 723.68 493.03 718.85 491.72 715.34 490.4 714.9 490.84"/>
    <line class="cls-4" x1="720.61" y1="492.16" x2="720.61" y2="492.59"/>
    <polyline class="cls-4" points="710.51 489.08 711.83 489.52 709.64 496.1 713.15 496.98"/>
    <polyline class="cls-4" points="712.71 481.62 713.59 481.62 715.78 482.5 719.73 483.38 725.43 485.13 732.45 487.33 740.35 489.52 749.57 492.16 759.66 494.79 770.63 497.86 781.6 501.37 793.01 504.44 804.86 507.95 815.83 511.02 826.8 514.1 836.89 517.17 846.1 519.8 854 521.99 861.02 524.19 866.29 525.5 870.68 526.82 872.87 527.26 873.75 527.7"/>
    <polyline class="cls-4" points="745.18 483.82 753.96 486.45 763.61 489.08 774.14 492.16 785.11 495.23 796.08 498.74 807.05 501.81 817.58 504.88 828.11 507.51 837.77 510.59 846.54 513.22 854.44 515.41 860.58 517.17 865.85 518.48 869.8 519.8 871.99 520.24 872.87 520.68"/>
    <polyline class="cls-4" points="866.73 492.59 865.85 492.59 863.22 491.72 859.27 490.4 854 489.08 846.98 486.89 839.08 484.7 829.87 482.06 820.21 479.43 810.12 476.36 799.59 473.29 789.5 470.65 779.41 467.58 770.19 464.95"/>
    <polyline class="cls-4" points="769.31 466.71 778.97 469.34 789.5 472.41 800.03 475.48 810.56 478.55 820.65 481.19 830.75 484.26 839.52 486.89 847.86 489.08 854.88 491.28 860.58 492.59 864.53 493.91 867.17 494.79 868.04 494.79"/>
    <polyline class="cls-4" points="768.88 468.46 778.53 471.09 789.06 474.16 799.59 476.8 810.12 479.87 820.21 482.94 830.31 486.01 839.08 488.21 847.42 490.84 854.44 492.59 860.15 494.35 864.09 495.67 866.73 496.1 867.61 496.54"/>
    <polyline class="cls-4" points="760.1 482.5 768.88 485.13 778.53 487.77 788.62 490.84 798.71 493.47 808.81 496.54 818.9 499.18 828.11 502.25 837.33 504.44 845.23 507.07 852.25 508.83 858.39 510.59 862.78 511.9 866.29 513.22 868.48 513.66 869.36 513.66"/>
    <line class="cls-4" x1="712.71" y1="481.62" x2="710.51" y2="489.08"/>
    <line class="cls-4" x1="873.75" y1="527.7" x2="871.55" y2="535.16"/>
    <path class="cls-4" d="M872.6,520.34c1.18,2.17,1.46,4.72.78,7.1"/>
    <path class="cls-4" d="M712.64,481.44c.23-.79.55-1.54.97-2.24"/>
    <path class="cls-4" d="M863.69,491.69c-.35-.1-.55-.46-.45-.81"/>
    <line class="cls-4" x1="868.04" y1="494.79" x2="867.61" y2="496.54"/>
    <path class="cls-4" d="M869.08,513.46c-2.88-5.31-3.56-11.54-1.9-17.34"/>
    <line class="cls-4" x1="869.36" y1="513.66" x2="872.87" y2="520.68"/>
    <line class="cls-4" x1="866.73" y1="492.59" x2="868.04" y2="494.79"/>
    <polyline class="cls-4" points="986.08 94.16 986.52 93.29 986.96 91.09 988.28 87.58 989.15 83.19 990.91 78.37 992.22 73.54 993.54 69.15 994.42 65.64 994.86 63.45 995.3 62.57"/>
    <polyline class="cls-4" points="1002.32 72.66 1001.88 73.1 1001.44 75.3 1001 77.93 999.68 81 998.81 84.07 998.37 86.7 997.49 88.46 997.49 89.34"/>
    <path class="cls-4" d="M995.24,62.55c3.49,2.4,5.98,6,7,10.11"/>
    <path class="cls-4" d="M997.48,89.29c-3.04,2.95-7.06,4.67-11.29,4.86"/>
    <path class="cls-4" d="M639.65,283.75c-3.29,14.78-17.92,24.1-32.71,20.82"/>
    <line class="cls-4" x1="649.08" y1="243.36" x2="639.87" y2="284.16"/>
    <line class="cls-4" x1="606.96" y1="305.23" x2="33.45" y2="177.97"/>
    <path class="cls-4" d="M33.43,177.32c-4.7-1.04-9.04-3.3-12.59-6.56"/>
    <path class="cls-4" d="M20.72,171.39c-4.29-3.95-8.59-7.9-12.88-11.85-9.28-8.53-18.55-17.07-27.83-25.6-5.42-4.98-10.83-9.97-16.25-14.95"/>
    <path class="cls-4" d="M138.44,174.7c-4.61-1.02-7.52-5.59-6.5-10.21"/>
    <line class="cls-4" x1="138.76" y1="174.9" x2="513.05" y2="257.84"/>
    <path class="cls-4" d="M522.94,251.13c-1.02,4.61-5.59,7.52-10.21,6.5"/>
    <line class="cls-4" x1="523.15" y1="251.25" x2="524.02" y2="248.18"/>
    <path class="cls-4" d="M517.32,237.42c4.61,1.02,7.52,5.59,6.5,10.21"/>
    <line class="cls-4" x1="517.44" y1="237.65" x2="143.15" y2="154.72"/>
    <path class="cls-4" d="M132.82,160.98c1.02-4.61,5.59-7.52,10.21-6.5"/>
    <line class="cls-4" x1="132.62" y1="161.3" x2="132.18" y2="164.81"/>
    <polyline class="cls-4" points="654.35 187.19 654.35 187.63 653.91 189.82 653.03 193.33 652.15 197.72 650.84 202.99 649.52 208.25 648.21 213.96 647.33 219.22 646.45 223.61 645.57 227.12 645.13 229.31 644.69 229.75"/>
    <polyline class="cls-4" points="644.69 229.75 647.33 230.19 649.96 231.07 652.59 231.51 655.23 231.51 657.86 231.95 660.49 232.39 663.12 232.39 665.76 232.82 668.39 232.82 671.02 232.82 673.66 232.82 676.29 232.82 678.92 232.82 681.55 232.39 684.19 232.39 686.82 231.95 689.01 231.51 691.65 231.07 694.28 230.63 696.91 230.19 699.54 229.75 702.18 229.31 704.81 228.44 707 228 709.64 227.12 712.27 226.24 714.46 225.37 717.1 224.49 719.73 223.61 721.92 222.29 724.56 221.42 726.75 220.1 728.94 219.22 731.58 217.91 733.77 216.59 735.97 215.27 738.16 213.96 740.35 212.64 742.55 211.32 744.74 209.57 746.94 208.25 749.13 206.5 750.88 204.74 753.08 202.99 755.27 201.67 757.03 199.91 758.78 197.72 760.98 195.97 762.73 194.21 764.49 192.46 766.24 190.26 768 188.51 769.75 186.31 771.07 184.12 772.82 182.36 774.58 180.17 775.9 177.97 777.21 175.78 778.53 173.59 780.28 171.39 781.6 169.2 782.48 166.57 783.79 164.37 785.11 162.18"/>
    <path class="cls-4" d="M-36.23,34.16c94.18,20.84,184.18,40.84,281.18,61.84,1,0,3,2,4,2,146,30,274,62,419,90,15,3,29-2,42-9,1-1,3,0,4-1,8-7,17-12,22.88-21.09"/>
    <path class="cls-4" d="M644.69,229.75c-50.74-11.75-99.74-23.75-153.74-33.75l-9-3c-28-6-54-10-82-17-1,0-3-2-4-2-69-15-132-29-201-45-23-5-43-9-66-14-29-6-55-12-85-18-2-1-4-3-6-3-25-3-49-10-73.61-15.24"/>
    <path class="cls-4" d="M345.43,78.87c11.71,2.6,19.14,14,16.6,25.48"/>
    <path class="cls-4" d="M319.62,94.95c2.54-11.47,14.1-18.67,25.81-16.08"/>
    <polyline class="cls-4" points="345.43 79.24 345.87 78.81 345.87 78.37 345.87 77.93 345.87 77.49 345.87 77.05 346.31 76.61 346.31 76.17 346.31 75.73 346.31 75.3 346.31 74.86"/>
    <line class="cls-4" x1="319.54" y1="95.04" x2="318.67" y2="99.43"/>
    <line class="cls-4" x1="362.55" y1="104.7" x2="361.23" y2="109.08"/>
    <polyline class="cls-4" points="320.42 91.53 320.42 91.97 320.42 92.41 319.98 92.41 319.98 92.85 319.98 93.29 319.98 93.73 319.98 94.16 319.54 94.6 319.54 95.04 319.54 94.6 319.98 94.16 319.98 93.73 319.98 93.29 319.98 92.85 319.98 92.41 320.42 92.41 320.42 91.97 320.42 91.53 320.42 91.09 320.86 90.21 321.3 89.34 321.3 88.46 321.74 87.58 322.18 86.7 322.62 85.83 323.05 84.95 323.49 84.07 324.37 83.19 324.81 82.32 325.69 81.88 326.13 81 327 80.56 327.44 79.68 328.32 79.24 329.2 78.37 330.08 77.93 330.51 77.49 331.39 77.05 332.27 76.61 333.15 76.17 334.02 75.73 334.9 75.73 336.22 75.3 337.1 74.86 337.97 74.86 338.85 74.86 339.73 74.42 340.61 74.42 341.92 74.42 342.8 74.42 343.68 74.42 344.56 74.86 345.43 74.86 346.31 74.86 347.63 75.3 348.5 75.73 349.38 75.73 350.26 76.17 351.14 76.61 352.02 77.05 352.89 77.49 353.77 77.93 354.21 78.37 355.09 79.24 355.96 79.68 356.84 80.12 357.28 81 358.16 81.88 358.6 82.32 359.04 83.19 359.91 84.07 360.35 84.95 360.79 85.39 361.23 86.27 361.67 87.14 362.11 88.02 362.55 88.9 362.55 90.21 362.99 91.09 363.42 91.97 363.42 92.85 363.42 93.73 363.86 94.6 363.86 95.92 363.86 96.8 363.86 97.67 363.42 98.55 363.42 99.43 363.42 100.31 363.42 100.75 362.99 101.18 362.99 101.62 362.99 102.06 362.99 102.5 362.99 102.94 362.55 103.38 362.55 103.82 362.55 104.26 362.55 104.7 362.55 104.26 362.55 103.82 362.55 103.38 362.55 102.94 362.99 102.94 362.99 102.5 362.99 102.06 362.99 101.62 362.99 101.18"/>
    <polyline class="cls-4" points="664.44 140.68 666.63 141.12 668.39 141.55 670.58 141.99 672.34 142.43 674.53 142.87 676.29 143.31 678.04 143.75 680.24 144.19 681.99 144.63 684.19 145.06 685.94 145.5 687.7 145.94 689.89 146.38 691.65 146.82 693.4 147.26 695.16 147.7 697.35 148.14 699.11 148.58 700.86 149.01 702.62 149.45 704.37 149.89 706.13 149.89 707.88 150.33 709.64 150.77 711.39 151.21 713.15 151.65 714.9 152.09 716.66 152.52 718.41 152.96 719.73 152.96 721.48 153.4 723.24 153.84"/>
    <path class="cls-4" d="M250.88,49.03c-4.42-.98-6.59-10.06-5.49-23,1.1-12.94,5.24-27.2,10.49-36.12"/>
    <polyline class="cls-4" points="296.73 -1.06 295.41 4.65 293.65 10.79 292.34 17.81 290.58 25.27 289.27 32.29 287.51 38.88 286.2 44.58 285.32 49.85 284.44 53.36 284 55.55 283.56 56.43"/>
    <polyline class="cls-4" points="679.36 73.54 679.36 74.42 678.48 77.93 677.6 83.19 676.29 88.9 674.53 95.48 673.22 102.5 671.46 109.52 670.15 116.54 668.39 123.12 667.07 129.27 666.2 134.09 665.32 137.61 664.88 140.24 664.44 140.68"/>
    <line class="cls-3" x1="780.72" y1="96.36" x2="780.72" y2="96.36"/>
    <polyline class="cls-4" points="677.6 83.19 680.68 84.07 683.31 84.51 686.38 85.39 689.45 85.83 692.52 86.7 695.6 87.14 698.67 88.02 701.74 88.9 704.81 89.34 707.88 90.21 710.95 90.65 713.59 91.53 716.66 91.97 719.73 92.41 722.36 93.29 725.43 93.73 728.07 94.6 730.7 95.04 733.77 95.92 736.4 96.36 739.04 96.8 741.67 97.67 744.3 98.11 746.94 98.55 749.57 99.43 751.76 99.87 754.39 100.31 756.59 100.75 759.22 101.18 761.42 102.06 763.61 102.5 765.8 102.94 768 103.38 770.19 103.82 771.95 104.26 774.14 104.7 775.9 105.13 777.65 105.57 779.41 106.01 781.16 106.45 782.92 106.89 784.67 106.89 785.99 107.33 787.74 107.77 789.06 108.21 790.38 108.21 791.69 108.64 793.01 109.08 793.89 109.08 795.2 109.52 796.08 109.52 796.96 109.96 797.84 109.96 798.71 109.96 799.59 110.4 800.03 110.4 800.47 110.4 800.91 110.84 801.35 110.84 801.79 110.84 802.22 110.84"/>
    <path class="cls-4" d="M251.09,48.97C165.96,30,80.96,11-4.07-7.3"/>
    <path class="cls-4" d="M679.36,73.54c-118.4-26.54-233.4-51.54-355.4-79.54-7-1-14-4-21.34-4.32"/>
    <line class="cls-4" x1="664.44" y1="140.68" x2="283.56" y2="56.43"/>
    <polyline class="cls-4" points="802.22 110.84 801.35 109.52 800.47 108.21 799.59 106.89 798.27 105.57 796.96 104.26 795.64 103.38 794.33 102.06 793.01 101.18 791.69 100.31 790.38 99.43 788.62 98.55 787.3 98.11 785.55 97.24 784.23 96.8 782.48 96.36 780.72 95.92 780.28 95.92 779.85 95.48 779.41 95.48 778.97 95.48 778.09 95.48 777.65 95.04 777.21 95.04 776.33 95.04 775.46 94.6 775.02 94.6 774.14 94.16 773.26 94.16 771.95 93.73 771.07 93.73 769.75 93.29 768.88 93.29 767.56 92.85 766.24 92.85 764.93 92.41 763.61 91.97 762.29 91.53 760.98 91.53 759.22 91.09 757.91 90.65 756.15 90.21 754.39 90.21 752.64 89.78 751.32 89.34 749.13 88.9 747.37 88.46 745.62 88.02 743.86 87.58 741.67 87.14 739.91 86.7 737.72 86.27 735.97 85.83 733.77 85.39 731.58 84.95 729.38 84.51 727.19 84.07 725 83.63 722.8 83.19 720.61 82.32 718.41 81.88 715.78 81.44 713.59 81 711.39 80.56 708.76 80.12 706.57 79.24 704.37 78.81 701.74 78.37 699.11 77.93 696.91 77.05 694.28 76.61 692.09 76.17 689.45 75.73 686.82 74.86 684.63 74.42 681.99 73.98 679.36 73.54"/>
    <polyline class="cls-4" points="251.09 48.97 252.85 49.41 255.04 49.85 256.8 50.28 258.99 50.72 260.74 51.16 262.94 51.6 265.13 52.48 267.33 52.92 269.08 53.36 271.28 53.79 273.47 54.23 275.23 54.67 277.42 55.11 279.61 55.55 281.81 55.99 283.56 56.43"/>
    <polyline class="cls-4" points="664.44 140.68 666.63 141.12 668.39 141.55 670.15 141.99 671.9 142.43 674.09 142.87 675.85 143.31 677.6 143.75 679.36 144.19 681.12 144.63 683.31 145.06 685.06 145.5 686.82 145.94 688.57 146.38 690.33 146.38 692.09 146.82 693.84 147.26 695.6 147.7 697.35 148.14 699.11 148.58 700.86 149.01 702.62 149.45 704.37 149.89 706.13 149.89 707.88 150.33 709.64 150.77 711.39 151.21 712.71 151.65 714.46 152.09 716.22 152.09 717.54 152.52 719.29 152.96 721.05 153.4 722.36 153.84 724.12 153.84 725.43 154.28 726.75 154.72 728.51 155.16 729.82 155.16 731.14 155.6 732.45 156.03 733.77 156.03 735.53 156.47 736.84 156.91 737.72 156.91 739.04 157.35 740.35 157.79 741.67 157.79 742.99 158.23 743.86 158.67 745.18 158.67 746.5 159.11 747.37 159.11 748.25 159.55 749.57 159.55 750.45 159.98 751.32 159.98 752.2 160.42 753.08 160.42 753.96 160.86 754.83 160.86 755.71 161.3 756.59 161.3 757.47 161.3 758.34 161.74 758.78 161.74 759.66 161.74 760.1 162.18 760.54 162.18 761.42 162.18 761.85 162.62 762.29 162.62 762.73 162.62 763.17 162.62 763.61 162.62 764.05 163.06 764.49 163.06 764.93 163.06 765.36 163.06 765.8 163.06 765.8 163.49 766.24 163.49 767.12 163.49 768 163.49 768.88 163.93 769.75 163.93 770.63 163.93 771.95 163.93 772.82 163.93 773.7 163.93 774.58 163.93 775.46 163.93 776.33 163.93 777.65 163.93 778.53 163.93 779.41 163.49 780.28 163.49 781.16 163.06 782.04 163.06 782.92 162.62 783.79 162.62 785.11 162.18 785.99 161.74 786.87 161.3 787.74 160.86 788.62 160.42 789.06 159.98 789.94 159.55 790.82 159.11 791.69 158.67 792.57 158.23 793.45 157.79 794.33 157.35 794.76 156.47 795.64 156.03 796.52 155.16 796.96 154.72 797.84 153.84 798.27 153.4 799.15 152.52 799.59 152.09 800.47 151.21 800.91 150.33 801.35 149.45 801.79 149.01 802.66 148.14 803.1 147.26 803.54 146.38 803.98 145.5 804.42 144.63 804.86 143.75 805.3 142.87 805.3 141.99 805.73 141.12 806.17 140.24 806.61 139.36 806.61 138.48 807.05 137.61 807.05 136.73 807.49 135.85 807.49 134.53 807.49 133.66 807.49 132.78 807.93 131.9 807.93 131.02 807.93 130.15 807.93 128.83 807.93 127.95 807.93 127.07 807.49 126.2 807.49 125.32 807.49 124.44 807.49 123.56 807.05 122.25 807.05 121.37 806.61 120.49 806.17 119.61 806.17 118.74 805.73 117.86 805.3 116.98 805.3 116.1 804.86 115.23 804.42 114.35 803.98 113.47 803.54 112.59 803.1 111.72 802.22 110.84"/>
    <polyline class="cls-4" points="656.98 174.46 656.98 175.34 656.54 177.97 655.66 181.92 654.35 187.19"/>
    <polyline class="cls-4" points="644.69 229.75 643.82 235.02 642.94 238.97 642.5 241.16 642.06 242.04"/>
    <polyline class="cls-4" points="656.98 174.46 659.18 175.34 661.37 175.34 664 175.78 666.2 176.22 668.39 176.22 670.58 176.22 672.78 176.22 674.97 176.22 677.17 176.22 679.8 175.78 681.99 175.78 684.19 175.34 686.38 174.9 688.57 174.46 690.77 173.59 692.96 173.15 695.16 172.27 697.35 171.39 699.11 170.95 701.3 169.64 703.49 168.76 705.25 167.88 707.44 166.57 709.2 165.25 710.95 164.37 713.15 163.06 714.9 161.74 716.66 159.98 718.41 158.67 719.73 156.91 721.48 155.6 723.24 153.84"/>
    <polyline class="cls-4" points="642.06 242.04 645.57 242.92 648.64 243.36 652.15 243.79 655.66 244.23 658.74 244.67 662.25 245.11 665.76 245.11 669.27 245.55 672.34 245.55 675.85 245.55 679.36 245.11 682.43 245.11 685.94 244.67 689.45 244.23 692.52 243.79 696.03 243.36 699.54 242.92 702.62 242.04 706.13 241.16 709.2 240.28 712.71 239.41 715.78 238.53 718.85 237.21 722.36 235.9 725.43 234.58 728.51 233.26 731.58 231.95 734.65 230.63 737.72 228.88 740.35 227.12 743.42 225.37 746.5 223.61 749.13 221.85 751.76 220.1 754.83 217.91 757.47 216.15 760.1 213.96 762.73 211.76 765.36 209.57 767.56 206.94 770.19 204.74 772.39 202.11 774.58 199.91 776.77 197.28 778.97 194.65 781.16 192.02 783.36 189.38 785.11 186.31 787.3 183.68 789.06 181.05 790.82 177.97 792.57 174.9 794.33 171.83 795.64 169.2 796.96 166.13 798.71 163.06 800.03 159.98 801.35 156.47 802.22 153.4 803.54 150.33 804.42 146.82 805.3 143.75 806.17 140.24 807.05 137.17"/>
    <line class="cls-4" x1="807.05" y1="137.17" x2="807.05" y2="137.17"/>
    <path class="cls-4" d="M656.98,174.46c-64.02-14.46-126.02-27.46-193.02-42.46-56-12-106-24-163-35-1,0-3-2-4-2-24-5-44-9-68-14-1,0-3-2-4-2C134.96,60,50.96,40-35.95,20.85"/>
    <path class="cls-4" d="M642.06,242.04C438.96,197,243.96,154,33.96,107c-24-5-47-8-69.91-15.05"/>
    <line class="cls-4" x1="807.05" y1="137.17" x2="807.05" y2="137.17"/>
    <polyline class="cls-4" points="868.48 492.59 867.61 492.16 865.41 491.72 861.02 490.4 855.32 488.65 848.74 486.89 840.4 484.26 831.18 481.62 821.53 478.99 811 475.92 800.47 472.85 789.94 469.78 779.85 467.14 770.19 464.07"/>
    <line class="cls-4" x1="868.48" y1="492.59" x2="879.45" y2="454.42"/>
    <line class="cls-4" x1="932.11" y1="271.44" x2="984.33" y2="88.9"/>
    <path class="cls-4" d="M990.91,65.64c3.05-14.64,8.05-28.64,12.05-43.64,3-10,5-19,8.92-29.24"/>
    <path class="cls-4" d="M796.96,241.6c24-84.6,48-169.6,73.01-254.86"/>
    <path class="cls-4" d="M725.19,511.97c-.58,1.3-2.03,1.97-3.39,1.58"/>
    <path class="cls-4" d="M848.61,549.97c-1.37-.39-2.24-1.73-2.04-3.14"/>
    <polyline class="cls-4" points="2.73 5.09 2.29 5.53 1.85 8.16 .54 11.67"/>
    <polyline class="cls-4" points="-.34 10.35 .98 6.4 1.41 4.21"/>
    <path class="cls-4" d="M2.5,3.63c.22.37.29.81.17,1.23"/>
    <polyline class="cls-4" points="43.1 37.12 42.22 37.12 39.15 36.24 34.32 34.93 28.18 33.17"/>
    <polyline class="cls-4" points="-38.52 20.45 -38.08 19.13 -37.64 17.37 -37.2 16.06 -36.76 14.3 -26.23 17.37 -15.7 20.45 -5.61 23.52 4.05 26.15 12.82 28.78"/>
    <polyline class="cls-4" points="28.18 33.17 27.74 33.17 27.3 33.61 26.86 33.61 26.43 34.05 25.55 34.05 25.11 34.49"/>
    <polyline class="cls-4" points="16.77 32.73 15.89 32.29 15.46 31.85 15.02 31.42 14.58 30.98 13.7 30.1 13.26 29.66 12.82 29.22 12.82 28.78"/>
    <polyline class="cls-4" points="36.96 14.3 36.08 14.3 33.89 13.42 29.5 12.11 24.23 10.79 17.21 8.6"/>
    <polyline class="cls-4" points="29.94 23.96 35.64 25.71 39.59 26.59 41.78 27.47 42.66 27.47"/>
    <polyline class="cls-4" points="29.94 23.96 29.06 23.08 28.62 21.76 27.74 20.88 27.3 19.57 26.43 18.69 25.55 17.37 25.11 16.5 24.23 15.62 23.35 14.74 22.48 13.42 21.6 12.55 20.72 11.67 19.84 10.79 18.97 10.35 18.09 9.48 17.21 8.6"/>
    <polyline class="cls-4" points="-34.13 5.53 -24.04 8.6 -13.94 11.23 -4.29 14.3 4.92 16.94"/>
    <polyline class="cls-4" points="4.92 16.94 4.49 16.06 3.61 15.18 3.17 14.74 2.73 14.3 2.29 13.42 1.41 12.55 .54 11.67 .1 11.23 .1 10.79 -.34 10.35 -.34 9.48 -.78 9.04 -.78 8.6 -1.22 8.16 -1.22 7.72 -1.22 7.28 -1.22 6.84 -1.22 6.4 -1.22 5.97 -.78 5.53 -.78 5.09 -.34 5.09 .1 4.65 .54 4.21 .98 4.21 1.41 4.21 -9.12 1.14 -19.65 -1.93 -31.06 -5 -31.5 -3.69 -31.93 -2.37 -32.37 -1.06 -32.81 .26 -33.25 1.58 -33.25 2.89 -33.69 4.21 -34.13 5.53"/>
    <polyline class="cls-4" points="28.18 33.17 28.62 32.73 29.06 32.29 29.06 31.85 29.5 31.85"/>
    <polyline class="cls-4" points="29.5 31.85 35.64 33.17 40.03 34.49 42.66 35.36 43.54 35.8"/>
    <polyline class="cls-4" points="-36.32 12.55 -23.6 16.5 -11.31 20.01 .54 23.52 11.07 26.59"/>
    <polyline class="cls-4" points="11.07 26.59 11.51 27.03 11.95 27.47 12.38 27.91 12.82 28.78"/>
    <polyline class="cls-4" points="4.92 16.94 5.36 17.37 6.24 17.81 6.68 18.69 7.12 19.13 7.56 19.57 8 20.45 8.44 20.88 8.44 21.76 8.87 22.2 9.31 22.64 9.75 23.52 10.19 23.96 10.19 24.83 10.63 25.27 11.07 25.71 11.07 26.59"/>
    <polyline class="cls-4" points="29.5 31.85 29.94 31.42 30.37 30.98 30.37 30.54 30.81 30.1 30.81 29.66 30.81 29.22 31.25 28.78 31.25 27.91 31.25 27.47 31.25 27.03 30.81 26.59 30.81 26.15 30.81 25.27 30.37 24.83 30.37 24.39 29.94 23.96"/>
    <polyline class="cls-4" points="17.21 8.6 16.33 8.16 15.02 7.28 14.14 6.84 13.26 6.4 11.95 5.97 11.07 5.53 10.19 5.09 8.87 4.65 8 4.21 7.12 3.77 6.24 3.77 5.8 3.77 5.36 3.77 4.92 3.77 4.49 3.77 4.05 3.77 3.61 3.77 3.17 3.77 2.73 3.77 2.29 3.77 1.85 3.77 1.41 4.21"/>
    <polyline class="cls-4" points="-31.06 -5 -31.06 -5.88 -30.62 -6.32 -30.62 -6.76 -30.62 -7.2 -20.09 -4.13 -9.99 -1.06 -.34 1.58 8.44 4.21 16.33 6.4 22.92 8.16 28.62 9.91 32.57 10.79 34.76 11.67 35.64 12.11"/>
    <path class="cls-4" d="M-17.26-7.28C-3.04-3,10.96,1,25.11,5.09"/>
    <path class="cls-4" d="M42.32,38.3c.14-.37.28-.74.43-1.11"/>
    <path class="cls-4" d="M42.36,27.53c-2.14-4.32-4.03-8.76-5.67-13.29"/>
    <line class="cls-4" x1="43.1" y1="37.12" x2="43.54" y2="35.8"/>
    <path class="cls-4" d="M42.82,27.55c1.24,2.5,1.49,5.37.73,8.04"/>
    <path class="cls-4" d="M35.34,11.92c.65.7,1.16,1.51,1.51,2.4"/>
    <path class="cls-4" d="M25.19,4.96c3.78,1.71,7.25,4.03,10.28,6.87"/>
    <path class="cls-4" d="M20.28.26C11.96-3,2.96-5-5.25-7.3"/>
    <polyline class="cls-4" points="13.26 -3.69 20.28 .26 19.4 3.33"/>
    <polyline class="cls-4" points="670.15 389.04 728.51 400.45 757.03 405.71 785.11 411.42"/>
    <path class="cls-4" d="M669.77,388.67c-2.35,6.55-9.21,10.33-16,8.82"/>
    <polyline class="cls-4" points="785.11 411.42 775.9 443.45 774.58 447.4 773.7 451.35 771.95 457.05 770.63 462.32 770.19 464.07 769.75 464.51 769.75 465.83 768.44 470.65 767.56 472.41 767.56 473.29 766.68 475.48 764.93 478.55 763.61 479.87 763.17 480.75"/>
    <line class="cls-4" x1="763.17" y1="480.75" x2="360.79" y2="332.43"/>
    <line class="cls-4" x1="360.79" y1="332.43" x2="362.55" y2="328.04"/>
    <path class="cls-4" d="M513.38,357.6c-49.48-9.84-99.95-19.96-151.26-30.33"/>
    <path class="cls-4" d="M524.32,368.96c-5.37-1.19-9.53-5.46-10.58-10.86"/>
    <line class="cls-4" x1="524.46" y1="368.85" x2="654.35" y2="397.81"/>
    <polyline class="cls-4" points="769.31 467.14 769.75 465.83 770.19 464.51 770.19 464.07 770.63 462.76 771.07 461 772.39 457.05 773.26 453.1 774.58 448.28"/>
    <polyline class="cls-4" points="763.17 480.75 762.73 481.19 761.85 482.06"/>
    <polyline class="cls-4" points="728.51 484.7 355.09 346.91 355.53 346.91 355.53 346.04 356.4 344.72 356.84 342.96 357.72 340.77 358.6 338.14 359.47 335.5 360.79 332.43"/>
    <line class="cls-4" x1="762.29" y1="482.06" x2="762.29" y2="481.62"/>
    <polyline class="cls-4" points="81.71 283.73 81.28 283.29 79.08 282.85 76.01 282.41 72.06 281.53 67.23 280.22 62.41 279.34 57.14 278.02 52.75 277.14 48.8 276.27 45.73 275.39 43.54 274.95 43.1 274.95"/>
    <polyline class="cls-4" points="44.42 269.25 45.73 269.25 47.49 269.25 50.12 269.68 53.19 269.68 56.7 270.12 60.21 271 64.16 271.44 67.67 272.32 71.62 273.63 74.69 274.51 77.77 275.39 79.96 276.7 81.71 277.14 82.59 277.58 83.03 278.02"/>
    <polyline class="cls-4" points="79.52 285.04 78.64 284.6 76.45 284.16 72.5 283.29 67.67 282.41 61.97 281.09 56.7 279.78 51.44 278.9 47.49 278.02 45.29 277.14 44.42 277.14"/>
    <line class="cls-4" x1="81.71" y1="283.73" x2="83.03" y2="278.02"/>
    <line class="cls-4" x1="43.1" y1="274.95" x2="44.42" y2="269.25"/>
    <path class="cls-4" d="M81.24,283.4c-.18.83-1,1.35-1.83,1.17"/>
    <path class="cls-4" d="M44.3,276.67c-.83-.18-1.35-1-1.17-1.83"/>
    <line class="cls-4" x1="890.42" y1="561.92" x2="906.22" y2="566.75"/>
    <line class="cls-4" x1="906.22" y1="566.75" x2="892.18" y2="616.34"/>
    <line class="cls-4" x1="892.18" y1="616.34" x2="875.94" y2="611.95"/>
    <line class="cls-4" x1="875.94" y1="611.95" x2="890.42" y2="561.92"/>
    <line class="cls-4" x1="871.55" y1="610.63" x2="868.04" y2="609.75"/>
    <line class="cls-4" x1="868.04" y1="609.75" x2="882.52" y2="559.73"/>
    <line class="cls-4" x1="882.52" y1="559.73" x2="886.03" y2="561.05"/>
    <line class="cls-4" x1="886.03" y1="561.05" x2="871.55" y2="610.63"/>
    <line class="cls-4" x1="878.58" y1="558.85" x2="879.45" y2="558.85"/>
    <line class="cls-4" x1="879.45" y1="558.85" x2="864.97" y2="608.88"/>
    <line class="cls-4" x1="864.97" y1="608.88" x2="864.09" y2="608.44"/>
    <polyline class="cls-4" points="894.37 617.21 908.85 567.19 907.97 567.19 906.22 566.75"/>
    <line class="cls-4" x1="886.03" y1="561.05" x2="890.42" y2="561.92"/>
    <polyline class="cls-4" points="879.45 558.85 880.33 559.29 882.52 559.73"/>
    <polyline class="cls-4" points="868.04 609.75 866.29 609.31 864.97 608.88"/>
    <line class="cls-4" x1="875.94" y1="611.95" x2="871.55" y2="610.63"/>
    <polyline class="cls-4" points="894.37 617.21 893.93 617.21 892.18 616.34"/>
    <line class="cls-4" x1="864.09" y1="608.44" x2="878.58" y2="558.85"/>
    <path class="cls-4" d="M-36.29,732.24c6.25,5.76,12.25,10.76,19.25,16.76,37,35,69,71,98.7,111.06"/>
    <path class="cls-4" d="M-36.21,713.85c50.17,43.15,95.17,93.15,134.89,146.24"/>
    <polyline class="cls-4" points="2.73 5.09 2.29 5.53 1.85 8.16 .54 11.67"/>
    <polyline class="cls-4" points="-.34 10.35 .98 6.4 1.41 4.21"/>
    <path class="cls-4" d="M2.5,3.63c.22.37.29.81.17,1.23"/>
    <polyline class="cls-4" points="43.1 37.12 42.22 37.12 39.15 36.24 34.32 34.93 28.18 33.17"/>
    <polyline class="cls-4" points="-38.52 20.45 -36.76 14.3 -26.23 17.37 -15.7 20.45 -5.61 23.52 4.05 26.15 12.82 28.78"/>
    <line class="cls-4" x1="28.18" y1="33.17" x2="25.11" y2="34.49"/>
    <polyline class="cls-4" points="16.77 32.73 14.58 30.98 12.82 28.78"/>
    <polyline class="cls-4" points="36.96 14.3 36.08 14.3 33.89 13.42 29.5 12.11 24.23 10.79 17.21 8.6"/>
    <polyline class="cls-4" points="29.94 23.96 35.64 25.71 39.59 26.59 41.78 27.47 42.66 27.47"/>
    <polyline class="cls-4" points="29.94 23.96 27.3 19.57 24.23 15.62 20.72 11.67 17.21 8.6"/>
    <polyline class="cls-4" points="-34.13 5.53 -24.04 8.6 -13.94 11.23 -4.29 14.3 4.92 16.94"/>
    <polyline class="cls-4" points="4.92 16.94 2.29 13.42 -.34 9.48 -1.22 7.72 -1.22 5.97 .1 4.65 1.41 4.21 -9.12 1.14 -19.65 -1.93 -31.06 -5 -34.13 5.53"/>
    <line class="cls-4" x1="28.18" y1="33.17" x2="29.5" y2="31.85"/>
    <polyline class="cls-4" points="29.5 31.85 35.64 33.17 40.03 34.49 42.66 35.36 43.54 35.8"/>
    <polyline class="cls-4" points="-36.32 12.55 -23.6 16.5 -11.31 20.01 .54 23.52 11.07 26.59"/>
    <line class="cls-4" x1="11.07" y1="26.59" x2="12.82" y2="28.78"/>
    <polyline class="cls-4" points="4.92 16.94 7.12 19.13 8.44 21.76 11.07 26.59"/>
    <polyline class="cls-4" points="29.5 31.85 30.81 30.1 31.25 27.91 30.81 26.15 29.94 23.96"/>
    <polyline class="cls-4" points="17.21 8.6 13.26 6.4 8.87 4.65 4.92 3.77 1.41 4.21"/>
    <polyline class="cls-4" points="-31.06 -5 -30.62 -7.2 -20.09 -4.13 -9.99 -1.06 -.34 1.58 8.44 4.21 16.33 6.4 22.92 8.16 28.62 9.91 32.57 10.79 34.76 11.67 35.64 12.11"/>
    <path class="cls-4" d="M-17.26-7.28C-3.04-3,10.96,1,25.11,5.09"/>
    <path class="cls-4" d="M42.32,38.3c.14-.37.28-.74.43-1.11"/>
    <path class="cls-4" d="M42.36,27.53c-2.14-4.32-4.03-8.76-5.67-13.29"/>
    <line class="cls-4" x1="43.1" y1="37.12" x2="43.54" y2="35.8"/>
    <path class="cls-4" d="M42.82,27.55c1.24,2.5,1.49,5.37.73,8.04"/>
    <path class="cls-4" d="M35.34,11.92c.65.7,1.16,1.51,1.51,2.4"/>
    <path class="cls-4" d="M25.19,4.96c3.78,1.71,7.25,4.03,10.28,6.87"/>
    <path class="cls-4" d="M20.28.26C11.96-3,2.96-5-5.25-7.3"/>
    <polyline class="cls-4" points="13.26 -3.69 20.28 .26 19.4 3.33"/>
    <polyline class="cls-4" points="864.09 608.44 859.71 607.12 853.56 605.37 846.54 603.61 838.21 600.98 828.55 598.34 818.02 595.27 807.05 592.2 795.2 588.69 783.36 585.18 771.07 581.67"/>
    <line class="cls-4" x1="771.07" y1="581.67" x2="785.55" y2="532.09"/>
    <polyline class="cls-4" points="878.58 558.85 874.19 557.54 868.04 555.78 861.02 553.59 852.25 551.39 843.03 548.32 832.5 545.69 821.53 542.18 809.68 539.11 797.4 535.6 785.55 532.09"/>
    <path class="cls-4" d="M771.07,581.67c-142.11-41.67-281.11-80.67-426.11-121.67-26-8-51-15-77-23-103-29-203-57-304.17-86.65"/>
    <path class="cls-4" d="M785.55,532.09c-227.59-66.09-451.59-130.09-684.59-196.09-10-3-19-6-28-8-37-11-73-20-109.24-31.81"/>
    <polyline class="cls-4" points="851.81 28.78 847.42 27.91 843.03 26.59 839.08 25.27 836.45 24.83 835.57 24.39 835.13 24.39"/>
    <polyline class="cls-4" points="857.07 30.54 853.56 29.66 852.69 29.22 851.81 28.78"/>
    <path class="cls-4" d="M836.83,83.63c-.12.05-.44.07-.89.06"/>
    <path class="cls-4" d="M836.86,83.31c.24-.16.51-.32.79-.47"/>
    <path class="cls-4" d="M837.76,83.11s-.02.03-.06.05"/>
    <line class="cls-4" x1="852.69" y1="29.22" x2="837.33" y2="83.63"/>
    <line class="cls-4" x1="837.77" y1="83.19" x2="853.56" y2="29.66"/>
    <polyline class="cls-4" points="851.81 28.78 851.81 29.22 851.37 30.54 836.01 84.95 835.57 85.83 835.13 86.27"/>
    <polyline class="cls-4" points="835.13 86.27 830.75 84.95 826.36 83.63 822.85 82.76 820.21 81.88 818.9 81.44"/>
    <polyline class="cls-4" points="836.01 84.95 831.62 83.63 827.67 82.76 824.16 81.44 821.09 80.56 818.9 80.12 818.02 79.68 833.82 25.27 834.7 25.71 836.89 26.15 839.52 27.03 843.47 27.91 847.42 29.22 851.37 30.54"/>
    <line class="cls-4" x1="833.82" y1="25.27" x2="833.82" y2="25.27"/>
    <line class="cls-4" x1="818.02" y1="79.68" x2="818.02" y2="79.68"/>
    <polyline class="cls-4" points="839.08 79.68 840.84 80.12 843.03 80.56"/>
    <path class="cls-4" d="M818.69,81.38c-.82-.23-1.29-1.08-1.05-1.9"/>
    <path class="cls-4" d="M833.44,25.07c.23-.82,1.08-1.29,1.9-1.05"/>
    <line class="cls-4" x1="818.02" y1="79.68" x2="833.82" y2="25.27"/>
    <line class="cls-4" x1="837.77" y1="83.19" x2="853.56" y2="29.66"/>
    <path class="cls-4" d="M818.69,81.38c-.82-.23-1.29-1.08-1.05-1.9"/>
    <path class="cls-4" d="M833.44,25.07c.23-.82,1.08-1.29,1.9-1.05"/>
    <polyline class="cls-4" points="879.45 454.42 879.01 453.98 877.7 452.22 875.06 449.59 871.99 446.08 868.04 441.69 863.22 436.87 857.95 432.04 851.81 426.77 845.23 421.95 837.33 417.12 829.43 413.61 820.65 410.98 811.44 409.66 802.66 409.22 793.45 410.1 785.11 411.42"/>
    <path class="cls-4" d="M1204.09,331.76c-18.13-4.76-36.13-7.76-55.13-11.76-74-18-145-32-216.85-48.56"/>
    <line class="cls-4" x1="796.96" y1="241.6" x2="738.16" y2="228.44"/>
    <path class="cls-4" d="M1221.99,530.41c-115.03-24.41-229.03-51.41-342.53-75.99"/>
    <line class="cls-4" x1="358.16" y1="339.01" x2="83.03" y2="278.02"/>
    <line class="cls-4" x1="44.42" y1="269.25" x2="-3.85" y2="258.71"/>
    <path class="cls-4" d="M-36.28,637.52c82.24,60.48,151.24,137.48,207.57,222.57"/>
    <path class="cls-4" d="M-36.21,638.67c48.17,37.33,92.17,77.33,132.17,125.33,1,1,3,2,4,3,25,31,49,61,70.36,93.03"/>
    <path class="cls-4" d="M-35.96,634.46c32.8,25.11,64.83,52.12,94.08,81.3s54.1,58.75,78.08,90.72c13.18,17.57,25.85,35.54,37.91,53.9"/>
    <path class="cls-4" d="M-35.97,633.35c16.8,11.77,32.19,25.87,47.79,39.15,15.75,13.42,31.17,27.24,45.75,41.92,28.08,28.27,54.57,58.92,78.66,90.66,6.86,9.04,13.5,18.25,19.88,27.64,6.42,9.44,13.51,18.15,19.75,27.74"/>
    <path class="cls-4" d="M-36.16,596.66c14.12,8.34,25.12,18.34,38.12,28.34,31,25,58,50,86,78,16,17,30,33,45,50,24,29,44,56,66,88,3,5,5,11,8,16,1,1,2,2,2.53,3.27"/>
    <path class="cls-4" d="M-35.98,569.87c14.94,9.13,27.94,19.13,40.94,30.13,5,4,10,7,15,11,46,38,85,76,124,121,17,20,32,38,47,60,7,12,14,21,22,33s16,23,23.56,35.27"/>
    <path class="cls-4" d="M-36.04,652.69c4,1.31,7,5.31,10,8.31,1,1,3,1,4,2l9,9c68,55,124,118,171.55,188.4"/>
    <path class="cls-4" d="M-36.13,654.93c29.8,24.12,58.61,48.77,85.41,76.23,24.68,25.29,48.07,51.83,69.73,79.74,12.43,16.01,24.29,32.44,35.59,49.27"/>
    <path class="cls-4" d="M-36.27,619.38c31.23,24.62,61.23,48.62,90.23,75.62,9,9,18,18,27,27,40,44,77,88,108.41,138.44"/>
    <path class="cls-4" d="M-36.06,632.17c83.02,62.83,156.02,140.83,212.82,228.03"/>
    <path class="cls-4" d="M-35.91,636.7c81.87,62.3,152.87,137.3,208.25,223.62"/>
    <path class="cls-4" d="M-35.95,569.88c28.91,19.12,54.91,40.12,80.91,64.12l15,12c59,54,109,109,152,178,3,5,8,9,11,14,4,8,9,14,13.19,22.34"/>
    <line class="cls-4" x1="782.48" y1="510.15" x2="777.65" y2="527.26"/>
    <polyline class="cls-4" points="704.81 506.2 705.69 506.64 708.32 507.51 712.27 508.39 718.41 510.15 725.43 512.34 734.21 514.97 743.86 517.61 754.39 520.68 765.8 523.75 777.65 527.26 794.33 532.09 799.15 514.97 782.48 510.15"/>
    <polyline class="cls-4" points="867.17 553.15 866.29 552.71 864.09 551.83 859.71 550.95 853.56 549.2 846.54 547.01 837.77 544.37 828.11 541.74 817.58 538.67 806.17 535.6 794.33 532.09"/>
    <polyline class="cls-4" points="872.43 536.04 871.12 535.6 869.8 541.3 868.48 544.37 867.61 547.01 866.29 548.32 865.41 548.76 864.97 547.88 864.53 546.13 864.53 543.06 865.41 539.98 866.73 534.28 861.46 532.96 854 530.77 852.25 536.04 850.93 539.11 849.18 541.74 846.98 543.06 844.35 543.06 842.15 541.74 840.84 539.11 840.4 536.04 840.84 532.96 842.15 527.26 831.62 524.19 819.78 521.12 818.46 526.38 816.7 529.45 814.51 531.65 811.44 532.52 807.93 532.52 805.3 530.77 803.1 528.14 801.79 525.07 802.22 521.99 803.98 516.29 799.15 514.97"/>
    <polyline class="cls-4" points="782.48 510.15 778.09 508.83 776.33 514.53 775.02 517.17 772.39 519.36 769.31 520.68 765.8 520.24 763.17 518.92 760.98 516.29 760.1 513.22 760.54 509.71 761.85 504.44 750.01 500.93 739.48 497.86 738.16 503.56 736.4 506.2 734.21 508.83 732.02 509.71 729.38 509.71 727.19 508.83 726.31 506.2 725.87 503.13 726.31 500.05 727.63 494.79 720.61 492.59 714.9 490.84 713.15 496.1 712.27 499.18 710.95 501.81 709.2 503.56 708.32 504 707.88 503.13 707.88 500.93 708.32 498.3 709.2 495.23 710.51 489.52 709.64 489.52"/>
    <line class="cls-4" x1="860.58" y1="532.09" x2="860.58" y2="532.52"/>
    <line class="cls-4" x1="869.8" y1="541.3" x2="868.48" y2="540.86"/>
    <line class="cls-4" x1="871.12" y1="535.6" x2="870.24" y2="535.6"/>
    <line class="cls-4" x1="860.58" y1="532.09" x2="860.58" y2="532.09"/>
    <line class="cls-4" x1="854" y1="530.77" x2="852.25" y2="530.33"/>
    <line class="cls-4" x1="763.61" y1="504.44" x2="763.61" y2="504.88"/>
    <line class="cls-4" x1="763.61" y1="504.44" x2="763.61" y2="504.44"/>
    <line class="cls-4" x1="760.54" y1="509.71" x2="762.29" y2="510.15"/>
    <line class="cls-4" x1="763.61" y1="504.88" x2="761.85" y2="504.44"/>
    <path class="cls-4" d="M766.56,520.41c-3.66-1.59-5.73-5.5-5-9.42"/>
    <line class="cls-4" x1="779.85" y1="508.83" x2="779.85" y2="509.27"/>
    <line class="cls-4" x1="763.61" y1="504.44" x2="763.61" y2="504.44"/>
    <line class="cls-4" x1="837.77" y1="525.5" x2="837.33" y2="525.94"/>
    <path class="cls-4" d="M846.51,535.14c-.95,2.66-2.74,4.76-4.77,5.59"/>
    <line class="cls-4" x1="852.25" y1="536.04" x2="850.93" y2="535.6"/>
    <line class="cls-4" x1="837.77" y1="525.5" x2="837.77" y2="525.5"/>
    <line class="cls-4" x1="819.78" y1="521.12" x2="818.02" y2="520.68"/>
    <line class="cls-4" x1="802.22" y1="515.41" x2="802.22" y2="515.85"/>
    <path class="cls-4" d="M816.11,526.21c-1.46,3.71-5.28,5.93-9.23,5.34"/>
    <line class="cls-4" x1="818.46" y1="526.38" x2="816.7" y2="525.94"/>
    <line class="cls-4" x1="818.02" y1="520.68" x2="818.02" y2="520.24"/>
    <line class="cls-4" x1="818.02" y1="520.24" x2="818.02" y2="520.24"/>
    <line class="cls-4" x1="818.02" y1="520.24" x2="818.02" y2="520.24"/>
    <line class="cls-4" x1="802.22" y1="515.41" x2="802.22" y2="515.41"/>
    <line class="cls-4" x1="709.2" y1="495.23" x2="710.08" y2="495.23"/>
    <line class="cls-4" x1="711.83" y1="489.96" x2="710.51" y2="489.52"/>
    <line class="cls-4" x1="721.48" y1="492.16" x2="721.48" y2="492.59"/>
    <line class="cls-4" x1="729.38" y1="495.23" x2="727.63" y2="494.79"/>
    <line class="cls-4" x1="726.31" y1="500.05" x2="728.07" y2="500.49"/>
    <path class="cls-4" d="M732.69,509.32c-1.28-1.79-1.68-4.51-1.08-7.27"/>
    <line class="cls-4" x1="744.3" y1="498.74" x2="744.3" y2="499.18"/>
    <line class="cls-4" x1="867.17" y1="553.15" x2="872.43" y2="536.04"/>
    <line class="cls-4" x1="704.81" y1="506.2" x2="709.64" y2="489.52"/>
    <line class="cls-4" x1="993.98" y1="66.52" x2="990.91" y2="65.64"/>
    <line class="cls-4" x1="987.4" y1="89.78" x2="984.33" y2="88.9"/>
    <polyline class="cls-4" points="990.91 65.64 990.91 66.08 990.47 66.52 990.03 67.84 989.59 69.15 988.71 70.91 987.84 72.66 987.4 74.86 986.52 77.05 986.08 79.24 985.2 81.44 985.2 83.63 984.76 85.39 984.33 87.14 984.33 88.02 984.33 88.9"/>
    <polyline class="cls-4" points="932.11 271.44 931.67 271.44 930.35 272.32 928.16 272.76 925.09 274.07 921.58 275.39 917.63 277.14 912.8 278.46 907.97 280.22 902.71 281.97 896.57 283.29 890.42 284.6 883.84 285.92 876.82 286.8 869.8 286.8 862.78 286.36 856.2 285.04 849.61 283.29 843.03 280.65 837.33 278.02 831.62 274.51 826.36 270.56 821.53 266.61 817.14 262.66 813.19 259.15 809.68 255.64 806.17 252.13 803.54 249.06 800.91 246.43 799.15 244.23 797.84 242.92 796.96 241.6"/>
    <polyline class="cls-4" points="774.58 448.28 775.46 445.2 776.33 441.69 777.65 437.31 778.97 432.48 785.11 411.42"/>
    <line class="cls-4" x1="760.1" y1="482.5" x2="761.85" y2="482.06"/>
    <polyline class="cls-4" points="762.29 481.62 763.17 480.75 764.05 479.87 764.93 478.55 766.68 475.92 767.56 472.85 768.44 471.09 768.88 468.46 769.31 467.14"/>
    <polyline class="cls-4" points="728.51 484.7 731.58 485.13 735.53 485.13 739.91 484.7 745.18 483.82 752.64 483.38 760.1 482.5"/>
  </g>
  <g>
    <path class="cls-5" d="M833.81,704.94c0-7.49,4.75-13.06,11.57-13.06s10.7,5.33,10.7,12.29v1.44h-18.15c.24,5.28,3.26,8.64,7.63,8.64,3.36,0,5.76-1.82,6.53-4.8l3.79,1.34c-1.54,4.46-5.33,7.2-10.32,7.2-6.96,0-11.76-5.33-11.76-13.06ZM838.18,702.3h13.54c-.1-3.55-2.02-6.72-6.38-6.72-3.65,0-6.38,2.45-7.15,6.72Z"/>
    <path class="cls-5" d="M868.57,707.58l-6.91,9.89h-4.7l9.17-13.11-8.4-12h4.94l6.05,8.79,6.14-8.79h4.75l-8.4,12,9.22,13.11h-4.9l-6.96-9.89Z"/>
    <path class="cls-5" d="M893.01,714.2c3.46,0,5.52-2.21,6.24-5.33l3.84,1.78c-1.2,4.18-4.85,7.34-10.08,7.34-7.01,0-11.86-5.33-11.86-13.06s4.85-13.06,11.86-13.06c5.23,0,8.79,3.02,9.98,7.2l-3.74,1.87c-.72-3.07-2.78-5.33-6.24-5.33-4.46,0-7.54,3.55-7.54,9.31s3.07,9.26,7.54,9.26Z"/>
    <path class="cls-5" d="M905.83,704.94c0-7.49,4.75-13.06,11.57-13.06s10.71,5.33,10.71,12.29v1.44h-18.15c.24,5.28,3.26,8.64,7.63,8.64,3.36,0,5.76-1.82,6.53-4.8l3.79,1.34c-1.54,4.46-5.33,7.2-10.32,7.2-6.96,0-11.76-5.33-11.76-13.06ZM910.2,702.3h13.54c-.1-3.55-2.02-6.72-6.38-6.72-3.65,0-6.38,2.45-7.15,6.72Z"/>
    <path class="cls-5" d="M932.99,692.36h4.32v3.41c1.44-2.06,3.94-3.89,7.49-3.89,5.33,0,8.35,3.7,8.35,9.02v16.56h-4.32v-15.41c0-3.5-1.49-6.14-5.23-6.14-3.12,0-6.29,2.4-6.29,6.58v14.98h-4.32v-25.11Z"/>
    <path class="cls-5" d="M960.12,696.06h-3.89v-3.7h3.89v-7.34h4.27v7.34h5.71v3.7h-5.71v14.74c0,2.64,1.3,3.12,3.5,3.12,1.01,0,1.73-.05,2.74-.29v3.7c-1.1.24-2.35.38-3.79.38-4.27,0-6.72-1.44-6.72-6.24v-15.41Z"/>
    <path class="cls-5" d="M972.84,704.94c0-7.49,4.75-13.06,11.57-13.06s10.7,5.33,10.7,12.29v1.44h-18.15c.24,5.28,3.26,8.64,7.63,8.64,3.36,0,5.76-1.82,6.53-4.8l3.79,1.34c-1.54,4.46-5.33,7.2-10.32,7.2-6.96,0-11.76-5.33-11.76-13.06ZM977.21,702.3h13.54c-.1-3.55-2.02-6.72-6.38-6.72-3.65,0-6.38,2.45-7.15,6.72Z"/>
    <path class="cls-5" d="M1013.01,696.64c-.72-.14-1.3-.19-2.11-.19-3.65,0-6.58,2.88-6.58,7.3v13.73h-4.32v-25.11h4.32v4.27c1.1-2.54,3.55-4.46,6.96-4.46.67,0,1.3.05,1.73.1v4.37Z"/>
    <path class="cls-5" d="M1032.69,717.47h-4.32v-25.11h4.32v3.41c1.34-2.06,3.74-3.89,7.25-3.89s5.71,1.68,6.96,4.27c1.39-2.06,4.08-4.27,8.02-4.27,5.18,0,8.3,3.7,8.3,9.02v16.56h-4.32v-15.41c0-3.5-1.44-6.14-4.99-6.14-2.88,0-5.95,2.45-5.95,6.53v15.03h-4.32v-15.41c0-3.5-1.44-6.14-4.99-6.14-2.88,0-5.95,2.45-5.95,6.53v15.03Z"/>
    <path class="cls-5" d="M1067.72,710.7c0-4.99,3.89-7.06,9.5-8.21l6.1-1.25v-1.06c0-2.88-1.58-4.51-4.94-4.51-3.17,0-5.04,1.49-5.81,4.27l-4.08-1.06c1.2-4.08,4.9-7.01,10.03-7.01,5.62,0,9.07,2.74,9.07,8.11v12.24c0,1.63,1.01,2.16,2.69,1.78v3.46c-3.84.48-6.05-.43-6.58-2.83-1.54,1.97-4.32,3.26-7.73,3.26-4.56,0-8.26-2.69-8.26-7.2ZM1083.32,704.6l-4.9,1.06c-3.84.77-6.43,1.82-6.43,4.85,0,2.45,1.78,3.89,4.51,3.89,3.7,0,6.82-2.26,6.82-5.47v-4.32Z"/>
    <path class="cls-5" d="M1107.4,696.64c-.72-.14-1.3-.19-2.11-.19-3.65,0-6.58,2.88-6.58,7.3v13.73h-4.32v-25.11h4.32v4.27c1.1-2.54,3.55-4.46,6.96-4.46.67,0,1.3.05,1.73.1v4.37Z"/>
    <path class="cls-5" d="M1115.63,704.08l11.14-11.71h5.38l-9.79,9.89,10.61,15.22h-5.04l-8.64-12.1-3.65,3.7v8.4h-4.32v-34.47h4.32v21.07Z"/>
  </g>
  <g>
    <path class="cls-5" d="M538.56,772.83c-.72-.1-1.15-.1-1.87-.1-2.54,0-3.94,1.1-3.94,4.32v1.73h5.57v3.7h-5.57v21.41h-4.32v-21.41h-3.79v-3.7h3.79v-2.02c0-4.9,2.69-7.87,7.82-7.87.86,0,1.34.05,2.3.1v3.84Z"/>
    <path class="cls-5" d="M551.6,804.42c-6.86,0-11.67-5.28-11.67-13.06s4.8-13.06,11.67-13.06,11.67,5.28,11.67,13.06-4.8,13.06-11.67,13.06ZM551.6,800.72c4.42,0,7.3-3.65,7.3-9.36s-2.88-9.41-7.3-9.41-7.3,3.65-7.3,9.41,2.88,9.36,7.3,9.36Z"/>
    <path class="cls-5" d="M581.13,783.06c-.72-.14-1.3-.19-2.11-.19-3.65,0-6.58,2.88-6.58,7.3v13.73h-4.32v-25.11h4.32v4.27c1.1-2.54,3.55-4.46,6.96-4.46.67,0,1.3.05,1.73.1v4.37Z"/>
    <path class="cls-5" d="M602.22,778.78l5.18,18.72,5.23-18.72h4.32l-7.63,25.11h-3.79l-5.23-18.63-5.23,18.63h-3.79l-7.63-25.11h4.46l5.28,18.67,5.18-18.67h3.65Z"/>
    <path class="cls-5" d="M618.45,797.12c0-4.99,3.89-7.06,9.5-8.21l6.1-1.25v-1.06c0-2.88-1.58-4.51-4.94-4.51-3.17,0-5.04,1.49-5.81,4.27l-4.08-1.06c1.2-4.08,4.9-7.01,10.03-7.01,5.62,0,9.07,2.74,9.07,8.11v12.24c0,1.63,1.01,2.16,2.69,1.78v3.46c-3.84.48-6.05-.43-6.58-2.83-1.54,1.97-4.32,3.26-7.73,3.26-4.56,0-8.26-2.69-8.26-7.2ZM634.05,791.02l-4.9,1.06c-3.84.77-6.43,1.82-6.43,4.85,0,2.45,1.78,3.89,4.51,3.89,3.7,0,6.82-2.26,6.82-5.47v-4.32Z"/>
    <path class="cls-5" d="M658.13,783.06c-.72-.14-1.3-.19-2.11-.19-3.65,0-6.58,2.88-6.58,7.3v13.73h-4.32v-25.11h4.32v4.27c1.1-2.54,3.55-4.46,6.96-4.46.67,0,1.3.05,1.73.1v4.37Z"/>
    <path class="cls-5" d="M660.31,791.36c0-7.15,3.98-13.06,10.94-13.06,3.5,0,6.29,1.68,7.78,4.13v-13.01h4.32v34.47h-4.32v-3.65c-1.49,2.5-4.27,4.18-7.78,4.18-6.96,0-10.94-5.95-10.94-13.06ZM672.02,782.1c-4.7,0-7.34,3.84-7.34,9.26s2.64,9.26,7.34,9.26c3.55,0,7.1-2.59,7.1-8.35v-1.78c0-5.86-3.55-8.4-7.1-8.4Z"/>
    <path class="cls-5" d="M711.91,768.46h4.42l-13.92,40.13h-4.42l13.92-40.13Z"/>
    <path class="cls-5" d="M744.02,783.06c-.72-.14-1.3-.19-2.11-.19-3.65,0-6.58,2.88-6.58,7.3v13.73h-4.32v-25.11h4.32v4.27c1.1-2.54,3.55-4.46,6.96-4.46.67,0,1.3.05,1.73.1v4.37Z"/>
    <path class="cls-5" d="M747.74,769.42h4.7v4.99h-4.7v-4.99ZM752.26,803.89h-4.32v-25.11h4.32v25.11Z"/>
    <path class="cls-5" d="M757.07,791.36c0-7.15,3.98-13.06,10.94-13.06,3.5,0,6.29,1.68,7.78,4.13v-13.01h4.32v34.47h-4.32v-3.65c-1.49,2.5-4.27,4.18-7.78,4.18-6.96,0-10.94-5.95-10.94-13.06ZM768.79,782.1c-4.7,0-7.34,3.84-7.34,9.26s2.64,9.26,7.34,9.26c3.55,0,7.1-2.59,7.1-8.35v-1.78c0-5.86-3.55-8.4-7.1-8.4Z"/>
    <path class="cls-5" d="M786.23,769.42h4.71v4.99h-4.71v-4.99ZM790.74,803.89h-4.32v-25.11h4.32v25.11Z"/>
    <path class="cls-5" d="M797.02,778.78h4.32v3.41c1.44-2.06,3.94-3.89,7.49-3.89,5.33,0,8.35,3.7,8.35,9.02v16.56h-4.32v-15.41c0-3.5-1.49-6.14-5.23-6.14-3.12,0-6.29,2.4-6.29,6.58v14.98h-4.32v-25.11Z"/>
    <path class="cls-5" d="M833.09,813.06c-5.52,0-9.55-2.54-10.94-7.15l4.03-1.54c.82,3.22,3.41,5.09,6.91,5.09,4.42,0,7.34-2.26,7.34-7.49v-2.83c-1.34,2.45-4.18,4.18-7.68,4.18-6.86,0-10.9-5.66-10.9-12.53s4.03-12.48,10.9-12.48c3.46,0,6.34,1.73,7.68,4.18v-3.7h4.32v22.85c0,7.34-4.85,11.42-11.67,11.42ZM833.52,782.1c-4.56,0-7.34,3.41-7.34,8.69s2.78,8.74,7.34,8.74c3.6,0,6.96-2.69,6.96-8.21v-.91c0-5.62-3.36-8.3-6.96-8.3Z"/>
    <path class="cls-5" d="M860.83,791.36c0-7.15,3.98-13.06,10.95-13.06,3.5,0,6.29,1.68,7.78,4.13v-13.01h4.32v34.47h-4.32v-3.65c-1.49,2.5-4.27,4.18-7.78,4.18-6.96,0-10.95-5.95-10.95-13.06ZM872.55,782.1c-4.7,0-7.34,3.84-7.34,9.26s2.64,9.26,7.34,9.26c3.55,0,7.1-2.59,7.1-8.35v-1.78c0-5.86-3.55-8.4-7.1-8.4Z"/>
    <path class="cls-5" d="M889.99,769.42h4.7v4.99h-4.7v-4.99ZM894.5,803.89h-4.32v-25.11h4.32v25.11Z"/>
    <path class="cls-5" d="M913.79,783.06c-.72-.14-1.3-.19-2.11-.19-3.65,0-6.58,2.88-6.58,7.3v13.73h-4.32v-25.11h4.32v4.27c1.1-2.54,3.55-4.46,6.96-4.46.67,0,1.3.05,1.73.1v4.37Z"/>
    <path class="cls-5" d="M915.87,791.36c0-7.49,4.75-13.06,11.57-13.06s10.71,5.33,10.71,12.29v1.44h-18.15c.24,5.28,3.26,8.64,7.63,8.64,3.36,0,5.76-1.82,6.53-4.8l3.79,1.34c-1.54,4.46-5.33,7.2-10.32,7.2-6.96,0-11.76-5.33-11.76-13.06ZM920.24,788.72h13.54c-.1-3.55-2.02-6.72-6.38-6.72-3.65,0-6.38,2.45-7.15,6.72Z"/>
    <path class="cls-5" d="M953.41,800.62c3.46,0,5.52-2.21,6.24-5.33l3.84,1.78c-1.2,4.18-4.85,7.34-10.08,7.34-7.01,0-11.86-5.33-11.86-13.06s4.85-13.06,11.86-13.06c5.23,0,8.78,3.02,9.98,7.2l-3.74,1.87c-.72-3.07-2.78-5.33-6.24-5.33-4.46,0-7.54,3.55-7.54,9.31s3.07,9.26,7.54,9.26Z"/>
    <path class="cls-5" d="M969.3,782.48h-3.89v-3.7h3.89v-7.34h4.27v7.34h5.71v3.7h-5.71v14.74c0,2.64,1.3,3.12,3.5,3.12,1.01,0,1.73-.05,2.74-.29v3.7c-1.1.24-2.35.38-3.79.38-4.27,0-6.72-1.44-6.72-6.24v-15.41Z"/>
    <path class="cls-5" d="M983.71,769.42h4.7v4.99h-4.7v-4.99ZM988.22,803.89h-4.32v-25.11h4.32v25.11Z"/>
    <path class="cls-5" d="M1004.62,804.42c-6.86,0-11.67-5.28-11.67-13.06s4.8-13.06,11.67-13.06,11.67,5.28,11.67,13.06-4.8,13.06-11.67,13.06ZM1004.62,800.72c4.42,0,7.3-3.65,7.3-9.36s-2.88-9.41-7.3-9.41-7.3,3.65-7.3,9.41,2.88,9.36,7.3,9.36Z"/>
    <path class="cls-5" d="M1021.14,778.78h4.32v3.41c1.44-2.06,3.94-3.89,7.49-3.89,5.33,0,8.35,3.7,8.35,9.02v16.56h-4.32v-15.41c0-3.5-1.49-6.14-5.23-6.14-3.12,0-6.29,2.4-6.29,6.58v14.98h-4.32v-25.11Z"/>
  </g>
  <g>
    <line class="cls-2" x1="230.55" y1="792.4" x2="483.26" y2="792.4"/>
    <path class="cls-5" d="M251.06,806.8c.45-.7.24-1.63-.46-2.07l-19.36-12.33,19.36-12.33c.7-.45.91-1.37.46-2.07s-1.38-.9-2.07-.46l-21.34,13.59c-.43.28-.69.75-.69,1.27s.26.99.69,1.27l21.34,13.59c.25.16.53.23.81.23.5,0,.98-.25,1.27-.69Z"/>
  </g>
  <g>
    <path class="cls-1" d="M790.82,540.39c22.44,46.13,44.88,92.25,67.32,138.38"/>
    <path class="cls-5" d="M786.84,565.13c.82.1,1.57-.5,1.66-1.32l2.62-22.8,19.55,12.01c.71.43,1.63.22,2.07-.49.43-.71.21-1.63-.49-2.07l-21.56-13.25c-.44-.27-.98-.29-1.44-.07s-.78.67-.83,1.18l-2.89,25.14c-.03.3.02.58.14.83.22.45.65.77,1.18.84Z"/>
  </g>
</svg>