<?xml version="1.0" encoding="utf-8"?>
<svg xmlns="http://www.w3.org/2000/svg" xmlns:xlink="http://www.w3.org/1999/xlink" id="Ebene_1" data-name="Ebene 1" viewBox="0 0 1191 842">
  <defs>
    <style>
      .cls-1, .cls-2, .cls-3, .cls-4, .cls-5, .cls-6, .cls-7, .cls-8, .cls-9, .cls-10, .cls-11, .cls-12, .cls-13, .cls-14, .cls-15, .cls-16, .cls-17, .cls-18, .cls-19, .cls-20, .cls-21 {
        fill: none;
      }

      .cls-2 {
        stroke: #2e2e2f;
        stroke-miterlimit: 10;
        stroke-width: 3px;
      }

      .cls-22 {
        fill: #2e2e2f;
      }

      .cls-3 {
        stroke-width: .72px;
      }

      .cls-3, .cls-4, .cls-5, .cls-6, .cls-7, .cls-8, .cls-9, .cls-10, .cls-11, .cls-12, .cls-13, .cls-14, .cls-15, .cls-16, .cls-17, .cls-18, .cls-19, .cls-20, .cls-21 {
        stroke: #000;
        stroke-linecap: round;
        stroke-linejoin: round;
      }

      .cls-4 {
        stroke-width: .72px;
      }

      .cls-5 {
        stroke-width: .72px;
      }

      .cls-6 {
        stroke-width: .72px;
      }

      .cls-7 {
        stroke-width: 1.44px;
      }

      .cls-8 {
        stroke-width: 1.44px;
      }

      .cls-9 {
        stroke-width: 1.44px;
      }

      .cls-10 {
        stroke-width: 1.44px;
      }

      .cls-11 {
        stroke-width: 1.44px;
      }

      .cls-12 {
        stroke-width: 1.44px;
      }

      .cls-13 {
        stroke-width: 1.44px;
      }

      .cls-14 {
        stroke-width: 1.44px;
      }

      .cls-15 {
        stroke-width: 1.44px;
      }

      .cls-16 {
        stroke-width: 1.44px;
      }

      .cls-17 {
        stroke-width: 1.44px;
      }

      .cls-18 {
        stroke-width: 1.44px;
      }

      .cls-19 {
        stroke-width: 1.44px;
      }

      .cls-20 {
        stroke-width: 1.44px;
      }

      .cls-21 {
        stroke-width: 1.44px;
      }

      .cls-23 {
        clip-path: url(#clippath);
      }
    </style>
    <clipPath id="clippath">
      <polyline class="cls-1" points="-1949.01 4894.98 5137.61 4894.98 5137.61 -2542.22 -1949.01 -2542.22 -1949.01 4894.98"/>
    </clipPath>
  </defs>
  <g class="cls-23">
    <polyline class="cls-21" points="688.12 488.73 687.45 490.08 686.77 490.08"/>
    <polyline class="cls-21" points="686.1 501.56 685.42 500.89 685.42 500.21 684.75 499.53 684.75 498.18 684.75 497.51 684.07 496.83 684.07 496.16 684.07 495.48 684.07 494.13 684.75 493.46 685.42 492.1 686.1 490.75 687.45 489.4"/>
    <polyline class="cls-21" points="691.5 486.03 691.5 485.35 692.18 485.35 693.53 484.67 694.2 484 695.55 483.32 696.23 483.32 697.58 482.65 698.93 482.65 699.61 482.65 700.28 482.65 700.28 483.32 700.28 484 700.96 484.67 700.96 485.35 700.96 486.03 701.63 486.7 702.31 487.38 702.31 488.05 702.31 488.73 701.63 489.4 700.96 490.08 700.28 490.75 698.93 492.1 698.26 492.78 697.58 494.13 696.91 495.48 696.23 496.83 695.55 497.51 695.55 498.18 694.2 498.18 693.53 498.18 692.18 498.86 691.5 498.86 690.15 499.53 688.8 499.53 688.12 500.21 686.77 500.89 686.1 501.56"/>
    <path class="cls-10" d="M684.64,495.26c-1.8,4.97.88,7.44,5.98,5.51,5.1-1.93,10.69-7.53,12.48-12.5,1.8-4.97-.88-7.44-5.98-5.51-5.1,1.93-10.69,7.53-12.48,12.5"/>
    <path class="cls-3" d="M675.51,505.4c.06.06.11.12.17.18"/>
    <path class="cls-3" d="M708,473.9c-.06-.06-.12-.12-.18-.17"/>
    <path class="cls-3" d="M680.46,493.32c-3.72,6.91-3.05,12.53,1.65,13.79,4.69,1.26,12.28-2.14,18.61-8.35,6.33-6.21,9.89-13.73,8.72-18.45-1.17-4.72-6.78-5.5-13.76-1.92"/>
    <line class="cls-21" x1="696.91" y1="483.32" x2="702.31" y2="488.73"/>
    <line class="cls-21" x1="687.45" y1="490.08" x2="695.55" y2="498.18"/>
    <line class="cls-21" x1="675.29" y1="506.29" x2="675.29" y2="506.29"/>
    <polyline class="cls-21" points="675.29 506.29 675.97 506.97 676.64 506.97 677.32 507.64 677.99 507.64 678.67 508.32 679.34 508.32 680.02 508.32 680.69 508.32 682.72 508.32 684.07 508.32 685.42 508.32 687.45 507.64 688.8 506.97 690.83 506.29 692.18 505.61 694.2 504.26 695.55 502.91 696.91 502.24 698.93 500.89 700.28 499.53 701.63 497.51 702.99 496.16 704.34 494.81 705.69 492.78 706.36 491.43 707.71 489.4 708.39 488.05 709.07 486.03 709.74 484.67 709.74 483.32 710.42 481.3 709.74 479.95 709.74 479.27 709.74 478.59 709.74 477.92 709.74 477.24 709.07 476.57 708.39 475.89 708.39 475.22 707.71 474.54"/>
    <line class="cls-21" x1="480.07" y1="345.52" x2="480.75" y2="345.52"/>
    <path class="cls-11" d="M472.06,330.76c2.27,4.8,5.07,9.56,8.37,14.25"/>
    <line class="cls-21" x1="482.77" y1="337.42" x2="480.07" y2="345.52"/>
    <path class="cls-11" d="M483.13,337.58c7.19,10.19,16.67,19.89,27.99,28.62"/>
    <line class="cls-21" x1="508.44" y1="373.89" x2="510.47" y2="366.46"/>
    <line class="cls-21" x1="524.65" y1="385.38" x2="527.36" y2="383.35"/>
    <path class="cls-11" d="M508.43,373.63c5.21,4.02,10.78,7.8,16.66,11.33"/>
    <line class="cls-21" x1="527.36" y1="377.95" x2="524.65" y2="385.38"/>
    <path class="cls-11" d="M527.78,377.53c12.78,7.67,26.84,13.99,41.53,18.67"/>
    <line class="cls-21" x1="566.54" y1="404.29" x2="569.24" y2="396.18"/>
    <polyline class="cls-21" points="567.89 396.18 567.21 398.21 566.54 404.29"/>
    <path class="cls-11" d="M566.61,403.63c6.75,2.15,13.59,3.95,20.46,5.36"/>
    <line class="cls-21" x1="589.5" y1="401.59" x2="586.8" y2="409.69"/>
    <path class="cls-11" d="M589.78,401.57c14.94,3.08,29.83,4.34,43.94,3.73"/>
    <polyline class="cls-21" points="630.03 411.72 630.71 413.07 633.41 405.64"/>
    <path class="cls-11" d="M631.01,412.72c6.48-.28,12.77-.97,18.8-2.03"/>
    <line class="cls-21" x1="652.32" y1="403.61" x2="649.62" y2="411.05"/>
    <path class="cls-11" d="M652.51,403.26c13.11-2.33,24.82-6.47,34.57-12.22"/>
    <polyline class="cls-21" points="684.07 398.89 684.75 398.89 686.77 391.46"/>
    <path class="cls-11" d="M684.38,398.47c4.49-2.65,8.53-5.62,12.1-8.89"/>
    <line class="cls-21" x1="698.93" y1="382.67" x2="696.91" y2="390.1"/>
    <path class="cls-11" d="M699.19,382.14c3.63-3.33,6.75-6.95,9.33-10.83"/>
    <path class="cls-11" d="M470.46,277.49c-.18.53-.34,1.05-.5,1.59"/>
    <line class="cls-21" x1="466.56" y1="286.75" x2="469.26" y2="279.32"/>
    <path class="cls-4" d="M472.87,271.98c-10.13,38.78,25.24,85.17,83.41,109.42,58.17,24.25,121.89,19.15,150.26-12.02"/>
    <path class="cls-11" d="M467.25,286.51c-.99,3.31-1.64,6.72-1.96,10.22"/>
    <line class="cls-21" x1="467.24" y1="292.83" x2="466.56" y2="294.86"/>
    <path class="cls-11" d="M467.81,292.44c-.33,9.99,2.03,20.46,6.96,30.9"/>
    <line class="cls-21" x1="471.29" y1="331.34" x2="473.99" y2="323.23"/>
    <path class="cls-4" d="M477.13,276.96c-.76,36.34,34.81,75.51,86.96,95.74,52.14,20.23,108.04,16.54,136.61-9.01"/>
    <path class="cls-11" d="M505.23,267.83c6.63,25.88,32.46,51.13,67.6,66.08,35.14,14.95,74.14,17.29,102.06,6.12"/>
    <path class="cls-4" d="M504.56,269.87c6.72,26.2,33.1,51.72,68.83,66.58,35.73,14.86,75.11,16.71,102.75,4.8"/>
    <path class="cls-4" d="M488.37,285.3c7.1,31.9,41.24,63.05,86.22,78.67,44.98,15.62,91.74,12.57,118.11-7.71"/>
    <line class="cls-21" x1="471.97" y1="271.89" x2="469.94" y2="277.97"/>
    <polyline class="cls-6" points="-42.09 98.97 -29.93 92.89 -18.44 84.78 -8.99 74.65 -.2 62.49"/>
    <polyline class="cls-21" points="6.55 59.79 -3.58 72.62 -15.07 83.43 -27.9 92.21 -42.09 98.97 -57.62 102.34 -73.16 103.69 -89.37 103.02 -104.91 98.97"/>
    <line class="cls-21" x1="407.79" y1="-81.39" x2="-157.59" y2="117.88"/>
    <line class="cls-21" x1="596.26" y1="-260.4" x2="-192.72" y2="17.23"/>
    <line class="cls-21" x1="804.31" y1="425.91" x2="805.66" y2="427.93"/>
    <polyline class="cls-21" points="798.23 436.71 797.55 434.69 796.88 432.66 796.2 430.63 794.85 428.61 796.2 426.58 796.88 425.23 797.55 423.88 797.55 421.85 800.93 422.53 802.96 423.88"/>
    <polyline class="cls-21" points="806.34 434.69 805.66 436.71 804.31 439.42 802.96 438.06 801.61 438.06 800.26 437.39 798.23 436.71"/>
    <path class="cls-16" d="M806.89,434.21c.32-4.74-2.24-10.34-5.72-12.5-3.47-2.16-6.55-.07-6.86,4.67-.32,4.74,2.24,10.34,5.72,12.5s6.55.07,6.86-4.67"/>
    <path class="cls-16" d="M811.71,416.96c-7.05-11.32-17.51-15.08-23.78-8.55-6.27,6.54-6.15,21.07.28,33.05,6.43,11.98,16.9,17.19,23.81,11.84"/>
    <line class="cls-21" x1="794.85" y1="428.61" x2="803.63" y2="425.23"/>
    <line class="cls-21" x1="806.34" y1="434.01" x2="798.23" y2="436.71"/>
    <line class="cls-21" x1="791.48" y1="406.32" x2="794.18" y2="405.64"/>
    <line class="cls-21" x1="809.04" y1="454.95" x2="811.06" y2="454.28"/>
    <path class="cls-16" d="M805.09,455.06c1.45.32,2.85.36,4.19.13"/>
    <path class="cls-16" d="M791.79,405.02c-1.24.66-2.36,1.6-3.33,2.8"/>
    <polyline class="cls-21" points="806.34 411.05 802.96 408.34 798.91 406.32 795.53 405.64 792.15 405.64 788.77 406.99 786.07 409.02 783.37 411.72 782.02 415.1 781.34 419.15 781.34 423.88 782.02 429.28 783.37 434.01 785.4 438.74 788.1 443.47 790.8 447.52 794.18 450.9 796.88 453.6 800.26 455.63 803.63 456.3 806.34 456.98 809.04 455.63 811.06 453.6 813.09 450.9 814.44 447.52 815.79 443.47 815.79 438.74 815.79 433.34 815.12 428.61 813.77 423.2 811.74 418.48 809.04 414.42 806.34 411.05"/>
    <path class="cls-19" d="M862.45,400.21c-2.73-.38-6.74,1.81-9.68,5.28-2.93,3.47-4,7.28-2.57,9.2"/>
    <path class="cls-19" d="M824.54,346.2c-.2-.19-.56-.19-1.02,0"/>
    <line class="cls-6" x1="834.71" y1="357.01" x2="823.22" y2="346.2"/>
    <path class="cls-18" d="M836.27,359.19c.26-.86.24-1.65-.07-2.13-.31-.48-.86-.6-1.5-.33"/>
    <line class="cls-21" x1="838.08" y1="486.7" x2="829.98" y2="479.27"/>
    <path class="cls-19" d="M840.14,486.78c-.19-.3-.67-.3-1.27,0"/>
    <path class="cls-18" d="M841.48,491.99c-.56-.59-1.59-.31-2.49.68"/>
    <line class="cls-21" x1="847.54" y1="501.56" x2="838.76" y2="492.78"/>
    <path class="cls-19" d="M850.25,501.86c.23-.61.11-1.03-.31-1.1s-1.08.21-1.72.75"/>
    <line class="cls-6" x1="785.4" y1="457.65" x2="789.45" y2="455.63"/>
    <polyline class="cls-21" points="800.93 473.19 799.58 469.14 798.23 465.76 795.53 461.71 792.83 458.33 790.12 456.3 788.1 455.63 786.07 455.63 785.4 457.65"/>
    <path class="cls-17" d="M783.98,469.86c.88,2.72,2.33,5.06,4.33,7.01"/>
    <path class="cls-17" d="M788.5,476.83c1,.96,3.35.87,6.51-.27"/>
    <line class="cls-21" x1="800.93" y1="474.54" x2="794.85" y2="476.57"/>
    <path class="cls-17" d="M798.12,464.4c-2.48,2.66-3.6,5-3.04,6.31s2.75,1.43,5.89.32"/>
    <path class="cls-17" d="M785.11,457.06c-1.01,3.29-1.63,6.38-1.87,9.25"/>
    <path class="cls-17" d="M783.91,466.42c-.09,1.24.03,2.35.35,3.34"/>
    <polyline class="cls-21" points="806.34 390.1 806.34 393.48 807.01 396.18 808.36 399.56 810.39 401.59 813.09 403.61 815.12 404.29 817.82 404.29 820.52 403.61"/>
    <line class="cls-6" x1="790.12" y1="373.89" x2="806.34" y2="390.1"/>
    <path class="cls-19" d="M790.46,374.2c-16.75,30.49-23.61,59.29-19.25,80.86"/>
    <line class="cls-6" x1="783.37" y1="466.44" x2="771.21" y2="454.95"/>
    <path class="cls-18" d="M801.55,472.65c1.15,5.42,2.64,10.59,4.45,15.47"/>
    <line class="cls-6" x1="817.14" y1="500.21" x2="805.66" y2="488.73"/>
    <path class="cls-19" d="M836.4,419.46c-16.75,30.49-23.61,59.29-19.25,80.86"/>
    <line class="cls-6" x1="820.52" y1="403.61" x2="836.06" y2="419.15"/>
    <line class="cls-21" x1="829.3" y1="481.3" x2="834.03" y2="472.52"/>
    <path class="cls-19" d="M772.11,454.7c.34,1.66.87,3.18,1.58,4.54"/>
    <line class="cls-6" x1="783.37" y1="469.81" x2="773.24" y2="459.68"/>
    <path class="cls-19" d="M773.38,459.3c2.01,3.82,4.51,7.2,7.48,10.12"/>
    <path class="cls-17" d="M829.11,395.59c-2.11,1.89-4.11,3.8-5.97,5.69"/>
    <line class="cls-21" x1="820.52" y1="403.61" x2="823.22" y2="401.59"/>
    <path class="cls-19" d="M843.1,409.07c-2.42,3.27-4.56,6.61-6.38,9.94"/>
    <line class="cls-6" x1="829.3" y1="395.51" x2="842.81" y2="409.02"/>
    <path class="cls-15" d="M820.6,386.01c1.93,4.11,4.84,8.12,7.7,10.63"/>
    <polyline class="cls-21" points="818.5 382 819.17 384.03 820.52 386.05"/>
    <line class="cls-6" x1="818.5" y1="382" x2="807.01" y2="386.05"/>
    <line class="cls-21" x1="807.01" y1="386.05" x2="806.34" y2="390.1"/>
    <path class="cls-18" d="M810.94,377.04c-1.28,2.73-2.41,5.5-3.37,8.3"/>
    <line class="cls-6" x1="796.88" y1="364.44" x2="810.39" y2="377.95"/>
    <path class="cls-19" d="M797.16,363.82c-2.42,3.27-4.56,6.61-6.38,9.94"/>
    <path class="cls-19" d="M801.02,357.75c-1.46,1.88-2.89,3.76-4.28,5.66"/>
    <path class="cls-19" d="M813.16,349.6c-4.03,1.47-8.43,4.88-11.69,9.04"/>
    <line class="cls-21" x1="813.09" y1="349.57" x2="823.22" y2="346.2"/>
    <path class="cls-18" d="M833.52,498.75c1.21-.82,2.36-1.89,3.4-3.14"/>
    <line class="cls-21" x1="838.76" y1="492.78" x2="836.06" y2="496.16"/>
    <path class="cls-18" d="M808.37,493.91c3.11,4.89,6.64,9.29,10.57,13.16"/>
    <path class="cls-18" d="M805.5,488.22c.78,2.1,1.73,4.03,2.85,5.79"/>
    <line class="cls-6" x1="818.5" y1="504.94" x2="808.36" y2="494.13"/>
    <path class="cls-19" d="M817.37,499.96c.34,1.66.87,3.18,1.58,4.54"/>
    <path class="cls-19" d="M819.31,504.56c2.03,3.85,4.56,7.26,7.56,10.2"/>
    <path class="cls-19" d="M826.62,514.58c1.5,1.46,4.14,1.63,7.34.47"/>
    <line class="cls-21" x1="843.49" y1="511.69" x2="834.03" y2="515.75"/>
    <path class="cls-19" d="M843.91,511.68c2.06-.79,4.29-3.09,4.99-5.14"/>
    <line class="cls-21" x1="848.89" y1="506.29" x2="850.24" y2="502.24"/>
    <line class="cls-21" x1="844.84" y1="504.26" x2="847.54" y2="501.56"/>
    <path class="cls-19" d="M835.25,496.3c-3.58,4.71-4.38,9.51-1.9,11.4,2.48,1.9,7.53.34,12-3.69"/>
    <line class="cls-21" x1="834.71" y1="496.83" x2="839.43" y2="490.08"/>
    <path class="cls-19" d="M839.6,489.24c.56-.74.76-1.45.53-1.79"/>
    <path class="cls-19" d="M840.25,486.41c.15.21.29.43.44.64"/>
    <line class="cls-21" x1="833.36" y1="488.73" x2="838.08" y2="486.7"/>
    <path class="cls-19" d="M829.5,480.76c-1.54,2.6-1.96,5.06-1.12,6.57.84,1.51,2.83,1.88,5.32.98"/>
    <path class="cls-19" d="M834.37,472.12c.15-.22.26-.44.34-.65"/>
    <line class="cls-21" x1="850.24" y1="421.18" x2="834.71" y2="471.84"/>
    <path class="cls-19" d="M850.25,420.8c.08-.21.12-.39.12-.56"/>
    <line class="cls-21" x1="849.57" y1="415.1" x2="850.24" y2="420.5"/>
    <line class="cls-21" x1="865.1" y1="399.56" x2="862.4" y2="400.24"/>
    <path class="cls-19" d="M865.3,398.95c.8-.26,1.77-1.11,2.29-2.01"/>
    <line class="cls-21" x1="869.83" y1="392.81" x2="867.81" y2="397.54"/>
    <path class="cls-19" d="M870.29,392.21c.33-.56.42-1.06.26-1.34-.16-.28-.57-.31-1.09-.09"/>
    <line class="cls-21" x1="859.02" y1="394.83" x2="868.48" y2="390.78"/>
    <path class="cls-19" d="M859.1,394.18c-4.03,1.47-8.43,4.88-11.7,9.04"/>
    <path class="cls-19" d="M846.95,403.01c-1.46,1.88-2.89,3.76-4.28,5.66"/>
    <line class="cls-6" x1="833.36" y1="488.73" x2="827.95" y2="483.32"/>
    <path class="cls-7" d="M834.64,390.77c-1.8,1.55-3.57,3.1-5.32,4.66"/>
    <line class="cls-6" x1="834.03" y1="391.46" x2="846.87" y2="403.61"/>
    <path class="cls-17" d="M847.39,383.36c-3.99,1.44-8.79,4.35-12.74,7.73"/>
    <line class="cls-21" x1="857" y1="379.97" x2="847.54" y2="383.35"/>
    <path class="cls-17" d="M858.55,379.58c-.19-.2-.58-.24-1.07-.11"/>
    <path class="cls-18" d="M830.16,368.01c-2.41-.49-5.44,1.05-7.84,4-2.4,2.95-3.79,6.82-3.59,10.03"/>
    <line class="cls-21" x1="832" y1="367.81" x2="829.98" y2="368.49"/>
    <path class="cls-18" d="M832.47,367.49c.99-.3,2.03-1.53,2.45-2.9"/>
    <line class="cls-21" x1="836.06" y1="359.71" x2="834.71" y2="365.11"/>
    <line class="cls-21" x1="824.57" y1="361.06" x2="834.71" y2="357.01"/>
    <path class="cls-18" d="M824.7,360.17c-4.11,1.48-8.14,5.4-10.69,10.41"/>
    <path class="cls-20" d="M814.17,370.69c-1.13,2.21-2.22,4.44-3.27,6.68"/>
    <line class="cls-6" x1="800.93" y1="358.36" x2="813.77" y2="371.19"/>
    <line class="cls-6" x1="813.09" y1="349.57" x2="824.57" y2="361.06"/>
    <line class="cls-6" x1="844.84" y1="504.26" x2="836.06" y2="496.16"/>
    <line class="cls-6" x1="868.48" y1="390.78" x2="857" y2="379.97"/>
    <line class="cls-6" x1="847.54" y1="383.35" x2="859.02" y2="394.83"/>
    <line class="cls-21" x1="823.9" y1="346.2" x2="836.06" y2="357.68"/>
    <line class="cls-21" x1="830.65" y1="478.59" x2="839.43" y2="487.38"/>
    <line class="cls-21" x1="841.46" y1="492.1" x2="850.24" y2="500.89"/>
    <line class="cls-21" x1="780.67" y1="469.81" x2="788.1" y2="477.24"/>
    <line class="cls-21" x1="818.5" y1="507.64" x2="825.93" y2="515.07"/>
    <line class="cls-21" x1="858.35" y1="379.97" x2="869.83" y2="391.46"/>
    <path class="cls-11" d="M506.58,265.11c6.51,25.43,31.58,50.29,65.9,65.36,34.32,15.06,72.75,18.07,101.02,7.9"/>
    <line class="cls-21" x1="790.8" y1="58.44" x2="857.67" y2="-140.83"/>
    <line class="cls-6" x1="682.04" y1="425.91" x2="681.37" y2="426.58"/>
    <path class="cls-11" d="M682.16,425.15c1.7,1.05,3.91,1.21,5.31.4"/>
    <line class="cls-21" x1="677.99" y1="423.88" x2="682.04" y2="425.91"/>
    <line class="cls-6" x1="677.99" y1="423.88" x2="677.99" y2="423.88"/>
    <line class="cls-21" x1="659.75" y1="433.34" x2="658.4" y2="430.63"/>
    <path class="cls-11" d="M657.51,436.05c1.73-.45,2.54-1.83,1.93-3.32"/>
    <path class="cls-11" d="M678.73,422.9c-5.07-2.98-11.46-3.89-16.03-2.3-4.57,1.6-6.35,5.37-4.46,9.46"/>
    <line class="cls-6" x1="700.96" y1="407.67" x2="700.96" y2="407.67"/>
    <path class="cls-11" d="M684.62,409.79c-1.48,2.57-.81,5.85,1.78,8.83"/>
    <path class="cls-11" d="M701.37,406.98c-4.1-1.49-8.46-1.75-11.85-.72"/>
    <path class="cls-11" d="M688.86,424.85c1.38-.83,1.57-2.42.45-3.82"/>
    <line class="cls-21" x1="688.8" y1="421.85" x2="686.77" y2="419.15"/>
    <line class="cls-6" x1="705.01" y1="409.02" x2="705.01" y2="409.69"/>
    <line class="cls-21" x1="700.96" y1="407.67" x2="705.01" y2="409.02"/>
    <path class="cls-11" d="M705.57,408.8c1.93.71,3.97.4,4.91-.74"/>
    <path class="cls-11" d="M688.13,425.54c.4-.21.8-.42,1.2-.64"/>
    <line class="cls-6" x1="714.47" y1="386.73" x2="714.47" y2="386.73"/>
    <path class="cls-11" d="M701.57,393.91c.54,2.44,2.37,4.91,5.14,6.92"/>
    <path class="cls-11" d="M714.94,385.67c-3.23-.54-6.32-.32-8.75.64"/>
    <path class="cls-11" d="M711.18,407.36c.91-1.15.47-2.81-1.07-4"/>
    <line class="cls-21" x1="709.74" y1="403.61" x2="706.36" y2="401.59"/>
    <line class="cls-6" x1="718.52" y1="387.4" x2="718.52" y2="387.4"/>
    <line class="cls-21" x1="714.47" y1="386.73" x2="718.52" y2="387.4"/>
    <path class="cls-11" d="M718.94,386.82c2,.3,3.71-.45,4.11-1.82"/>
    <path class="cls-11" d="M711.12,407.94c.27-.3.53-.61.79-.91"/>
    <path class="cls-11" d="M710.83,374.16c1.19,1.32,2.71,2.53,4.47,3.54"/>
    <path class="cls-11" d="M723.91,384.93c.03-.09.05-.18.08-.27"/>
    <path class="cls-11" d="M468.18,275.28c.42.15.84.29,1.26.42"/>
    <line class="cls-21" x1="467.91" y1="275.95" x2="463.86" y2="274.6"/>
    <path class="cls-11" d="M463.98,274.14c-1.93-.71-3.97-.4-4.91.74"/>
    <line class="cls-6" x1="457.11" y1="297.56" x2="462.51" y2="282.03"/>
    <path class="cls-11" d="M466.44,285c-.9-1.28-2.12-2.49-3.6-3.56"/>
    <path class="cls-11" d="M454.6,296.6c2.94.49,5.78.35,8.11-.41"/>
    <line class="cls-6" x1="453.73" y1="296.89" x2="459.13" y2="280"/>
    <path class="cls-11" d="M458.37,275.58c-.91,1.15-.47,2.81,1.07,4"/>
    <line class="cls-21" x1="459.13" y1="280" x2="462.51" y2="282.03"/>
    <line class="cls-21" x1="454.4" y1="296.89" x2="450.35" y2="296.21"/>
    <line class="cls-6" x1="434.81" y1="329.99" x2="445.62" y2="298.24"/>
    <path class="cls-11" d="M450.61,296.12c-2-.3-3.71.45-4.11,1.82"/>
    <path class="cls-11" d="M459.1,274.32c-.27.3-.53.61-.79.91"/>
    <line class="cls-6" x1="446.3" y1="321.88" x2="452.38" y2="304.99"/>
    <path class="cls-11" d="M459.91,310.33c-1.53-2.34-4.11-4.45-7.28-5.93"/>
    <path class="cls-11" d="M451.79,321.87c3.53-.11,6.45-1.24,8.11-3.15"/>
    <line class="cls-6" x1="438.87" y1="330.66" x2="448.32" y2="302.97"/>
    <path class="cls-11" d="M446.49,298.65c-.38,1.37.66,2.98,2.5,3.86"/>
    <line class="cls-6" x1="445.62" y1="298.91" x2="435.49" y2="329.99"/>
    <line class="cls-21" x1="448.32" y1="302.97" x2="452.38" y2="304.99"/>
    <line class="cls-21" x1="451.03" y1="321.88" x2="447.65" y2="321.88"/>
    <line class="cls-6" x1="442.24" y1="331.34" x2="444.27" y2="324.58"/>
    <path class="cls-11" d="M448.06,321.73c-1.91.12-3.15,1.27-2.98,2.75"/>
    <path class="cls-11" d="M446.32,297.34c-.11.37-.21.73-.31,1.1"/>
    <line class="cls-6" x1="450.35" y1="336.74" x2="452.38" y2="329.99"/>
    <path class="cls-11" d="M463.58,336.8c-2.25-3.07-6.27-5.59-10.79-6.77"/>
    <path class="cls-11" d="M459.42,348.38c3.95-1.08,6.22-3.71,6.01-6.97"/>
    <line class="cls-6" x1="446.97" y1="334.04" x2="448.32" y2="329.31"/>
    <path class="cls-11" d="M445.08,325.87c.19,1.49,1.75,2.91,3.73,3.41"/>
    <line class="cls-6" x1="444.27" y1="325.93" x2="442.92" y2="331.34"/>
    <line class="cls-21" x1="448.32" y1="329.31" x2="452.38" y2="329.99"/>
    <line class="cls-21" x1="459.13" y1="348.22" x2="455.75" y2="349.57"/>
    <line class="cls-6" x1="452.38" y1="357.01" x2="454.4" y2="352.28"/>
    <path class="cls-11" d="M456.42,348.95c-1.67.54-2.34,1.98-1.61,3.46"/>
    <path class="cls-11" d="M444.78,323.9c.06.4.13.8.19,1.21"/>
    <line class="cls-6" x1="463.86" y1="357.01" x2="463.86" y2="357.01"/>
    <path class="cls-11" d="M477.88,374.13c3.68-2.36,4.12-6.55,1.1-10.51-3.02-3.96-8.86-6.85-14.65-7.25"/>
    <line class="cls-6" x1="459.81" y1="357.01" x2="459.81" y2="356.33"/>
    <path class="cls-11" d="M455.5,353.8c.75,1.48,2.68,2.6,4.66,2.68"/>
    <line class="cls-6" x1="455.08" y1="353.63" x2="453.05" y2="358.36"/>
    <line class="cls-21" x1="459.81" y1="356.33" x2="463.86" y2="357.01"/>
    <line class="cls-21" x1="476.69" y1="374.57" x2="474.67" y2="375.92"/>
    <line class="cls-6" x1="474.67" y1="379.97" x2="474.67" y2="379.97"/>
    <path class="cls-11" d="M475.1,375.74c-1.28.91-1.33,2.53-.11,3.89"/>
    <path class="cls-11" d="M454.6,351.84c.22.41.45.82.68,1.23"/>
    <line class="cls-6" x1="484.8" y1="382.67" x2="484.8" y2="382"/>
    <path class="cls-11" d="M504.24,397.21c2.24-3.2.86-7.65-3.47-11.16-4.32-3.5-10.67-5.32-15.92-4.56"/>
    <line class="cls-6" x1="480.75" y1="384.03" x2="481.42" y2="382.67"/>
    <path class="cls-11" d="M476.38,380.34c1.24,1.35,3.41,2.07,5.21,1.74"/>
    <line class="cls-21" x1="481.42" y1="382.67" x2="484.8" y2="382"/>
    <line class="cls-21" x1="503.71" y1="397.54" x2="502.36" y2="399.56"/>
    <path class="cls-11" d="M502.83,399.36c-.8,1.21-.22,2.87,1.4,4"/>
    <path class="cls-11" d="M475,378.93c.37.38.74.76,1.12,1.14"/>
    <line class="cls-6" x1="513.85" y1="404.97" x2="513.85" y2="404.29"/>
    <line class="cls-6" x1="536.81" y1="416.45" x2="535.46" y2="421.18"/>
    <path class="cls-11" d="M537.64,415.75c.61-3.79-2.48-8.14-7.75-10.91s-11.61-3.36-15.9-1.5"/>
    <line class="cls-6" x1="509.79" y1="407.67" x2="511.14" y2="405.64"/>
    <path class="cls-11" d="M505.63,404.74c1.63,1.12,3.85,1.39,5.34.65"/>
    <line class="cls-21" x1="511.14" y1="405.64" x2="513.85" y2="404.29"/>
    <line class="cls-6" x1="536.81" y1="419.15" x2="535.46" y2="421.18"/>
    <line class="cls-21" x1="536.81" y1="416.45" x2="536.81" y2="419.15"/>
    <path class="cls-11" d="M536.96,418.4c-.25,1.41.91,2.99,2.8,3.79"/>
    <path class="cls-11" d="M504.32,402.96c.48.32.97.64,1.46.95"/>
    <line class="cls-6" x1="548.3" y1="422.53" x2="548.3" y2="421.18"/>
    <line class="cls-6" x1="573.97" y1="429.28" x2="573.97" y2="429.96"/>
    <path class="cls-11" d="M574.64,428.58c-1.06-4.07-5.61-7.97-11.4-9.78-5.79-1.8-11.61-1.13-14.59,1.69"/>
    <line class="cls-6" x1="545.6" y1="425.23" x2="546.27" y2="423.2"/>
    <path class="cls-11" d="M541.84,422.89c1.89.79,3.99.59,5.03-.49"/>
    <line class="cls-21" x1="546.27" y1="423.2" x2="548.3" y2="421.18"/>
    <line class="cls-6" x1="574.64" y1="431.99" x2="573.97" y2="434.01"/>
    <line class="cls-21" x1="573.97" y1="429.28" x2="574.64" y2="431.99"/>
    <path class="cls-11" d="M575.49,431.45c.32,1.5,1.97,2.86,3.97,3.27"/>
    <path class="cls-11" d="M540.19,421.97c.56.23,1.12.47,1.68.7"/>
    <line class="cls-6" x1="584.77" y1="436.04" x2="586.12" y2="431.99"/>
    <line class="cls-6" x1="611.79" y1="434.69" x2="611.79" y2="435.36"/>
    <path class="cls-11" d="M612.54,434.57c-2.65-4.02-8.28-7.15-14.13-7.85-5.85-.7-10.67,1.19-12.1,4.73"/>
    <line class="cls-6" x1="584.77" y1="436.04" x2="585.45" y2="434.01"/>
    <path class="cls-11" d="M580.86,435.41c2,.4,3.8-.26,4.32-1.59"/>
    <line class="cls-21" x1="585.45" y1="434.01" x2="586.12" y2="431.99"/>
    <line class="cls-6" x1="613.82" y1="437.39" x2="613.14" y2="439.42"/>
    <line class="cls-21" x1="611.79" y1="434.69" x2="613.82" y2="437.39"/>
    <path class="cls-11" d="M614.35,437.09c.86,1.46,2.87,2.5,4.82,2.49"/>
    <path class="cls-11" d="M579.69,434.44c.59.13,1.18.26,1.77.38"/>
    <path class="cls-11" d="M650.83,435.24c1.34,1.31,3.53,1.93,5.28,1.5"/>
    <line class="cls-6" x1="650.3" y1="435.36" x2="650.3" y2="436.04"/>
    <line class="cls-6" x1="647.59" y1="433.34" x2="647.59" y2="432.66"/>
    <line class="cls-21" x1="647.59" y1="432.66" x2="650.3" y2="435.36"/>
    <line class="cls-21" x1="623.95" y1="437.39" x2="623.95" y2="434.69"/>
    <path class="cls-11" d="M620.58,439.58c1.95-.03,3.3-1.09,3.26-2.56"/>
    <path class="cls-11" d="M648.08,432.61c-4.02-3.65-10.29-5.76-15.72-5.29s-8.87,3.42-8.63,7.39"/>
    <path class="cls-11" d="M619.64,439.35c.57.01,1.14.03,1.72.03"/>
    <path class="cls-11" d="M656.79,436.3c.51-.1,1.02-.21,1.52-.32"/>
    <line class="cls-21" x1="659.75" y1="435.36" x2="659.08" y2="436.04"/>
    <line class="cls-21" x1="689.48" y1="424.55" x2="689.48" y2="425.23"/>
    <line class="cls-21" x1="711.77" y1="406.99" x2="711.09" y2="406.99"/>
    <line class="cls-21" x1="723.25" y1="385.38" x2="721.9" y2="388.75"/>
    <line class="cls-21" x1="457.78" y1="276.62" x2="451.03" y2="296.21"/>
    <line class="cls-21" x1="445.62" y1="298.24" x2="434.81" y2="329.99"/>
    <line class="cls-21" x1="444.27" y1="323.91" x2="441.57" y2="331.34"/>
    <line class="cls-21" x1="453.73" y1="350.93" x2="451.7" y2="357.01"/>
    <line class="cls-21" x1="473.32" y1="377.27" x2="473.32" y2="378.62"/>
    <line class="cls-21" x1="501.69" y1="400.24" x2="501.01" y2="402.26"/>
    <line class="cls-21" x1="623.95" y1="438.06" x2="623.28" y2="440.09"/>
    <polyline class="cls-21" points="415.9 101.67 411.85 103.02 467.24 155.03 494.26 180.03 520.6 205.02 526.01 202.99"/>
    <path class="cls-13" d="M395.52,104.97c6.41,6.27,13.51,5.4,16.57-2.03"/>
    <line class="cls-21" x1="395.64" y1="105.05" x2="280.8" y2="-7.09"/>
    <line class="cls-6" x1="253.11" y1="-3.03" x2="490.88" y2="286.08"/>
    <polyline class="cls-21" points="490.88 286.08 491.56 285.4 492.91 284.05 494.93 281.35 496.28 278.65 496.28 277.3 496.96 275.27 498.99 269.87 499.66 267.84 499.66 267.16 500.34 265.81 502.36 259.06 505.07 252.3 506.42 247.58 507.77 242.85 520.6 205.02"/>
    <path class="cls-13" d="M401.6,102.94c2.53,2.47,5.27,3.92,7.87,4.15"/>
    <polyline class="cls-21" points="512.5 246.22 510.47 252.3 509.12 257.03 507.09 261.76 506.42 263.79 506.42 265.14 505.74 265.81 505.74 266.49 504.39 270.54"/>
    <line class="cls-21" x1="286.88" y1="-9.11" x2="401.04" y2="103.02"/>
    <line class="cls-21" x1="490.2" y1="286.75" x2="490.88" y2="286.08"/>
    <path class="cls-10" d="M367.74,56.18c-2.83,1.8-5.12,4.02-6.8,6.58"/>
    <path class="cls-10" d="M322.14,24.94c4.63,1.3,9.29,1.99,13.77,2.02"/>
    <path class="cls-10" d="M371.09,59.59c-3.31,1.25-6.19,2.96-8.54,5.05"/>
    <line class="cls-6" x1="395.64" y1="105.05" x2="401.04" y2="103.02"/>
    <line class="cls-21" x1="231.49" y1="-19.24" x2="475.34" y2="275.95"/>
    <path class="cls-5" d="M834.44,391.04c-5.05-5.14-10.57-8.36-15.89-9.28"/>
    <path class="cls-5" d="M838.25,462.01c11.66-4.1,16.68-21.63,11.88-41.47"/>
    <path class="cls-5" d="M841.11,451.4c1.77-3.09,2.95-6.91,3.47-11.22"/>
    <path class="cls-5" d="M828.97,395.47c-1.71-1.69-3.5-3.15-5.31-4.34"/>
    <polyline class="cls-21" points="854.3 438.74 854.97 430.63 854.3 422.53 853.62 415.1 851.59 406.99"/>
    <polyline class="cls-21" points="839.43 387.4 834.71 383.35 829.3 380.65 823.9 379.97 818.5 379.97"/>
    <polyline class="cls-21" points="842.14 461.03 846.87 458.33 850.24 453.6 852.95 446.85 854.3 438.74"/>
    <polyline class="cls-21" points="842.14 461.03 838.08 462.38 837.41 463.06"/>
    <line class="cls-21" x1="733.38" y1="429.96" x2="732.03" y2="452.25"/>
    <line class="cls-21" x1="727.98" y1="421.85" x2="731.36" y2="425.23"/>
    <path class="cls-11" d="M722.03,419.13c-3.96.42-7.55,1.42-10.56,2.94"/>
    <path class="cls-11" d="M712.06,421.76c-2.99,1.52-5.73,3.25-8.2,5.17"/>
    <path class="cls-11" d="M651.91,445.68c20.6-1.92,38.33-8.22,51.11-18.15"/>
    <path class="cls-11" d="M652.38,444.86c-3.97.37-7.8.99-11.45,1.83"/>
    <path class="cls-11" d="M640.86,446.84c-3.68.84-6.88,2.23-9.42,4.1"/>
    <line class="cls-21" x1="634.76" y1="459.01" x2="631.38" y2="455.63"/>
    <line class="cls-6" x1="631.38" y1="455.63" x2="611.79" y2="514.4"/>
    <line class="cls-21" x1="611.79" y1="514.4" x2="615.17" y2="517.77"/>
    <line class="cls-6" x1="615.17" y1="517.77" x2="634.76" y2="459.01"/>
    <line class="cls-21" x1="673.26" y1="472.52" x2="640.84" y2="462.38"/>
    <line class="cls-6" x1="640.84" y1="462.38" x2="621.25" y2="521.15"/>
    <line class="cls-21" x1="621.25" y1="521.15" x2="653.67" y2="531.28"/>
    <line class="cls-6" x1="653.67" y1="531.28" x2="673.26" y2="472.52"/>
    <line class="cls-21" x1="728.65" y1="456.3" x2="682.04" y2="473.19"/>
    <line class="cls-6" x1="682.04" y1="473.19" x2="662.46" y2="531.96"/>
    <line class="cls-21" x1="662.46" y1="531.96" x2="709.07" y2="515.07"/>
    <line class="cls-6" x1="709.07" y1="515.07" x2="728.65" y2="456.3"/>
    <path class="cls-10" d="M676.77,500.46c-3.4,10.33,2.4,15.72,12.96,12.03,10.56-3.68,21.88-15.04,25.29-25.37,3.4-10.33-2.4-15.72-12.96-12.03-10.56,3.68-21.88,15.04-25.29,25.37"/>
    <path class="cls-11" d="M631.78,451.3c-1.28.9-1.19,2.48.22,3.87"/>
    <path class="cls-11" d="M635.37,458.6c1.55,1.55,3.73,2.81,6.14,3.56"/>
    <path class="cls-11" d="M673.93,472.29c2.89.9,5.86.98,8.13.21"/>
    <path class="cls-11" d="M728.67,455.62c2.27-.76,3.62-2.29,3.7-4.19"/>
    <path class="cls-11" d="M733.72,429.81c.07-1.58-.75-3.31-2.3-4.85"/>
    <path class="cls-11" d="M728.04,421.64c-1.41-1.38-3.8-2.22-5.81-2.05"/>
    <path class="cls-11" d="M611.38,511.11c-.29.87.09,1.91,1.03,2.83"/>
    <path class="cls-11" d="M709.08,514.39c1.8-.61,3.04-1.7,3.5-3.1"/>
    <path class="cls-11" d="M654.34,531.06c2.89.9,5.86.98,8.13.21"/>
    <path class="cls-11" d="M615.78,517.37c1.55,1.55,3.73,2.81,6.14,3.56"/>
    <line class="cls-21" x1="712.44" y1="511.69" x2="732.03" y2="452.93"/>
    <line class="cls-21" x1="610.44" y1="511.02" x2="630.03" y2="452.25"/>
    <path class="cls-11" d="M447.28,441.45c39.72,40.48,105.53,66.16,165.47,64.58"/>
    <path class="cls-11" d="M466.87,382.69c36.53,37.23,95.48,62.23,152.03,64.48,56.55,2.25,100.87-18.64,114.32-53.88"/>
    <line class="cls-6" x1="446.97" y1="442.12" x2="465.89" y2="383.35"/>
    <line class="cls-21" x1="55.19" y1="42.9" x2="446.97" y2="442.12"/>
    <line class="cls-21" x1="112.6" y1="22.64" x2="465.89" y2="383.35"/>
    <path class="cls-11" d="M388.13,88.19c5.05,4.48,13.1,6.48,19.01,4.75"/>
    <path class="cls-11" d="M386.28,80.32c-.83,2.48-.08,5.38,2.08,8.03"/>
    <path class="cls-11" d="M364.21,63.21c4.35,3.02,10.13,4.5,15.04,3.84"/>
    <path class="cls-11" d="M310.45,8.48c2.95,2.61,7.05,4.48,11.26,5.12"/>
    <path class="cls-11" d="M308.46,1.1c-.58,2.37.21,5.06,2.22,7.54"/>
    <path class="cls-11" d="M534.71,419.6c4.17,1.87,8.42,3.63,12.73,5.26"/>
    <line class="cls-21" x1="534.11" y1="420.5" x2="534.79" y2="419.15"/>
    <path class="cls-9" d="M535.39,419.13s.05-.06.08-.09"/>
    <path class="cls-11" d="M535.47,419.04c3.41-4.01,1.11-10.09-5.31-14.06"/>
    <path class="cls-11" d="M529.63,404.98c-7.14-3.22-15.21-2.55-18.56,1.54"/>
    <line class="cls-21" x1="511.14" y1="406.99" x2="509.79" y2="407.67"/>
    <path class="cls-11" d="M499.62,399.76c3.56,2.5,7.24,4.91,11.04,7.22"/>
    <line class="cls-21" x1="498.99" y1="400.24" x2="500.34" y2="399.56"/>
    <path class="cls-11" d="M500.53,399.4s.08-.04.12-.06"/>
    <path class="cls-11" d="M500.65,399.34c5.18-2.83,5.3-8.68.29-13.51"/>
    <path class="cls-11" d="M500.86,386.13c-6.02-4.28-14.57-5.39-19.75-2.55"/>
    <path class="cls-9" d="M481.11,383.57s-.08.04-.12.06"/>
    <line class="cls-21" x1="480.75" y1="384.03" x2="479.4" y2="384.7"/>
    <path class="cls-11" d="M475.56,379.51c1.41,1.43,2.85,2.85,4.34,4.25"/>
    <polyline class="cls-21" points="475.34 379.97 470.62 375.92 472.64 375.24"/>
    <path class="cls-11" d="M472.63,374.41c6.02-2.11,7.43-7.7,3.24-12.87"/>
    <path class="cls-11" d="M476.09,361.71c-5.35-4.74-14-6.67-19.92-4.45"/>
    <polyline class="cls-21" points="455.75 357.68 453.73 358.36 444.27 348.9 446.3 348.22"/>
    <path class="cls-9" d="M446.96,348.07s.09-.03.14-.05"/>
    <path class="cls-11" d="M447.09,348.02c5.92-2.15,7.26-7.7,3.1-12.82"/>
    <path class="cls-11" d="M449.75,335.36c-5.31-4.7-13.87-6.65-19.78-4.49"/>
    <path class="cls-15" d="M429.97,330.87s-.09.03-.13.05"/>
    <polyline class="cls-21" points="429.41 331.34 427.38 332.01 418.6 322.56 420.63 321.88"/>
    <path class="cls-9" d="M420.61,321.72s.09-.03.14-.05"/>
    <path class="cls-11" d="M420.75,321.67c5.92-2.15,7.26-7.7,3.1-12.82"/>
    <path class="cls-11" d="M424.08,309.02c-5.31-4.7-13.87-6.65-19.78-4.49"/>
    <path class="cls-11" d="M404.3,304.52s-.09.03-.13.05"/>
    <polyline class="cls-21" points="403.74 304.99 401.71 305.67 392.26 296.21 394.28 295.54"/>
    <path class="cls-11" d="M394.94,295.38s.09-.03.14-.05"/>
    <path class="cls-11" d="M395.08,295.33c5.92-2.15,7.26-7.7,3.1-12.82"/>
    <path class="cls-11" d="M397.74,282c-5.35-4.74-14-6.67-19.92-4.45"/>
    <polyline class="cls-21" points="377.4 277.97 375.37 278.65 366.59 269.87 368.62 269.19"/>
    <path class="cls-11" d="M368.6,268.36c6.02-2.11,7.43-7.7,3.24-12.87"/>
    <path class="cls-11" d="M372.07,255.65c-5.31-4.7-13.87-6.65-19.78-4.49"/>
    <path class="cls-15" d="M352.29,251.16s-.09.03-.13.05"/>
    <polyline class="cls-21" points="351.73 251.63 349.7 252.3 340.24 242.85 342.27 242.17"/>
    <path class="cls-11" d="M342.93,242.01c6.02-2.11,7.43-7.7,3.24-12.87"/>
    <path class="cls-11" d="M346.4,229.31c-5.35-4.74-14-6.67-19.92-4.45"/>
    <polyline class="cls-21" points="325.38 225.28 323.36 225.96 314.58 216.5 316.6 215.83"/>
    <path class="cls-11" d="M316.59,215.67s.09-.03.14-.05"/>
    <path class="cls-11" d="M316.72,215.62c5.92-2.15,7.26-7.7,3.1-12.82"/>
    <path class="cls-11" d="M320.05,202.97c-5.31-4.7-13.87-6.65-19.78-4.49"/>
    <path class="cls-11" d="M300.27,198.47s-.09.03-.13.05"/>
    <polyline class="cls-21" points="299.72 198.94 297.69 199.62 288.91 190.16 290.93 189.48"/>
    <path class="cls-11" d="M290.92,189.32c6.02-2.11,7.43-7.7,3.24-12.87"/>
    <path class="cls-11" d="M294.39,175.95c-5.31-4.7-13.87-6.65-19.78-4.49"/>
    <path class="cls-11" d="M274.6,171.45s-.09.03-.13.05"/>
    <polyline class="cls-21" points="274.05 171.92 272.02 172.6 262.56 163.81 264.59 163.14"/>
    <path class="cls-11" d="M264.57,162.3s.09-.03.14-.05"/>
    <path class="cls-11" d="M264.71,162.26c5.92-2.15,7.26-7.7,3.1-12.82"/>
    <path class="cls-11" d="M268.04,149.6c-5.31-4.7-13.87-6.65-19.78-4.49"/>
    <path class="cls-11" d="M248.26,145.11s-.09.03-.13.05"/>
    <polyline class="cls-21" points="247.7 145.58 245.68 146.25 236.89 137.47 238.92 136.12"/>
    <path class="cls-15" d="M238.9,135.96s.09-.03.14-.05"/>
    <path class="cls-11" d="M239.04,135.91c5.92-2.15,7.26-7.7,3.1-12.82"/>
    <path class="cls-11" d="M242.37,123.26c-5.31-4.7-13.87-6.65-19.78-4.49"/>
    <path class="cls-15" d="M222.59,118.76s-.09.03-.13.05"/>
    <polyline class="cls-21" points="222.03 119.23 220.01 119.91 210.55 110.45 212.58 109.77"/>
    <path class="cls-11" d="M212.56,109.62c6.02-2.11,7.43-7.7,3.24-12.87"/>
    <path class="cls-11" d="M216.03,96.91c-5.35-4.74-14-6.67-19.92-4.45"/>
    <polyline class="cls-21" points="195.69 92.89 193.66 93.56 184.88 84.11 186.91 83.43"/>
    <path class="cls-11" d="M186.89,83.27c6.02-2.11,7.43-7.7,3.24-12.87"/>
    <path class="cls-11" d="M190.36,70.57c-5.31-4.7-13.87-6.65-19.78-4.49"/>
    <path class="cls-11" d="M170.58,66.07s-.09.03-.13.05"/>
    <polyline class="cls-21" points="170.02 66.54 167.99 67.22 158.54 57.76 160.56 57.09"/>
    <path class="cls-11" d="M161.22,56.93c6.02-2.11,7.43-7.7,3.24-12.87"/>
    <path class="cls-11" d="M164.02,43.55c-5.35-4.74-14-6.67-19.92-4.45"/>
    <polyline class="cls-21" points="143.68 39.52 141.65 40.2 132.87 31.42 134.89 30.74"/>
    <path class="cls-11" d="M134.88,29.91c6.02-2.11,7.43-7.7,3.24-12.87"/>
    <path class="cls-11" d="M138.35,17.2c-1.14-1.01-2.47-1.92-3.93-2.7"/>
    <path class="cls-11" d="M711.33,374.27c.92.97,2.01,1.87,3.24,2.68"/>
    <path class="cls-11" d="M722.74,388.51c.46-1.27.87-2.56,1.24-3.86"/>
    <line class="cls-21" x1="721.9" y1="388.75" x2="719.87" y2="388.08"/>
    <path class="cls-9" d="M720.32,387.89c-.05-.02-.11-.05-.16-.07"/>
    <path class="cls-11" d="M720.16,387.82c-4.66-1.93-9.78-2.3-13.68-.97"/>
    <path class="cls-11" d="M702.43,393.99c1.12,3.67,4.81,7.17,9.73,9.21"/>
    <path class="cls-11" d="M712.15,403.2c.05.02.11.05.16.07"/>
    <line class="cls-21" x1="711.77" y1="403.61" x2="713.79" y2="404.29"/>
    <path class="cls-11" d="M708.4,410.85c2.17-2.19,4.16-4.49,5.96-6.88"/>
    <line class="cls-21" x1="707.71" y1="411.72" x2="705.69" y2="410.37"/>
    <path class="cls-9" d="M706.49,410.17s-.09-.06-.14-.09"/>
    <path class="cls-11" d="M706.35,410.07c-4.74-3.14-10.96-4.46-15.93-3.37"/>
    <path class="cls-11" d="M684.89,410.52c-1.33,3.76,1.02,8.36,5.95,11.63"/>
    <path class="cls-11" d="M690.84,422.15s.09.06.14.09"/>
    <line class="cls-21" x1="690.83" y1="422.53" x2="692.18" y2="423.2"/>
    <path class="cls-11" d="M684.07,427.54c3.19-1.48,6.22-3.09,9.1-4.83"/>
    <line class="cls-21" x1="683.4" y1="427.93" x2="682.04" y2="426.58"/>
    <path class="cls-11" d="M682.5,426.23c-4.41-4.67-12.21-7.25-18.52-6.13"/>
    <path class="cls-11" d="M661.92,420.86c-4.79,2.79-5,8.26-.49,12.95"/>
    <path class="cls-9" d="M661.43,433.8s.07.07.11.11"/>
    <line class="cls-21" x1="661.1" y1="434.01" x2="662.46" y2="435.36"/>
    <path class="cls-11" d="M651.72,437.23c3.94-.65,7.78-1.45,11.5-2.38"/>
    <line class="cls-21" x1="650.97" y1="438.06" x2="650.3" y2="436.71"/>
    <path class="cls-11" d="M650.15,435.86s-.04-.08-.06-.12"/>
    <path class="cls-11" d="M650.08,435.74c-2.89-5.34-10.64-9.3-17.91-9.15"/>
    <path class="cls-11" d="M632.23,426.85c-6.76,1.2-9.65,6.25-6.64,11.63"/>
    <line class="cls-21" x1="625.3" y1="438.74" x2="625.98" y2="440.09"/>
    <path class="cls-11" d="M613.97,439.13c4.38.23,8.7.32,12.97.25"/>
    <line class="cls-21" x1="613.14" y1="440.09" x2="613.14" y2="438.74"/>
    <path class="cls-11" d="M613.3,438.16c-.72-5.35-7.15-10.52-14.81-11.9"/>
    <path class="cls-11" d="M598.35,425.94c-7.5-.34-12.57,3.52-11.67,8.9"/>
    <line class="cls-21" x1="586.12" y1="435.36" x2="586.8" y2="436.71"/>
    <path class="cls-11" d="M573.89,433.09c4.46,1.1,8.93,2.06,13.39,2.87"/>
    <line class="cls-21" x1="573.29" y1="434.01" x2="573.29" y2="432.66"/>
    <path class="cls-11" d="M573.92,432.21c1.46-4.87-3.08-10.77-10.44-13.57"/>
    <path class="cls-11" d="M563.36,418.44c-7.63-1.85-14.47.51-15.76,5.44"/>
    <line class="cls-21" x1="546.95" y1="424.55" x2="546.95" y2="425.91"/>
    <line class="cls-21" x1="311.2" y1="5.07" x2="309.85" y2="9.13"/>
    <line class="cls-21" x1="390.91" y1="78.7" x2="388.21" y2="88.83"/>
    <polyline class="cls-6" points="711.09 404.97 711.77 403.61 711.09 404.97"/>
    <line class="cls-6" x1="690.83" y1="421.85" x2="689.48" y2="424.55"/>
    <line class="cls-6" x1="690.83" y1="422.53" x2="690.15" y2="424.55"/>
    <polyline class="cls-6" points="660.43 436.04 661.1 434.01 660.43 436.04"/>
    <line class="cls-6" x1="625.3" y1="438.74" x2="625.3" y2="440.09"/>
    <line class="cls-6" x1="586.12" y1="435.36" x2="586.12" y2="436.71"/>
    <line class="cls-6" x1="546.95" y1="424.55" x2="546.95" y2="425.91"/>
    <polyline class="cls-6" points="534.79 420.5 534.79 419.15 534.79 420.5"/>
    <polyline class="cls-6" points="500.34 400.91 500.34 399.56 499.66 400.91"/>
    <line class="cls-6" x1="472.64" y1="375.24" x2="471.97" y2="377.27"/>
    <polyline class="cls-6" points="446.3 348.22 445.62 350.25 446.97 348.22"/>
    <polyline class="cls-6" points="419.95 323.91 420.63 321.88 419.95 323.91"/>
    <line class="cls-6" x1="394.28" y1="295.54" x2="393.61" y2="297.56"/>
    <line class="cls-6" x1="394.96" y1="295.54" x2="394.28" y2="297.56"/>
    <line class="cls-6" x1="368.62" y1="269.19" x2="367.94" y2="271.22"/>
    <line class="cls-6" x1="342.27" y1="242.17" x2="341.6" y2="244.2"/>
    <polyline class="cls-6" points="315.93 217.85 316.6 215.83 315.93 217.85"/>
    <line class="cls-6" x1="290.93" y1="189.48" x2="290.26" y2="191.51"/>
    <polyline class="cls-6" points="263.91 165.17 264.59 163.14 263.91 165.17"/>
    <polyline class="cls-6" points="238.25 138.82 238.92 136.12 238.25 138.15"/>
    <line class="cls-6" x1="212.58" y1="109.77" x2="211.9" y2="111.8"/>
    <line class="cls-6" x1="186.91" y1="83.43" x2="186.23" y2="85.46"/>
    <line class="cls-6" x1="160.56" y1="57.09" x2="159.89" y2="59.11"/>
    <line class="cls-6" x1="134.89" y1="30.74" x2="134.22" y2="32.77"/>
    <line class="cls-21" x1="723.93" y1="419.83" x2="732.71" y2="394.16"/>
    <line class="cls-21" x1="334.17" y1="26.01" x2="334.17" y2="27.36"/>
    <line class="cls-21" x1="387.53" y1="75.32" x2="385.5" y2="80.73"/>
    <line class="cls-21" x1="413.87" y1="99.64" x2="413.2" y2="103.02"/>
    <line class="cls-21" x1="658.4" y1="425.23" x2="657.73" y2="427.26"/>
    <line class="cls-21" x1="624.63" y1="432.66" x2="623.95" y2="434.69"/>
    <line class="cls-21" x1="586.8" y1="431.99" x2="585.45" y2="436.71"/>
    <line class="cls-21" x1="546.95" y1="423.88" x2="546.95" y2="425.91"/>
    <line class="cls-21" x1="536.14" y1="417.12" x2="534.79" y2="420.5"/>
    <line class="cls-21" x1="504.39" y1="395.51" x2="503.04" y2="398.21"/>
    <line class="cls-21" x1="478.05" y1="369.84" x2="476.02" y2="374.57"/>
    <line class="cls-21" x1="451.7" y1="343.5" x2="448.32" y2="353.63"/>
    <line class="cls-21" x1="426.03" y1="317.15" x2="422.66" y2="326.61"/>
    <line class="cls-21" x1="399.69" y1="290.81" x2="396.99" y2="300.26"/>
    <line class="cls-21" x1="374.02" y1="264.46" x2="370.64" y2="273.92"/>
    <line class="cls-21" x1="347.68" y1="237.44" x2="344.97" y2="247.58"/>
    <line class="cls-21" x1="322.01" y1="211.1" x2="318.63" y2="220.56"/>
    <line class="cls-21" x1="295.66" y1="184.75" x2="292.96" y2="194.21"/>
    <line class="cls-21" x1="269.99" y1="158.41" x2="266.62" y2="167.87"/>
    <line class="cls-21" x1="243.65" y1="131.39" x2="240.95" y2="141.52"/>
    <line class="cls-21" x1="217.98" y1="105.05" x2="214.6" y2="114.5"/>
    <line class="cls-21" x1="192.31" y1="78.7" x2="188.93" y2="88.16"/>
    <line class="cls-21" x1="165.97" y1="52.36" x2="162.59" y2="61.81"/>
    <line class="cls-21" x1="140.3" y1="26.01" x2="136.92" y2="35.47"/>
    <polyline class="cls-21" points="537.49 213.8 544.24 219.88 551.67 226.64 560.46 234.74 569.91 243.52"/>
    <line class="cls-21" x1="1371.73" y1="983.86" x2="850.24" y2="502.24"/>
    <line class="cls-21" x1="839.43" y1="492.78" x2="838.08" y2="491.43"/>
    <line class="cls-21" x1="770.53" y1="429.28" x2="569.91" y2="243.52"/>
    <line class="cls-21" x1="537.49" y1="213.8" x2="293.64" y2="-11.81"/>
    <line class="cls-21" x1="1432.52" y1="641.39" x2="793.5" y2="51.68"/>
    <path class="cls-5" d="M-105.98,1797.45C162.87,1420.85,150.96,723.88-134.82,109.82"/>
    <path class="cls-5" d="M-14.46,1732C246.73,1367.11,238.03,693.36-35.6,95.66"/>
    <path class="cls-5" d="M-101.25,1795.42C167.6,1418.82,155.69,721.85-130.09,107.79"/>
    <path class="cls-5" d="M-77.04,1753.43C163.15,1366.56,139.93,697.91-134.17,109.12"/>
    <path class="cls-5" d="M-76.85,1752.96C163.14,1366.29,139.86,697.97-134.09,109.44"/>
    <path class="cls-5" d="M-104.05,1796.11C165.41,1420.11,153.83,722.95-132.06,108.77"/>
    <path class="cls-5" d="M-102.47,1795.3C166.77,1418.92,155.07,721.85-130.79,107.77"/>
    <polyline class="cls-21" points="-33.3 94.91 -9.66 148.95 13.31 203.67 34.92 259.06 54.51 315.12 73.42 371.87 90.31 428.61 105.85 486.03 120.03 543.44 132.87 600.18 143.68 657.6 153.13 715.02 161.24 772.43 167.99 829.18 172.72 885.24 175.42 941.31 177.45 996.02 177.45 1050.74 175.42 1104.78 172.05 1158.14 167.32 1210.16 160.56 1260.82 152.46 1310.8 143 1359.44 131.52 1407.4 118.68 1453.33 103.82 1497.92 87.61 1541.15 70.05 1583.03 51.13 1622.88 30.87 1661.39 8.58 1697.86 -15.07 1732.31"/>
    <polyline class="cls-21" points="2898.34 264.46 1233.92 -1272.96 1233.25 -1272.96 1231.9 -1272.96 1229.87 -1272.29 1226.49 -1271.61 1223.12 -1270.26 1218.39 -1268.91 1212.98 -1266.88 1206.9 -1264.86 1196.1 -1260.8 1183.94 -1256.75 1171.78 -1252.02 1158.94 -1247.29 1146.11 -1241.89 1134.63 -1237.16 1123.14 -1231.76 1113.01 -1225 1104.23 -1218.25 1100.85 -1214.19 1098.15 -1210.14 1095.45 -1205.41 1094.1 -1200.69 1093.42 -1195.96 1093.42 -1190.55 1095.45 -1179.74 1100.18 -1169.61 1106.26 -1160.16 1113.69 -1152.05 2847.68 449.55"/>
    <path class="cls-11" d="M462.42,297.33c-14.33,43,29.29,96.27,97.43,118.96,68.13,22.7,134.98,6.24,149.31-36.77"/>
    <path class="cls-11" d="M701.59,382.25c3.15-3.04,5.9-6.32,8.2-9.8"/>
    <polyline class="cls-21" points="701.63 382.67 698.93 388.75 697.58 392.81 694.88 397.54 692.18 401.59 688.8 404.29 686.1 405.64 684.07 405.64 683.4 403.61 684.07 400.24 686.1 393.48"/>
    <path class="cls-11" d="M655.34,404.3c11.65-2.26,22.16-5.96,31.13-10.97"/>
    <polyline class="cls-21" points="655.03 404.29 653 411.05 650.97 415.1 647.59 418.48 642.87 421.18 638.14 422.53 634.09 421.85 630.71 420.5 629.36 417.12 629.36 413.75 631.38 406.99"/>
    <path class="cls-11" d="M592.28,403.45c13.44,2.6,26.8,3.74,39.57,3.37"/>
    <polyline class="cls-21" points="591.53 403.61 589.5 410.37 587.48 413.75 583.42 416.45 578.69 417.12 573.29 417.12 569.24 415.1 565.18 411.72 563.83 407.67 563.83 403.61 566.54 396.86"/>
    <path class="cls-11" d="M529.29,379.93c11.63,6.76,24.26,12.43,37.41,16.81"/>
    <polyline class="cls-21" points="528.71 379.97 526.68 386.73 524.65 389.43 521.28 391.46 516.55 391.46 512.5 389.43 509.12 386.05 506.42 381.32 505.07 376.59 505.74 372.54 507.77 365.79"/>
    <path class="cls-11" d="M483.23,340.03c6.7,9.11,15.21,17.8,25.23,25.74"/>
    <polyline class="cls-21" points="482.77 340.12 480.75 346.2 478.72 349.57 476.02 350.93 473.32 350.25 471.29 347.55 469.94 343.5 468.59 338.09 469.26 333.36 469.94 328.63 471.97 322.56"/>
    <path class="cls-11" d="M466.48,294.47c-.03,9.02,2.09,18.4,6.28,27.78"/>
    <polyline class="cls-21" points="465.89 294.18 463.86 300.94 462.51 303.64 461.16 304.99 461.16 304.32 461.16 302.29 461.83 298.24 463.18 293.51 464.54 288.78 466.56 284.05 468.59 277.97"/>
    <path class="cls-11" d="M471.94,271.04c-1.09,2.19-2.02,4.45-2.78,6.76"/>
    <line class="cls-6" x1="698.93" y1="388.75" x2="697.58" y2="387.4"/>
    <line class="cls-21" x1="700.28" y1="381.32" x2="701.63" y2="382.67"/>
    <line class="cls-21" x1="686.1" y1="393.48" x2="684.75" y2="392.81"/>
    <line class="cls-21" x1="654.35" y1="402.94" x2="655.03" y2="404.29"/>
    <line class="cls-6" x1="653" y1="411.05" x2="650.97" y2="407.67"/>
    <path class="cls-12" d="M629.59,412.92c2.01.43,4.39.27,6.83-.47"/>
    <line class="cls-21" x1="631.38" y1="406.99" x2="630.71" y2="405.64"/>
    <line class="cls-21" x1="592.2" y1="402.26" x2="591.53" y2="403.61"/>
    <line class="cls-21" x1="468.59" y1="277.97" x2="469.94" y2="277.97"/>
    <line class="cls-21" x1="530.06" y1="379.3" x2="528.71" y2="379.97"/>
    <path class="cls-8" d="M515.96,379.16c2.9,4.21,7.27,6.94,11.2,6.98"/>
    <line class="cls-6" x1="505.74" y1="372.54" x2="509.79" y2="369.16"/>
    <line class="cls-21" x1="507.77" y1="365.79" x2="509.12" y2="365.11"/>
    <line class="cls-21" x1="484.13" y1="340.12" x2="482.77" y2="340.12"/>
    <line class="cls-21" x1="566.54" y1="396.86" x2="566.54" y2="395.51"/>
    <line class="cls-21" x1="590.85" y1="402.26" x2="590.85" y2="402.26"/>
    <line class="cls-6" x1="589.5" y1="410.37" x2="590.85" y2="402.26"/>
    <path class="cls-14" d="M588.11,406.15c1.41-1.17,2.42-2.63,2.95-4.23"/>
    <path class="cls-14" d="M567.97,404.37c3.62,3.98,9.93,5.69,15.41,4.19"/>
    <path class="cls-14" d="M565.48,399.77c.26,1.12.74,2.21,1.42,3.23"/>
    <line class="cls-21" x1="467.24" y1="294.86" x2="465.89" y2="294.18"/>
    <line class="cls-6" x1="466.56" y1="284.05" x2="467.91" y2="284.73"/>
    <line class="cls-21" x1="471.97" y1="322.56" x2="473.32" y2="321.88"/>
    <line class="cls-6" x1="469.94" y1="328.63" x2="472.64" y2="328.63"/>
    <line class="cls-21" x1="461.83" y1="297.56" x2="468.59" y2="277.97"/>
    <line class="cls-21" x1="709.07" y1="379.97" x2="711.09" y2="373.89"/>
    <polyline class="cls-6" points="586.8 -1.01 584.1 7.77 582.75 17.23 582.07 26.69 582.07 36.82 583.42 46.28 586.12 55.74 590.18 64.52 594.91 71.95 600.99 78.7 608.42 84.11 616.52 88.83 625.3 92.21 634.76 94.24 644.89 95.59 655.03 96.26 665.83 96.26 675.97 95.59 686.77 94.91 697.58 93.56 708.39 91.54 719.2 89.51 730.01 86.81 740.14 84.11 749.59 81.4 758.38 78.7 765.81 76 772.56 73.3 778.64 69.92 783.37 67.22 786.75 64.52 789.45 61.81 790.8 58.44"/>
    <polyline class="cls-6" points="526.68 203.67 519.25 224.61 515.87 234.74 514.52 240.14 513.17 242.85 512.5 246.22"/>
    <line class="cls-6" x1="490.2" y1="286.75" x2="488.18" y2="286.08"/>
    <polyline class="cls-6" points="505.07 269.19 504.39 270.54 502.36 274.6 499.66 279.32 495.61 283.38 490.2 286.75"/>
    <polyline class="cls-6" points="488.18 286.08 482.1 282.03 476.69 277.3 475.34 275.95"/>
    <path class="cls-5" d="M794.75,404.86c-.26.07-.51.15-.76.23"/>
  </g>
  <g>
    <line class="cls-2" x1="782.82" y1="705.46" x2="706.84" y2="563.65"/>
    <path class="cls-22" d="M729.22,574.92c-.4.72-1.32.98-2.04.57l-20.01-11.24-1.73,22.88c-.06.83-.78,1.45-1.61,1.39-.82-.06-1.44-.79-1.38-1.61l1.9-25.23c.04-.51.34-.97.79-1.21.45-.24,1-.24,1.44.01l22.06,12.39c.26.15.46.36.59.6.23.44.25.98-.01,1.45Z"/>
  </g>
  <g>
    <path class="cls-22" d="M616.97,758.8v3.65h-4.32v-34.47h4.32v13.01c1.49-2.45,4.27-4.13,7.78-4.13,6.96,0,10.95,5.9,10.95,13.06s-3.98,13.06-10.95,13.06c-3.5,0-6.29-1.68-7.78-4.18ZM616.87,750.83c0,5.76,3.55,8.35,7.1,8.35,4.7,0,7.34-3.89,7.34-9.26s-2.64-9.26-7.34-9.26c-3.55,0-7.1,2.54-7.1,8.4v1.78Z"/>
    <path class="cls-22" d="M639.15,749.92c0-7.49,4.75-13.06,11.57-13.06s10.71,5.33,10.71,12.29v1.44h-18.15c.24,5.28,3.26,8.64,7.63,8.64,3.36,0,5.76-1.82,6.53-4.8l3.79,1.34c-1.54,4.46-5.33,7.2-10.32,7.2-6.96,0-11.76-5.33-11.76-13.06ZM643.52,747.28h13.54c-.1-3.55-2.02-6.72-6.38-6.72-3.65,0-6.38,2.45-7.15,6.72Z"/>
    <path class="cls-22" d="M670.68,762.45h-4.32v-34.47h4.32v34.47Z"/>
    <path class="cls-22" d="M678.09,741.04h-3.89v-3.7h3.89v-7.34h4.27v7.34h5.71v3.7h-5.71v14.74c0,2.64,1.3,3.12,3.5,3.12,1.01,0,1.73-.05,2.74-.29v3.7c-1.1.24-2.35.38-3.79.38-4.27,0-6.72-1.44-6.72-6.24v-15.41Z"/>
    <path class="cls-22" d="M704.92,754.67c1.34,2.93,4.42,4.7,7.68,4.7,2.93,0,5.52-1.25,5.52-3.98s-2.4-3.12-6.53-3.98c-4.13-.91-8.45-1.82-8.45-6.96,0-4.46,3.89-7.58,9.22-7.58,4.51,0,8.21,2.21,9.7,5.18l-3.07,2.45c-1.3-2.5-3.65-4.08-6.82-4.08-2.88,0-4.8,1.44-4.8,3.7s2.21,2.78,5.71,3.55c4.32,1.01,9.26,1.87,9.26,7.34,0,4.8-4.37,7.97-9.75,7.97-4.56,0-9.12-1.97-11.04-5.86l3.36-2.45Z"/>
    <path class="cls-22" d="M725.57,749.92c0-7.49,4.75-13.06,11.57-13.06s10.71,5.33,10.71,12.29v1.44h-18.15c.24,5.28,3.26,8.64,7.63,8.64,3.36,0,5.76-1.82,6.53-4.8l3.79,1.34c-1.54,4.46-5.33,7.2-10.32,7.2-6.96,0-11.76-5.33-11.76-13.06ZM729.94,747.28h13.54c-.1-3.55-2.02-6.72-6.38-6.72-3.65,0-6.38,2.45-7.15,6.72Z"/>
    <path class="cls-22" d="M763.11,759.18c3.46,0,5.52-2.21,6.24-5.33l3.84,1.78c-1.2,4.18-4.85,7.34-10.08,7.34-7.01,0-11.86-5.33-11.86-13.06s4.85-13.06,11.86-13.06c5.23,0,8.79,3.02,9.99,7.2l-3.74,1.87c-.72-3.07-2.78-5.33-6.24-5.33-4.46,0-7.54,3.55-7.54,9.31s3.07,9.26,7.54,9.26Z"/>
    <path class="cls-22" d="M797.29,762.45h-4.32v-3.46c-1.44,2.11-3.89,3.98-7.44,3.98-5.38,0-8.4-3.7-8.4-9.03v-16.61h4.32v15.7c0,3.55,1.54,5.95,5.23,5.95,3.12,0,6.29-2.35,6.29-6.53v-15.12h4.32v25.11Z"/>
    <path class="cls-22" d="M816.6,741.61c-.72-.14-1.3-.19-2.11-.19-3.65,0-6.58,2.88-6.58,7.3v13.73h-4.32v-25.11h4.32v4.27c1.1-2.54,3.55-4.46,6.96-4.46.67,0,1.3.05,1.73.1v4.37Z"/>
    <path class="cls-22" d="M820.31,727.98h4.7v4.99h-4.7v-4.99ZM824.83,762.45h-4.32v-25.11h4.32v25.11Z"/>
    <path class="cls-22" d="M831.1,737.34h4.32v3.41c1.44-2.06,3.94-3.89,7.49-3.89,5.33,0,8.35,3.7,8.35,9.02v16.56h-4.32v-15.41c0-3.5-1.49-6.14-5.23-6.14-3.12,0-6.29,2.4-6.29,6.58v14.98h-4.32v-25.11Z"/>
    <path class="cls-22" d="M867.18,771.62c-5.52,0-9.55-2.54-10.94-7.15l4.03-1.54c.82,3.22,3.41,5.09,6.91,5.09,4.42,0,7.34-2.26,7.34-7.49v-2.83c-1.34,2.45-4.18,4.18-7.68,4.18-6.86,0-10.9-5.66-10.9-12.53s4.03-12.48,10.9-12.48c3.46,0,6.34,1.73,7.68,4.18v-3.7h4.32v22.85c0,7.34-4.85,11.42-11.67,11.42ZM867.61,740.65c-4.56,0-7.34,3.41-7.34,8.69s2.78,8.74,7.34,8.74c3.6,0,6.96-2.69,6.96-8.21v-.91c0-5.62-3.36-8.3-6.96-8.3Z"/>
    <path class="cls-22" d="M900.97,758.8v3.65h-4.32v-34.47h4.32v13.01c1.49-2.45,4.27-4.13,7.78-4.13,6.96,0,10.95,5.9,10.95,13.06s-3.98,13.06-10.95,13.06c-3.5,0-6.29-1.68-7.78-4.18ZM900.87,750.83c0,5.76,3.55,8.35,7.1,8.35,4.7,0,7.34-3.89,7.34-9.26s-2.64-9.26-7.34-9.26c-3.55,0-7.1,2.54-7.1,8.4v1.78Z"/>
    <path class="cls-22" d="M929,762.45h-4.32v-34.47h4.32v34.47Z"/>
    <path class="cls-22" d="M945.52,762.98c-6.87,0-11.67-5.28-11.67-13.06s4.8-13.06,11.67-13.06,11.67,5.28,11.67,13.06-4.8,13.06-11.67,13.06ZM945.52,759.28c4.42,0,7.3-3.65,7.3-9.36s-2.88-9.41-7.3-9.41-7.3,3.65-7.3,9.41,2.88,9.36,7.3,9.36Z"/>
    <path class="cls-22" d="M972.5,759.18c3.46,0,5.52-2.21,6.24-5.33l3.84,1.78c-1.2,4.18-4.85,7.34-10.08,7.34-7.01,0-11.86-5.33-11.86-13.06s4.85-13.06,11.86-13.06c5.23,0,8.78,3.02,9.98,7.2l-3.74,1.87c-.72-3.07-2.78-5.33-6.24-5.33-4.46,0-7.54,3.55-7.54,9.31s3.07,9.26,7.54,9.26Z"/>
    <path class="cls-22" d="M991.15,749.05l11.14-11.71h5.38l-9.79,9.89,10.61,15.22h-5.04l-8.64-12.1-3.65,3.7v8.4h-4.32v-34.47h4.32v21.07Z"/>
  </g>
</svg>