<?xml version="1.0" encoding="utf-8"?>
<svg xmlns="http://www.w3.org/2000/svg" xmlns:xlink="http://www.w3.org/1999/xlink" id="Ebene_1" data-name="Ebene 1" viewBox="0 0 1191 842">
  <defs>
    <style>
      .cls-1, .cls-2, .cls-3 {
        fill: none;
      }

      .cls-2 {
        stroke-linejoin: bevel;
      }

      .cls-2, .cls-3 {
        stroke: #000;
        stroke-linecap: round;
        stroke-width: 2px;
      }

      .cls-3 {
        stroke-linejoin: round;
      }

      .cls-4 {
        fill: #2e2e2e;
      }

      .cls-5 {
        clip-path: url(#clippath);
      }
    </style>
    <clipPath id="clippath">
      <polyline class="cls-1" points="-1602.15 4646.35 4634.07 4646.35 4634.07 -478.54 -1602.15 -478.54 -1602.15 4646.35"/>
    </clipPath>
  </defs>
  <g class="cls-5">
    <line class="cls-3" x1="482.83" y1="446.78" x2="479.19" y2="444.71"/>
    <path class="cls-3" d="M477.77,440.19c.91,2.62,2.86,4.97,5.12,6.15"/>
    <polyline class="cls-3" points="479.19 444.71 477.63 440.55 476.07 436.91"/>
    <path class="cls-3" d="M477.24,437.03c-.03,1,.15,2.08.53,3.16"/>
    <polyline class="cls-3" points="480.75 440.03 481.27 440.55 481.27 441.07 481.79 441.59 481.79 442.11 482.31 442.63 482.83 443.67 483.35 444.71 483.35 445.74 483.35 446.26 483.87 447.3 483.87 447.82 483.87 448.34 483.87 448.86 483.35 448.86 483.35 449.38 482.83 449.9 482.31 450.42 481.79 450.94 481.27 451.46 480.75 451.98 480.23 452.5 479.71 453.02 479.19 452.5 478.67 451.98 478.15 451.46 477.63 450.94 476.59 450.42 475.55 450.42 475.03 449.9 474.51 449.38 473.48 449.38 472.96 449.38 472.44 448.86 472.44 448.34 472.44 447.82 472.44 446.78 471.92 446.26 471.92 445.23 471.4 444.19 470.88 443.15 470.36 442.63 470.36 442.11 469.84 441.59 469.84 441.07 469.32 440.55 469.84 440.03 470.36 439.51 470.88 438.99 471.4 438.47 471.92 437.95 472.44 437.43 472.96 436.91 472.96 436.39 473.48 436.39 473.48 435.87 473.99 435.87 475.03 436.39 475.55 436.39 476.07 436.91 476.59 436.91 477.63 437.43 478.67 437.95 479.19 438.47 479.71 438.99 480.23 438.99 480.23 439.51 480.75 440.03"/>
    <path class="cls-3" d="M469.72,442.05c.83,4.67,4.7,9.29,8.64,10.33,3.94,1.04,6.45-1.91,5.62-6.58-.83-4.67-4.7-9.29-8.64-10.33-3.94-1.04-6.45,1.91-5.62,6.58"/>
    <path class="cls-3" d="M479.17,429.26c-3.89-2.02-7.69-2.15-10.4-.35"/>
    <path class="cls-3" d="M481.41,434.5c-5.33-5.02-11.52-5.85-14.52-1.95s-1.93,11.36,2.53,17.51c4.46,6.15,10.96,9.13,15.26,7.01"/>
    <line class="cls-3" x1="483.87" y1="447.3" x2="482.83" y2="446.78"/>
    <line class="cls-3" x1="479.19" y1="444.71" x2="472.44" y2="448.86"/>
    <line class="cls-3" x1="475.55" y1="436.39" x2="469.32" y2="440.55"/>
    <path class="cls-3" d="M482.89,446.34c.34.18.69.33,1.04.45"/>
    <polyline class="cls-3" points="483.87 459.25 483.35 459.25 482.83 459.25 482.31 459.25 481.79 459.25 480.75 459.25 480.23 459.25 479.71 459.25 479.19 458.73 478.67 458.73 478.15 458.73 477.11 458.21 476.59 458.21 476.07 457.69 475.55 457.18 475.03 457.18 474.51 456.66 473.99 456.14 473.48 455.62 472.96 455.1 472.44 455.1 471.92 454.58 471.4 454.06 470.88 453.54 470.36 453.02 469.84 452.5 469.32 451.46 468.8 450.94 468.28 450.42 467.76 449.9 467.76 449.38 467.24 448.86 466.72 447.82 466.72 447.3 466.2 446.78 465.68 445.74 465.68 445.23 465.16 444.71 465.16 444.19 464.64 443.15 464.64 442.63 464.64 442.11 464.64 441.07 464.12 440.55 464.12 440.03 464.12 438.99 464.12 438.47 464.12 437.95 464.12 437.43 464.12 436.39 464.12 435.87 464.12 435.35 464.64 434.83 464.64 434.31 464.64 433.8 465.16 433.28 465.16 432.76 465.68 432.24 465.68 431.72 466.2 431.2 466.72 430.68 467.24 430.16 467.24 429.64 467.76 429.64 468.28 429.12 472.96 426"/>
    <line class="cls-3" x1="422.56" y1="1280.67" x2="-600.96" y2="782.94"/>
    <line class="cls-3" x1="427.24" y1="1225.08" x2="-578.62" y2="736.18"/>
    <path class="cls-3" d="M81.65,826.53c-10.22-4.97-26.25,6.69-36.2,26.34-9.95,19.65-10.22,40.18-.61,46.37"/>
    <line class="cls-2" x1="81.21" y1="827.1" x2="81.21" y2="827.1"/>
    <path class="cls-3" d="M107.79,835.42c-5.95-1.37-14.59,13.46-19.83,34.06-5.24,20.59-5.31,40-.17,44.55"/>
    <line class="cls-2" x1="107.71" y1="835.93" x2="107.71" y2="835.93"/>
    <line class="cls-3" x1="45.36" y1="900.36" x2="-348.46" y2="708.64"/>
    <polyline class="cls-3" points="107.71 835.41 105.63 834.89 104.07 834.89 101.99 834.37 100.43 833.85 98.88 833.33 96.8 832.81 95.24 832.29 93.68 831.77 92.12 830.74 90.56 830.22 88.48 829.7 87.45 829.18 85.89 828.66 84.33 828.14 82.77 827.1 81.21 826.58 -279.88 650.97"/>
    <line class="cls-3" x1="452.69" y1="915.42" x2="107.71" y2="835.41"/>
    <path class="cls-3" d="M476.41,417.05c-1.51.2-2.76,1.47-2.81,2.83"/>
    <path class="cls-3" d="M478.2,411.48c-2.09,1.4-2.68,3.44-1.53,5.35"/>
    <path class="cls-3" d="M478.07,412.03c-.66-.37-1.31-.4-1.76-.1"/>
    <path class="cls-3" d="M472.48,416.95c-.08,1.03.17,2.07.76,3.07"/>
    <path class="cls-3" d="M481.71,409.43c-.66-.37-1.31-.4-1.76-.1"/>
    <line class="cls-3" x1="477.63" y1="411.97" x2="481.79" y2="409.38"/>
    <path class="cls-3" d="M484.47,409.21c-.29-.16-.7-.07-1.15.24"/>
    <path class="cls-3" d="M483.09,409.05c-.32-.29-.81-.26-1.1.06"/>
    <line class="cls-3" x1="483.35" y1="409.38" x2="506.21" y2="422.36"/>
    <path class="cls-3" d="M491.12,404.26c-.98.69-1.88,2.26-2.01,3.5"/>
    <line class="cls-3" x1="489.06" y1="407.82" x2="506.73" y2="417.69"/>
    <line class="cls-3" x1="507.25" y1="413.01" x2="491.14" y2="404.18"/>
    <path class="cls-3" d="M491.06,403.2c-.66-.37-1.31-.4-1.76-.1"/>
    <path class="cls-3" d="M488.04,405.68c-.06.73.46,1.47,1.39,1.99"/>
    <path class="cls-3" d="M491.34,402.88c-.29.32-.26.81.06,1.1"/>
    <path class="cls-3" d="M493.87,400.33c-.15.03-.29.09-.42.17"/>
    <line class="cls-3" x1="490.62" y1="403.14" x2="494.26" y2="401.06"/>
    <path class="cls-3" d="M505.51,465.36c-1.51.2-2.76,1.47-2.81,2.83"/>
    <path class="cls-3" d="M502.35,468.36c12.52,20.41,46.65,34.04,81.73,32.63s61.47-17.47,63.19-38.45"/>
    <path class="cls-3" d="M505.77,465.38c13.42,22.03,52.32,35.43,88.66,30.54,36.34-4.89,57.47-26.37,48.16-48.95"/>
    <polyline class="cls-3" points="472.96 420.29 478.67 429.64 502.57 468.61"/>
    <line class="cls-3" x1="505.69" y1="465.49" x2="476.07" y2="417.17"/>
    <line class="cls-3" x1="488.54" y1="411.45" x2="489.06" y2="407.82"/>
    <line class="cls-3" x1="502.57" y1="468.61" x2="500.49" y2="496.14"/>
    <path class="cls-3" d="M500.27,495.9c12.52,20.41,46.65,34.04,81.73,32.63s61.47-17.47,63.19-38.45"/>
    <line class="cls-3" x1="472.96" y1="426" x2="472.96" y2="420.29"/>
    <path class="cls-3" d="M479.02,429.53c-2.11-3.48-4.26-4.88-5.86-3.82"/>
    <path class="cls-3" d="M477.1,457.83c3.83,5.89,7.29,4.45,7.82-3.23.52-7.68-2.1-18.81-5.89-25.07"/>
    <line class="cls-3" x1="500.49" y1="496.14" x2="477.11" y2="458.21"/>
    <path class="cls-3" d="M500.62,495.73c-.01.41.08.79.28,1.12"/>
    <polyline class="cls-3" points="472.44 417.17 472.44 416.65 472.44 416.13 472.96 415.61 472.96 415.09 473.48 414.05 473.99 413.53 474.51 413.01 475.03 412.49 476.07 411.97 479.71 409.38 480.23 408.86 480.75 408.86 481.27 408.86 481.79 408.34 482.31 408.34 482.83 408.34 483.35 408.86 483.87 408.86 484.39 408.86 506.21 421.33"/>
    <polyline class="cls-3" points="487.5 405.74 487.5 405.22 487.5 404.7 488.02 404.18 488.02 403.66 488.54 403.66 488.54 403.14 489.06 403.14 492.7 400.54 493.22 400.54"/>
    <polyline class="cls-3" points="642.33 443.67 642.85 444.71 643.89 446.26 644.41 447.3 644.93 448.34 644.93 449.38 645.45 450.94 645.97 451.98 646.49 453.02 646.49 454.06 647.01 455.62 647.01 456.66 647.01 457.69 647.01 459.25 647.01 460.29 647.01 461.33 647.01 462.37"/>
    <line class="cls-3" x1="487.5" y1="405.74" x2="486.98" y2="410.42"/>
    <line class="cls-3" x1="647.01" y1="462.37" x2="644.93" y2="490.43"/>
    <line class="cls-3" x1="472.44" y1="417.17" x2="471.4" y2="427.04"/>
    <polyline class="cls-3" points="644.93 490.43 644.93 491.47 644.41 492.51 644.41 493.54 644.41 494.58 643.89 495.62 643.37 496.66 643.37 497.7 642.85 498.22 642.33 499.26 642.33 500.3 641.81 501.34 641.29 502.38 640.77 503.42 640.25 503.93 639.73 504.97 638.69 506.01 638.17 507.05 637.65 507.57 636.62 508.61 636.1 509.13 635.58 510.17 634.54 511.21 633.5 511.73 632.98 512.77 631.94 513.29 630.9 514.33 630.38 514.85 629.34 515.88 628.3 516.4 627.26 516.92 626.22 517.96 625.19 518.48 624.15 519 623.11 519.52 621.55 520.56 620.51 521.08 619.47 521.6 618.43 522.12 616.87 522.64 615.83 523.16 614.27 523.68 613.24 524.2 611.68 524.72 610.64 525.24 609.08 525.76 608.04 525.76 606.48 526.28 604.92 526.8 603.88 527.31 602.33 527.31 600.77 527.83 599.21 528.35 598.17 528.35 596.61 528.87 595.05 528.87 593.49 529.39 591.93 529.39 590.38 529.39 588.82 529.91 587.78 529.91 586.22 529.91 584.66 530.43 583.1 530.43 581.54 530.43 579.98 530.43 578.43 530.43 576.87 530.43 575.31 530.43 573.75 530.43 572.19 530.43 570.63 530.43 569.07 530.43 567.51 529.91 565.96 529.91 564.4 529.91 562.84 529.91 561.28 529.39 559.72 529.39 558.16 528.87 556.6 528.87 555.05 528.35 553.49 528.35 551.93 527.83 550.37 527.83 548.81 527.31 547.25 526.8 545.69 526.8 544.14 526.28 543.1 525.76 541.54 525.24 539.98 524.72 538.42 524.2 536.86 523.68 535.82 523.16 534.26 522.64 532.7 522.12 531.67 521.6 530.11 521.08 529.07 520.56 527.51 520.04 526.47 519.52 524.91 519 523.87 517.96 522.83 517.44 521.27 516.92 520.24 515.88 519.2 515.37 518.16 514.85 516.6 513.81 515.56 513.29 514.52 512.25 513.48 511.73 512.44 510.69 511.4 510.17 510.36 509.13 509.84 508.09 508.81 507.57 507.77 506.53 506.73 505.49 506.21 504.97 505.17 503.93 504.65 502.9 503.61 502.38 503.09 501.34 502.57 500.3 501.53 499.26 501.01 498.22 500.49 497.7 476.59 457.69"/>
    <path class="cls-3" d="M520.45,298.83c-1.38,16.81,15.25,33.2,41.3,40.71,26.05,7.51,55.7,4.47,73.63-7.57"/>
    <path class="cls-3" d="M543.43,285.14c-1.44,2.26-2.34,4.66-2.68,7.12"/>
    <polyline class="cls-3" points="550.89 276.37 550.89 275.85 550.89 275.33 550.37 275.33 549.85 274.81 549.33 274.81 547.25 274.29 545.17 273.77 543.1 273.25 541.54 272.73 539.46 272.21 537.38 272.21 536.34 271.69 535.82 271.69 535.3 271.69"/>
    <polyline class="cls-3" points="620.51 314.3 621.03 314.3 622.07 314.82 623.11 315.86 625.71 317.93 627.78 320.01 630.38 322.09 632.46 324.17 635.06 326.77 635.58 327.29 635.58 327.81 635.58 329.36 635.06 331.96"/>
    <path class="cls-3" d="M635.38,331.97c9.07-6.08,14.35-13.97,15.04-22.47"/>
    <path class="cls-3" d="M631.32,299.71c.07-2.48-.43-4.99-1.48-7.44"/>
    <polyline class="cls-3" points="519.72 298.71 519.72 296.63 520.24 295.07 520.24 294.55 520.24 294.03 520.24 293.52 520.24 292.48 520.75 291.44 520.75 290.4 520.75 289.88 521.27 288.84 521.79 287.8 521.79 287.28 522.31 286.24 522.83 285.2 523.35 284.68 523.35 283.64 523.87 282.6 524.39 282.08 525.43 281.05 525.95 280.53 526.47 279.49 526.99 278.97 528.03 277.93 528.55 277.41 529.07 276.37 530.11 275.85 530.63 275.33 531.67 274.29 532.7 273.77 533.22 273.25 534.26 272.21 535.3 271.69"/>
    <polyline class="cls-3" points="540.5 291.44 540.5 292.48 540.5 293 540.5 293.52 540.5 294.03 540.5 295.07 540.5 295.59 540.5 296.11 541.02 296.63 541.02 297.67 541.02 298.19 541.54 298.71 541.54 299.23 542.06 299.75 542.06 300.79 542.58 301.31 543.1 301.83"/>
    <polyline class="cls-3" points="620.51 314.3 621.55 313.26 623.11 312.74 623.63 311.7 624.67 310.66 625.71 310.14 626.74 309.1 627.26 308.06 627.78 307.02 628.82 305.98 629.34 305.46 629.86 304.43 629.86 303.39 630.38 302.35 630.38 301.31 630.9 300.27 630.9 299.23"/>
    <polyline class="cls-3" points="535.3 271.69 536.34 271.17 536.86 270.66 537.9 270.14 538.94 269.62 541.02 268.58 542.58 267.54 544.65 266.5 546.73 265.98 547.77 265.46 548.81 264.94 549.85 264.94 551.41 264.42 552.45 263.9 553.49 263.9 554.53 263.38 555.56 262.86 558.16 262.34 560.76 261.82 562.84 261.3 565.44 261.3 567 260.78 568.03 260.78 569.07 260.78 570.63 260.78 571.67 260.26 573.23 260.26 574.27 260.26 575.83 260.26 576.87 260.26 578.43 260.26 581.02 260.26 583.62 260.26 586.22 260.26 587.26 260.26 588.82 260.78 590.38 260.78 591.41 260.78 592.97 260.78 594.01 261.3 595.57 261.3 596.61 261.3 598.17 261.82 599.21 261.82 601.81 262.34 604.4 262.86 607 263.9 608.04 263.9 609.08 264.42 610.64 264.94 611.68 264.94 612.72 265.46 614.27 265.98 615.31 266.5 616.35 266.5 617.39 267.02 618.43 267.54 621.03 268.58 623.11 269.62 625.19 270.66 627.26 271.69 628.3 272.21 629.34 272.73 630.38 273.25 630.9 274.29 631.94 274.81 632.98 275.33 634.02 275.85 634.54 276.37 636.62 277.93 638.17 278.97 639.73 280.53 640.77 282.08 641.81 282.6 642.33 283.64 642.85 284.16 643.37 284.68 643.89 285.72 644.41 286.24 645.45 287.28 645.97 287.8 645.97 288.84 646.49 289.36 647.01 290.4 647.53 290.92 648.05 291.96 648.05 292.48 648.57 293.52 649.09 294.03 649.09 295.07 649.6 295.59 649.6 296.63 650.12 297.15 650.12 298.19 650.12 298.71 650.64 299.75 650.64 300.79 650.64 301.31 650.64 302.35 650.64 302.87 650.64 303.91 650.64 304.43 650.64 304.95 650.64 305.46 650.64 305.98 650.64 306.5 650.12 307.54 650.12 309.62"/>
    <path class="cls-3" d="M482.14,586.74c6.56,22.78,38.32,41.19,76.46,44.32,38.14,3.13,72.48-9.85,82.67-31.25"/>
    <line class="cls-3" x1="433.47" y1="1147.14" x2="459.97" y2="827.62"/>
    <line class="cls-3" x1="466.2" y1="751.24" x2="479.71" y2="584.47"/>
    <line class="cls-3" x1="579.98" y1="1362.76" x2="627.78" y2="779.3"/>
    <line class="cls-3" x1="639.73" y1="639.54" x2="642.85" y2="597.97"/>
    <path class="cls-3" d="M621.45,294.26c.66-11.48-14.15-21.96-33.25-23.53-19.1-1.57-35.42,6.35-36.65,17.79"/>
    <path class="cls-3" d="M564.05,306.19c14.84,8.24,36.9,8.2,49.29-.09,12.39-8.29,10.4-21.69-4.44-29.93-14.84-8.24-36.9-8.2-49.29.09-12.39,8.29-10.4,21.69,4.44,29.93"/>
    <path class="cls-3" d="M541.69,293.26c-.23,2.79.3,5.62,1.56,8.38"/>
    <path class="cls-3" d="M627.34,308.52c1.69-2.52,2.66-5.22,2.89-7.99"/>
    <path class="cls-3" d="M557.58,312.98c18.8,10.3,46.75,10.29,62.43-.03,15.67-10.32,13.14-27.04-5.67-37.34-18.8-10.3-46.75-10.29-62.43.03-15.67,10.32-13.14,27.04,5.67,37.34"/>
    <path class="cls-3" d="M563.08,306.53c15.51,8.47,38.55,8.47,51.47-.01,12.92-8.48,10.83-22.21-4.68-30.68-15.51-8.47-38.55-8.47-51.47.01-12.92,8.48-10.83,22.21,4.68,30.68"/>
    <path class="cls-3" d="M556.7,289.25c-.81,9.87,11.86,18.96,28.31,20.31,16.44,1.35,30.43-5.55,31.24-15.42"/>
    <path class="cls-3" d="M567.37,303.97c12.64,7.02,31.44,6.99,41.99-.08,10.55-7.06,8.86-18.48-3.78-25.5-12.64-7.02-31.44-6.99-41.99.08-10.55,7.06-8.86,18.48,3.78,25.5"/>
    <line class="cls-3" x1="541.54" y1="293.52" x2="541.54" y2="290.92"/>
    <line class="cls-3" x1="629.86" y1="300.79" x2="629.86" y2="298.19"/>
    <line class="cls-3" x1="556.08" y1="289.36" x2="556.08" y2="288.84"/>
    <line class="cls-3" x1="615.83" y1="294.55" x2="615.83" y2="294.03"/>
    <path class="cls-3" d="M478.65,63.02c13.26-8.82,12.73-32.92-1.17-53.82-13.91-20.9-35.93-30.7-49.19-21.88"/>
    <path class="cls-3" d="M475.16,53.35c1.19-15.35-7.01-34.2-20.46-47.05-13.45-12.85-29.23-16.92-39.4-10.15"/>
    <path class="cls-3" d="M465.66,71.85c5.5-3.66,8.86-10.19,9.5-18.5"/>
    <path class="cls-3" d="M503.82,48.21c13.06-6.91,14.13-30.5,2.39-52.7-11.74-22.19-31.85-34.58-44.91-27.67"/>
    <path class="cls-3" d="M192.69,247.29c1.47-17.7-7.9-39.38-23.4-54.11-15.49-14.73-33.75-19.32-45.56-11.46"/>
    <path class="cls-3" d="M181.57,268.67c6.4-4.25,10.32-11.8,11.11-21.38"/>
    <path class="cls-3" d="M428.04,90.9c1.47-17.7-7.9-39.38-23.4-54.11-15.49-14.73-33.75-19.32-45.56-11.46"/>
    <path class="cls-3" d="M416.93,112.28c6.4-4.25,10.32-11.8,11.11-21.38"/>
    <polyline class="cls-3" points="427.75 90.89 429.31 89.85 430.87 88.81 432.43 87.77 433.99 86.73 435.55 85.17 437.11 84.13 440.22 82.06 442.82 79.46 445.94 77.38 451.13 72.18 456.85 67.51 459.97 64.91 462.56 62.83 465.68 60.23 467.24 59.2 468.8 58.16 470.36 56.6 471.92 55.56 473.48 54.52 475.03 53.48"/>
    <path class="cls-3" d="M112.37,306.69c13.26-8.82,12.73-32.92-1.17-53.82-13.91-20.9-35.93-30.7-49.19-21.88"/>
    <path class="cls-3" d="M125.36,297.85c5.5-3.66,8.86-10.19,9.5-18.5"/>
    <path class="cls-3" d="M134.85,279.36c1.19-15.35-7.01-34.2-20.46-47.05-13.45-12.85-29.23-16.92-39.4-10.15"/>
    <path class="cls-3" d="M90.98,322.86c13.29-11.17,10.96-35.81-5.2-55.03-16.16-19.22-40.03-25.74-53.32-14.57"/>
    <polyline class="cls-3" points="192.4 247.79 190.84 248.83 188.76 249.87 187.2 250.91 185.64 251.95 183.56 252.99 182 254.03 178.37 256.11 174.73 257.67 171.09 259.74 163.82 263.9 156.03 267.54 152.39 269.62 148.75 271.17 145.12 273.25 143.56 274.29 141.48 275.33 139.92 276.37 138.36 277.41 136.8 278.45 134.73 279.49"/>
    <line class="cls-3" x1="478.15" y1="63.35" x2="465.16" y2="72.18"/>
    <polyline class="cls-3" points="478.15 63.35 481.27 61.27 484.39 59.72 487.5 57.64 490.62 55.56 493.74 54 496.86 51.92 499.97 50.36 503.61 48.29"/>
    <line class="cls-3" x1="503.61" y1="48.29" x2="661.03" y2="-34.84"/>
    <line class="cls-3" x1="123.81" y1="182.33" x2="193.95" y2="135.57"/>
    <line class="cls-3" x1="312.93" y1="56.6" x2="359.17" y2="25.94"/>
    <line class="cls-3" x1="181.49" y1="269.1" x2="246.43" y2="225.45"/>
    <polyline class="cls-3" points="376.32 139.21 416.84 112.19 418.4 111.15 420.48 109.59 422.04 108.55 424.12 107 425.68 105.44 427.75 104.4 429.31 102.84 430.87 101.28 432.43 99.72 434.51 98.68 436.07 97.12 437.63 95.56 439.18 94.53 440.22 92.97 441.78 91.41 443.34 90.37 444.9 88.81 446.46 87.77 447.5 86.21 449.06 85.17 450.61 83.61 452.17 82.58 453.21 81.54 454.77 80.5 455.81 78.94 457.37 77.9 458.93 76.86 459.97 75.82 461.53 74.78 462.56 73.74 464.12 72.7 465.16 72.18"/>
    <line class="cls-3" x1="61.99" y1="231.17" x2="74.98" y2="222.86"/>
    <polyline class="cls-3" points="90.56 323.13 93.16 321.05 95.76 318.97 98.36 316.9 100.95 314.82 103.55 312.74 106.67 310.66 109.27 309.1 112.38 307.02 125.37 298.19"/>
    <polyline class="cls-3" points="32.37 253.51 36.01 250.39 39.13 247.79 42.76 244.68 46.4 242.08 50.56 239.48 54.19 236.88 57.83 233.77 61.99 231.17"/>
    <line class="cls-3" x1="90.56" y1="323.13" x2="-7.11" y2="405.22"/>
    <line class="cls-3" x1="32.37" y1="253.51" x2="-68.94" y2="338.2"/>
    <polyline class="cls-3" points="74.98 222.86 76.54 221.82 77.57 220.78 79.13 219.74 80.17 218.7 81.73 217.66 82.77 216.62 84.33 215.58 85.89 214.54 86.93 213.5 88.48 211.95 90.04 210.91 91.08 209.87 92.64 208.31 94.2 207.27 95.24 205.71 96.8 204.67 98.36 203.11 99.92 201.55 101.47 200.51 103.03 198.96 104.59 197.4 106.15 196.36 107.71 194.8 109.27 193.24 110.83 191.68 112.9 190.64 114.46 189.08 116.02 187.53 118.1 186.49 119.66 184.93 121.74 183.89 123.81 182.33"/>
    <polyline class="cls-3" points="359.17 25.94 361.25 24.39 362.81 23.35 364.89 22.31 366.97 20.75 369.04 19.71 370.6 18.67 372.68 17.63 374.76 16.59 376.84 15.55 378.4 15.03 380.47 13.99 382.55 12.96 384.11 11.92 386.19 11.4 387.75 10.36 389.83 9.84 391.39 8.8 393.46 7.76 395.02 7.24 396.58 6.2 398.66 5.68 400.22 4.64 401.78 4.12 403.34 3.08 404.89 2.56 406.45 1.53 408.01 .49 409.57 -.03 411.13 -1.07 412.17 -1.59 413.73 -2.63 414.77 -3.67"/>
    <polyline class="cls-3" points="181.49 269.1 179.41 270.14 177.33 271.17 175.25 272.73 173.17 273.77 171.61 274.81 169.54 275.85 167.46 276.89 165.38 277.93 163.82 278.97 161.74 280.01 159.66 281.05 158.11 281.57 156.03 282.6 153.95 283.64 152.39 284.16 150.31 285.2 148.75 285.72 147.19 286.76 145.12 287.8 143.56 288.32 142 289.36 140.44 289.88 138.36 290.92 136.8 291.44 135.24 292.48 133.69 293 132.13 294.03 131.09 295.07 129.53 295.59 127.97 296.63 126.41 297.15 125.37 298.19"/>
    <path class="cls-3" d="M526.17,280.36c-16.48,15.86-10.91,37.49,13.33,51.75,24.24,14.26,60.47,17.24,86.71,7.12,26.24-10.12,35.27-30.54,21.6-48.88"/>
    <polyline class="cls-3" points="534.26 396.39 533.74 395.87 533.22 395.87 532.7 394.83 532.19 393.79 531.15 392.75 530.63 391.71 530.11 390.67 529.59 390.15 529.07 389.11 528.03 387.03 526.99 384.96 525.95 382.36 524.91 380.28 524.39 378.2 523.35 375.61 522.31 373.53 521.79 370.93 520.75 368.33 520.24 365.73 519.72 363.14 518.68 360.54 518.16 357.94 517.64 355.34 517.12 352.74 516.6 350.15 516.08 347.55 516.08 344.95 515.56 342.35 515.04 339.76 515.04 337.16 514.52 334.56 514.52 331.96 514.52 329.36 514.52 326.77 514.52 324.17 514.52 321.57 515.04 318.97"/>
    <path class="cls-3" d="M534.65,396.05c-1.54,5.65-3.06,11.28-4.54,16.87"/>
    <polyline class="cls-3" points="529.59 413.53 528.55 413.01 528.03 413.01 526.99 413.01 525.95 412.49 524.91 412.49 524.39 412.49 523.35 412.49 522.83 412.49 521.79 412.49 520.75 412.49 520.24 412.49 519.2 412.49 518.68 412.49 517.64 413.01 517.12 413.01 516.6 413.01 515.56 413.01 515.04 413.01 514.52 413.01 514 413.01 512.96 412.49 512.44 412.49 511.92 412.49 511.4 412.49 510.88 412.49 510.36 412.49 509.84 412.49 509.84 411.97 509.32 411.97 508.81 411.97 508.81 411.45 508.29 411.45"/>
    <path class="cls-3" d="M504.36,448.16c-1.84,22.45,27.38,43.17,65.27,46.28,37.89,3.11,70.11-12.56,71.95-35.01"/>
    <path class="cls-3" d="M534.59,396.05c-2.38,6.15-3.92,11.83-4.55,16.8"/>
    <path class="cls-3" d="M306,90.81c-10.59,1.28-25.44,11.19-40,26.69"/>
    <polyline class="cls-3" points="265.65 117.91 266.17 118.43 266.69 118.94 267.21 119.98 267.73 120.5 268.25 121.54 268.77 122.06 269.29 123.1 269.81 123.62 270.85 125.18 271.37 126.74 271.89 128.82 272.93 130.38 273.45 131.93 273.97 134.01 274.49 136.09 275.01 137.65 275.01 139.73 275.52 141.81 276.04 143.88 276.04 145.44 276.04 147.52 276.56 149.6 276.56 151.68 276.56 153.76 277.08 155.83 277.08 157.91 277.08 159.99 277.08 162.07 277.08 164.15 277.08 166.22 277.08 168.3 277.08 170.38 277.08 172.46 277.08 174.54 277.08 176.62 276.56 179.21 276.56 181.29 276.56 183.37 276.04 185.45 276.04 187.53 276.04 189.6 275.52 191.68 275.52 193.76 275.01 195.84 274.49 197.4 274.49 199.48 273.97 201.55 273.97 203.11 273.45 204.67 272.93 206.75 272.41 208.31 272.41 209.87 271.89 210.91 271.37 212.46 270.85 214.02 270.33 215.06 270.33 216.62 269.81 217.66 269.29 218.7 268.77 219.74 268.25 220.78 267.73 221.3 267.21 222.34 266.69 222.86 266.17 223.38 265.65 223.89 265.13 224.41 264.61 224.93"/>
    <polyline class="cls-3" points="341.51 112.71 339.43 111.15 337.35 110.11 335.27 108.55 332.68 107 330.6 105.96 328.52 104.4 325.92 102.84 323.84 101.8 322.8 101.28 321.25 100.24 320.21 99.72 319.17 99.2 318.13 98.68 316.57 97.64 315.53 97.12 314.49 96.6 313.45 96.08 312.41 95.05 310.85 94.53 309.82 94.01 308.78 92.97 307.74 92.45 306.7 91.93 305.66 90.89"/>
    <path class="cls-3" d="M229.56,236.5c23.16,4.47,38.54-12.22,36.01-39.09-2.53-26.87-22.19-55.65-46.03-67.41-23.85-11.76-44.56-2.87-48.49,20.81"/>
    <path class="cls-3" d="M258.11,203.54c1.76-18.9-8.97-42.32-26.11-57.01-17.14-14.69-36.39-16.95-46.84-5.51"/>
    <path class="cls-3" d="M370.26,134.23c.32-21.1-11.39-45.79-29.52-62.24-18.13-16.45-38.99-21.32-52.59-12.28"/>
    <line class="cls-3" x1="653.24" y1="310.14" x2="641.29" y2="459.77"/>
    <line class="cls-3" x1="516.6" y1="298.71" x2="515.04" y2="318.97"/>
    <line class="cls-3" x1="507.25" y1="410.93" x2="504.13" y2="448.34"/>
    <line class="cls-3" x1="508.29" y1="411.45" x2="261.5" y2="227.01"/>
    <line class="cls-3" x1="546.21" y1="265.98" x2="341.51" y2="112.71"/>
    <line class="cls-3" x1="264.61" y1="224.93" x2="252.14" y2="233.25"/>
    <line class="cls-3" x1="287.99" y1="59.72" x2="183.56" y2="129.34"/>
    <path class="cls-3" d="M498.65,513.58c-1.87,22.74,27.57,43.71,65.75,46.85,38.18,3.14,70.64-12.75,72.51-35.49"/>
    <line class="cls-3" x1="497.89" y1="513.81" x2="499.45" y2="495.62"/>
    <line class="cls-3" x1="636.62" y1="525.24" x2="638.17" y2="507.05"/>
    <path class="cls-3" d="M506.52,612.98c28.89,18.69,74.77,22.46,106.33,8.74"/>
    <path class="cls-3" d="M483.29,588c8.63,21.36,39.25,38.02,75.31,40.99,36.06,2.96,68.99-8.48,80.99-28.15"/>
    <path class="cls-3" d="M547.46,621.29c7.71,1.31,15.59,1.95,23.41,1.92"/>
    <line class="cls-3" x1="506.21" y1="613.56" x2="504.65" y2="612.52"/>
    <line class="cls-3" x1="612.2" y1="622.39" x2="613.76" y2="621.87"/>
    <path class="cls-3" d="M496.56,490.77c-28.34,19.91-25.06,50.8,7.61,71.62,32.67,20.82,84.2,24.86,119.47,9.37,35.27-15.49,42.92-45.53,17.73-69.63"/>
    <path class="cls-3" d="M499.35,500.74c-10.73,16.99-1.45,37.18,23.04,50.12,24.5,12.95,58.73,15.76,85.01,6.98,26.28-8.78,38.73-27.17,30.92-45.69"/>
    <path class="cls-3" d="M471.2,524.96c-2.57,31.31,37.88,60.2,90.36,64.51,52.48,4.31,97.1-17.58,99.68-48.89"/>
    <path class="cls-3" d="M471.2,525.48c-2.57,31.31,37.88,60.2,90.36,64.51,52.48,4.31,97.1-17.58,99.68-48.89"/>
    <path class="cls-3" d="M471.6,532.49c.05,30.11,39.63,57,90,61.14,50.36,4.14,93.81-15.93,98.77-45.63"/>
    <path class="cls-3" d="M474.72,513c-14.07,22.68-1.57,49.52,31.06,66.72,32.64,17.2,78.15,20.94,113.16,9.3,35.01-11.64,51.71-36.08,41.54-60.75"/>
    <path class="cls-3" d="M489.64,595.51c15.41,14.8,41.13,24.92,69.19,27.23,28.06,2.3,55.08-3.48,72.7-15.57"/>
    <path class="cls-3" d="M469.38,522.91c-6.4,22.15,9.3,45.67,40.32,60.43,31.03,14.76,71.84,18.11,104.86,8.61,33.02-9.49,52.34-30.14,49.65-53.04"/>
    <polyline class="cls-3" points="661.03 540.82 661.03 539.26 661.55 538.23 661.03 536.67 661.03 535.11 661.03 534.07 661.03 532.51 660.52 531.47 660.52 529.91 660 528.35 660 527.31 659.48 525.76 658.96 524.72 658.44 523.16 657.92 522.12 657.4 520.56 656.88 519.52 656.36 517.96 655.84 516.92 654.8 515.37 654.28 514.33 653.24 513.29 652.72 511.73 651.68 510.69 650.64 509.65 649.6 508.09 648.57 507.05 647.53 506.01 646.49 504.97 645.45 503.93 644.41 502.9 643.37 501.34 642.33 500.3"/>
    <polyline class="cls-3" points="495.3 489.39 494.26 489.91 492.7 490.95 491.66 491.99 490.62 492.51 489.06 493.54 488.02 494.58 486.98 495.62 485.94 496.66 484.91 497.7 483.87 498.74 482.83 499.78 481.79 500.82 481.27 501.86 480.23 502.9 479.19 503.93 478.67 504.97 477.63 506.53 477.11 507.57 476.07 508.61 475.55 509.65 475.03 511.21 474.51 512.25 473.99 513.29 473.48 514.85 472.96 515.88 472.44 517.44 472.44 518.48 471.92 520.04 471.92 521.08 471.4 522.64 471.4 523.68 471.4 525.24"/>
    <line class="cls-3" x1="661.03" y1="540.82" x2="661.03" y2="541.34"/>
    <line class="cls-3" x1="471.4" y1="525.24" x2="470.88" y2="525.76"/>
    <polyline class="cls-3" points="489.58 595.9 488.02 594.34 486.98 592.78 485.43 591.22 483.87 589.66 482.31 588.1 481.27 586.02 479.71 584.47 478.67 582.39 477.11 580.31 476.07 578.75 475.03 576.67 473.48 574.08 472.44 572 471.92 569.92 470.88 567.32 469.84 565.24 469.32 562.64 468.28 560.05 467.76 557.45 467.24 555.37 466.72 552.25 466.72 549.66 466.2 547.06 466.2 544.46 466.2 542.9 466.2 541.86 466.2 540.3 466.2 539.26 466.2 537.71 466.2 536.15 466.72 535.11 466.72 533.55 467.24 530.95 467.76 528.35 468.28 525.76 468.28 524.2 468.8 523.16"/>
    <polyline class="cls-3" points="663.63 539.26 664.15 540.3 664.15 541.86 664.15 544.46 664.15 547.06 664.15 549.66 664.15 551.21 664.15 552.77 664.15 553.81 663.63 555.37 663.63 556.93 663.63 557.97 663.11 559.53 663.11 560.57 662.59 563.16 661.55 565.76 661.03 568.36 660 570.96 658.96 573.56 657.92 575.63 656.88 578.23 655.84 580.31 654.8 582.39 653.24 584.99 652.2 587.06 650.64 588.62 649.09 590.7 647.53 592.78 645.97 594.34 644.41 595.9 642.85 597.97 641.29 599.53 639.73 601.09 638.17 602.13 636.62 603.69 634.54 605.25 632.98 606.29 631.42 607.33 629.34 608.89 627.78 609.92 626.22 610.96 624.15 612 622.07 613.04 620.51 613.56 618.43 614.6 616.35 615.64 614.27 616.16 612.2 617.2 609.6 617.72 607.52 618.76 605.44 619.28 603.36 619.8 600.77 620.32 598.69 620.83 596.09 621.35 594.01 621.87 591.41 622.39 588.82 622.91 586.22 622.91 584.14 623.43 581.54 623.43 578.94 623.43 576.35 623.95 573.75 623.95 571.67 623.95 569.07 623.95 566.48 623.95 563.88 623.95 561.28 623.43 558.68 623.43 556.08 623.43 553.49 622.91 550.89 622.39 548.81 622.39 546.21 621.87 543.62 621.35 541.02 620.83 538.94 620.32 536.34 619.8 533.74 619.28 531.67 618.24 529.07 617.72 526.47 617.2 524.39 616.16 522.31 615.64 519.72 614.6 517.64 613.56 515.56 612.52 513.48 611.48 511.4 610.96 509.32 609.41 507.25 608.37 505.17 607.33 503.09 606.29 501.53 605.25 499.45 603.69 497.89 602.65 496.34 601.09 494.26 600.05 492.7 598.49 491.14 597.46 489.58 595.9"/>
    <polyline class="cls-3" points="661.03 541.34 661.03 542.9 660.52 544.46 660.52 545.5 660 547.06 660 548.62 659.48 549.66 658.96 551.21 658.44 552.77 657.92 553.81 656.88 555.37 656.36 556.41 655.32 557.97 654.8 559.01 653.76 560.57 652.72 561.61 652.2 563.16 651.16 564.2 649.6 565.24 648.57 566.28 647.53 567.84 646.49 568.88 644.93 569.92 643.89 570.96 642.33 572 640.77 573.04 639.21 574.08 637.65 575.11 636.62 576.15 634.54 577.19 632.98 578.23 631.42 578.75 629.86 579.79 627.78 580.83 626.22 581.35 624.15 582.39 622.59 582.91 620.51 583.43 618.95 584.47 616.87 584.99 614.79 585.51 612.72 586.02 610.64 586.54 608.56 587.06 606.48 587.58 604.4 588.1 602.33 588.62 600.25 589.14 598.17 589.66 595.57 589.66 593.49 590.18 591.41 590.18 588.82 590.7 586.74 590.7 584.66 591.22 582.06 591.22 579.98 591.22 577.91 591.22 575.31 591.22 573.23 591.22 570.63 591.22 568.55 591.22 565.96 591.22 563.88 591.22 561.28 590.7 559.2 590.7 556.6 590.18 554.53 590.18 551.93 589.66 549.85 589.66 547.77 589.14 545.17 588.62 543.1 588.1 541.02 587.58 538.42 587.06 536.34 586.54 534.26 586.02 532.19 585.51 529.59 584.99 527.51 584.47 525.43 583.43 523.35 582.91 521.27 581.87 519.2 581.35 517.12 580.31 515.56 579.79 513.48 578.75 511.4 577.71 509.84 577.19 507.77 576.15 505.69 575.11 504.13 574.08 502.57 573.04 500.49 572 498.93 570.96 497.37 569.92 495.82 568.88 494.26 567.84 492.7 566.28 491.14 565.24 490.1 564.2 488.54 562.64 486.98 561.61 485.94 560.57 484.91 559.01 483.35 557.97 482.31 556.41 481.27 555.37 480.23 553.81 479.19 552.77 478.15 551.21 477.63 549.66 476.59 548.62 476.07 547.06 475.03 546.02 474.51 544.46 473.99 542.9 473.48 541.34 472.96 540.3 472.44 538.75 471.92 537.19 471.92 536.15 471.4 534.59 471.4 533.03 470.88 531.47 470.88 530.43 470.88 528.87 470.88 527.31 470.88 525.76"/>
    <polyline class="cls-3" points="663.63 539.26 663.63 537.19 663.11 535.63 662.59 533.55 662.07 531.47 661.55 529.91 661.03 527.83 660 526.28 658.96 524.2"/>
    <polyline class="cls-3" points="476.07 509.13 474.51 511.21 473.48 512.77 472.44 514.33 471.4 515.88 470.88 517.96 469.84 519.52 469.32 521.08 468.8 523.16"/>
    <path class="cls-3" d="M496.56,490.77c-28.34,19.91-25.06,50.8,7.61,71.62,32.67,20.82,84.2,24.86,119.47,9.37,35.27-15.49,42.92-45.53,17.73-69.63"/>
    <path class="cls-3" d="M499.35,500.74c-10.73,16.99-1.45,37.18,23.04,50.12,24.5,12.95,58.73,15.76,85.01,6.98,26.28-8.78,38.73-27.17,30.92-45.69"/>
    <path class="cls-3" d="M471.2,524.96c-2.57,31.31,37.88,60.2,90.36,64.51,52.48,4.31,97.1-17.58,99.68-48.89"/>
    <path class="cls-3" d="M471.2,525.48c-2.57,31.31,37.88,60.2,90.36,64.51,52.48,4.31,97.1-17.58,99.68-48.89"/>
    <path class="cls-3" d="M471.6,532.49c.05,30.11,39.63,57,90,61.14,50.36,4.14,93.81-15.93,98.77-45.63"/>
    <path class="cls-3" d="M474.72,513c-14.07,22.68-1.57,49.52,31.06,66.72,32.64,17.2,78.15,20.94,113.16,9.3,35.01-11.64,51.71-36.08,41.54-60.75"/>
    <path class="cls-3" d="M489.64,595.51c15.41,14.8,41.13,24.92,69.19,27.23,28.06,2.3,55.08-3.48,72.7-15.57"/>
    <path class="cls-3" d="M469.38,522.91c-6.4,22.15,9.3,45.67,40.32,60.43,31.03,14.76,71.84,18.11,104.86,8.61,33.02-9.49,52.34-30.14,49.65-53.04"/>
    <polyline class="cls-3" points="661.03 540.82 661.03 539.26 661.55 538.23 661.03 536.67 661.03 535.11 661.03 534.07 661.03 532.51 660.52 531.47 660.52 529.91 660 528.35 660 527.31 659.48 525.76 658.96 524.72 658.44 523.16 657.92 522.12 657.4 520.56 656.88 519.52 656.36 517.96 655.84 516.92 654.8 515.37 654.28 514.33 653.24 513.29 652.72 511.73 651.68 510.69 650.64 509.65 649.6 508.09 648.57 507.05 647.53 506.01 646.49 504.97 645.45 503.93 644.41 502.9 643.37 501.34 642.33 500.3"/>
    <polyline class="cls-3" points="495.3 489.39 494.26 489.91 492.7 490.95 491.66 491.99 490.62 492.51 489.06 493.54 488.02 494.58 486.98 495.62 485.94 496.66 484.91 497.7 483.87 498.74 482.83 499.78 481.79 500.82 481.27 501.86 480.23 502.9 479.19 503.93 478.67 504.97 477.63 506.53 477.11 507.57 476.07 508.61 475.55 509.65 475.03 511.21 474.51 512.25 473.99 513.29 473.48 514.85 472.96 515.88 472.44 517.44 472.44 518.48 471.92 520.04 471.92 521.08 471.4 522.64 471.4 523.68 471.4 525.24"/>
    <line class="cls-3" x1="661.03" y1="540.82" x2="661.03" y2="541.34"/>
    <line class="cls-3" x1="471.4" y1="525.24" x2="470.88" y2="525.76"/>
    <polyline class="cls-3" points="489.58 595.9 488.02 594.34 486.98 592.78 485.43 591.22 483.87 589.66 482.31 588.1 481.27 586.02 479.71 584.47 478.67 582.39 477.11 580.31 476.07 578.75 475.03 576.67 473.48 574.08 472.44 572 471.92 569.92 470.88 567.32 469.84 565.24 469.32 562.64 468.28 560.05 467.76 557.45 467.24 555.37 466.72 552.25 466.72 549.66 466.2 547.06 466.2 544.46 466.2 542.9 466.2 541.86 466.2 540.3 466.2 539.26 466.2 537.71 466.2 536.15 466.72 535.11 466.72 533.55 467.24 530.95 467.76 528.35 468.28 525.76 468.28 524.2 468.8 523.16"/>
    <polyline class="cls-3" points="663.63 539.26 664.15 540.3 664.15 541.86 664.15 544.46 664.15 547.06 664.15 549.66 664.15 551.21 664.15 552.77 664.15 553.81 663.63 555.37 663.63 556.93 663.63 557.97 663.11 559.53 663.11 560.57 662.59 563.16 661.55 565.76 661.03 568.36 660 570.96 658.96 573.56 657.92 575.63 656.88 578.23 655.84 580.31 654.8 582.39 653.24 584.99 652.2 587.06 650.64 588.62 649.09 590.7 647.53 592.78 645.97 594.34 644.41 595.9 642.85 597.97 641.29 599.53 639.73 601.09 638.17 602.13 636.62 603.69 634.54 605.25 632.98 606.29 631.42 607.33 629.34 608.89 627.78 609.92 626.22 610.96 624.15 612 622.07 613.04 620.51 613.56 618.43 614.6 616.35 615.64 614.27 616.16 612.2 617.2 609.6 617.72 607.52 618.76 605.44 619.28 603.36 619.8 600.77 620.32 598.69 620.83 596.09 621.35 594.01 621.87 591.41 622.39 588.82 622.91 586.22 622.91 584.14 623.43 581.54 623.43 578.94 623.43 576.35 623.95 573.75 623.95 571.67 623.95 569.07 623.95 566.48 623.95 563.88 623.95 561.28 623.43 558.68 623.43 556.08 623.43 553.49 622.91 550.89 622.39 548.81 622.39 546.21 621.87 543.62 621.35 541.02 620.83 538.94 620.32 536.34 619.8 533.74 619.28 531.67 618.24 529.07 617.72 526.47 617.2 524.39 616.16 522.31 615.64 519.72 614.6 517.64 613.56 515.56 612.52 513.48 611.48 511.4 610.96 509.32 609.41 507.25 608.37 505.17 607.33 503.09 606.29 501.53 605.25 499.45 603.69 497.89 602.65 496.34 601.09 494.26 600.05 492.7 598.49 491.14 597.46 489.58 595.9"/>
    <polyline class="cls-3" points="661.03 541.34 661.03 542.9 660.52 544.46 660.52 545.5 660 547.06 660 548.62 659.48 549.66 658.96 551.21 658.44 552.77 657.92 553.81 656.88 555.37 656.36 556.41 655.32 557.97 654.8 559.01 653.76 560.57 652.72 561.61 652.2 563.16 651.16 564.2 649.6 565.24 648.57 566.28 647.53 567.84 646.49 568.88 644.93 569.92 643.89 570.96 642.33 572 640.77 573.04 639.21 574.08 637.65 575.11 636.62 576.15 634.54 577.19 632.98 578.23 631.42 578.75 629.86 579.79 627.78 580.83 626.22 581.35 624.15 582.39 622.59 582.91 620.51 583.43 618.95 584.47 616.87 584.99 614.79 585.51 612.72 586.02 610.64 586.54 608.56 587.06 606.48 587.58 604.4 588.1 602.33 588.62 600.25 589.14 598.17 589.66 595.57 589.66 593.49 590.18 591.41 590.18 588.82 590.7 586.74 590.7 584.66 591.22 582.06 591.22 579.98 591.22 577.91 591.22 575.31 591.22 573.23 591.22 570.63 591.22 568.55 591.22 565.96 591.22 563.88 591.22 561.28 590.7 559.2 590.7 556.6 590.18 554.53 590.18 551.93 589.66 549.85 589.66 547.77 589.14 545.17 588.62 543.1 588.1 541.02 587.58 538.42 587.06 536.34 586.54 534.26 586.02 532.19 585.51 529.59 584.99 527.51 584.47 525.43 583.43 523.35 582.91 521.27 581.87 519.2 581.35 517.12 580.31 515.56 579.79 513.48 578.75 511.4 577.71 509.84 577.19 507.77 576.15 505.69 575.11 504.13 574.08 502.57 573.04 500.49 572 498.93 570.96 497.37 569.92 495.82 568.88 494.26 567.84 492.7 566.28 491.14 565.24 490.1 564.2 488.54 562.64 486.98 561.61 485.94 560.57 484.91 559.01 483.35 557.97 482.31 556.41 481.27 555.37 480.23 553.81 479.19 552.77 478.15 551.21 477.63 549.66 476.59 548.62 476.07 547.06 475.03 546.02 474.51 544.46 473.99 542.9 473.48 541.34 472.96 540.3 472.44 538.75 471.92 537.19 471.92 536.15 471.4 534.59 471.4 533.03 470.88 531.47 470.88 530.43 470.88 528.87 470.88 527.31 470.88 525.76"/>
    <polyline class="cls-3" points="663.63 539.26 663.63 537.19 663.11 535.63 662.59 533.55 662.07 531.47 661.55 529.91 661.03 527.83 660 526.28 658.96 524.2"/>
    <polyline class="cls-3" points="476.07 509.13 474.51 511.21 473.48 512.77 472.44 514.33 471.4 515.88 470.88 517.96 469.84 519.52 469.32 521.08 468.8 523.16"/>
    <polyline class="cls-3" points="582.06 50.88 583.1 56.6 585.18 62.83 586.74 65.95 590.38 72.18 595.05 77.9 596.09 78.94 640.77 109.07 645.45 110.11 649.6 109.59 651.68 109.07 653.76 108.03 655.32 106.48 657.92 101.8 656.88 96.08 654.8 89.85 653.24 86.73 651.68 83.61 648.05 78.42 643.89 73.74 599.21 43.61 594.53 42.57 592.45 42.57 590.38 43.09 588.3 43.61 586.74 44.65 584.66 46.21 582.06 50.88"/>
    <polyline class="cls-3" points="791.44 -101.35 793 -95.63 795.6 -91.47 802.35 -82.64 807.55 -74.33 808.07 -73.29 808.59 -71.73 809.11 -67.58 808.07 -60.82 806.51 -54.59 804.43 -48.87 803.91 -46.27 802.87 -44.72 796.12 -30.17 788.85 -15.1 780.53 1.01 776.38 8.8 771.7 16.07 767.54 22.83 762.35 29.06 757.67 35.3 753 39.97 749.36 44.13 746.76 47.25 741.05 52.44 735.85 57.64 730.14 62.31 724.42 66.47 718.19 70.63 711.43 74.26 705.2 78.42 692.73 85.17"/>
    <path class="cls-3" d="M742.2,8.43c.04.07.1.14.16.19"/>
    <line class="cls-3" x1="742.09" y1="8.8" x2="764.95" y2="-13.54"/>
    <line class="cls-3" x1="763.39" y1="-13.54" x2="742.09" y2="8.28"/>
    <polyline class="cls-3" points="686.49 -28.61 695.33 -22.37 702.6 -18.22 742.09 8.28"/>
    <line class="cls-3" x1="690.13" y1="86.73" x2="689.61" y2="86.73"/>
    <path class="cls-3" d="M690.36,86.86c0-.1-.02-.21-.03-.31"/>
    <polyline class="cls-3" points="682.34 95.56 684.41 92.97 687.53 89.85 689.61 87.25 690.13 86.73 692.73 85.17"/>
    <polyline class="cls-3" points="742.09 8.8 742.09 8.8 739.49 11.4 735.85 14.51 732.21 17.63 728.06 20.75 719.22 26.98 710.39 33.74 705.72 36.86 700.52 39.97 695.84 43.09 691.17 46.21 686.49 48.8 682.34 50.88 674.02 55.56 676.62 59.2 679.74 62.31 682.34 66.47 684.41 70.63 686.49 74.26 688.05 78.42"/>
    <path class="cls-3" d="M690.35,86.38c-.42-2.91-1.06-5.73-1.9-8.46"/>
    <polyline class="cls-3" points="742.09 8.28 738.97 10.88 735.33 13.99 727.54 20.23 719.22 26.98 709.87 33.22 705.2 36.34 700.52 39.97 695.84 43.09 691.17 45.69 686.49 48.29 682.34 50.88 673.5 55.56"/>
    <polyline class="cls-3" points="673.5 55.56 675.06 55.04 674.02 55.56"/>
    <polyline class="cls-3" points="673.5 55.56 628.3 25.43 637.14 19.71 641.29 16.59 645.45 12.44 648.57 7.76 651.68 2.56 653.76 -3.15 655.32 -8.87"/>
    <polyline class="cls-3" points="654.8 -9.39 653.24 -3.15 651.16 2.56 648.57 7.76 644.93 12.44 641.29 16.07 637.14 19.71 628.3 24.91"/>
    <polyline class="cls-3" points="628.3 24.91 629.34 24.39 628.3 25.43"/>
    <polyline class="cls-3" points="682.34 95.56 680.78 97.64 678.7 98.68"/>
    <polyline class="cls-3" points="615.31 24.91 616.35 24.91 618.95 23.87 621.55 23.87 624.67 24.39 628.3 24.91"/>
    <line class="cls-3" x1="689.61" y1="86.73" x2="663.11" y2="100.76"/>
    <path class="cls-3" d="M663.23,102.32c.17-.47.21-1.1.1-1.78"/>
    <line class="cls-3" x1="663.11" y1="102.32" x2="687.53" y2="89.85"/>
    <line class="cls-3" x1="675.06" y1="55.04" x2="647.53" y2="69.59"/>
    <polyline class="cls-3" points="647.53 69.59 650.12 73.22 653.24 76.34 655.84 80.5 657.92 84.65 684.41 70.63"/>
    <polyline class="cls-3" points="663.11 102.32 660.52 107 658.44 109.07 656.36 110.11"/>
    <polyline class="cls-3" points="657.92 84.65 660 88.81 661.55 92.45 663.11 100.76"/>
    <line class="cls-3" x1="629.34" y1="24.39" x2="601.81" y2="39.45"/>
    <line class="cls-3" x1="601.81" y1="39.45" x2="647.53" y2="69.59"/>
    <polyline class="cls-3" points="601.81 39.45 598.69 38.41 595.57 37.89 592.45 37.89 589.86 38.93 616.35 24.91"/>
    <line class="cls-3" x1="589.86" y1="38.93" x2="589.34" y2="39.45"/>
    <line class="cls-3" x1="661.55" y1="102.84" x2="663.11" y2="102.32"/>
    <polyline class="cls-3" points="663.11 100.76 661.55 101.28 661.55 102.84"/>
    <polyline class="cls-3" points="582.58 47.77 582.58 47.77 582.06 48.8"/>
    <path class="cls-3" d="M647.58,69.59c-.34.19-.69.51-.99.89"/>
    <polyline class="cls-3" points="645.97 70.63 649.09 73.74 652.2 77.38 654.28 81.02 656.88 85.17 657.92 84.65"/>
    <line class="cls-3" x1="642.85" y1="110.11" x2="643.37" y2="110.11"/>
    <polyline class="cls-3" points="642.85 110.11 645.97 111.15 649.09 111.67 652.2 111.15 654.8 110.63 655.84 110.63"/>
    <polyline class="cls-3" points="661.55 102.84 658.96 107.51 656.88 109.07 654.8 110.63"/>
    <path class="cls-3" d="M601.91,39.15c-.37.17-.72.5-.95.92"/>
    <line class="cls-3" x1="600.77" y1="40.49" x2="645.97" y2="70.63"/>
    <line class="cls-3" x1="656.88" y1="85.17" x2="653.24" y2="86.73"/>
    <line class="cls-3" x1="643.89" y1="73.74" x2="645.97" y2="70.63"/>
    <polyline class="cls-3" points="589.86 38.93 589.34 39.97 591.93 39.45 594.53 38.93 597.65 39.45 600.77 40.49"/>
    <line class="cls-3" x1="600.77" y1="40.49" x2="599.21" y2="43.61"/>
    <line class="cls-3" x1="642.85" y1="110.11" x2="640.77" y2="109.07"/>
    <line class="cls-3" x1="651.68" y1="109.07" x2="654.8" y2="110.63"/>
    <line class="cls-3" x1="582.58" y1="47.77" x2="582.06" y2="50.88"/>
    <polyline class="cls-3" points="582.58 47.77 585.18 43.09 587.26 41.53 589.34 39.97 588.3 43.61"/>
    <polyline class="cls-3" points="656.88 85.17 658.44 89.33 660 92.97 661.55 101.28"/>
    <polyline class="cls-3" points="661.55 102.84 657.92 101.8 661.55 101.28"/>
    <polyline class="cls-3" points="615.31 24.91 624.15 20.23 632.46 14.51 636.62 10.88 640.25 6.72 643.89 2.04 647.01 -3.15"/>
    <line class="cls-3" x1="678.7" y1="98.68" x2="656.36" y2="110.11"/>
    <line class="cls-3" x1="589.34" y1="39.45" x2="615.31" y2="24.91"/>
    <line class="cls-3" x1="582.06" y1="48.8" x2="582.58" y2="47.77"/>
    <polyline class="cls-3" points="656.36 110.11 655.84 110.63 652.72 111.67 649.6 111.67 646.49 111.15 643.37 110.11"/>
    <line class="cls-3" x1="582.06" y1="50.88" x2="582.06" y2="48.8"/>
    <polyline class="cls-3" points="582.58 47.77 585.18 42.57 587.26 41.01 589.34 39.45"/>
    <path class="cls-3" d="M468.25,766.2c-.19-9.5-1.18-16.52-2.33-16.51"/>
    <path class="cls-3" d="M465.11,756.53c-.62-6-1.61-8.33-2.51-5.9"/>
    <line class="cls-3" x1="463.08" y1="750.2" x2="465.16" y2="750.2"/>
    <line class="cls-3" x1="462.05" y1="751.76" x2="462.56" y2="750.72"/>
    <path class="cls-3" d="M449.76,758.48c.24.85.81,1.69,1.67,2.5"/>
    <path class="cls-3" d="M451.01,761.34c2.72,2.58,6.34,5.05,10.71,7.33"/>
    <line class="cls-3" x1="461.53" y1="768.91" x2="477.11" y2="768.91"/>
    <path class="cls-3" d="M479.62,767.58c-.96.16-1.82.4-2.53.7"/>
    <path class="cls-3" d="M479.5,767.82c.61-.08,1.05-.26,1.19-.48.14-.22-.02-.46-.46-.66"/>
    <path class="cls-3" d="M478.31,765.26c.72.41,1.47.82,2.23,1.22"/>
    <path class="cls-3" d="M478.33,765.13c-.34-.21-.87-.35-1.45-.38-.58-.03-1.12.07-1.47.25"/>
    <path class="cls-3" d="M465.82,759.62c-3.49.32-5.84,1.51-5.85,2.97,0,1.45,2.33,2.83,5.81,3.44,3.48.6,7.33.3,9.56-.77"/>
    <path class="cls-3" d="M466,759.54c.48-.05.88-.19,1.08-.38s.21-.42.01-.63"/>
    <path class="cls-3" d="M466.57,758.36c.09.09.18.17.28.26"/>
    <line class="cls-3" x1="466.72" y1="759.04" x2="449.58" y2="759.04"/>
    <polyline class="cls-3" points="492.18 831.26 492.18 830.74 496.86 776.18 496.34 775.14 495.3 774.1"/>
    <path class="cls-3" d="M494.76,773.18c.26.14.52.28.78.42"/>
    <line class="cls-3" x1="478.15" y1="775.14" x2="472.44" y2="775.14"/>
    <path class="cls-3" d="M472.71,774.56c1.03.58,2.08,1.15,3.15,1.7"/>
    <path class="cls-3" d="M475.85,776.29c3.26,1.67,7.53,2.36,11.46,1.85s7.04-2.14,8.35-4.39"/>
    <path class="cls-3" d="M494.95,773.43c-.54-.27-1.24-.41-1.92-.37-.68.04-1.26.24-1.59.57"/>
    <path class="cls-3" d="M478.58,774.46c1.99.94,4.51,1.38,6.91,1.2,2.4-.18,4.45-.97,5.63-2.15"/>
    <line class="cls-3" x1="462.05" y1="728.9" x2="460.49" y2="746.05"/>
    <line class="cls-3" x1="458.41" y1="769.95" x2="458.41" y2="769.95"/>
    <path class="cls-3" d="M462.08,728.61c-2.74,7.63-2.55,15.67.55,23.56"/>
    <polyline class="cls-3" points="466.72 759.04 464.12 755.92 462.56 752.28"/>
    <line class="cls-3" x1="457.89" y1="769.43" x2="457.89" y2="769.43"/>
    <path class="cls-3" d="M470.65,698.25c-2.92.2-5.59.93-7.65,2.08"/>
    <path class="cls-3" d="M462.93,700.06c-8.82,5.07-15.15,11.5-18.44,18.71"/>
    <path class="cls-3" d="M444.68,718.73c-.69,1.52-.92,3.13-.68,4.74"/>
    <polyline class="cls-3" points="443.86 723.71 448.02 752.28 462.56 752.28"/>
    <path class="cls-3" d="M462.53,728.91c.11-.23-.04-.48-.4-.68s-.88-.34-1.44-.37"/>
    <path class="cls-3" d="M466.97,716.69c-3.63-2.01-8.79-2.43-12.69-1.02s-5.6,4.31-4.2,7.12,5.59,4.89,10.29,5.09"/>
    <path class="cls-3" d="M466.89,716.19c.69.28,1.67.34,2.33.13"/>
    <path class="cls-3" d="M470.48,700.46c-4.21.61-7.14,2.8-7.36,5.49-.22,2.69,2.32,5.33,6.37,6.62"/>
    <path class="cls-3" d="M474.89,778.63c3.57,1.85,8.24,2.64,12.59,2.13,4.34-.51,7.85-2.26,9.46-4.72"/>
    <line class="cls-3" x1="474.51" y1="778.78" x2="470.36" y2="833.33"/>
    <path class="cls-3" d="M470.21,833.18c3.57,1.85,8.24,2.64,12.59,2.13,4.34-.51,7.85-2.26,9.46-4.72"/>
    <line class="cls-3" x1="438.15" y1="773.06" x2="442.3" y2="725.27"/>
    <path class="cls-3" d="M439.55,779.05c-.37-2.58-.78-4.72-1.21-6.35"/>
    <polyline class="cls-3" points="447.5 760.6 447.5 760.6 443.86 808.39 439.18 779.3"/>
    <path class="cls-3" d="M446.61,753.57c.38,2.66.8,4.84,1.25,6.49"/>
    <line class="cls-3" x1="442.3" y1="725.27" x2="446.46" y2="753.84"/>
    <path class="cls-3" d="M441.48,759.91c-.54,10.76-.03,23.62,1.14,28.73,1.17,5.11,2.56.54,3.1-10.22s.03-23.62-1.14-28.73c-1.17-5.11-2.56-.54-3.1,10.22"/>
    <path class="cls-3" d="M471.69,776.86c1.05.59,2.12,1.17,3.21,1.73"/>
    <polyline class="cls-3" points="471.4 777.22 465.68 773.58 460.49 770.99"/>
    <path class="cls-3" d="M449.53,762.98c2.77,2.68,6.44,5.23,10.89,7.59"/>
    <line class="cls-3" x1="449.58" y1="763.19" x2="445.42" y2="812.55"/>
    <path class="cls-3" d="M445.48,812.29c5.18,7.99,13.73,15.2,24.75,20.86"/>
    <line class="cls-3" x1="465.68" y1="760.08" x2="465.16" y2="765.79"/>
    <polyline class="cls-3" points="478.15 775.14 476.07 773.58 475.03 771.51 475.03 769.95 477.11 768.91"/>
    <line class="cls-3" x1="479.19" y1="767.87" x2="478.67" y2="775.14"/>
    <path class="cls-3" d="M448.17,752.33c.38,2.58.8,4.69,1.25,6.29"/>
    <polyline class="cls-3" points="461.53 768.91 466.72 771.51 472.44 775.14"/>
    <path class="cls-3" d="M454.28,766.96h0"/>
    <path class="cls-3" d="M445.81,761.48c-.25,2.01-.39,4.79-.39,7.69,0,2.9.15,5.68.41,7.69"/>
    <line class="cls-2" x1="448.54" y1="762.67" x2="448.54" y2="762.67"/>
    <path class="cls-3" d="M445.21,752.57c-.53,4.1-.83,10.18-.83,16.6,0,6.42.33,12.5.87,16.59"/>
    <line class="cls-3" x1="466.72" y1="716.95" x2="464.12" y2="750.2"/>
    <path class="cls-3" d="M441.87,722.99c-.06.68-.03,1.37.07,2.06"/>
    <path class="cls-3" d="M438.18,771.47h0"/>
    <path class="cls-3" d="M438.18,771.47c-.03.39,0,.79.09,1.19"/>
    <line class="cls-3" x1="438.15" y1="772.55" x2="438.15" y2="773.06"/>
    <path class="cls-3" d="M447.66,760.34c.26.94.86,1.88,1.79,2.78"/>
    <path class="cls-3" d="M444.01,808.18c.21,1.45.78,2.89,1.66,4.27"/>
    <path class="cls-3" d="M470.06,833.37c-.04.41.04.7.24.8"/>
    <path class="cls-3" d="M445.56,812.62c-.02.25.03.47.15.66"/>
    <path class="cls-3" d="M443.88,808.16c0,.08,0,.16,0,.24"/>
    <path class="cls-3" d="M439.72,779.07c0,.08,0,.16,0,.24"/>
    <path class="cls-3" d="M438.18,772.91c-.02.13,0,.25.02.37"/>
    <path class="cls-3" d="M438.18,772.37c-.01.12,0,.23.02.34"/>
    <path class="cls-3" d="M475.97,776.56c-.59.45-1.14,1.46-1.23,2.26"/>
    <path class="cls-3" d="M472.89,774.51c-.61.44-1.19,1.44-1.3,2.22"/>
    <path class="cls-3" d="M461.87,768.53c-.41.11-.81.42-1.1.85-.29.44-.44.96-.4,1.42"/>
    <path class="cls-3" d="M451.6,761.37c-.43.09-.87.35-1.2.73-.34.38-.54.84-.57,1.26"/>
    <path class="cls-3" d="M449.49,759c-.98.06-1.85.71-1.95,1.45"/>
    <path class="cls-3" d="M449.49,759c-.98.06-1.85.71-1.95,1.45"/>
    <path class="cls-3" d="M462.73,700.29c-.33-.27-.62-.36-.82-.24"/>
    <path class="cls-3" d="M448.42,752.27c-1,.02-1.87.62-1.94,1.34"/>
    <path class="cls-3" d="M444.71,718.99c-.78-.18-1.48.06-1.73.59"/>
    <path class="cls-3" d="M444.26,723.69c-1,.02-1.87.62-1.94,1.34"/>
    <line class="cls-3" x1="466.72" y1="759.56" x2="466.2" y2="766.31"/>
    <line class="cls-3" x1="480.23" y1="775.66" x2="480.75" y2="767.35"/>
    <line class="cls-3" x1="462.05" y1="728.9" x2="460.49" y2="746.05"/>
    <line class="cls-3" x1="458.41" y1="769.95" x2="458.41" y2="769.95"/>
    <line class="cls-3" x1="438.15" y1="771.51" x2="441.78" y2="723.19"/>
    <polyline class="cls-3" points="438.15 771.51 438.15 773.06 438.15 773.58 438.66 776.18 439.18 779.3 443.86 808.39 444.38 810.99 445.42 813.07 450.1 819.31 455.81 824.5 462.56 829.7 470.36 834.37 472.96 835.41 476.07 835.93 479.19 836.45 482.31 836.45 485.43 835.93 488.02 834.89 490.62 833.33 492.18 831.26"/>
    <polyline class="cls-3" points="441.78 723.19 442.82 719.55 445.94 714.36 450.1 709.16 455.81 704.48 462.05 700.33 465.68 698.77 470.36 697.73"/>
    <line class="cls-3" x1="660" y1="89.33" x2="660" y2="89.33"/>
    <line class="cls-3" x1="661.03" y1="91.93" x2="661.03" y2="91.93"/>
    <line class="cls-3" x1="650.12" y1="72.7" x2="650.12" y2="72.7"/>
    <line class="cls-3" x1="648.57" y1="73.22" x2="648.57" y2="73.22"/>
    <line class="cls-3" x1="653.76" y1="76.86" x2="653.76" y2="76.86"/>
    <line class="cls-3" x1="659.48" y1="87.25" x2="659.48" y2="87.25"/>
    <line class="cls-3" x1="682.86" y1="96.08" x2="682.34" y2="95.56"/>
    <line class="cls-3" x1="660" y1="94.53" x2="660" y2="94.53"/>
    <polyline class="cls-3" points="677.66 99.2 680.26 98.16 682.86 96.08"/>
    <path class="cls-3" d="M687.07,92.89c-.94.51-1.88,1.02-2.82,1.53"/>
    <polyline class="cls-3" points="687.01 92.97 689.09 89.85 686.49 92.45 683.9 94.53"/>
    <path class="cls-3" d="M692.49,84.53c-.37.21-.75.43-1.14.69"/>
    <line class="cls-3" x1="692.21" y1="85.17" x2="692.21" y2="85.17"/>
    <line class="cls-3" x1="697.92" y1="41.53" x2="697.92" y2="41.53"/>
    <line class="cls-3" x1="680.78" y1="63.87" x2="680.78" y2="63.87"/>
    <line class="cls-2" x1="699.48" y1="39.97" x2="699.48" y2="39.97"/>
    <line class="cls-3" x1="693.77" y1="86.21" x2="692.21" y2="85.17"/>
    <line class="cls-3" x1="682.86" y1="96.08" x2="683.9" y2="94.53"/>
    <polyline class="cls-3" points="689.09 89.85 691.69 87.77 693.77 86.21"/>
    <polyline class="cls-3" points="686.49 94.01 687.01 93.49 687.01 92.97"/>
    <line class="cls-3" x1="686.49" y1="94.01" x2="699.48" y2="85.17"/>
    <line class="cls-3" x1="722.34" y1="69.07" x2="720.26" y2="71.67"/>
    <polyline class="cls-3" points="693.77 86.21 707.79 78.42 715.07 74.26 722.34 69.07"/>
    <line class="cls-3" x1="639.21" y1="18.15" x2="639.21" y2="18.15"/>
    <line class="cls-3" x1="630.9" y1="23.87" x2="630.9" y2="23.87"/>
    <line class="cls-3" x1="692.21" y1="85.17" x2="696.88" y2="82.58"/>
    <polyline class="cls-3" points="803.91 -45.23 791.44 -18.22 784.69 -4.19 781.05 2.56 776.9 9.84 772.22 17.63 766.5 25.43 760.27 33.22 753.52 41.01 746.76 48.8 738.97 56.6 734.81 59.72 730.66 63.35 722.34 69.07"/>
    <line class="cls-3" x1="687.53" y1="77.38" x2="687.53" y2="77.38"/>
    <line class="cls-3" x1="645.45" y1="11.92" x2="645.45" y2="11.92"/>
    <line class="cls-3" x1="642.85" y1="14.51" x2="642.85" y2="14.51"/>
    <polyline class="cls-3" points="686.49 94.01 685.97 94.53 684.93 95.56 682.86 97.12"/>
    <polyline class="cls-3" points="720.26 71.67 710.39 78.42 699.48 85.17"/>
    <line class="cls-3" x1="682.86" y1="97.12" x2="679.74" y2="98.68"/>
    <polyline class="cls-3" points="796.64 -20.3 789.88 -8.87 782.61 3.08 774.82 15.03 765.47 27.5 755.59 39.45 744.68 50.88 738.97 56.6 733.25 61.79 727.02 66.99 720.26 71.67"/>
    <polyline class="cls-3" points="699.48 85.17 695.84 87.77 692.21 90.37 684.41 96.08"/>
    <line class="cls-3" x1="589.34" y1="20.23" x2="589.34" y2="20.23"/>
    <polyline class="cls-3" points="607.52 27.5 602.84 30.1 598.69 32.18 596.09 33.22 584.14 37.37 573.23 41.53 570.11 42.57 566.48 44.13 562.32 46.21 557.64 48.8"/>
    <polyline class="cls-3" points="649.6 -5.75 644.93 -1.59 642.85 -.03 642.33 1.01 642.85 2.56 640.77 3.6 638.69 4.12 634.54 6.2 630.38 8.28 627.26 10.36 624.15 11.92 621.03 13.99 617.39 16.07 613.76 18.67 609.6 21.27 606.48 23.87 604.4 25.94 603.36 26.98 603.36 28.02 603.88 28.02 604.92 28.02 606.48 27.5"/>
    <polyline class="cls-3" points="564.92 41.01 591.41 25.94 653.76 -10.42"/>
    <polyline class="cls-3" points="526.99 65.95 464.12 101.8 401.78 136.61 399.18 137.65 398.14 137.65 397.62 137.65 398.66 136.61 524.39 64.39"/>
    <line class="cls-2" x1="402.82" y1="135.57" x2="402.82" y2="135.57"/>
    <path class="cls-3" d="M402.32,136.25c.2-.04.37-.11.54-.21"/>
    <polyline class="cls-3" points="575.31 12.44 581.02 8.8 582.06 6.72"/>
    <polyline class="cls-3" points="559.2 28.54 561.28 27.5 562.84 26.46 563.36 26.46 563.88 26.46 564.4 26.98 564.4 27.5 567 24.39 570.63 20.75 575.31 15.55 579.46 10.88 579.98 9.84"/>
    <path class="cls-3" d="M581.38,8.29c-.37.42-.7.82-1,1.18"/>
    <polyline class="cls-3" points="543.1 44.65 543.62 45.17 544.65 46.21 548.29 42.57 550.89 39.97 552.97 37.89 555.05 35.82 557.64 33.22 559.72 32.18 561.8 30.62 562.32 30.62 563.36 31.14"/>
    <line class="cls-3" x1="563.51" y1="29.2" x2="563.51" y2="29.2"/>
    <path class="cls-3" d="M564.67,27.22c-.55.55-.96,1.23-1.16,1.98"/>
    <path class="cls-3" d="M538.38,51.63c-.64-.93-1.27-1.72-1.77-2.19"/>
    <polyline class="cls-3" points="538.42 51.4 541.54 49.32 544.65 46.21"/>
    <polyline class="cls-3" points="418.4 116.35 409.57 125.7 400.22 135.05 523.87 63.87"/>
    <polyline class="cls-3" points="522.31 63.35 520.75 63.87 519.2 63.87 518.68 63.87 518.68 62.83 519.2 61.79 519.72 61.27 521.27 59.72 523.87 57.64 525.43 56.08 528.03 54.52"/>
    <path class="cls-3" d="M399.41,135.28c.35-.05.68-.15.99-.31"/>
    <path class="cls-3" d="M397.88,136.34c.34-.05.66-.16.95-.31"/>
    <path class="cls-3" d="M395.24,135.74s0,0,0,0"/>
    <path class="cls-3" d="M398.75,136.33c.48-.45.95-.91,1.41-1.39"/>
    <path class="cls-3" d="M399.15,136.34s-.05.04-.07.07"/>
    <path class="cls-3" d="M397.89,136.34c.34-.05.66-.16.95-.31"/>
    <path class="cls-3" d="M395.19,135.7s0,0,0,0"/>
    <path class="cls-3" d="M398.64,137.43c.25-.09.48-.21.7-.35"/>
    <path class="cls-3" d="M401.24,136.39c.25-.09.48-.2.7-.35"/>
    <line class="cls-2" x1="400.74" y1="136.61" x2="400.74" y2="136.61"/>
    <line class="cls-3" x1="591.41" y1="24.39" x2="564.92" y2="39.97"/>
    <path class="cls-3" d="M591.7,25.62c.09-.23.1-.62,0-1.14"/>
    <polyline class="cls-3" points="591.41 24.39 590.38 22.31 589.86 20.23 585.7 23.87 581.02 28.02 577.91 30.1 573.75 33.22 564.92 38.93"/>
    <polyline class="cls-3" points="621.03 -13.54 618.95 -9.9 616.35 -5.75 614.27 -3.67 612.2 -1.59 601.81 8.28 598.69 11.4 596.61 13.48 594.53 15.55 592.97 17.11 590.89 18.67 589.86 20.23"/>
    <polyline class="cls-3" points="591.41 24.39 605.96 16.07 621.03 7.24 653.24 -10.94"/>
    <line class="cls-3" x1="535.82" y1="53.48" x2="535.82" y2="53.48"/>
    <line class="cls-3" x1="568.55" y1="37.89" x2="568.55" y2="37.89"/>
    <line class="cls-3" x1="604.4" y1="28.02" x2="604.4" y2="28.02"/>
    <polyline class="cls-3" points="605.96 26.46 608.04 26.98 608.04 27.5 608.56 27.5"/>
    <polyline class="cls-3" points="603.36 26.98 605.96 26.46 605.96 26.98 606.48 27.5"/>
    <line class="cls-3" x1="602.33" y1="30.62" x2="602.84" y2="30.1"/>
    <path class="cls-3" d="M594.77,34.24c.52-.19,1.02-.45,1.48-.77"/>
    <path class="cls-3" d="M571.92,42.02c.55-.2,1.08-.47,1.57-.8"/>
    <line class="cls-3" x1="521.27" y1="59.72" x2="521.27" y2="59.72"/>
    <polyline class="cls-3" points="587.78 4.12 590.89 2.56 595.05 1.53 600.25 -.55 606.48 -2.63"/>
    <polyline class="cls-3" points="582.58 9.32 584.14 7.76 585.18 6.72 586.74 4.64"/>
    <path class="cls-3" d="M582.78,8.96c-.68-.33-1.22-.45-1.53-.33"/>
    <path class="cls-3" d="M607.74.03c-.04-.76-.34-1.97-.79-3.22"/>
    <path class="cls-3" d="M582.38,8.77c-.42.31-.81.6-1.15.87"/>
    <polyline class="cls-3" points="607.52 .49 600.77 3.08 595.57 4.64 591.41 6.2 588.3 7.76 585.7 8.28 584.14 9.32 581.54 9.84"/>
    <polyline class="cls-3" points="581.02 10.88 599.73 8.28 603.88 4.12 607.52 .49"/>
    <path class="cls-3" d="M581.26,9.69c-.23.27-.44.52-.64.77"/>
    <polyline class="cls-3" points="581.02 10.88 576.35 15.55 571.67 20.75 588.82 19.71 589.86 18.67 591.93 16.59 592.97 15.03 594.53 13.48 597.13 11.4 599.73 8.28"/>
    <path class="cls-3" d="M581.11,10.67c-.6-.17-1.08-.16-1.41.02"/>
    <path class="cls-3" d="M571.87,20.65c-.43-.16-.77-.19-.99-.11"/>
    <path class="cls-3" d="M581.62,9.65c-.6-.16-1.09-.16-1.41.02"/>
    <polyline class="cls-3" points="564.92 28.02 568.03 24.91 571.67 20.75"/>
    <path class="cls-3" d="M565.5,27.33c-.35-.11-.64-.13-.83-.06"/>
    <path class="cls-3" d="M565.54,27.81c0-.14,0-.29,0-.43"/>
    <polyline class="cls-3" points="563.88 34.26 564.92 31.14 564.92 28.54"/>
    <polyline class="cls-3" points="588.82 19.71 588.3 20.23 584.66 23.35 579.98 27.5 577.39 29.58 573.23 32.18 564.4 38.41"/>
    <path class="cls-3" d="M565.42,27.53c-1.02.5-1.73,1.3-1.97,2.2"/>
    <path class="cls-3" d="M565.42,28.02c-1.01.49-1.72,1.26-1.96,2.15"/>
    <polyline class="cls-3" points="525.95 64.91 527.51 63.35 530.11 61.27 533.22 58.68 535.82 56.6 539.46 54.52 543.1 51.92 546.21 49.84 549.85 47.77 553.49 45.69 556.6 44.13 559.2 42.57 561.8 41.53 563.36 41.01 564.4 40.49 564.92 41.01 564.92 41.53"/>
    <polyline class="cls-3" points="538.42 51.4 534.26 54.52 531.15 56.6 528.55 58.16 526.99 59.2 524.91 61.27 523.87 62.31 523.35 63.35 525.95 64.91"/>
    <polyline class="cls-3" points="564.92 41.53 564.4 42.57 562.84 43.61 560.76 45.69 558.68 47.25"/>
    <polyline class="cls-3" points="534.78 62.31 530.63 64.39 527.51 65.43 525.95 65.95 525.95 64.91"/>
    <path class="cls-3" d="M559.49,45.92c4.42-3.69,2.89-3.96-3.54-.63s-15.68,9.19-21.44,13.57-6.17,5.88-.95,3.46"/>
    <path class="cls-3" d="M560.21,43.66c.46-.47.73-.83.82-1.08"/>
    <path class="cls-3" d="M530.08,62.16c.26.03.7-.06,1.32-.28"/>
    <line class="cls-3" x1="523.35" y1="63.35" x2="523.87" y2="63.87"/>
    <line class="cls-3" x1="559.72" y1="43.61" x2="559.72" y2="43.61"/>
    <path class="cls-3" d="M523.68,62.69c-1.42-1.08-3.36-1.19-4.9-.29"/>
    <path class="cls-3" d="M588.63,20.03c.43.1.84.16,1.21.17"/>
    <line class="cls-3" x1="588.82" y1="19.71" x2="589.86" y2="20.23"/>
    <path class="cls-3" d="M599.89,7.95c.8.19,1.54.26,2.2.22"/>
    <polyline class="cls-3" points="607.52 .49 610.12 -.55 611.16 -1.07 611.68 -3.67 611.16 -5.23 611.16 -7.31"/>
    <path class="cls-3" d="M610.21-.95c-.05-.69-.52-1.97-1.2-3.3"/>
    <polyline class="cls-3" points="605.96 26.46 607 25.43 609.08 23.87 611.68 21.79 615.31 19.19 618.95 16.59 622.07 15.03 627.26 11.4 627.26 10.36"/>
    <polyline class="cls-3" points="627.26 11.4 627.78 12.44 622.07 16.07 619.47 18.15 616.35 20.23 613.24 22.31 610.64 24.39 609.08 25.94 608.04 26.98"/>
    <line class="cls-3" x1="627.78" y1="12.44" x2="628.3" y2="13.99"/>
    <path class="cls-3" d="M608.68,26.41c.94.16,1.9-.03,2.71-.53"/>
    <polyline class="cls-3" points="639.73 7.76 637.14 8.8 634.02 10.36 630.9 12.44 628.3 13.99 623.11 17.11 620.51 18.67 617.91 20.75 615.31 22.31 613.24 24.39 611.68 25.43 611.16 26.46 611.16 26.98 611.68 26.98"/>
    <path class="cls-3" d="M638.47,9.11c-2.75.62-10.34,4.8-16.95,9.36-6.62,4.56-9.77,7.76-7.05,7.17"/>
    <line class="cls-3" x1="645.45" y1="-2.11" x2="645.45" y2="-.03"/>
    <line class="cls-3" x1="644.93" y1="-1.59" x2="644.93" y2="-.03"/>
    <line class="cls-3" x1="644.93" y1="-.03" x2="644.93" y2=".49"/>
    <line class="cls-3" x1="642.85" y1="2.56" x2="643.37" y2="2.56"/>
    <line class="cls-3" x1="644.93" y1=".49" x2="644.93" y2="-.03"/>
    <path class="cls-3" d="M642.77.91c.83-.49,1.48-1.25,1.84-2.14"/>
    <path class="cls-3" d="M643.2,2.62c-.66.45-1.14,1.17-1.34,2.02"/>
    <polyline class="cls-3" points="627.26 11.4 630.38 9.84 634.02 8.28 637.65 6.2 639.73 5.68 641.29 4.64 642.33 4.12"/>
    <polyline class="cls-3" points="641.29 5.68 638.69 6.72 635.06 8.28 631.42 10.36 627.78 12.44"/>
    <path class="cls-3" d="M638.54,9.09c-2.65.55-10.09,4.64-16.71,9.17s-9.98,7.83-7.53,7.42"/>
    <line class="cls-3" x1="527.51" y1="65.43" x2="402.3" y2="136.61"/>
    <polyline class="cls-3" points="563.36 29.58 562.84 30.1 563.36 31.14"/>
    <line class="cls-3" x1="398.66" y1="138.17" x2="396.06" y2="138.69"/>
    <line class="cls-3" x1="392.42" y1="137.13" x2="392.42" y2="137.13"/>
    <polyline class="cls-3" points="398.66 138.17 401.26 137.13 402.3 136.61"/>
    <polyline class="cls-3" points="608.56 27.5 606.48 27.5 605.96 27.5"/>
    <polyline class="cls-3" points="607.52 27.5 602.33 30.62 598.17 32.7 594.53 34.26 571.67 42.57 569.07 43.61 565.96 44.65 561.8 46.73 557.64 48.8"/>
    <line class="cls-3" x1="563.36" y1="31.14" x2="565.44" y2="41.01"/>
    <polyline class="cls-3" points="529.59 62.83 530.11 62.31 531.15 61.27 532.19 60.23 534.26 58.68 536.34 57.12 538.94 55.04 541.54 53.48 544.65 51.4 547.25 49.84 550.37 48.29 552.97 46.73 555.05 45.17 557.12 44.13 559.2 43.61 560.24 43.09 560.76 43.09"/>
    <polyline class="cls-3" points="525.95 65.95 523.87 63.87 522.31 63.35 521.79 63.35"/>
    <line class="cls-3" x1="610.64" y1="27.5" x2="608.56" y2="27.5"/>
    <polyline class="cls-3" points="644.41 -.55 644.41 -1.07 645.45 -2.11 645.45 -.03"/>
    <path class="cls-3" d="M635.22,12.03c-2.09.71-6.35,3.05-10.44,5.75-4.09,2.7-7.04,5.11-7.23,5.91"/>
    <line class="cls-3" x1="617.6" y1="23.91" x2="617.6" y2="23.91"/>
    <path class="cls-3" d="M619.35,23.55s0,0,0,0"/>
    <path class="cls-3" d="M620.9,23.04s0,0,0,0"/>
    <path class="cls-3" d="M636.53,10.99c-2.94,1.36-7.83,4.21-12.47,7.25-4.64,3.05-8.15,5.73-8.98,6.84"/>
    <line class="cls-3" x1="610.64" y1="13.48" x2="610.64" y2="13.48"/>
    <line class="cls-3" x1="613.76" y1="25.94" x2="613.24" y2="25.43"/>
    <polyline class="cls-3" points="402.82 121.54 410.61 119.98 417.88 116.87 535.82 49.84 539.46 47.25 543.1 44.65 573.23 15.03 575.83 11.92"/>
    <polyline class="cls-3" points="573.75 14.51 575.31 12.44 576.87 9.84"/>
    <line class="cls-3" x1="573.23" y1="15.03" x2="573.75" y2="14.51"/>
    <line class="cls-3" x1="417.88" y1="115.83" x2="417.88" y2="116.87"/>
    <polyline class="cls-3" points="404.37 120.5 411.13 118.94 417.88 115.83"/>
    <line class="cls-3" x1="536.34" y1="48.8" x2="535.82" y2="49.84"/>
    <line class="cls-3" x1="417.88" y1="115.83" x2="536.34" y2="48.8"/>
    <line class="cls-3" x1="543.62" y1="43.61" x2="543.1" y2="44.65"/>
    <polyline class="cls-3" points="536.34 48.8 539.98 46.73 543.62 43.61 573.75 14.51"/>
    <polyline class="cls-3" points="573.75 14.51 569.07 17.63 562.32 23.87 555.56 30.62 554.01 31.66 552.45 33.22 549.33 35.82 546.73 37.89 542.06 42.05 543.62 43.61"/>
    <polyline class="cls-3" points="571.15 12.96 570.11 15.55 569.07 17.63"/>
    <polyline class="cls-3" points="417.88 115.83 423.08 110.63 416.84 113.75 412.17 115.31"/>
    <polyline class="cls-3" points="536.34 48.8 535.82 46.73 508.81 62.31 482.31 77.38 468.8 85.17 454.77 92.97 439.18 101.8 423.08 110.63"/>
    <polyline class="cls-3" points="542.06 42.05 539.46 44.65 535.82 46.73"/>
    <path class="cls-3" d="M535.98,46.51c.18-.53-.75-2.78-2.1-5.07"/>
    <path class="cls-3" d="M542.23,42.04c.24-.72-1-2.68-2.84-4.49"/>
    <polyline class="cls-3" points="436.07 97.12 449.58 89.33 462.56 82.06 485.94 68.55 509.32 55.56 533.74 41.53 536.86 39.45 538.94 37.89 543.62 33.22 541.02 28.54"/>
    <path class="cls-3" d="M545.79,31.76c-.6.27-1.3.64-2.03,1.08"/>
    <line class="cls-3" x1="543.1" y1="27.5" x2="545.69" y2="32.18"/>
    <path class="cls-3" d="M546.9,37.36c.23-.72-1-2.68-2.84-4.49"/>
    <path class="cls-3" d="M546.89,37.38c.97-1.35.58-3.67-.92-5.52"/>
    <path class="cls-3" d="M552.6,32.71c.97-1.35.59-3.67-.92-5.52"/>
    <polyline class="cls-3" points="545.69 32.18 548.29 30.1 551.41 27.5 549.33 24.39"/>
    <polyline class="cls-3" points="551.41 27.5 552.45 25.94 550.89 23.35"/>
    <polyline class="cls-3" points="559.72 18.67 556.08 22.31 552.45 25.94"/>
    <path class="cls-3" d="M555.73,30.1c.23-.73-1-2.69-2.83-4.5"/>
    <path class="cls-3" d="M569.25,17.09c.14-.49-.35-1.52-1.3-2.75"/>
    <polyline class="cls-3" points="415.8 112.71 416.84 113.75 416.84 112.19"/>
    <path class="cls-3" d="M423.24,110.41c.1-.31-.17-1.2-.72-2.42"/>
    <line class="cls-3" x1="575.83" y1="11.4" x2="575.83" y2="11.92"/>
    <path class="cls-3" d="M554.45,54.15c1.88-1.62.77-1.48-2.49.3s-7.43,4.54-9.31,6.15c-1.88,1.62-.77,1.48,2.49-.3s7.43-4.54,9.31-6.15"/>
    <path class="cls-3" d="M559.72,45.43c.65-1.26-2.09-.39-6.93,2.2-4.85,2.59-10.87,6.4-15.29,9.68s-6.37,5.37-4.95,5.33"/>
    <path class="cls-3" d="M559.7,43.15s-.03-.04-.06-.06"/>
    <path class="cls-3" d="M531.14,61.13s.01.05.03.08"/>
    <path class="cls-3" d="M546.53,57.79c-1.66,1.16-2.81,2.15-3.01,2.6"/>
    <path class="cls-3" d="M551.56,54.78c-1.46.71-3.38,1.85-5.03,3.01"/>
    <path class="cls-3" d="M553.58,54.37c.2-.45-.57-.3-2.03.41"/>
    <path class="cls-3" d="M550.58,56.97c1.66-1.16,2.81-2.15,3.01-2.6"/>
    <path class="cls-3" d="M545.54,59.98c1.46-.71,3.38-1.85,5.03-3.01"/>
    <path class="cls-3" d="M543.52,60.38c-.2.45.57.3,2.03-.41"/>
    <polyline class="cls-3" points="552.97 54.52 552.97 55.04 552.45 55.04"/>
    <polyline class="cls-3" points="548.29 57.12 548.81 57.12 549.33 57.64 550.37 57.12 550.37 56.6 550.37 56.08"/>
    <polyline class="cls-3" points="546.21 58.16 546.21 58.68 545.69 59.72 545.17 60.23 544.65 59.72"/>
    <line class="cls-3" x1="546.21" y1="58.68" x2="546.21" y2="58.68"/>
    <line class="cls-3" x1="548.29" y1="57.12" x2="548.81" y2="57.12"/>
    <line class="cls-3" x1="542.06" y1="62.31" x2="532.7" y2="62.31"/>
    <polyline class="cls-3" points="555.05 53.48 559.2 45.69 559.72 44.65 559.2 43.61"/>
    <polyline class="cls-3" points="532.7 62.31 531.67 62.31 530.63 61.79"/>
    <line class="cls-3" x1="550.37" y1="56.08" x2="550.37" y2="56.08"/>
    <path class="cls-3" d="M619.61,21.97c1.05-.26,4.03-1.87,7.29-3.94,3.26-2.06,5.99-4.07,6.68-4.9"/>
    <line class="cls-3" x1="398.66" y1="134.53" x2="415.29" y2="117.91"/>
    <polyline class="cls-3" points="395.54 126.22 384.63 138.69 391.91 137.13 398.66 134.53"/>
    <line class="cls-3" x1="398.66" y1="136.09" x2="416.84" y2="116.87"/>
    <polyline class="cls-3" points="398.66 134.53 396.58 137.13 398.66 136.09"/>
    <line class="cls-3" x1="396.06" y1="137.65" x2="396.58" y2="137.13"/>
    <polyline class="cls-3" points="384.63 138.69 381.51 141.81 384.11 141.29 387.75 140.25 395.02 138.17 395.54 137.65 396.06 137.65"/>
    <line class="cls-3" x1="396.06" y1="137.13" x2="398.14" y2="136.61"/>
    <path class="cls-3" d="M398.05,136.31c.1-.1.2-.2.3-.31"/>
    <polyline class="cls-3" points="396.06 137.65 395.54 138.17 397.1 137.13"/>
    <path class="cls-3" d="M397.67,136.93c.26-.24.51-.49.76-.74"/>
    <path class="cls-3" d="M395.71,137.87c.05-.13.09-.26.13-.4"/>
    <polyline class="cls-3" points="394.5 138.69 395.02 138.69 395.54 138.17"/>
    <path class="cls-3" d="M395.19,138.67c.1-.23.18-.48.26-.75"/>
    <line class="cls-3" x1="396.58" y1="137.65" x2="394.5" y2="138.69"/>
    <line class="cls-3" x1="397.1" y1="137.65" x2="396.58" y2="137.65"/>
    <line class="cls-3" x1="395.02" y1="138.69" x2="397.1" y2="137.65"/>
    <line class="cls-3" x1="394.5" y1="138.69" x2="394.5" y2="138.69"/>
    <line class="cls-3" x1="395.02" y1="138.17" x2="383.07" y2="143.88"/>
    <line class="cls-3" x1="383.59" y1="144.4" x2="394.5" y2="138.69"/>
    <polyline class="cls-3" points="380.47 142.32 381.51 141.81 381.51 143.36"/>
    <polyline class="cls-3" points="394.5 138.69 393.46 140.25 393.46 140.77 394.5 140.77 393.98 140.77 385.15 145.96"/>
    <line class="cls-3" x1="394.5" y1="140.77" x2="396.06" y2="139.21"/>
    <polyline class="cls-3" points="396.06 139.21 395.54 139.73 395.54 139.21 395.54 138.69 396.58 137.65"/>
    <polyline class="cls-3" points="394.5 140.77 395.02 140.77 397.1 139.21"/>
    <path class="cls-3" d="M396.7,139.26c.15-.04.33-.09.53-.16"/>
    <line class="cls-3" x1="394.5" y1="140.77" x2="393.98" y2="140.77"/>
    <line class="cls-3" x1="395.02" y1="140.77" x2="394.5" y2="140.77"/>
    <path class="cls-3" d="M395.85,139.86s.08-.04.31-.17"/>
    <polyline class="cls-3" points="395.54 140.25 395.54 140.25 395.02 140.77"/>
    <line class="cls-2" x1="393.98" y1="141.29" x2="393.98" y2="141.29"/>
    <path class="cls-3" d="M394.51,141.21c.12-.05.22-.14.29-.26"/>
    <line class="cls-3" x1="397.1" y1="139.21" x2="397.1" y2="139.21"/>
    <line class="cls-3" x1="394.5" y1="140.77" x2="394.5" y2="140.77"/>
    <line class="cls-3" x1="396.06" y1="140.25" x2="396.06" y2="140.25"/>
    <line class="cls-3" x1="397.1" y1="139.21" x2="397.1" y2="139.21"/>
    <path class="cls-3" d="M398.84,138.37c.42-.24.79-.55,1.11-.91"/>
    <line class="cls-3" x1="398.14" y1="138.69" x2="396.06" y2="140.25"/>
    <line class="cls-3" x1="397.1" y1="139.21" x2="399.7" y2="137.65"/>
    <polyline class="cls-3" points="398.14 138.69 397.62 139.21 395.54 140.25"/>
    <line class="cls-3" x1="395.54" y1="140.25" x2="397.1" y2="139.21"/>
    <line class="cls-3" x1="397.1" y1="139.21" x2="397.62" y2="139.21"/>
    <path class="cls-3" d="M397.23,139.1c.12-.04.26-.09.4-.14"/>
    <line class="cls-3" x1="399.7" y1="137.65" x2="399.7" y2="137.65"/>
    <line class="cls-3" x1="397.1" y1="139.21" x2="397.62" y2="138.17"/>
    <line class="cls-3" x1="388.79" y1="138.17" x2="388.79" y2="138.17"/>
    <path class="cls-3" d="M394.54,141.2c.09-.05.17-.13.24-.24"/>
    <path class="cls-3" d="M394.22,141.28h0"/>
    <line class="cls-3" x1="381.51" y1="141.81" x2="380.47" y2="141.81"/>
    <line class="cls-3" x1="376.84" y1="139.21" x2="384.63" y2="138.69"/>
    <line class="cls-3" x1="396.06" y1="139.21" x2="396.06" y2="138.69"/>
    <path class="cls-3" d="M396.95,136.91c.16-.14.31-.29.47-.43"/>
    <line class="cls-3" x1="395.54" y1="140.25" x2="393.98" y2="141.29"/>
    <line class="cls-3" x1="398.66" y1="138.69" x2="396.06" y2="140.25"/>
    <line class="cls-3" x1="393.98" y1="141.29" x2="385.67" y2="145.96"/>
    <line class="cls-3" x1="395.02" y1="138.17" x2="395.02" y2="138.17"/>
    <polyline class="cls-3" points="2219.7 1408.48 639.21 639.02 638.69 639.02 637.65 639.54 636.1 640.06 634.54 641.62 631.94 642.66 629.34 644.73 625.71 646.81 622.07 649.41 618.95 651.49 614.79 654.09 611.16 656.68 607 659.8 598.17 665.52 589.34 671.75 581.02 677.99 573.23 684.74 565.96 691.49 559.2 698.25 554.01 706.04 552.45 709.68 551.41 713.84 550.89 717.99 550.89 722.15 551.41 726.3 552.97 729.94 557.12 737.73 562.84 744.49 570.11 750.2 577.39 754.88 2215.54 1552.4"/>
    <line class="cls-3" x1="395.02" y1="138.17" x2="395.02" y2="138.17"/>
    <path class="cls-3" d="M247.04,225.54c6.49-4.32,10.43-12.03,11.15-21.8"/>
  </g>
  <g>
    <path class="cls-4" d="M732.79,391.58h-4.32v-3.46c-1.44,2.11-3.89,3.98-7.44,3.98-5.38,0-8.4-3.7-8.4-9.03v-16.61h4.32v15.7c0,3.55,1.54,5.95,5.23,5.95,3.12,0,6.29-2.35,6.29-6.53v-15.12h4.32v25.11Z"/>
    <path class="cls-4" d="M743.41,387.94v12.29h-4.32v-33.75h4.32v3.65c1.49-2.45,4.27-4.13,7.78-4.13,6.96,0,10.95,5.9,10.95,13.06s-3.98,13.06-10.95,13.06c-3.5,0-6.29-1.68-7.78-4.18ZM743.31,379.97c0,5.76,3.55,8.35,7.1,8.35,4.7,0,7.34-3.89,7.34-9.26s-2.64-9.26-7.34-9.26c-3.55,0-7.1,2.54-7.1,8.4v1.78Z"/>
    <path class="cls-4" d="M771.38,387.94v12.29h-4.32v-33.75h4.32v3.65c1.49-2.45,4.27-4.13,7.78-4.13,6.96,0,10.94,5.9,10.94,13.06s-3.98,13.06-10.94,13.06c-3.5,0-6.29-1.68-7.78-4.18ZM771.29,379.97c0,5.76,3.55,8.35,7.1,8.35,4.71,0,7.34-3.89,7.34-9.26s-2.64-9.26-7.34-9.26c-3.55,0-7.1,2.54-7.1,8.4v1.78Z"/>
    <path class="cls-4" d="M793.57,379.05c0-7.49,4.75-13.06,11.57-13.06s10.7,5.33,10.7,12.29v1.44h-18.15c.24,5.28,3.26,8.64,7.63,8.64,3.36,0,5.76-1.82,6.53-4.8l3.79,1.34c-1.54,4.46-5.33,7.2-10.32,7.2-6.96,0-11.76-5.33-11.76-13.06ZM797.93,376.41h13.54c-.1-3.55-2.02-6.72-6.38-6.72-3.65,0-6.38,2.45-7.15,6.72Z"/>
    <path class="cls-4" d="M833.73,370.75c-.72-.14-1.3-.19-2.11-.19-3.65,0-6.58,2.88-6.58,7.3v13.73h-4.32v-25.11h4.32v4.27c1.1-2.54,3.55-4.46,6.96-4.46.67,0,1.3.05,1.73.1v4.37Z"/>
    <path class="cls-4" d="M849.09,357.12h4.32v12.77c1.44-2.06,3.94-3.89,7.49-3.89,5.33,0,8.35,3.7,8.35,9.02v16.56h-4.32v-15.41c0-3.5-1.49-6.14-5.23-6.14-3.12,0-6.29,2.4-6.29,6.58v14.98h-4.32v-34.47Z"/>
    <path class="cls-4" d="M873.89,379.05c0-7.49,4.75-13.06,11.57-13.06s10.7,5.33,10.7,12.29v1.44h-18.15c.24,5.28,3.26,8.64,7.63,8.64,3.36,0,5.76-1.82,6.53-4.8l3.79,1.34c-1.54,4.46-5.33,7.2-10.32,7.2-6.96,0-11.76-5.33-11.76-13.06ZM878.26,376.41h13.54c-.1-3.55-2.02-6.72-6.38-6.72-3.65,0-6.38,2.45-7.15,6.72Z"/>
    <path class="cls-4" d="M899.37,384.81c0-4.99,3.89-7.06,9.5-8.21l6.1-1.25v-1.06c0-2.88-1.58-4.51-4.94-4.51-3.17,0-5.04,1.49-5.81,4.27l-4.08-1.06c1.2-4.08,4.9-7.01,10.03-7.01,5.62,0,9.07,2.74,9.07,8.11v12.24c0,1.63,1.01,2.16,2.69,1.78v3.46c-3.84.48-6.05-.43-6.58-2.83-1.54,1.97-4.32,3.26-7.73,3.26-4.56,0-8.26-2.69-8.26-7.2ZM914.97,378.72l-4.9,1.06c-3.84.77-6.43,1.82-6.43,4.85,0,2.45,1.78,3.89,4.51,3.89,3.7,0,6.82-2.26,6.82-5.47v-4.32Z"/>
    <path class="cls-4" d="M924.1,379.05c0-7.15,3.98-13.06,10.94-13.06,3.5,0,6.29,1.68,7.78,4.13v-13.01h4.32v34.47h-4.32v-3.65c-1.49,2.5-4.27,4.18-7.78,4.18-6.96,0-10.94-5.95-10.94-13.06ZM935.81,369.79c-4.7,0-7.34,3.84-7.34,9.26s2.64,9.26,7.34,9.26c3.55,0,7.1-2.59,7.1-8.35v-1.78c0-5.86-3.55-8.4-7.1-8.4Z"/>
    <path class="cls-4" d="M954.36,383.81c1.34,2.93,4.42,4.7,7.68,4.7,2.93,0,5.52-1.25,5.52-3.98s-2.4-3.12-6.53-3.98c-4.13-.91-8.45-1.82-8.45-6.96,0-4.46,3.89-7.58,9.22-7.58,4.51,0,8.21,2.21,9.7,5.18l-3.07,2.45c-1.3-2.5-3.65-4.08-6.82-4.08-2.88,0-4.8,1.44-4.8,3.7s2.21,2.78,5.71,3.55c4.32,1.01,9.27,1.87,9.27,7.34,0,4.8-4.37,7.97-9.75,7.97-4.56,0-9.12-1.97-11.04-5.86l3.36-2.45Z"/>
    <path class="cls-4" d="M975.01,379.05c0-7.49,4.75-13.06,11.57-13.06s10.71,5.33,10.71,12.29v1.44h-18.15c.24,5.28,3.26,8.64,7.63,8.64,3.36,0,5.76-1.82,6.53-4.8l3.79,1.34c-1.54,4.46-5.33,7.2-10.32,7.2-6.96,0-11.76-5.33-11.76-13.06ZM979.38,376.41h13.54c-.1-3.55-2.02-6.72-6.38-6.72-3.65,0-6.38,2.45-7.15,6.72Z"/>
    <path class="cls-4" d="M1003,370.17h-3.89v-3.7h3.89v-7.34h4.27v7.34h5.71v3.7h-5.71v14.74c0,2.64,1.3,3.12,3.5,3.12,1.01,0,1.73-.05,2.74-.29v3.7c-1.1.24-2.35.38-3.79.38-4.27,0-6.72-1.44-6.72-6.24v-15.41Z"/>
    <path class="cls-4" d="M1049.18,391.58h-4.32v-3.46c-1.44,2.11-3.89,3.98-7.44,3.98-5.38,0-8.4-3.7-8.4-9.03v-16.61h4.32v15.7c0,3.55,1.54,5.95,5.23,5.95,3.12,0,6.29-2.35,6.29-6.53v-15.12h4.32v25.11Z"/>
    <path class="cls-4" d="M1055.47,366.48h4.32v3.41c1.44-2.06,3.94-3.89,7.49-3.89,5.33,0,8.35,3.7,8.35,9.02v16.56h-4.32v-15.41c0-3.5-1.49-6.14-5.23-6.14-3.12,0-6.29,2.4-6.29,6.58v14.98h-4.32v-25.11Z"/>
    <path class="cls-4" d="M1081.57,357.12h4.7v4.99h-4.7v-4.99ZM1086.08,391.58h-4.32v-25.11h4.32v25.11Z"/>
    <path class="cls-4" d="M1093.5,370.17h-3.89v-3.7h3.89v-7.34h4.27v7.34h5.71v3.7h-5.71v14.74c0,2.64,1.3,3.12,3.5,3.12,1.01,0,1.73-.05,2.74-.29v3.7c-1.1.24-2.35.38-3.79.38-4.27,0-6.72-1.44-6.72-6.24v-15.41Z"/>
  </g>
  <path class="cls-4" d="M556.3,696.64v-3c4,0,8.04-.15,12.01-.45l.22,2.99c-4.04.3-8.15.45-12.23.46ZM544.07,696.2c-4.06-.3-8.15-.75-12.16-1.35l.44-2.97c3.94.59,7.96,1.03,11.94,1.32l-.22,2.99ZM580.69,694.82l-.45-2.97c3.95-.59,7.92-1.34,11.81-2.23l.67,2.93c-3.96.9-8.01,1.66-12.03,2.27ZM519.87,692.59c-3.97-.9-7.95-1.96-11.83-3.15l.88-2.87c3.81,1.17,7.71,2.21,11.61,3.09l-.66,2.93ZM604.54,689.39l-.88-2.87c3.81-1.18,7.63-2.51,11.34-3.97l1.1,2.79c-3.78,1.49-7.67,2.85-11.55,4.05ZM496.47,685.4c-3.79-1.48-7.56-3.13-11.23-4.9l1.3-2.7c3.6,1.73,7.31,3.35,11.02,4.81l-1.1,2.79ZM627.3,680.44l-1.3-2.7c3.59-1.73,7.16-3.62,10.61-5.62l1.5,2.6c-3.52,2.03-7.15,3.96-10.81,5.73ZM474.41,674.78c-3.52-2.03-7.01-4.23-10.37-6.52l1.69-2.48c3.3,2.25,6.72,4.4,10.18,6.4l-1.5,2.6ZM648.46,668.19l-1.69-2.48c3.29-2.25,6.54-4.65,9.66-7.14l1.87,2.34c-3.18,2.54-6.49,4.98-9.84,7.28ZM454.19,660.98c-3.18-2.54-6.3-5.22-9.28-7.99l2.04-2.2c2.93,2.71,5.99,5.35,9.11,7.84l-1.87,2.35ZM667.58,652.93l-2.04-2.2c2.93-2.72,5.78-5.58,8.5-8.5l2.2,2.04c-2.76,2.98-5.68,5.89-8.66,8.66ZM436.25,644.35c-2.76-2.97-5.45-6.09-7.99-9.27l2.34-1.88c2.49,3.12,5.14,6.18,7.85,9.1l-2.2,2.04ZM684.22,635l-2.34-1.87c2.49-3.12,4.89-6.37,7.15-9.67l2.48,1.69c-2.29,3.36-4.74,6.67-7.28,9.85ZM420.98,625.24c-2.29-3.35-4.49-6.83-6.53-10.35l2.6-1.5c2,3.45,4.16,6.87,6.41,10.16l-2.48,1.69ZM698.03,614.79l-2.6-1.5c2-3.46,3.9-7.04,5.63-10.63l2.7,1.3c-1.76,3.66-3.69,7.3-5.73,10.83ZM408.72,604.08c-1.77-3.66-3.42-7.42-4.91-11.2l2.79-1.1c1.46,3.71,3.08,7.41,4.82,11l-2.7,1.31ZM708.66,592.73l-2.79-1.1c1.46-3.72,2.8-7.54,3.97-11.36l2.87.88c-1.2,3.89-2.56,7.78-4.05,11.57ZM399.76,581.33c-1.2-3.89-2.27-7.87-3.17-11.82l2.92-.67c.89,3.88,1.93,7.79,3.11,11.6l-2.87.89ZM715.87,569.34l-2.93-.66c.88-3.89,1.63-7.87,2.22-11.81l2.97.44c-.6,4.02-1.36,8.06-2.26,12.03ZM394.31,557.48c-.6-4.01-1.06-8.1-1.37-12.16l2.99-.22c.3,3.98.75,8,1.34,11.94l-2.97.45ZM719.48,545.14l-2.99-.22c.29-3.97.44-8.01.44-12.01v-.34h3v.34c0,4.07-.15,8.19-.45,12.23ZM395.48,533.09h-3v-.19c0-4,.15-8.06.44-12.04l2.99.22c-.28,3.91-.43,7.9-.43,11.84v.17ZM716.47,520.56c-.3-3.98-.76-8-1.36-11.94l2.97-.45c.61,4.01,1.07,8.1,1.38,12.16l-2.99.23ZM397.23,509.13l-2.97-.44c.6-4.02,1.35-8.07,2.25-12.03l2.93.66c-.88,3.89-1.62,7.86-2.21,11.81ZM712.87,496.82c-.89-3.89-1.94-7.79-3.13-11.6l2.87-.89c1.2,3.88,2.28,7.86,3.18,11.82l-2.92.67ZM402.52,485.71l-2.87-.88c1.19-3.89,2.55-7.79,4.03-11.57l2.79,1.09c-1.46,3.72-2.79,7.54-3.96,11.36ZM705.75,473.89c-1.47-3.71-3.09-7.41-4.83-10.99l2.7-1.31c1.77,3.65,3.42,7.42,4.92,11.2l-2.79,1.1ZM411.28,463.33l-2.7-1.3c1.76-3.66,3.68-7.3,5.72-10.83l2.6,1.5c-2,3.46-3.89,7.04-5.62,10.63ZM695.29,452.29c-2-3.45-4.16-6.87-6.42-10.15l2.47-1.7c2.3,3.35,4.5,6.83,6.54,10.34l-2.59,1.51ZM423.3,442.51l-2.48-1.69c2.29-3.36,4.73-6.67,7.27-9.85l2.35,1.87c-2.49,3.12-4.89,6.38-7.14,9.67ZM681.71,432.49c-2.49-3.11-5.14-6.17-7.86-9.09l2.2-2.04c2.77,2.98,5.46,6.09,8,9.26l-2.34,1.88ZM438.27,423.72l-2.2-2.04c2.76-2.98,5.67-5.9,8.65-8.67l2.04,2.2c-2.92,2.72-5.78,5.58-8.49,8.51ZM665.34,414.91c-2.93-2.71-6-5.35-9.12-7.83l1.87-2.35c3.18,2.53,6.3,5.21,9.29,7.98l-2.04,2.2ZM455.85,407.36l-1.88-2.34c3.17-2.54,6.48-4.99,9.83-7.29l1.7,2.48c-3.29,2.25-6.54,4.66-9.65,7.15ZM646.54,399.95c-3.3-2.25-6.73-4.4-10.19-6.39l1.5-2.6c3.52,2.03,7.01,4.22,10.38,6.51l-1.69,2.48ZM475.66,393.8l-1.51-2.59c3.51-2.04,7.15-3.97,10.8-5.74l1.31,2.7c-3.59,1.74-7.15,3.63-10.6,5.63ZM625.72,387.95c-3.6-1.73-7.31-3.34-11.03-4.8l1.09-2.79c3.79,1.48,7.57,3.12,11.24,4.89l-1.3,2.7ZM497.26,383.34l-1.1-2.79c3.78-1.49,7.67-2.86,11.55-4.06l.89,2.87c-3.81,1.18-7.62,2.52-11.34,3.98ZM603.33,379.2c-3.81-1.17-7.72-2.2-11.61-3.08l.66-2.93c3.96.89,7.95,1.95,11.83,3.14l-.88,2.87ZM520.2,376.24l-.67-2.92c3.95-.9,8-1.67,12.02-2.28l.45,2.97c-3.95.6-7.92,1.35-11.8,2.24ZM579.9,373.92c-3.94-.58-7.96-1.02-11.94-1.31l.22-2.99c4.06.29,8.16.74,12.17,1.34l-.44,2.97ZM543.94,372.65l-.23-2.99c4.04-.31,8.16-.46,12.23-.47v3c-3.99,0-8.03.16-12,.46Z"/>
</svg>