<?xml version="1.0" encoding="utf-8"?>
<svg xmlns="http://www.w3.org/2000/svg" xmlns:xlink="http://www.w3.org/1999/xlink" id="Ebene_1" data-name="Ebene 1" viewBox="0 0 1191 842">
  <defs>
    <style>
      .cls-1, .cls-2, .cls-3 {
        fill: none;
      }

      .cls-2 {
        stroke: #000;
        stroke-linecap: round;
        stroke-linejoin: round;
        stroke-width: 2px;
      }

      .cls-3 {
        stroke: #2e2e2e;
        stroke-dasharray: 12.14 12.14;
        stroke-miterlimit: 10;
        stroke-width: 3px;
      }

      .cls-4 {
        fill: #2e2e2e;
      }

      .cls-5 {
        clip-path: url(#clippath);
      }
    </style>
    <clipPath id="clippath">
      <polyline class="cls-1" points="-1463.68 3049.66 4772.54 3049.66 4772.54 -2075.24 -1463.68 -2075.24 -1463.68 3049.66"/>
    </clipPath>
  </defs>
  <g class="cls-5">
    <path class="cls-2" d="M298.19,207.45c4.38-2.91,6.92-8.25,7.11-14.97"/>
    <line class="cls-2" x1="304.88" y1="193.14" x2="289.3" y2="203.53"/>
    <path class="cls-2" d="M263.86,217.67c13.85,6.65,25.43.03,25.85-14.79"/>
    <line class="cls-2" x1="289.3" y1="203.53" x2="289.82" y2="181.71"/>
    <line class="cls-2" x1="305.4" y1="183.79" x2="304.88" y2="193.14"/>
    <line class="cls-2" x1="-258.83" y1="-35.98" x2="160.97" y2="168.2"/>
    <line class="cls-2" x1="246.69" y1="209.77" x2="263.32" y2="218.08"/>
    <path class="cls-2" d="M171.42,147.72c4.3,2.09,7.88.05,7.98-4.57"/>
    <line class="cls-2" x1="171.36" y1="147.94" x2="-177.78" y2="-21.95"/>
    <path class="cls-2" d="M179.93,139.52c.07-3.07-1.43-6.65-3.91-9.33"/>
    <line class="cls-2" x1="179.67" y1="140.15" x2="179.67" y2="143.26"/>
    <line class="cls-2" x1="-162.2" y1="-32.34" x2="177.07" y2="132.87"/>
    <line class="cls-2" x1="179.67" y1="142.75" x2="171.36" y2="147.94"/>
    <line class="cls-2" x1="282.54" y1="218.6" x2="298.13" y2="208.21"/>
    <polyline class="cls-2" points="691.95 511.63 689.87 509.03 689.35 507.47 690.39 503.32"/>
    <polyline class="cls-2" points="692.99 498.64 695.59 496.56 699.23 495 699.75 496.56 701.3 499.16 699.23 503.32 698.19 507.99 694.55 509.55 691.95 511.63"/>
    <path class="cls-2" d="M689.85,507.23c-.42,4.2,1.92,5.75,5.23,3.44,3.31-2.3,6.34-7.58,6.77-11.78.42-4.2-1.92-5.75-5.23-3.44-3.31,2.3-6.34,7.58-6.77,11.78"/>
    <path class="cls-2" d="M685.76,517.19s.07.04.11.06"/>
    <path class="cls-2" d="M702.71,486.78s-.07-.04-.11-.06"/>
    <path class="cls-2" d="M686.23,507.6c-1.06,5.77.76,9.56,4.48,9.35,3.72-.21,8.48-4.36,11.74-10.25,3.25-5.89,4.24-12.13,2.43-15.39-1.81-3.26-5.98-2.78-10.3,1.18"/>
    <line class="cls-2" x1="696.11" y1="496.04" x2="701.3" y2="499.16"/>
    <line class="cls-2" x1="690.39" y1="503.84" x2="698.19" y2="507.99"/>
    <line class="cls-2" x1="685.72" y1="517.86" x2="685.2" y2="517.34"/>
    <polyline class="cls-2" points="685.72 517.86 687.8 518.38 689.87 518.38 691.95 517.34 694.55 516.31 696.63 514.23 698.71 512.15 700.27 509.55 702.34 506.95 703.38 504.36 704.42 501.24 705.46 498.12 705.98 495.52 705.46 492.93 704.94 490.85 703.9 488.77 702.34 487.21"/>
    <line class="cls-2" x1="508.03" y1="436.81" x2="508.55" y2="436.29"/>
    <path class="cls-2" d="M498.99,427.69c2.75,2.95,5.89,5.78,9.38,8.46"/>
    <line class="cls-2" x1="508.55" y1="430.06" x2="508.03" y2="436.81"/>
    <path class="cls-2" d="M508.89,429.4c7.59,5.83,16.75,10.89,27.04,14.93"/>
    <line class="cls-2" x1="535.05" y1="451.36" x2="535.57" y2="445.13"/>
    <line class="cls-2" x1="550.11" y1="456.56" x2="551.67" y2="454.48"/>
    <path class="cls-2" d="M535.41,451.09c4.73,1.86,9.68,3.49,14.79,4.88"/>
    <line class="cls-2" x1="550.63" y1="449.8" x2="550.11" y2="456.56"/>
    <path class="cls-2" d="M550.71,449.21c11.11,3.02,22.86,4.86,34.7,5.43"/>
    <line class="cls-2" x1="584.92" y1="461.75" x2="585.44" y2="455.52"/>
    <polyline class="cls-2" points="584.4 455.52 584.4 457.6 584.92 461.75"/>
    <path class="cls-2" d="M584.89,461.4c5.44.26,10.86.26,16.22-.02"/>
    <line class="cls-2" x1="601.55" y1="455.52" x2="601.03" y2="461.75"/>
    <path class="cls-2" d="M601.63,454.62c11.66-.6,22.85-2.47,33.06-5.52"/>
    <polyline class="cls-2" points="633.24 455.52 634.28 456.56 634.8 449.8"/>
    <path class="cls-2" d="M634.17,455.86c4.69-1.4,9.14-3.04,13.31-4.91"/>
    <line class="cls-2" x1="648.31" y1="445.13" x2="647.79" y2="451.36"/>
    <path class="cls-2" d="M648,444.2c9.08-4.06,16.72-9.14,22.56-14.99"/>
    <line class="cls-2" x1="670.65" y1="431.62" x2="670.65" y2="430.06"/>
    <path class="cls-2" d="M670.05,435.96c2.68-2.69,4.97-5.52,6.84-8.48"/>
    <line class="cls-2" x1="677.41" y1="421.23" x2="676.89" y2="427.98"/>
    <path class="cls-2" d="M677.41,420.73c3.42-5.42,5.41-11.19,5.9-17.11"/>
    <path class="cls-2" d="M486.02,387.4c-.09,1.11-.13,2.22-.12,3.33"/>
    <line class="cls-2" x1="485.17" y1="397.85" x2="485.69" y2="391.09"/>
    <path class="cls-2" d="M486.96,384.07c.92,31.08,41.8,58.55,93.59,62.91,51.79,4.36,96.85-15.88,103.18-46.35"/>
    <path class="cls-2" d="M485.39,397.49c.03,2.73.38,5.47,1.05,8.21"/>
    <line class="cls-2" x1="487.25" y1="400.96" x2="487.25" y2="402.52"/>
    <path class="cls-2" d="M487.37,400.52c2.03,7.08,6.14,14,12.14,20.42"/>
    <line class="cls-2" x1="498.68" y1="427.98" x2="499.2" y2="421.75"/>
    <path class="cls-2" d="M492.12,387.36c8.19,27.49,47.09,49.32,92.82,52.1,45.73,2.77,85.49-14.29,94.89-40.71"/>
    <path class="cls-2" d="M511.77,373.41c11.43,17.97,38.49,31.35,69.68,34.45,31.19,3.1,61.02-4.62,76.82-19.88"/>
    <path class="cls-2" d="M511.78,375.49c11.58,18.21,39.2,31.68,70.84,34.56,31.64,2.88,61.58-5.36,76.8-21.14"/>
    <path class="cls-2" d="M502.16,390.56c13.31,22.59,48.87,38.69,87.85,39.77,38.98,1.08,72.39-13.1,82.55-35.05"/>
    <line class="cls-2" x1="683.64" y1="400.96" x2="683.64" y2="404.08"/>
    <line class="cls-2" x1="486.21" y1="384.34" x2="485.69" y2="387.98"/>
    <path class="cls-2" d="M698.36-30.84c-2.62-3.1-7.59-2.08-12.62,2.6s-9.13,12.1-10.42,18.85c-1.29,6.74.49,11.5,4.51,12.07"/>
    <path class="cls-2" d="M679.6,2.28c7.34.99,14.64-2.06,19.11-7.96"/>
    <path class="cls-2" d="M523.16,57.82c4.38-2.91,6.92-8.25,7.11-14.97"/>
    <line class="cls-2" x1="529.85" y1="43.51" x2="514.26" y2="53.9"/>
    <path class="cls-2" d="M510.38,65.73c2.66-3.07,4.16-7.4,4.3-12.49"/>
    <line class="cls-2" x1="514.26" y1="53.9" x2="514.78" y2="31.56"/>
    <line class="cls-2" x1="530.37" y1="21.17" x2="529.85" y2="43.51"/>
    <line class="cls-2" x1="510.63" y1="66.37" x2="523.1" y2="58.58"/>
    <polyline class="cls-2" points="409.83 101.18 409.31 100.66 408.79 99.62 407.76 98.06 406.72 97.02 405.16 95.47 404.12 94.43 403.08 93.39 402.56 93.39 401.52 94.43 400.48 97.02 397.88 101.18 395.29 105.34 391.13 110.53 386.97 114.69 382.82 118.85 377.62 122.48"/>
    <line class="cls-2" x1="402.56" y1="93.39" x2="402.56" y2="93.39"/>
    <polyline class="cls-2" points="367.23 168.2 375.02 162.49 381.78 155.21 388.01 146.9 392.69 138.07 396.85 128.2 399.96 117.29 401.52 105.34 402.56 93.39"/>
    <line class="cls-2" x1="199.93" y1="142.75" x2="-1012.19" y2="-446.95"/>
    <line class="cls-2" x1="278.91" y1="89.75" x2="6.66" y2="-42.74"/>
    <polyline class="cls-2" points="409.83 101.18 407.24 111.57 404.12 120.92 399.96 130.8 395.29 139.63 389.05 147.94 382.82 155.21 375.54 162.49 367.23 168.2 358.4 173.4 349.57 177.56 339.69 180.67 329.82 182.75 319.95 183.79 309.56 183.79 299.69 183.27 289.3 181.19"/>
    <polyline class="cls-2" points="84.59 338.62 89.27 334.98 93.43 331.34 97.58 326.67 101.22 321.99 104.34 316.8 107.45 311.6 110.05 305.37 112.13 299.13"/>
    <polyline class="cls-2" points="116.29 296.53 110.57 309 107.45 314.72 103.3 320.43 99.14 325.63 94.46 330.3 89.79 334.46 84.59 338.62 78.88 341.73 72.64 344.85 66.41 347.45 60.17 349.01 53.42 350.57 47.18 351.61 33.16 351.61"/>
    <polyline class="cls-2" points="-204.28 328.23 -192.33 333.42 -179.86 338.1 -166.35 342.25 -152.32 345.37 -137.78 347.45 -123.23 349.01 -108.16 349.53 -93.61 349.53 -78.55 348.49 -64 346.93 -49.97 344.33 -36.46 341.22 -23.99 337.06 -12.04 331.86 -.61 326.67 9.26 320.43"/>
    <path class="cls-2" d="M9.46,320.11c-5.9-9.42-14.08-16.99-22.65-20.93s-16.79-3.94-22.74.02"/>
    <path class="cls-2" d="M9.25,367.12c11.7-7.78,11.79-28.5.21-47.01"/>
    <path class="cls-2" d="M524.65,24.73c1.83-1.21,3.41-2.78,4.71-4.66"/>
    <line class="cls-2" x1="524.66" y1="24.81" x2="409.83" y2="101.18"/>
    <line class="cls-2" x1="377.62" y1="122.48" x2="9.26" y2="367.71"/>
    <line class="cls-2" x1="478.93" y1="-43.26" x2="-35.94" y2="299.65"/>
    <polyline class="cls-2" points="9.26 367.71 -1.65 374.47 -13.08 380.18 -25.55 384.86 -38.54 389.01 -52.05 392.65 -66.08 395.25 -80.11 396.81 -94.65 397.85 -109.2 398.37 -123.75 397.33 -137.78 395.77 -151.8 393.69 -165.83 390.57 -179.34 386.94 -191.81 382.26 -204.28 376.55"/>
    <path class="cls-2" d="M524.65,24.73c1.83-1.21,3.41-2.78,4.71-4.66"/>
    <line class="cls-2" x1="524.66" y1="24.81" x2="530.37" y2="21.17"/>
    <polyline class="cls-2" points="775.6 416.55 775.08 417.59 777.68 420.19 779.24 423.31"/>
    <polyline class="cls-2" points="773 427.46 772.48 425.38 771.96 424.34 770.41 422.79 768.85 421.75 769.89 420.19 769.89 418.63 769.89 417.59 769.89 416.03 771.44 416.03 773 416.03 774.04 416.03 775.08 416.55"/>
    <polyline class="cls-2" points="779.24 422.79 779.24 424.86 778.2 427.46 777.68 427.46 776.64 426.94 775.08 426.94 773 427.46"/>
    <path class="cls-2" d="M780.06,423.36c-.59-3.7-3.64-7.31-6.82-8.06-3.18-.75-5.28,1.65-4.7,5.35.59,3.7,3.64,7.31,6.82,8.06,3.18.75,5.28-1.65,4.7-5.35"/>
    <path class="cls-2" d="M780.76,409.96c-7.51-7.28-16.43-8.09-20.15-1.82-3.72,6.27-.9,17.35,6.37,25.03,7.27,7.68,16.37,9.19,20.56,3.41"/>
    <line class="cls-2" x1="768.85" y1="421.75" x2="775.08" y2="417.59"/>
    <line class="cls-2" x1="779.24" y1="423.31" x2="773" y2="427.46"/>
    <line class="cls-2" x1="763.13" y1="405.64" x2="764.17" y2="404.6"/>
    <line class="cls-2" x1="784.95" y1="438.37" x2="786.51" y2="437.85"/>
    <path class="cls-2" d="M781.8,439.56c1.41-.05,2.73-.36,3.9-.92"/>
    <path class="cls-2" d="M763.13,404.52c-1.01.87-1.84,1.99-2.44,3.31"/>
    <polyline class="cls-2" points="774.56 405.64 771.44 404.6 768.33 403.56 765.21 404.08 762.61 405.12 760.53 406.68 758.46 408.76 757.42 411.36 756.9 414.47 756.9 418.11 757.94 421.23 759.49 424.86 761.57 428.5 763.65 431.62 766.77 434.22 769.89 436.81 772.48 438.89 775.6 439.93 778.72 440.97 781.32 440.97 783.39 439.93 785.47 438.89 787.03 436.81 788.07 434.22 788.07 431.1 788.07 427.98 787.55 424.34 786.51 420.19 784.95 416.55 782.87 413.43 780.28 410.32 777.68 407.72 774.56 405.64"/>
    <path class="cls-2" d="M815.06,386.01c-2.03.13-4.54,2.48-6.04,5.65-1.5,3.17-1.59,6.33-.23,7.6"/>
    <path class="cls-2" d="M774.63,354.41c-.17-.09-.42-.03-.69.18"/>
    <line class="cls-2" x1="784.95" y1="360.44" x2="773.52" y2="354.72"/>
    <path class="cls-2" d="M786.57,361.31c.02-.7-.15-1.3-.47-1.63s-.75-.33-1.16-.02"/>
    <line class="cls-2" x1="811.97" y1="457.6" x2="805.22" y2="453.96"/>
    <path class="cls-2" d="M813.7,457.36c-.19-.21-.53-.14-.9.19"/>
    <path class="cls-2" d="M815,461.88c-.52-.3-1.18.09-1.62.95"/>
    <line class="cls-2" x1="821.32" y1="467.47" x2="813.01" y2="462.79"/>
    <path class="cls-2" d="M823.18,467.43c.06-.52-.1-.84-.41-.83s-.73.33-1.09.85"/>
    <line class="cls-2" x1="766.77" y1="446.17" x2="770.41" y2="443.57"/>
    <polyline class="cls-2" points="781.84 453.96 780.8 451.36 778.72 448.76 776.12 446.68 773.52 445.13 770.93 444.09 768.85 444.09 767.29 444.61 766.77 446.17"/>
    <path class="cls-2" d="M767.5,456.63c1.02,2.11,2.38,3.83,4.07,5.14"/>
    <path class="cls-2" d="M771.54,461.56c.83.64,2.49.17,4.61-1.29"/>
    <line class="cls-2" x1="782.87" y1="456.56" x2="776.12" y2="460.71"/>
    <path class="cls-2" d="M782.98,456.15c.1-.07.2-.14.3-.22"/>
    <path class="cls-2" d="M777.87,448.05c-2.27,3.42-3.19,6.46-2.32,7.63.87,1.16,3.36.2,6.23-2.41"/>
    <path class="cls-2" d="M767.25,445.62c-.25,2.83-.25,5.44-.02,7.81"/>
    <path class="cls-2" d="M766.84,453.84c.1,1.03.34,1.93.7,2.68"/>
    <polyline class="cls-2" points="770.93 390.05 771.44 392.13 772.48 394.73 774.56 396.29 776.12 397.85 778.2 398.37 780.28 398.89 782.36 397.85 783.91 396.81"/>
    <line class="cls-2" x1="755.34" y1="381.74" x2="770.93" y2="390.05"/>
    <path class="cls-2" d="M755.52,381.56c-6.72,26.5-6.66,50.11.18,66.29"/>
    <line class="cls-2" x1="766.77" y1="453.96" x2="755.34" y2="447.72"/>
    <path class="cls-2" d="M782.27,453.59c1.83,3.93,3.85,7.61,6.05,11.03"/>
    <line class="cls-2" x1="799.5" y1="471.1" x2="788.07" y2="465.39"/>
    <path class="cls-2" d="M799.68,404.95c-6.72,26.5-6.66,50.11.18,66.29"/>
    <line class="cls-2" x1="783.91" y1="396.81" x2="799.5" y2="405.12"/>
    <line class="cls-2" x1="804.7" y1="454.48" x2="806.77" y2="447.2"/>
    <path class="cls-2" d="M756.07,447.66c.54,1.25,1.19,2.35,1.94,3.31"/>
    <line class="cls-2" x1="767.81" y1="456.56" x2="757.42" y2="451.36"/>
    <path class="cls-2" d="M757.7,450.95c2.09,2.68,4.47,4.93,7.1,6.73"/>
    <line class="cls-2" x1="771.44" y1="461.75" x2="764.69" y2="458.12"/>
    <path class="cls-2" d="M764.67,457.56c.1.07.19.12.29.18"/>
    <path class="cls-2" d="M789.48,388.96c-1.23,1.87-2.38,3.74-3.44,5.58"/>
    <line class="cls-2" x1="783.91" y1="396.81" x2="785.47" y2="394.73"/>
    <path class="cls-2" d="M802.36,395.98c-1.16,2.94-2.11,5.89-2.84,8.78"/>
    <line class="cls-2" x1="789.11" y1="389.01" x2="802.1" y2="396.29"/>
    <path class="cls-2" d="M780,384.42c2.24,2.75,5.25,5.15,7.96,6.35"/>
    <polyline class="cls-2" points="777.68 381.74 778.72 383.3 780.28 384.86"/>
    <line class="cls-2" x1="777.68" y1="381.74" x2="770.41" y2="386.94"/>
    <line class="cls-2" x1="770.41" y1="386.94" x2="770.93" y2="390.05"/>
    <path class="cls-2" d="M771.68,379.81c-.42,2.28-.71,4.58-.88,6.87"/>
    <line class="cls-2" x1="758.46" y1="372.91" x2="771.44" y2="379.66"/>
    <path class="cls-2" d="M758.2,372.6c-1.16,2.94-2.11,5.89-2.84,8.78"/>
    <path class="cls-2" d="M760.38,367.44c-.72,1.7-1.42,3.4-2.09,5.1"/>
    <path class="cls-2" d="M767.67,358.64c-2.63,1.78-5.2,5.13-6.81,8.91"/>
    <line class="cls-2" x1="767.29" y1="358.88" x2="773.52" y2="354.72"/>
    <path class="cls-2" d="M811.04,467.77c.47-.65.89-1.37,1.25-2.14"/>
    <line class="cls-2" x1="813.01" y1="462.79" x2="811.97" y2="465.91"/>
    <path class="cls-2" d="M801.64,477.39c.14.09.27.17.41.24"/>
    <path class="cls-2" d="M791.57,468.47c3.16,3.24,6.54,6.02,10.11,8.31"/>
    <path class="cls-2" d="M788.21,464.69c.96,1.47,2.01,2.79,3.14,3.94"/>
    <line class="cls-2" x1="801.58" y1="474.22" x2="791.19" y2="469.03"/>
    <path class="cls-2" d="M799.71,470.52c.54,1.25,1.18,2.35,1.94,3.31"/>
    <path class="cls-2" d="M801.86,474.33c2.09,2.68,4.47,4.93,7.1,6.73"/>
    <path class="cls-2" d="M808.83,480.94c1.33.92,3.26.64,5.35-.77"/>
    <line class="cls-2" x1="820.28" y1="476.3" x2="814.05" y2="480.46"/>
    <path class="cls-2" d="M820.8,475.52c1.33-.94,2.53-3.09,2.67-4.81"/>
    <line class="cls-2" x1="823.4" y1="471.1" x2="823.4" y2="467.47"/>
    <line class="cls-2" x1="819.76" y1="470.06" x2="821.32" y2="467.47"/>
    <path class="cls-2" d="M811.27,465.46c-1.75,4.25-1.48,8.13.65,9.22,2.12,1.09,5.49-.92,7.99-4.78"/>
    <line class="cls-2" x1="811.45" y1="465.39" x2="813.53" y2="459.67"/>
    <path class="cls-2" d="M813.62,459.38c.27-.67.29-1.26.07-1.5"/>
    <path class="cls-2" d="M813.8,457.18c.14.14.28.28.42.42"/>
    <line class="cls-2" x1="808.85" y1="459.67" x2="811.97" y2="457.6"/>
    <path class="cls-2" d="M805.11,454c-.65,2.27-.52,4.26.36,5.31.87,1.05,2.37,1.03,4.01-.07"/>
    <path class="cls-2" d="M806.95,446.7c.07-.2.11-.39.13-.57"/>
    <line class="cls-2" x1="809.89" y1="404.08" x2="807.29" y2="446.68"/>
    <path class="cls-2" d="M809.67,404.04c.02-.18.02-.33-.01-.46"/>
    <line class="cls-2" x1="808.33" y1="399.41" x2="809.37" y2="403.56"/>
    <line class="cls-2" x1="816.65" y1="385.38" x2="815.09" y2="385.9"/>
    <path class="cls-2" d="M816.63,384.55c.52-.32,1.07-1.14,1.28-1.93"/>
    <line class="cls-2" x1="818.72" y1="379.14" x2="817.69" y2="382.78"/>
    <path class="cls-2" d="M818.95,378.98c.14-.5.12-.9-.05-1.1s-.46-.17-.79.09"/>
    <line class="cls-2" x1="810.93" y1="382.26" x2="817.69" y2="377.58"/>
    <path class="cls-2" d="M811.31,382.02c-2.63,1.78-5.2,5.13-6.81,8.91"/>
    <path class="cls-2" d="M804.55,390.82c-.72,1.7-1.42,3.4-2.09,5.1"/>
    <line class="cls-2" x1="808.85" y1="459.67" x2="804.18" y2="457.08"/>
    <path class="cls-2" d="M792.7,384.72c-1.04,1.53-2.07,3.05-3.08,4.58"/>
    <line class="cls-2" x1="792.23" y1="384.86" x2="804.18" y2="391.09"/>
    <path class="cls-2" d="M800.51,375.95c-2.67,1.85-5.73,5.08-8.13,8.55"/>
    <line class="cls-2" x1="806.77" y1="371.87" x2="800.02" y2="376.55"/>
    <path class="cls-2" d="M807.94,371.32c-.17-.09-.48,0-.84.23"/>
    <path class="cls-2" d="M783.61,368.86c-1.87,0-3.79,1.67-4.98,4.31-1.19,2.64-1.45,5.81-.68,8.23"/>
    <line class="cls-2" x1="784.95" y1="368.75" x2="783.39" y2="369.27"/>
    <path class="cls-2" d="M785.35,368.59c.67-.38,1.18-1.48,1.22-2.6"/>
    <line class="cls-2" x1="786.51" y1="362" x2="786.51" y2="366.15"/>
    <line class="cls-2" x1="778.2" y1="364.6" x2="784.95" y2="360.44"/>
    <path class="cls-2" d="M778.52,364.35c-2.74,1.79-4.94,5.43-5.84,9.66"/>
    <path class="cls-2" d="M772.96,374.24c-.4,1.87-.77,3.75-1.11,5.63"/>
    <line class="cls-2" x1="760.53" y1="367.71" x2="772.48" y2="374.47"/>
    <line class="cls-2" x1="767.29" y1="358.88" x2="778.2" y2="364.6"/>
    <line class="cls-2" x1="819.76" y1="470.06" x2="811.97" y2="465.91"/>
    <line class="cls-2" x1="801.58" y1="477.34" x2="808.33" y2="480.98"/>
    <line class="cls-2" x1="817.69" y1="377.58" x2="806.77" y2="371.87"/>
    <line class="cls-2" x1="800.02" y1="376.55" x2="810.93" y2="382.26"/>
    <line class="cls-2" x1="774.56" y1="354.2" x2="785.47" y2="360.44"/>
    <line class="cls-2" x1="805.22" y1="452.92" x2="813.01" y2="457.08"/>
    <line class="cls-2" x1="814.57" y1="462.27" x2="822.88" y2="466.43"/>
    <line class="cls-2" x1="764.69" y1="458.12" x2="771.96" y2="461.75"/>
    <line class="cls-2" x1="801.58" y1="477.86" x2="808.85" y2="481.5"/>
    <line class="cls-2" x1="807.29" y1="371.87" x2="818.72" y2="377.58"/>
    <path class="cls-2" d="M512.28,371.32c11.21,17.64,37.51,30.89,68.07,34.29,30.56,3.4,60.21-3.61,76.75-18.16"/>
    <line class="cls-2" x1="522.58" y1="149.5" x2="532.97" y2="23.25"/>
    <line class="cls-2" x1="686.24" y1="156.77" x2="699.75" y2="-7.41"/>
    <line class="cls-2" x1="673.25" y1="456.56" x2="673.25" y2="457.08"/>
    <path class="cls-2" d="M673.92,456.37c1.48.44,3.14.11,3.99-.77"/>
    <line class="cls-2" x1="670.65" y1="456.04" x2="673.25" y2="456.56"/>
    <line class="cls-2" x1="670.13" y1="456.04" x2="670.65" y2="456.04"/>
    <line class="cls-2" x1="658.7" y1="466.43" x2="657.14" y2="464.35"/>
    <path class="cls-2" d="M658.09,468.53c1.18-.68,1.46-1.87.69-2.86"/>
    <path class="cls-2" d="M670.97,455.55c-4.39-1.14-9.29-.62-12.27,1.31-2.98,1.93-3.42,4.86-1.1,7.34"/>
    <line class="cls-2" x1="683.64" y1="440.45" x2="683.64" y2="440.45"/>
    <path class="cls-2" d="M672.35,444.89c-.52,2.05.72,4.22,3.32,5.81"/>
    <path class="cls-2" d="M683.97,439.96c-3.34-.28-6.59.32-8.84,1.65"/>
    <path class="cls-2" d="M678.45,455.05c.83-.9.62-2.12-.51-2.93"/>
    <line class="cls-2" x1="677.92" y1="452.4" x2="675.33" y2="451.36"/>
    <line class="cls-2" x1="686.76" y1="440.45" x2="686.76" y2="440.97"/>
    <line class="cls-2" x1="683.64" y1="440.45" x2="686.76" y2="440.45"/>
    <path class="cls-2" d="M687.33,440.44c1.58.14,3.01-.51,3.45-1.54"/>
    <path class="cls-2" d="M677.83,455.73c.25-.22.49-.45.74-.68"/>
    <line class="cls-2" x1="688.84" y1="422.79" x2="688.84" y2="422.79"/>
    <path class="cls-2" d="M681.26,431c.97,1.56,2.86,2.9,5.3,3.78"/>
    <path class="cls-2" d="M689.12,422.81c-2.42.2-4.58.89-6.14,1.94"/>
    <path class="cls-2" d="M690.79,438.35c.42-1.04-.28-2.19-1.67-2.76"/>
    <line class="cls-2" x1="688.84" y1="435.77" x2="686.24" y2="434.74"/>
    <line class="cls-2" x1="691.95" y1="422.79" x2="691.95" y2="422.79"/>
    <line class="cls-2" x1="688.84" y1="422.79" x2="691.95" y2="422.79"/>
    <path class="cls-2" d="M691.92,422.24c1.54-.18,2.63-1.09,2.62-2.18"/>
    <path class="cls-2" d="M690.68,438.99c.13-.26.25-.53.37-.79"/>
    <line class="cls-2" x1="685.2" y1="404.6" x2="685.2" y2="405.12"/>
    <path class="cls-2" d="M684.02,415.18c1.44.78,3.17,1.36,5.01,1.67"/>
    <path class="cls-2" d="M685.65,404.62c-.27.07-.53.16-.78.24"/>
    <path class="cls-2" d="M694.54,419.51c-.03-1.1-1.15-2.08-2.69-2.37"/>
    <line class="cls-2" x1="691.95" y1="417.59" x2="688.32" y2="417.07"/>
    <line class="cls-2" x1="687.8" y1="404.08" x2="687.8" y2="404.6"/>
    <line class="cls-2" x1="685.2" y1="404.6" x2="687.8" y2="404.08"/>
    <path class="cls-2" d="M688.14,403.86c.31-.11.59-.25.82-.41"/>
    <path class="cls-2" d="M694.82,420.32c0-.28-.01-.56-.03-.84"/>
    <path class="cls-2" d="M482.76,390.55c.7.06,1.4.08,2.09.06"/>
    <line class="cls-2" x1="482.57" y1="390.57" x2="479.45" y2="390.57"/>
    <path class="cls-2" d="M479.4,390.06c-1.58-.14-3.01.51-3.45,1.54"/>
    <line class="cls-2" x1="478.93" y1="408.24" x2="479.97" y2="396.29"/>
    <path class="cls-2" d="M484.22,398.03c-1.04-.94-2.43-1.73-4.05-2.31"/>
    <path class="cls-2" d="M477.61,407.7c2.35-.2,4.45-.84,6-1.84"/>
    <line class="cls-2" x1="475.82" y1="408.24" x2="476.86" y2="395.25"/>
    <path class="cls-2" d="M475.94,392.15c-.42,1.04.28,2.19,1.67,2.76"/>
    <line class="cls-2" x1="476.86" y1="395.25" x2="479.97" y2="396.29"/>
    <line class="cls-2" x1="477.38" y1="408.24" x2="474.26" y2="408.24"/>
    <line class="cls-2" x1="469.58" y1="435.77" x2="471.66" y2="410.32"/>
    <path class="cls-2" d="M474.81,408.26c-1.54.18-2.63,1.09-2.62,2.18"/>
    <path class="cls-2" d="M475.53,391.52c-.13.26-.25.53-.37.79"/>
    <line class="cls-2" x1="476.34" y1="428.5" x2="477.38" y2="413.95"/>
    <path class="cls-2" d="M484.63,416.64c-1.66-1.44-4.14-2.51-6.93-2.98"/>
    <path class="cls-2" d="M481.08,425.88c2.7-.75,4.64-2.17,5.34-3.9"/>
    <line class="cls-2" x1="472.7" y1="434.74" x2="474.26" y2="413.43"/>
    <path class="cls-2" d="M472.19,410.99c.03,1.1,1.15,2.08,2.69,2.37"/>
    <line class="cls-2" x1="471.66" y1="411.36" x2="469.58" y2="435.77"/>
    <line class="cls-2" x1="474.26" y1="413.43" x2="477.38" y2="413.95"/>
    <line class="cls-2" x1="481.01" y1="426.42" x2="477.9" y2="426.94"/>
    <line class="cls-2" x1="475.82" y1="434.74" x2="476.34" y2="429.54"/>
    <path class="cls-2" d="M478.59,426.65c-1.38.48-2.04,1.58-1.59,2.65"/>
    <path class="cls-2" d="M471.39,410.18c0,.28.01.56.03.84"/>
    <line class="cls-2" x1="483.61" y1="436.81" x2="483.61" y2="432.14"/>
    <path class="cls-2" d="M494.2,435.02c-2.27-2.12-6.23-3.44-10.32-3.44"/>
    <path class="cls-2" d="M492.94,443.06c3.02-1.66,3.94-4.3,2.36-6.75"/>
    <line class="cls-2" x1="480.49" y1="435.25" x2="480.49" y2="432.14"/>
    <path class="cls-2" d="M477.54,430.36c.47,1.07,1.93,1.81,3.5,1.79"/>
    <line class="cls-2" x1="476.86" y1="430.58" x2="476.34" y2="434.74"/>
    <line class="cls-2" x1="480.49" y1="432.14" x2="483.61" y2="432.14"/>
    <line class="cls-2" x1="492.44" y1="443.57" x2="490.37" y2="444.61"/>
    <line class="cls-2" x1="489.85" y1="450.84" x2="489.85" y2="447.2"/>
    <path class="cls-2" d="M490.82,444.16c-1.11.74-1.28,1.94-.42,2.9"/>
    <path class="cls-2" d="M476.31,429.26c.14.27.28.55.42.82"/>
    <line class="cls-2" x1="498.16" y1="448.76" x2="498.16" y2="448.76"/>
    <path class="cls-2" d="M511.93,458.29c2.16-2.29,1.52-5.27-1.6-7.46-3.12-2.19-8.06-3.13-12.39-2.36"/>
    <line class="cls-2" x1="495.04" y1="449.28" x2="495.04" y2="449.28"/>
    <path class="cls-2" d="M490.94,448.12c.88.95,2.55,1.39,4.02,1.06"/>
    <line class="cls-2" x1="490.88" y1="448.24" x2="490.37" y2="451.36"/>
    <line class="cls-2" x1="495.04" y1="449.28" x2="498.16" y2="448.76"/>
    <line class="cls-2" x1="511.67" y1="458.63" x2="510.11" y2="460.19"/>
    <line class="cls-2" x1="511.15" y1="462.79" x2="511.15" y2="462.79"/>
    <path class="cls-2" d="M510.51,459.74c-.74.94-.42,2.15.78,2.91"/>
    <path class="cls-2" d="M489.88,447.2c.26.25.51.49.77.73"/>
    <line class="cls-2" x1="518.94" y1="462.79" x2="518.94" y2="462.79"/>
    <path class="cls-2" d="M536.89,469.59c.91-2.62-1.13-5.45-5.09-7.09s-9.04-1.75-12.71-.27"/>
    <line class="cls-2" x1="516.34" y1="464.35" x2="516.34" y2="463.83"/>
    <path class="cls-2" d="M512.36,463.2c1.21.76,2.96.86,4.22.24"/>
    <line class="cls-2" x1="516.34" y1="463.83" x2="518.94" y2="462.79"/>
    <line class="cls-2" x1="536.61" y1="470.06" x2="536.09" y2="471.62"/>
    <path class="cls-2" d="M536.16,471.27c-.32,1.06.47,2.18,1.91,2.69"/>
    <path class="cls-2" d="M510.99,462.54c.36.2.72.4,1.08.6"/>
    <line class="cls-2" x1="545.44" y1="473.18" x2="545.44" y2="472.66"/>
    <line class="cls-2" x1="565.18" y1="476.82" x2="564.66" y2="480.46"/>
    <path class="cls-2" d="M565.63,476.58c-.42-2.73-3.68-5.18-8.17-6.14-4.5-.96-9.28-.22-11.99,1.84"/>
    <line class="cls-2" x1="543.36" y1="475.78" x2="543.36" y2="474.22"/>
    <path class="cls-2" d="M539.67,474.49c1.45.5,3.14.25,4.07-.59"/>
    <line class="cls-2" x1="543.36" y1="474.22" x2="545.44" y2="472.66"/>
    <line class="cls-2" x1="565.7" y1="478.9" x2="565.18" y2="480.46"/>
    <line class="cls-2" x1="565.18" y1="476.82" x2="565.7" y2="478.9"/>
    <path class="cls-2" d="M565.72,478.68c.13,1.1,1.33,2.04,2.9,2.25"/>
    <path class="cls-2" d="M537.95,474.07c.43.14.86.27,1.29.4"/>
    <line class="cls-2" x1="574.53" y1="479.42" x2="574.53" y2="478.38"/>
    <line class="cls-2" x1="595.32" y1="478.9" x2="595.32" y2="479.42"/>
    <path class="cls-2" d="M595.55,478.89c-1.71-2.62-5.93-4.5-10.59-4.69-4.66-.2-8.77,1.32-10.3,3.8"/>
    <line class="cls-2" x1="573.49" y1="481.5" x2="573.49" y2="479.94"/>
    <path class="cls-2" d="M570.21,480.94c1.57.2,3.06-.37,3.6-1.38"/>
    <line class="cls-2" x1="573.49" y1="479.94" x2="574.53" y2="478.38"/>
    <line class="cls-2" x1="596.35" y1="480.98" x2="596.35" y2="482.53"/>
    <line class="cls-2" x1="595.32" y1="478.9" x2="596.35" y2="480.98"/>
    <path class="cls-2" d="M597.1,480.9c.57,1.05,2.08,1.73,3.64,1.63"/>
    <path class="cls-2" d="M568.57,480.82c.46.06.93.12,1.39.18"/>
    <line class="cls-2" x1="604.67" y1="482.01" x2="604.67" y2="478.9"/>
    <line class="cls-2" x1="624.41" y1="475.78" x2="624.41" y2="476.3"/>
    <path class="cls-2" d="M624.63,475.64c-2.86-2.3-7.71-3.45-12.15-2.87-4.44.58-7.55,2.75-7.78,5.46"/>
    <line class="cls-2" x1="604.67" y1="482.01" x2="604.67" y2="480.46"/>
    <path class="cls-2" d="M601.83,482.53c1.56-.11,2.73-.96,2.83-2.05"/>
    <line class="cls-2" x1="604.67" y1="480.46" x2="604.67" y2="478.9"/>
    <line class="cls-2" x1="626.49" y1="477.86" x2="625.97" y2="478.9"/>
    <line class="cls-2" x1="624.41" y1="475.78" x2="626.49" y2="477.86"/>
    <path class="cls-2" d="M626.67,477.35c.96.91,2.66,1.28,4.09.88"/>
    <path class="cls-2" d="M600.37,482.27c.46-.02.92-.04,1.38-.06"/>
    <path class="cls-2" d="M652.81,469.01c1.27.7,3.02.73,4.21.05"/>
    <line class="cls-2" x1="652.47" y1="469.55" x2="652.47" y2="470.06"/>
    <line class="cls-2" x1="649.87" y1="468.51" x2="649.87" y2="467.99"/>
    <line class="cls-2" x1="649.87" y1="467.99" x2="652.47" y2="469.55"/>
    <line class="cls-2" x1="633.76" y1="475.78" x2="633.24" y2="473.7"/>
    <path class="cls-2" d="M631.84,478.22c1.43-.41,2.19-1.48,1.83-2.56"/>
    <path class="cls-2" d="M650.41,467.99c-3.78-1.79-8.86-2.12-12.72-.81-3.87,1.31-5.71,3.97-4.63,6.67"/>
    <path class="cls-2" d="M630.77,478.28c.42-.1.84-.2,1.27-.3"/>
    <path class="cls-2" d="M657.31,469.19c.35-.17.7-.34,1.04-.51"/>
    <line class="cls-2" x1="659.22" y1="467.47" x2="659.22" y2="468.51"/>
    <line class="cls-2" x1="678.96" y1="454.48" x2="678.96" y2="455"/>
    <line class="cls-2" x1="690.91" y1="437.85" x2="690.91" y2="438.37"/>
    <line class="cls-2" x1="694.55" y1="420.71" x2="694.55" y2="423.31"/>
    <line class="cls-2" x1="689.87" y1="404.08" x2="689.87" y2="404.08"/>
    <line class="cls-2" x1="475.3" y1="393.17" x2="473.74" y2="408.76"/>
    <line class="cls-2" x1="471.66" y1="410.32" x2="469.58" y2="435.77"/>
    <line class="cls-2" x1="476.34" y1="429.02" x2="475.82" y2="434.74"/>
    <line class="cls-2" x1="489.33" y1="446.17" x2="488.81" y2="450.32"/>
    <line class="cls-2" x1="509.59" y1="460.71" x2="509.59" y2="462.27"/>
    <line class="cls-2" x1="536.09" y1="472.14" x2="535.57" y2="473.7"/>
    <line class="cls-2" x1="633.76" y1="476.3" x2="633.76" y2="477.86"/>
    <polyline class="cls-2" points="411.91 269 408.28 271.08 460.75 297.05 486.73 309.52 511.67 321.99 515.82 319.39"/>
    <path class="cls-2" d="M396.29,276.5c6.12,3.22,11.4.89,12.32-5.44"/>
    <line class="cls-2" x1="396.33" y1="276.79" x2="283.06" y2="218.08"/>
    <line class="cls-2" x1="241.5" y1="212.89" x2="504.39" y2="390.05"/>
    <polyline class="cls-2" points="504.39 390.05 504.91 389.53 505.43 388.49 506.47 385.9 506.99 383.3 506.99 382.78 506.99 380.7 507.51 376.03 507.51 374.47 507.51 373.95 508.03 372.39 508.03 367.19 508.55 361.48 509.07 357.84 509.07 353.68 511.67 321.99"/>
    <path class="cls-2" d="M400.44,273.9c2.43,1.28,4.83,1.72,6.88,1.26"/>
    <polyline class="cls-2" points="513.23 355.76 512.71 360.44 512.19 364.6 512.19 368.23 511.67 370.31 511.67 371.35 511.67 371.87 511.67 372.39 511.67 375.51"/>
    <line class="cls-2" x1="287.22" y1="215.48" x2="399.96" y2="274.19"/>
    <polyline class="cls-2" points="503.87 391.09 504.39 390.57 504.39 390.05"/>
    <path class="cls-2" d="M367.44,246.78c-3,1.74-5.36,3.9-6.96,6.36"/>
    <path class="cls-2" d="M328.42,236.71c4.03-.58,7.71-1.74,10.78-3.4"/>
    <path class="cls-2" d="M372.34,249c-3.72,1.28-6.89,3.08-9.33,5.28"/>
    <line class="cls-2" x1="396.33" y1="276.79" x2="399.96" y2="274.19"/>
    <line class="cls-2" x1="236.82" y1="216.52" x2="489.33" y2="386.42"/>
    <path class="cls-2" d="M792.15,385.53c-4.67-2.55-9.37-3.68-13.56-3.27"/>
    <path class="cls-2" d="M807.88,438.65c8.58-5.71,9.52-20.18,2.21-34.17"/>
    <path class="cls-2" d="M808.73,429.13c.72-2.67.9-5.71.53-8.96"/>
    <path class="cls-2" d="M788.81,389.93c-1.52-.81-3.04-1.46-4.55-1.93"/>
    <polyline class="cls-2" points="815.61 417.07 814.57 410.84 813.01 405.12 810.41 399.41 807.81 394.21"/>
    <polyline class="cls-2" points="794.31 381.74 790.15 380.18 785.99 379.66 781.84 379.66 777.68 380.7"/>
    <polyline class="cls-2" points="810.41 437.33 813.01 434.22 815.09 429.54 816.13 423.82 815.61 417.07"/>
    <polyline class="cls-2" points="807.81 438.89 807.81 438.89 810.41 437.33"/>
    <line class="cls-2" x1="712.22" y1="450.32" x2="716.37" y2="465.91"/>
    <line class="cls-2" x1="706.5" y1="445.13" x2="709.62" y2="447.2"/>
    <path class="cls-2" d="M701.26,444.57c-2.81,1.03-5.21,2.38-7.07,4"/>
    <path class="cls-2" d="M694.53,448.8c-1.85,1.61-3.46,3.32-4.83,5.12"/>
    <path class="cls-2" d="M656.24,475.84c14.66-5.15,26.22-12.82,33.33-22.13"/>
    <path class="cls-2" d="M656.39,476.2c-2.83.99-5.49,2.12-7.98,3.38"/>
    <path class="cls-2" d="M647.96,479.59c-2.5,1.26-4.53,2.83-5.97,4.6"/>
    <line class="cls-2" x1="646.23" y1="488.77" x2="643.11" y2="487.21"/>
    <line class="cls-2" x1="643.11" y1="487.21" x2="638.96" y2="536.05"/>
    <line class="cls-2" x1="638.96" y1="536.05" x2="642.59" y2="538.13"/>
    <line class="cls-2" x1="642.59" y1="538.13" x2="646.23" y2="488.77"/>
    <line class="cls-2" x1="677.92" y1="491.37" x2="651.95" y2="490.33"/>
    <line class="cls-2" x1="651.95" y1="490.33" x2="647.79" y2="539.69"/>
    <line class="cls-2" x1="647.79" y1="539.69" x2="674.29" y2="540.72"/>
    <line class="cls-2" x1="674.29" y1="540.72" x2="677.92" y2="491.37"/>
    <line class="cls-2" x1="714.81" y1="469.55" x2="684.16" y2="489.81"/>
    <line class="cls-2" x1="684.16" y1="489.81" x2="680" y2="539.17"/>
    <line class="cls-2" x1="680" y1="539.17" x2="710.66" y2="518.9"/>
    <line class="cls-2" x1="710.66" y1="518.9" x2="714.81" y2="469.55"/>
    <path class="cls-2" d="M685.35,512.31c-.64,8.64,4.47,11.97,11.41,7.43,6.95-4.54,13.1-15.22,13.74-23.87.64-8.64-4.47-11.97-11.41-7.43-6.95,4.54-13.1,15.22-13.74,23.87"/>
    <path class="cls-2" d="M642.44,484.22c-.74.92-.31,2.09,1.04,2.84"/>
    <path class="cls-2" d="M647.05,488.92c1.49.84,3.37,1.35,5.31,1.42"/>
    <path class="cls-2" d="M678.34,491.38c2.33.09,4.52-.44,6.01-1.46"/>
    <path class="cls-2" d="M715,469.66c1.49-1.02,2.14-2.43,1.77-3.86"/>
    <path class="cls-2" d="M712.62,449.69c-.31-1.19-1.29-2.31-2.78-3.15"/>
    <path class="cls-2" d="M706.65,445.28c-1.35-.75-3.29-.9-4.73-.37"/>
    <path class="cls-2" d="M637.93,533.91c-.06.73.46,1.47,1.39,1.99"/>
    <path class="cls-2" d="M710.85,518.5c1.12-.77,1.77-1.76,1.86-2.83"/>
    <path class="cls-2" d="M674.18,540.22c2.33.09,4.52-.44,6.01-1.46"/>
    <path class="cls-2" d="M642.89,537.76c1.49.84,3.37,1.35,5.31,1.42"/>
    <line class="cls-2" x1="712.73" y1="515.79" x2="716.37" y2="466.95"/>
    <line class="cls-2" x1="637.92" y1="533.97" x2="641.56" y2="485.13"/>
    <path class="cls-2" d="M-760.84,229.15c-286.3-15.8-460.75,218.76-420.59,565.48,40.16,346.72,284.29,713.68,588.57,884.7,304.28,171.02,588.02,100.74,684.08-169.42"/>
    <path class="cls-2" d="M-760.84,229.15c-286.3-15.8-460.75,218.76-420.59,565.48,40.16,346.72,284.29,713.68,588.57,884.7,304.28,171.02,588.02,100.74,684.08-169.42"/>
    <path class="cls-2" d="M66.85,1379.51c52.36-328.87-165.59-762.54-490.26-975.52"/>
    <path class="cls-2" d="M-540.68,339.64c-316.71-140.35-576.21,9.04-595.41,342.76-19.19,333.72,208.39,739.13,522.19,930.2C-300.1,1803.66-6.02,1715.89,60.86,1411.2"/>
    <path class="cls-2" d="M-611.98,163.67c-408.62-159.54-725.78,63.51-722.93,508.43,2.85,444.92,324.7,957.09,733.65,1167.46,408.94,210.36,762.86,45.81,806.73-375.08"/>
    <path class="cls-2" d="M208.24,1431.06C232.53,1042.41-8.18,569.31-365.83,302.77"/>
    <path class="cls-2" d="M-584.17,188.77c-405.64-173.87-730.59,32.49-738,468.67-7.42,436.18,305.31,948.21,710.26,1162.88,404.94,214.67,759.14,56.21,804.44-359.89"/>
    <path class="cls-2" d="M195.3,1429.16C221.94,1042.02-20.53,568.38-379.2,306.94"/>
    <path class="cls-2" d="M-760.84,229.15c-286.3-15.8-460.75,218.76-420.59,565.48,40.16,346.72,284.29,713.68,588.57,884.7,304.28,171.02,588.02,100.74,684.08-169.42"/>
    <polyline class="cls-2" points="116.8 1401.63 119.92 1371.49 121.48 1340.32 122 1308.63 120.96 1275.9 118.88 1242.12 114.73 1207.83 109.53 1173.02 102.78 1137.69 94.98 1101.32 85.63 1065.48 74.72 1029.11 62.25 992.22 48.74 955.33 33.68 918.96 17.57 882.59 -.09 846.22 -18.8 809.85 -38.54 774.52 -59.84 739.71 -81.66 704.9 -105.05 671.13 -128.94 638.4 -153.88 606.19 -179.86 574.5 -206.36 544.36 -233.89 515.27 -261.43 487.21 -290.01 460.19 -319.1 434.22 -348.72 410.32 -378.33 386.94 -407.95 365.63"/>
    <polyline class="cls-2" points="-1126.49 114.17 -1140.52 126.12 -1154.55 139.11 -1168.05 152.1 -1181.04 166.13 -1193.51 180.15 -1205.46 194.7 -1217.41 210.29 -1228.32 225.35 -1238.71 241.46 -1249.11 258.09 -1258.46 274.71 -1267.29 291.86 -1276.12 309 -1283.92 326.67 -1291.71 344.85 -1298.46 363.04 -1305.22 381.74 -1310.93 400.44 -1316.65 419.67 -1321.32 438.89 -1326 458.63 -1329.64 478.38 -1333.27 498.64 -1336.39 518.9 -1338.99 539.17 -1341.07 559.95 -1342.63 580.73 -1343.66 601.51 -1344.18 622.29 -1344.18 643.6 -1344.18 664.9 -1343.14 686.72 -1342.11 708.02 -1340.55 729.84 -1338.47 751.66 -1335.87 773.49 -1332.75 795.31 -1329.12 817.13 -1325.48 839.47 -1321.32 861.29 -1316.65 883.63 -1311.45 905.97 -1305.74 927.79 -1300.02 950.13 -1293.27 972.47 -1286.51 994.3 -1279.24 1016.64 -1271.97 1038.46 -1263.65 1060.8 -1255.34 1082.62 -1247.03 1104.44 -1237.68 1126.26 -1228.32 1148.08 -1218.45 1169.91 -1208.06 1191.73 -1197.67 1213.03 -1186.76 1234.33 -1175.33 1255.63 -1163.9 1276.41 -1151.95 1297.72 -1139.48 1318.5 -1127.01 1338.76 -1114.02 1359.02 -1100.51 1379.29 -1087 1399.55 -1073.5 1419.29 -1059.47 1439.04 -1044.92 1458.26 -1030.37 1477.48 -1015.31 1496.19 -1000.24 1514.89 -984.65 1533.07 -969.07 1551.26 -952.96 1568.92 -936.85 1586.59 -920.23 1603.73 -903.6 1620.36 -886.98 1636.99 -869.83 1653.09 -852.68 1669.2 -835.02 1684.79 -817.36 1699.85 -799.69 1714.4 -781.51 1728.95 -763.32 1742.98 -745.14 1757 -726.95 1769.99 -708.25 1782.98 -689.54 1795.45 -670.84 1807.4 -651.62 1819.35 -632.39 1830.26 -613.17 1841.17 -593.95 1851.56 -574.72 1861.43 -555.5 1870.79 -535.76 1880.14 -516.01 1888.45 -496.79 1896.76 -477.05 1904.04 -457.3 1911.31 -437.56 1917.55 -417.82 1923.78 -398.07 1929.5 -377.81 1934.69 -358.07 1938.85 -338.33 1943 -318.58 1946.64 -298.84 1949.24 -279.1 1951.84 -259.35 1953.39 -239.61 1954.43 -219.87 1955.47 -200.64 1955.47 -180.9 1954.95 -161.68 1953.39 -142.45 1951.84 -123.75 1949.76 -104.53 1946.64 -85.82 1943 -67.12 1938.85 -48.93 1934.17 -30.75 1928.46 -12.56 1922.74 5.1 1915.99 22.25 1908.71 39.39 1900.4 56.54 1892.09"/>
    <path class="cls-2" d="M502.25,515.38c38.4,21.2,92.6,27.05,136.21,14.71"/>
    <path class="cls-2" d="M505.89,466.54c38.71,21.37,93.43,27.13,137.17,14.44,43.74-12.69,67.25-41.15,58.93-71.34"/>
    <line class="cls-2" x1="501.8" y1="515.79" x2="505.95" y2="466.95"/>
    <line class="cls-2" x1="-350.79" y1="44.55" x2="30.56" y2="255.49"/>
    <line class="cls-2" x1="114.21" y1="301.73" x2="501.8" y2="515.79"/>
    <line class="cls-2" x1="-346.64" y1="-4.29" x2="72.64" y2="227.43"/>
    <line class="cls-2" x1="153.17" y1="272.11" x2="505.95" y2="466.95"/>
    <path class="cls-2" d="M564.02,480.17c3.49.55,7,.99,10.53,1.34"/>
    <line class="cls-2" x1="564.14" y1="480.46" x2="564.66" y2="479.42"/>
    <path class="cls-2" d="M564.71,479.08s.02-.05.04-.08"/>
    <path class="cls-2" d="M564.74,479.01c1.59-3.41-1.48-7.21-7.09-8.8"/>
    <path class="cls-2" d="M557.54,470.25c-5.97-.93-11.73,1-13.26,4.46"/>
    <line class="cls-2" x1="543.88" y1="475.26" x2="543.36" y2="475.78"/>
    <path class="cls-2" d="M533.78,472.68c3.18,1.1,6.42,2.12,9.73,3.05"/>
    <line class="cls-2" x1="534.01" y1="472.66" x2="534.53" y2="472.14"/>
    <path class="cls-2" d="M534.77,472s.05-.04.07-.07"/>
    <path class="cls-2" d="M534.84,471.94c3.15-2.91,1.91-7-2.87-9.44"/>
    <path class="cls-2" d="M532.13,462.2c-5.39-1.87-11.91-1.08-15.06,1.83"/>
    <path class="cls-2" d="M517.07,464.03s-.05.04-.07.07"/>
    <line class="cls-2" x1="516.34" y1="464.35" x2="515.82" y2="465.39"/>
    <path class="cls-2" d="M511.53,462.85c1.36.75,2.74,1.48,4.15,2.19"/>
    <polyline class="cls-2" points="511.67 463.31 506.99 460.71 508.55 459.67"/>
    <path class="cls-2" d="M508.84,459.25c3.94-2.57,3.69-6.71-.56-9.53"/>
    <path class="cls-2" d="M508.11,449.79c-5-2.32-11.79-2.08-15.61.55"/>
    <polyline class="cls-2" points="492.44 450.84 490.88 451.88 482.05 446.68 483.61 445.65"/>
    <path class="cls-2" d="M483.38,445.74s.06-.04.09-.06"/>
    <path class="cls-2" d="M483.47,445.68c3.85-2.58,3.57-6.67-.64-9.47"/>
    <path class="cls-2" d="M483.17,436.29c-4.96-2.3-11.68-2.09-15.52.49"/>
    <path class="cls-2" d="M467.64,436.77s-.06.04-.09.06"/>
    <polyline class="cls-2" points="466.99 436.81 465.95 437.85 457.11 432.66 458.15 432.14"/>
    <path class="cls-2" d="M458.45,431.72s.06-.04.09-.06"/>
    <path class="cls-2" d="M458.53,431.66c3.85-2.58,3.57-6.67-.64-9.47"/>
    <path class="cls-2" d="M458.23,422.26c-4.96-2.3-11.68-2.09-15.52.49"/>
    <path class="cls-2" d="M442.7,422.75s-.06.04-.09.06"/>
    <polyline class="cls-2" points="442.05 422.79 441.01 423.82 432.18 419.15 433.21 418.11"/>
    <path class="cls-2" d="M433.51,417.69s.06-.04.09-.06"/>
    <path class="cls-2" d="M433.6,417.63c3.85-2.58,3.57-6.67-.64-9.47"/>
    <path class="cls-2" d="M432.77,408.23c-5-2.32-11.79-2.08-15.61.55"/>
    <polyline class="cls-2" points="417.11 409.28 415.55 409.8 406.72 405.12 408.28 404.08"/>
    <path class="cls-2" d="M408.57,404.18c3.94-2.57,3.69-6.71-.56-9.53"/>
    <path class="cls-2" d="M407.83,394.72c-4.96-2.3-11.68-2.09-15.52.49"/>
    <path class="cls-2" d="M392.31,395.21s-.06.04-.09.06"/>
    <polyline class="cls-2" points="392.17 395.25 390.61 396.29 381.78 391.09 383.34 390.57"/>
    <path class="cls-2" d="M383.11,390.15c3.94-2.57,3.69-6.71-.56-9.53"/>
    <path class="cls-2" d="M382.89,380.69c-5-2.32-11.79-2.08-15.61.55"/>
    <polyline class="cls-2" points="366.71 381.22 365.67 382.26 356.84 377.58 357.88 376.55"/>
    <path class="cls-2" d="M358.17,376.12s.06-.04.09-.06"/>
    <path class="cls-2" d="M358.26,376.06c3.85-2.58,3.57-6.67-.64-9.47"/>
    <path class="cls-2" d="M357.95,366.67c-4.96-2.3-11.68-2.09-15.52.49"/>
    <path class="cls-2" d="M342.43,367.15s-.06.04-.09.06"/>
    <polyline class="cls-2" points="341.77 367.71 340.21 368.23 331.9 363.56 332.94 362.52"/>
    <path class="cls-2" d="M333.23,362.61c3.94-2.57,3.69-6.71-.56-9.53"/>
    <path class="cls-2" d="M332.5,353.16c-4.96-2.3-11.68-2.09-15.52.49"/>
    <path class="cls-2" d="M316.97,353.65s-.06.04-.09.06"/>
    <polyline class="cls-2" points="316.83 353.68 315.28 354.72 306.44 349.53 308 349.01"/>
    <path class="cls-2" d="M308.29,348.59s.06-.04.09-.06"/>
    <path class="cls-2" d="M308.38,348.53c3.85-2.58,3.57-6.67-.64-9.47"/>
    <path class="cls-2" d="M307.56,339.13c-4.96-2.3-11.68-2.09-15.52.49"/>
    <path class="cls-2" d="M292.03,339.62s-.06.04-.09.06"/>
    <polyline class="cls-2" points="291.38 339.66 290.34 340.7 281.5 336.02 283.06 334.98"/>
    <path class="cls-2" d="M282.84,334.56s.06-.04.09-.06"/>
    <path class="cls-2" d="M282.93,334.5c3.85-2.58,3.57-6.67-.64-9.47"/>
    <path class="cls-2" d="M282.62,325.1c-4.96-2.3-11.68-2.09-15.52.49"/>
    <path class="cls-2" d="M267.1,325.59s-.06.04-.09.06"/>
    <polyline class="cls-2" points="266.44 326.15 265.4 326.67 256.57 321.99 257.6 320.95"/>
    <path class="cls-2" d="M257.9,321.05c3.94-2.57,3.69-6.71-.56-9.53"/>
    <path class="cls-2" d="M257.16,311.59c-5-2.32-11.79-2.08-15.61.55"/>
    <polyline class="cls-2" points="241.5 312.12 239.94 313.16 231.63 307.96 232.67 307.44"/>
    <path class="cls-2" d="M232.96,307.02c3.94-2.57,3.69-6.71-.56-9.53"/>
    <path class="cls-2" d="M232.22,297.56c-4.96-2.3-11.68-2.09-15.52.49"/>
    <path class="cls-2" d="M216.7,298.05s-.06.04-.09.06"/>
    <polyline class="cls-2" points="216.56 298.09 215 299.13 206.17 294.46 207.73 293.42"/>
    <path class="cls-2" d="M208.02,292.99c3.94-2.57,3.69-6.71-.56-9.53"/>
    <path class="cls-2" d="M207.28,283.54c-5-2.32-11.79-2.08-15.61.55"/>
    <polyline class="cls-2" points="191.1 284.58 190.06 285.1 181.23 280.43 182.27 279.39"/>
    <path class="cls-2" d="M182.56,279.49c3.94-2.57,3.69-6.71-.56-9.53"/>
    <path class="cls-2" d="M182.34,269.51c-5-2.32-11.79-2.08-15.61.55"/>
    <polyline class="cls-2" points="166.16 270.56 165.12 271.59 158.89 267.96"/>
    <path class="cls-2" d="M85.03,218.79c-.26-1.62-1.42-3.18-3.3-4.43"/>
    <path class="cls-2" d="M82.07,214.44c-4.96-2.3-11.68-2.09-15.52.49"/>
    <path class="cls-2" d="M66.55,214.92s-.06.04-.09.06"/>
    <polyline class="cls-2" points="65.89 214.96 64.85 216 56.02 211.33 57.06 210.29"/>
    <path class="cls-2" d="M57.35,209.86c3.94-2.57,3.69-6.71-.56-9.53"/>
    <path class="cls-2" d="M56.61,200.41c-4.96-2.3-11.68-2.09-15.52.49"/>
    <path class="cls-2" d="M41.09,200.9s-.06.04-.09.06"/>
    <polyline class="cls-2" points="40.95 201.46 39.39 201.97 30.56 197.3 32.12 196.26"/>
    <path class="cls-2" d="M32.41,196.36s.06-.04.09-.06"/>
    <path class="cls-2" d="M32.5,196.3c3.85-2.58,3.57-6.67-.64-9.47"/>
    <path class="cls-2" d="M31.67,186.38c-4.96-2.3-11.68-2.09-15.52.49"/>
    <path class="cls-2" d="M16.15,186.87s-.06.04-.09.06"/>
    <polyline class="cls-2" points="16.01 187.43 14.45 188.47 5.62 183.27 7.18 182.75"/>
    <path class="cls-2" d="M6.95,182.33c3.94-2.57,3.69-6.71-.56-9.53"/>
    <path class="cls-2" d="M6.74,172.87c-4.96-2.3-11.68-2.09-15.52.49"/>
    <line class="cls-2" x1="690.39" y1="404.08" x2="689.35" y2="404.08"/>
    <path class="cls-2" d="M689.96,404.05h-.13"/>
    <path class="cls-2" d="M689.82,404.06c-1.72.08-3.36.39-4.79.92"/>
    <path class="cls-2" d="M684.06,414.73c2.59,1.34,5.9,2,9.12,1.83"/>
    <line class="cls-2" x1="692.99" y1="417.07" x2="694.55" y2="417.07"/>
    <path class="cls-2" d="M694.78,423.08c.1-2.11.04-4.24-.2-6.36"/>
    <line class="cls-2" x1="694.55" y1="423.31" x2="692.99" y2="423.31"/>
    <path class="cls-2" d="M693.28,422.92s-.09-.01-.13-.02"/>
    <path class="cls-2" d="M693.14,422.9c-3.79-.48-7.57.17-10.13,1.75"/>
    <path class="cls-2" d="M681.59,430.58c1.67,2.31,5.15,4.04,9.18,4.55"/>
    <path class="cls-2" d="M690.76,435.14s.09.01.14.02"/>
    <line class="cls-2" x1="690.39" y1="435.77" x2="691.95" y2="435.77"/>
    <path class="cls-2" d="M689.35,441.56c1.09-1.96,2.03-3.95,2.8-5.98"/>
    <line class="cls-2" x1="689.35" y1="442.01" x2="687.8" y2="441.49"/>
    <path class="cls-2" d="M688.16,441.3s-.08-.03-.12-.04"/>
    <path class="cls-2" d="M688.03,441.26c-4.18-1.32-9.04-1.1-12.44.56"/>
    <path class="cls-2" d="M672.24,445.08c-.14,2.87,2.63,5.65,7.01,7.02"/>
    <path class="cls-2" d="M679.25,452.11s.08.03.13.04"/>
    <line class="cls-2" x1="679.48" y1="452.4" x2="680.52" y2="452.92"/>
    <path class="cls-2" d="M675.31,457.9c2-1.64,3.86-3.35,5.57-5.12"/>
    <line class="cls-2" x1="675.33" y1="458.12" x2="673.77" y2="457.6"/>
    <path class="cls-2" d="M674.33,457.07c-4.52-2.56-11.21-2.82-15.55-.61"/>
    <path class="cls-2" d="M658.05,456.59c-3.27,2.81-2.29,6.85,2.26,9.38"/>
    <path class="cls-2" d="M660.32,465.98s.07.04.11.06"/>
    <line class="cls-2" x1="660.26" y1="466.43" x2="661.3" y2="466.95"/>
    <path class="cls-2" d="M653.8,470.79c2.74-1.2,5.37-2.48,7.89-3.83"/>
    <line class="cls-2" x1="653.51" y1="471.1" x2="652.99" y2="470.06"/>
    <path class="cls-2" d="M653.14,470.12s-.05-.05-.08-.07"/>
    <path class="cls-2" d="M653.07,470.04c-3.34-3.18-9.92-4.52-15.21-3.08"/>
    <path class="cls-2" d="M637.54,466.58c-4.68,2.07-5.65,6.11-2.22,9.29"/>
    <line class="cls-2" x1="635.32" y1="476.3" x2="635.84" y2="477.34"/>
    <path class="cls-2" d="M626.57,479.18c3.26-.65,6.45-1.4,9.57-2.24"/>
    <line class="cls-2" x1="626.49" y1="479.42" x2="625.97" y2="478.38"/>
    <path class="cls-2" d="M625.97,478.24c-1.74-3.59-7.64-6-13.56-5.57"/>
    <path class="cls-2" d="M612.84,472.45c-5.57,1.13-8.41,4.74-6.53,8.31"/>
    <line class="cls-2" x1="605.71" y1="480.98" x2="606.23" y2="482.01"/>
    <path class="cls-2" d="M595.81,482.4c3.52-.06,7.01-.21,10.47-.47"/>
    <line class="cls-2" x1="595.83" y1="482.53" x2="595.83" y2="481.5"/>
    <path class="cls-2" d="M595.81,481.28c-.04-3.65-4.71-6.92-10.74-7.52"/>
    <path class="cls-2" d="M585.4,473.66c-6.02.11-10.5,3-10.31,6.65"/>
    <line class="cls-2" x1="574.53" y1="480.98" x2="574.53" y2="481.5"/>
    <line class="cls-2" x1="294.49" y1="211.85" x2="293.97" y2="219.12"/>
    <line class="cls-2" x1="295.53" y1="212.37" x2="295.01" y2="219.64"/>
    <line class="cls-2" x1="304.88" y1="216.52" x2="303.84" y2="224.32"/>
    <line class="cls-2" x1="319.95" y1="223.8" x2="318.91" y2="232.11"/>
    <line class="cls-2" x1="320.99" y1="224.32" x2="320.47" y2="232.63"/>
    <line class="cls-2" x1="329.82" y1="228.99" x2="329.3" y2="236.78"/>
    <polyline class="cls-2" points="369.31 258.09 369.83 250.29 369.31 258.09"/>
    <line class="cls-2" x1="371.39" y1="249.77" x2="370.35" y2="258.61"/>
    <line class="cls-2" x1="380.22" y1="253.41" x2="379.7" y2="263.28"/>
    <polyline class="cls-2" points="394.77 271.08 395.29 260.68 394.25 271.08"/>
    <line class="cls-2" x1="396.33" y1="261.2" x2="395.81" y2="271.59"/>
    <line class="cls-2" x1="405.68" y1="265.88" x2="404.64" y2="275.23"/>
    <line class="cls-2" x1="692.99" y1="417.07" x2="692.99" y2="417.59"/>
    <line class="cls-2" x1="694.55" y1="417.07" x2="694.03" y2="418.63"/>
    <polyline class="cls-2" points="690.39 436.81 690.39 435.77 690.39 436.29"/>
    <polyline class="cls-2" points="678.96 452.4 678.96 454.48 679.48 452.4"/>
    <polyline class="cls-2" points="660.26 467.99 660.26 466.43 660.26 467.99"/>
    <line class="cls-2" x1="635.32" y1="476.3" x2="635.32" y2="477.34"/>
    <line class="cls-2" x1="605.71" y1="480.98" x2="605.71" y2="482.01"/>
    <line class="cls-2" x1="574.53" y1="480.98" x2="574.53" y2="481.5"/>
    <polyline class="cls-2" points="564.14 480.46 564.66 479.42 564.14 480.46"/>
    <polyline class="cls-2" points="534.53 473.18 534.53 472.14 534.53 473.18"/>
    <line class="cls-2" x1="508.55" y1="459.67" x2="508.55" y2="461.23"/>
    <polyline class="cls-2" points="483.61 447.72 483.61 445.65 483.09 447.2"/>
    <polyline class="cls-2" points="458.15 432.14 458.15 433.7 458.67 432.14"/>
    <polyline class="cls-2" points="433.21 419.67 433.21 418.11 433.21 419.67"/>
    <line class="cls-2" x1="408.28" y1="404.08" x2="408.28" y2="405.64"/>
    <line class="cls-2" x1="383.34" y1="390.57" x2="382.82" y2="392.13"/>
    <polyline class="cls-2" points="357.88 376.55 357.88 378.1 358.4 376.55"/>
    <line class="cls-2" x1="332.94" y1="362.52" x2="332.94" y2="364.08"/>
    <polyline class="cls-2" points="308 350.57 308 349.01 308 350.57"/>
    <polyline class="cls-2" points="282.54 336.54 283.06 334.98 282.54 336.54"/>
    <line class="cls-2" x1="257.6" y1="320.95" x2="257.6" y2="322.51"/>
    <line class="cls-2" x1="232.67" y1="307.44" x2="232.67" y2="309"/>
    <line class="cls-2" x1="207.73" y1="293.42" x2="207.73" y2="294.97"/>
    <line class="cls-2" x1="182.27" y1="279.39" x2="182.27" y2="280.95"/>
    <line class="cls-2" x1="57.06" y1="210.29" x2="57.06" y2="211.85"/>
    <polyline class="cls-2" points="32.12 197.82 32.12 196.26 32.12 197.82"/>
    <line class="cls-2" x1="7.18" y1="182.75" x2="6.66" y2="183.79"/>
    <line class="cls-2" x1="701.82" y1="444.61" x2="703.38" y2="425.38"/>
    <line class="cls-2" x1="300.73" y1="214.96" x2="300.21" y2="222.24"/>
    <line class="cls-2" x1="326.19" y1="226.91" x2="325.67" y2="235.23"/>
    <line class="cls-2" x1="376.58" y1="251.85" x2="375.54" y2="261.72"/>
    <line class="cls-2" x1="402.04" y1="263.8" x2="401" y2="274.71"/>
    <line class="cls-2" x1="656.1" y1="460.71" x2="656.1" y2="461.75"/>
    <line class="cls-2" x1="633.24" y1="472.14" x2="632.72" y2="473.7"/>
    <line class="cls-2" x1="605.19" y1="478.9" x2="604.67" y2="482.01"/>
    <line class="cls-2" x1="574.53" y1="480.46" x2="574.53" y2="481.5"/>
    <line class="cls-2" x1="564.66" y1="477.86" x2="564.66" y2="480.46"/>
    <line class="cls-2" x1="536.61" y1="469.03" x2="536.09" y2="470.58"/>
    <line class="cls-2" x1="511.15" y1="455.52" x2="511.15" y2="459.15"/>
    <line class="cls-2" x1="486.21" y1="442.01" x2="485.69" y2="448.76"/>
    <line class="cls-2" x1="461.27" y1="427.98" x2="460.75" y2="434.74"/>
    <line class="cls-2" x1="436.33" y1="413.95" x2="435.29" y2="421.23"/>
    <line class="cls-2" x1="410.87" y1="400.44" x2="410.35" y2="407.2"/>
    <line class="cls-2" x1="385.93" y1="386.42" x2="385.42" y2="393.17"/>
    <line class="cls-2" x1="361" y1="372.39" x2="360.48" y2="379.66"/>
    <line class="cls-2" x1="335.54" y1="358.88" x2="335.02" y2="365.63"/>
    <line class="cls-2" x1="310.6" y1="344.85" x2="310.08" y2="351.61"/>
    <line class="cls-2" x1="285.66" y1="330.82" x2="285.14" y2="337.58"/>
    <line class="cls-2" x1="260.72" y1="317.32" x2="260.2" y2="324.07"/>
    <line class="cls-2" x1="235.26" y1="303.29" x2="234.74" y2="310.04"/>
    <line class="cls-2" x1="210.33" y1="289.26" x2="209.81" y2="296.01"/>
    <line class="cls-2" x1="185.39" y1="275.23" x2="184.87" y2="282.51"/>
    <line class="cls-2" x1="159.93" y1="267.44" x2="159.93" y2="268.48"/>
    <line class="cls-2" x1="60.17" y1="206.13" x2="59.13" y2="212.89"/>
    <line class="cls-2" x1="34.72" y1="192.1" x2="34.2" y2="199.38"/>
    <line class="cls-2" x1="9.78" y1="178.59" x2="9.26" y2="185.35"/>
    <polyline class="cls-2" points="565.18 26.88 565.7 26.36 569.86 -28.19 569.86 -29.23 568.82 -30.27"/>
    <line class="cls-2" x1="548.04" y1="-25.59" x2="543.36" y2="28.96"/>
    <path class="cls-2" d="M543.74,28.81c3.57,1.85,8.24,2.64,12.59,2.13,4.35-.51,7.85-2.26,9.46-4.72"/>
    <polyline class="cls-2" points="521.02 -44.29 521.02 -43.78 516.86 4.02 512.71 -25.07"/>
    <line class="cls-2" x1="522.58" y1="-41.18" x2="518.94" y2="8.18"/>
    <path class="cls-2" d="M519,7.92c5.18,7.99,13.73,15.2,24.75,20.86"/>
    <path class="cls-2" d="M517.01,3.81c.21,1.45.78,2.89,1.67,4.27"/>
    <path class="cls-2" d="M543.59,29c-.04.41.04.7.24.8"/>
    <path class="cls-2" d="M519.08,8.25c-.02.25.03.47.15.66"/>
    <path class="cls-2" d="M517.4,3.79c0,.08,0,.16,0,.24"/>
    <polyline class="cls-2" points="511.15 -32.86 511.67 -31.31 511.67 -30.79 512.19 -28.19 512.71 -25.07 516.86 4.02 517.9 6.62 518.94 8.7 523.62 14.93 529.33 20.13 536.09 25.33 543.88 30 546.48 31.04 549.59 31.56 552.71 32.08 555.83 32.08 558.95 31.56 561.54 30.52 563.62 28.96 565.18 26.88"/>
    <polyline class="cls-2" points="518.94 320.95 523.1 322.51 528.29 325.11 534.01 327.71 540.24 330.82 547.52 334.46 554.79 338.1 562.58 342.25 570.9 345.89"/>
    <line class="cls-2" x1="1320.61" y1="710.62" x2="823.4" y2="469.03"/>
    <line class="cls-2" x1="812.49" y1="463.83" x2="811.97" y2="463.31"/>
    <line class="cls-2" x1="751.7" y1="434.22" x2="570.9" y2="345.89"/>
    <line class="cls-2" x1="518.94" y1="320.95" x2="293.45" y2="211.33"/>
    <line class="cls-2" x1="1291" y1="446.17" x2="686.76" y2="152.1"/>
    <line class="cls-2" x1="528.81" y1="75.72" x2="482.57" y2="52.86"/>
    <line class="cls-2" x1="396.85" y1="11.3" x2="127.72" y2="-119.63"/>
    <line class="cls-2" x1="26.4" y1="1001.05" x2="-175.7" y2="842.07"/>
    <path class="cls-2" d="M247.99,1440.03c11.37-368.23-192.76-803.91-511.87-1092.5"/>
    <path class="cls-2" d="M249.51,1440.37c11.48-367.67-191.71-802.61-509.94-1091.57"/>
    <path class="cls-2" d="M252.68,1441.64c11.26-365.64-188.91-797.87-503.94-1088.13"/>
    <path class="cls-2" d="M251.94,1441.26c11.54-365.82-188.91-798.46-504.35-1088.57"/>
    <path class="cls-2" d="M238.46,1707.68c142.79-368.15-29.66-929.01-405.1-1317.5"/>
    <path class="cls-2" d="M324.33,1680.63c139.49-356.31-10.64-894.42-360.5-1292.16"/>
    <path class="cls-2" d="M379.02,1612.61c133.54-347.88-12.64-869.94-351.89-1256.76"/>
    <path class="cls-2" d="M327.94,1678.1c139.41-355.98-10.3-893.54-359.62-1291.26"/>
    <path class="cls-2" d="M345.94,1615.95c100.64-357.22-54.23-855.78-381.39-1227.75"/>
    <path class="cls-2" d="M346.21,1615.05c100.7-357.12-54.04-855.5-381.08-1227.28"/>
    <path class="cls-2" d="M326.04,1679.22c140.16-355.92-9.4-893.94-359.06-1291.65"/>
    <path class="cls-2" d="M326.5,1678.59c139.74-355.95-9.9-893.69-359.37-1291.38"/>
    <path class="cls-2" d="M237.97,1436.16c12.01-374.8-202.1-819.26-531.42-1103.13"/>
    <path class="cls-2" d="M250.21,1440.73c11.57-366.65-190.24-800.46-507.08-1089.96"/>
    <path class="cls-2" d="M252.88,1441.83c11.12-365.33-188.59-797.1-503.07-1087.62"/>
    <path class="cls-2" d="M262.17,1445.38c10.65-360.68-181.82-786.08-488.55-1079.84"/>
    <polyline class="cls-2" points="-295.2 332.38 -265.59 358.36 -236.49 385.9 -207.92 413.95 -179.86 443.05 -152.32 473.18 -125.31 504.36 -99.33 536.05 -73.87 568.78 -48.93 602.03 -25.03 635.8 -2.17 670.09 20.17 705.42 41.47 740.75 61.73 776.6 80.96 812.97 99.14 849.86 116.29 886.75 132.91 924.16 147.98 961.56 162.01 998.97 174.48 1036.38 186.43 1073.79 196.82 1111.2 206.17 1148.6 214.48 1186.01 221.24 1222.9 226.95 1259.27 231.63 1295.64 234.74 1331.49 236.82 1366.82 237.34 1401.63 236.82 1435.92"/>
    <polyline class="cls-2" points="27.96 355.24 58.1 390.05 87.71 426.42 115.77 463.31 143.3 501.24 169.28 540.2 194.74 579.17 218.64 619.18 242.02 659.7 263.84 700.75 284.1 742.31 303.84 783.88 321.51 825.96 338.66 868.04 353.72 910.65 367.75 953.25 380.22 995.34 391.65 1037.94 401 1080.02 409.31 1121.59 416.07 1163.15 421.26 1204.72 425.42 1245.24 427.5 1285.77 428.02 1325.25 427.5 1364.22 424.9 1402.67 421.26 1440.07 415.55 1476.44 408.79 1512.29 399.96 1547.1 390.09 1580.87 378.66 1613.09"/>
    <path class="cls-2" d="M483.95,404.98c-2.71,33.03,39.71,63.47,94.77,68,55.05,4.52,101.88-18.59,104.59-51.62"/>
    <path class="cls-2" d="M679.03,420.56c3.46-5.88,5.3-12.14,5.43-18.55"/>
    <polyline class="cls-2" points="678.96 420.71 678.96 426.42 678.44 430.06 677.41 433.7 675.85 437.33 674.29 439.93 672.73 441.49 671.17 441.49 670.13 439.93 670.13 436.81 670.65 431.62"/>
    <path class="cls-2" d="M650.13,444.85c8.03-3.78,14.89-8.38,20.33-13.6"/>
    <polyline class="cls-2" points="650.39 445.13 649.87 450.32 648.83 453.96 647.27 457.08 644.15 460.19 641.04 462.27 637.92 462.79 635.32 461.75 633.76 459.67 633.24 456.56 633.76 451.36"/>
    <path class="cls-2" d="M603.7,456.06c10.44-.68,20.5-2.37,29.78-5.02"/>
    <polyline class="cls-2" points="603.63 456.56 603.11 461.75 602.07 464.87 599.99 467.47 596.35 469.55 592.72 470.06 588.56 469.55 585.44 467.47 583.37 464.87 582.85 461.75 583.37 456.56"/>
    <path class="cls-2" d="M552.17,451.19c10.06,2.62,20.61,4.27,31.25,4.91"/>
    <polyline class="cls-2" points="552.19 451.36 551.67 456.56 550.63 459.67 548.56 461.75 544.92 462.79 541.28 462.27 538.16 460.19 535.05 457.6 533.49 453.96 532.97 450.84 533.49 445.13"/>
    <path class="cls-2" d="M509.34,431.53c6.98,5.21,15.2,9.77,24.35,13.53"/>
    <polyline class="cls-2" points="509.07 431.62 508.55 437.33 508.03 439.93 506.47 441.49 503.87 441.49 501.8 439.93 499.72 437.33 498.16 433.7 497.12 430.06 497.12 426.42 497.64 421.23"/>
    <path class="cls-2" d="M486.7,402.36c2.03,6.4,5.72,12.65,10.92,18.52"/>
    <polyline class="cls-2" points="486.21 402.52 486.21 408.24 485.69 410.84 485.17 411.87 484.13 411.87 484.13 410.32 483.61 407.2 483.61 403.56 484.13 399.41 484.13 395.77 484.65 390.57"/>
    <path class="cls-2" d="M485.66,383.28c-.47,2.23-.74,4.49-.78,6.77"/>
    <line class="cls-2" x1="678.96" y1="426.42" x2="677.41" y2="425.9"/>
    <line class="cls-2" x1="677.92" y1="420.71" x2="678.96" y2="420.71"/>
    <line class="cls-2" x1="670.65" y1="431.62" x2="669.61" y2="431.1"/>
    <line class="cls-2" x1="649.35" y1="444.09" x2="650.39" y2="445.13"/>
    <line class="cls-2" x1="684.68" y1="402.52" x2="683.64" y2="402.52"/>
    <line class="cls-2" x1="649.87" y1="450.32" x2="647.79" y2="448.76"/>
    <path class="cls-2" d="M633.23,457.16c1.82-.15,3.81-1.01,5.63-2.41"/>
    <line class="cls-2" x1="633.76" y1="451.36" x2="632.72" y2="450.32"/>
    <line class="cls-2" x1="603.63" y1="455" x2="603.63" y2="456.56"/>
    <line class="cls-2" x1="484.65" y1="390.57" x2="485.69" y2="390.57"/>
    <line class="cls-2" x1="552.71" y1="450.32" x2="552.19" y2="451.36"/>
    <path class="cls-2" d="M540.63,453.09c3.16,3.37,7.83,4.87,11.32,3.63"/>
    <line class="cls-2" x1="532.97" y1="450.84" x2="535.57" y2="447.72"/>
    <line class="cls-2" x1="533.49" y1="445.13" x2="534.53" y2="444.61"/>
    <line class="cls-2" x1="510.63" y1="431.1" x2="509.07" y2="431.62"/>
    <line class="cls-2" x1="583.37" y1="456.56" x2="583.37" y2="455.52"/>
    <line class="cls-2" x1="602.59" y1="455.52" x2="602.59" y2="456.04"/>
    <line class="cls-2" x1="603.11" y1="461.75" x2="602.59" y2="456.04"/>
    <path class="cls-2" d="M601.44,458.98c.63-1.02,1-2.11,1.09-3.22"/>
    <path class="cls-2" d="M583.36,459.78c1.33,2.14,3.85,3.62,6.84,4.01,2.99.39,6.13-.36,8.54-2.02"/>
    <line class="cls-2" x1="487.77" y1="402.52" x2="486.21" y2="402.52"/>
    <line class="cls-2" x1="484.13" y1="395.77" x2="485.17" y2="395.77"/>
    <line class="cls-2" x1="497.64" y1="421.23" x2="498.68" y2="420.71"/>
    <line class="cls-2" x1="497.12" y1="426.42" x2="499.2" y2="425.9"/>
    <line class="cls-2" x1="483.09" y1="405.12" x2="484.65" y2="388.49"/>
    <line class="cls-2" x1="683.12" y1="421.23" x2="684.68" y2="404.6"/>
    <polyline class="cls-2" points="522.58 149.5 522.58 156.77 523.1 163.53 524.66 170.8 526.21 177.56 529.33 184.83 532.97 191.06 537.13 196.78 542.32 201.97 548.04 205.61 554.79 208.73 561.54 210.81 568.82 211.33 576.09 211.33 583.89 210.81 591.68 209.25 599.99 207.17 607.78 204.57 615.06 201.97 622.85 198.86 630.65 195.22 638.44 191.58 645.71 187.95 652.99 183.79 659.74 180.15 665.46 176.52 670.65 172.88 675.33 169.76 679.48 166.64 682.08 163.53 684.68 160.93 685.72 158.85 686.24 156.77"/>
    <polyline class="cls-2" points="515.82 319.39 514.78 337.06 513.75 345.89 513.23 350.05 513.23 352.65 513.23 355.76"/>
    <line class="cls-2" x1="503.87" y1="391.09" x2="502.32" y2="391.09"/>
    <polyline class="cls-2" points="511.67 374.47 511.67 375.51 511.15 379.14 509.59 383.3 506.99 387.46 503.87 391.09"/>
    <polyline class="cls-2" points="502.32 391.09 496.6 389.53 491.4 387.46 489.33 386.42"/>
    <path class="cls-2" d="M786.42,437.62c.06-.04.13-.09.19-.13"/>
    <path class="cls-2" d="M765.15,403.8c-.31.15-.6.32-.89.51"/>
  </g>
  <g>
    <path class="cls-4" d="M399.36,702.91h-4.32v-34.47h4.32v34.47Z"/>
    <path class="cls-4" d="M415.88,703.43c-6.86,0-11.67-5.28-11.67-13.06s4.8-13.06,11.67-13.06,11.67,5.28,11.67,13.06-4.8,13.06-11.67,13.06ZM415.88,699.74c4.42,0,7.3-3.65,7.3-9.36s-2.88-9.41-7.3-9.41-7.3,3.65-7.3,9.41,2.88,9.36,7.3,9.36Z"/>
    <path class="cls-4" d="M447.54,677.8l5.18,18.72,5.23-18.72h4.32l-7.63,25.11h-3.79l-5.23-18.63-5.23,18.63h-3.79l-7.63-25.11h4.46l5.28,18.67,5.18-18.67h3.65Z"/>
    <path class="cls-4" d="M463.7,690.38c0-7.49,4.75-13.06,11.57-13.06s10.7,5.33,10.7,12.29v1.44h-18.15c.24,5.28,3.26,8.64,7.63,8.64,3.36,0,5.76-1.82,6.53-4.8l3.79,1.34c-1.54,4.46-5.33,7.2-10.32,7.2-6.96,0-11.76-5.33-11.76-13.06ZM468.07,687.74h13.54c-.1-3.55-2.02-6.72-6.38-6.72-3.65,0-6.38,2.45-7.15,6.72Z"/>
    <path class="cls-4" d="M503.87,682.07c-.72-.14-1.3-.19-2.11-.19-3.65,0-6.58,2.88-6.58,7.3v13.73h-4.32v-25.11h4.32v4.27c1.1-2.54,3.55-4.46,6.96-4.46.67,0,1.3.05,1.73.1v4.37Z"/>
    <path class="cls-4" d="M519.23,668.44h4.32v12.77c1.44-2.06,3.94-3.89,7.49-3.89,5.33,0,8.35,3.7,8.35,9.02v16.56h-4.32v-15.41c0-3.5-1.49-6.14-5.23-6.14-3.12,0-6.29,2.4-6.29,6.58v14.98h-4.32v-34.47Z"/>
    <path class="cls-4" d="M544.02,690.38c0-7.49,4.75-13.06,11.57-13.06s10.7,5.33,10.7,12.29v1.44h-18.15c.24,5.28,3.26,8.64,7.63,8.64,3.36,0,5.76-1.82,6.53-4.8l3.79,1.34c-1.54,4.46-5.33,7.2-10.32,7.2-6.96,0-11.76-5.33-11.76-13.06ZM548.39,687.74h13.54c-.1-3.55-2.02-6.72-6.38-6.72-3.65,0-6.38,2.45-7.15,6.72Z"/>
    <path class="cls-4" d="M569.5,696.14c0-4.99,3.89-7.06,9.5-8.21l6.1-1.25v-1.06c0-2.88-1.58-4.51-4.94-4.51-3.17,0-5.04,1.49-5.81,4.27l-4.08-1.06c1.2-4.08,4.9-7.01,10.03-7.01,5.62,0,9.07,2.74,9.07,8.11v12.24c0,1.63,1.01,2.16,2.69,1.78v3.46c-3.84.48-6.05-.43-6.58-2.83-1.54,1.97-4.32,3.26-7.73,3.26-4.56,0-8.26-2.69-8.26-7.2ZM585.1,690.04l-4.9,1.06c-3.84.77-6.43,1.82-6.43,4.85,0,2.45,1.78,3.89,4.51,3.89,3.7,0,6.82-2.26,6.82-5.47v-4.32Z"/>
    <path class="cls-4" d="M594.23,690.38c0-7.15,3.98-13.06,10.95-13.06,3.5,0,6.29,1.68,7.78,4.13v-13.01h4.32v34.47h-4.32v-3.65c-1.49,2.5-4.27,4.18-7.78,4.18-6.96,0-10.95-5.95-10.95-13.06ZM605.94,681.11c-4.7,0-7.34,3.84-7.34,9.26s2.64,9.26,7.34,9.26c3.55,0,7.11-2.59,7.11-8.35v-1.78c0-5.86-3.55-8.4-7.11-8.4Z"/>
    <path class="cls-4" d="M624.5,695.13c1.34,2.93,4.42,4.7,7.68,4.7,2.93,0,5.52-1.25,5.52-3.98s-2.4-3.12-6.53-3.98c-4.13-.91-8.45-1.82-8.45-6.96,0-4.46,3.89-7.58,9.22-7.58,4.51,0,8.21,2.21,9.7,5.18l-3.07,2.45c-1.3-2.5-3.65-4.08-6.82-4.08-2.88,0-4.8,1.44-4.8,3.7s2.21,2.78,5.71,3.55c4.32,1.01,9.26,1.87,9.26,7.34,0,4.8-4.37,7.97-9.75,7.97-4.56,0-9.12-1.97-11.04-5.86l3.36-2.45Z"/>
    <path class="cls-4" d="M645.14,690.38c0-7.49,4.75-13.06,11.57-13.06s10.71,5.33,10.71,12.29v1.44h-18.15c.24,5.28,3.26,8.64,7.63,8.64,3.36,0,5.76-1.82,6.53-4.8l3.79,1.34c-1.54,4.46-5.33,7.2-10.32,7.2-6.96,0-11.76-5.33-11.76-13.06ZM649.51,687.74h13.54c-.1-3.55-2.02-6.72-6.38-6.72-3.65,0-6.38,2.45-7.15,6.72Z"/>
    <path class="cls-4" d="M673.14,681.5h-3.89v-3.7h3.89v-7.34h4.27v7.34h5.71v3.7h-5.71v14.74c0,2.64,1.3,3.12,3.5,3.12,1.01,0,1.73-.05,2.74-.29v3.7c-1.1.24-2.35.38-3.79.38-4.27,0-6.72-1.44-6.72-6.24v-15.41Z"/>
    <path class="cls-4" d="M719.32,702.91h-4.32v-3.46c-1.44,2.11-3.89,3.98-7.44,3.98-5.38,0-8.4-3.7-8.4-9.03v-16.61h4.32v15.7c0,3.55,1.54,5.95,5.23,5.95,3.12,0,6.29-2.35,6.29-6.53v-15.12h4.32v25.11Z"/>
    <path class="cls-4" d="M725.61,677.8h4.32v3.41c1.44-2.06,3.94-3.89,7.49-3.89,5.33,0,8.35,3.7,8.35,9.02v16.56h-4.32v-15.41c0-3.5-1.49-6.14-5.23-6.14-3.12,0-6.29,2.4-6.29,6.58v14.98h-4.32v-25.11Z"/>
    <path class="cls-4" d="M751.7,668.44h4.71v4.99h-4.71v-4.99ZM756.22,702.91h-4.32v-25.11h4.32v25.11Z"/>
    <path class="cls-4" d="M763.63,681.5h-3.89v-3.7h3.89v-7.34h4.27v7.34h5.71v3.7h-5.71v14.74c0,2.64,1.3,3.12,3.5,3.12,1.01,0,1.73-.05,2.74-.29v3.7c-1.1.24-2.35.38-3.79.38-4.27,0-6.72-1.44-6.72-6.24v-15.41Z"/>
  </g>
  <circle class="cls-3" cx="583.56" cy="459.96" r="162.23"/>
</svg>