<?xml version="1.0" encoding="utf-8"?>
<svg xmlns="http://www.w3.org/2000/svg" xmlns:xlink="http://www.w3.org/1999/xlink" id="_5_5_No_o1_electric_power_button" version="1.1" viewBox="0 0 1191 842">
  
  <defs>
    <style>
      .st0, .st1, .st2, .st3 {
        fill: none;
      }

      .st1 {
        stroke-linejoin: bevel;
      }

      .st1, .st2 {
        stroke: #000;
        stroke-width: 2px;
      }

      .st1, .st2, .st3 {
        stroke-linecap: round;
      }

      .st2 {
        stroke-linejoin: round;
      }

      .st4 {
        fill: #2e2e2f;
      }

      .st5 {
        fill: #2e2e2f;
      }

      .st6 {
        clip-path: url(#clippath);
      }

      .st3 {
        stroke: #2e2e2f;
        stroke-miterlimit: 10;
        stroke-width: 3px;
      }
    </style>
    <clipPath id="clippath">
      <rect class="st0" x="-1602.2" y="-478.5" width="6236.2" height="5124.9"/>
    </clipPath>
  </defs>
  <g class="st6">
    <g>
      <line class="st2" x1="482.8" y1="446.8" x2="479.2" y2="444.7"/>
      <path class="st2" d="M477.8,440.2c.9,2.6,2.9,5,5.1,6.1"/>
      <polyline class="st2" points="479.2 444.7 477.6 440.5 476.1 436.9"/>
      <path class="st2" d="M477.2,437c0,1,.1,2.1.5,3.2"/>
      <polyline class="st2" points="480.8 440 481.3 440.5 481.3 441.1 481.8 441.6 481.8 442.1 482.3 442.6 482.8 443.7 483.4 444.7 483.4 445.7 483.4 446.3 483.9 447.3 483.9 447.8 483.9 448.3 483.9 448.9 483.4 448.9 483.4 449.4 482.8 449.9 482.3 450.4 481.8 450.9 481.3 451.5 480.8 452 480.2 452.5 479.7 453 479.2 452.5 478.7 452 478.1 451.5 477.6 450.9 476.6 450.4 475.5 450.4 475 449.9 474.5 449.4 473.5 449.4 473 449.4 472.4 448.9 472.4 448.3 472.4 447.8 472.4 446.8 471.9 446.3 471.9 445.2 471.4 444.2 470.9 443.1 470.4 442.6 470.4 442.1 469.8 441.6 469.8 441.1 469.3 440.5 469.8 440 470.4 439.5 470.9 439 471.4 438.5 471.9 438 472.4 437.4 473 436.9 473 436.4 473.5 436.4 473.5 435.9 474 435.9 475 436.4 475.5 436.4 476.1 436.9 476.6 436.9 477.6 437.4 478.7 438 479.2 438.5 479.7 439 480.2 439 480.2 439.5 480.8 440"/>
      <path class="st2" d="M469.7,442c.8,4.7,4.7,9.3,8.6,10.3,3.9,1,6.5-1.9,5.6-6.6-.8-4.7-4.7-9.3-8.6-10.3-3.9-1-6.5,1.9-5.6,6.6"/>
      <path class="st2" d="M479.2,429.3c-3.9-2-7.7-2.1-10.4-.4"/>
      <path class="st2" d="M481.4,434.5c-5.3-5-11.5-5.9-14.5-2s-1.9,11.4,2.5,17.5c4.5,6.1,11,9.1,15.3,7"/>
      <line class="st2" x1="483.9" y1="447.3" x2="482.8" y2="446.8"/>
      <line class="st2" x1="479.2" y1="444.7" x2="472.4" y2="448.9"/>
      <line class="st2" x1="475.5" y1="436.4" x2="469.3" y2="440.5"/>
      <path class="st2" d="M482.9,446.3c.3.2.7.3,1,.5"/>
      <polyline class="st2" points="483.9 459.2 483.4 459.2 482.8 459.2 482.3 459.2 481.8 459.2 480.8 459.2 480.2 459.2 479.7 459.2 479.2 458.7 478.7 458.7 478.1 458.7 477.1 458.2 476.6 458.2 476.1 457.7 475.5 457.2 475 457.2 474.5 456.7 474 456.1 473.5 455.6 473 455.1 472.4 455.1 471.9 454.6 471.4 454.1 470.9 453.5 470.4 453 469.8 452.5 469.3 451.5 468.8 450.9 468.3 450.4 467.8 449.9 467.8 449.4 467.2 448.9 466.7 447.8 466.7 447.3 466.2 446.8 465.7 445.7 465.7 445.2 465.2 444.7 465.2 444.2 464.6 443.1 464.6 442.6 464.6 442.1 464.6 441.1 464.1 440.5 464.1 440 464.1 439 464.1 438.5 464.1 438 464.1 437.4 464.1 436.4 464.1 435.9 464.1 435.4 464.6 434.8 464.6 434.3 464.6 433.8 465.2 433.3 465.2 432.8 465.7 432.2 465.7 431.7 466.2 431.2 466.7 430.7 467.2 430.2 467.2 429.6 467.8 429.6 468.3 429.1 473 426"/>
      <line class="st2" x1="422.6" y1="1280.7" x2="-601" y2="782.9"/>
      <line class="st2" x1="427.2" y1="1225.1" x2="-578.6" y2="736.2"/>
      <path class="st2" d="M81.7,826.5c-10.2-5-26.2,6.7-36.2,26.3s-10.2,40.2-.6,46.4"/>
      <line class="st1" x1="81.2" y1="827.1" x2="81.2" y2="827.1"/>
      <path class="st2" d="M107.8,835.4c-5.9-1.4-14.6,13.5-19.8,34.1-5.2,20.6-5.3,40-.2,44.5"/>
      <line class="st1" x1="107.7" y1="835.9" x2="107.7" y2="835.9"/>
      <line class="st2" x1="45.4" y1="900.4" x2="-348.5" y2="708.6"/>
      <polyline class="st2" points="107.7 835.4 105.6 834.9 104.1 834.9 102 834.4 100.4 833.8 98.9 833.3 96.8 832.8 95.2 832.3 93.7 831.8 92.1 830.7 90.6 830.2 88.5 829.7 87.4 829.2 85.9 828.7 84.3 828.1 82.8 827.1 81.2 826.6 -279.9 651"/>
      <line class="st2" x1="452.7" y1="915.4" x2="107.7" y2="835.4"/>
      <path class="st2" d="M476.4,417c-1.5.2-2.8,1.5-2.8,2.8"/>
      <path class="st2" d="M478.2,411.5c-2.1,1.4-2.7,3.4-1.5,5.4"/>
      <path class="st2" d="M478.1,412c-.7-.4-1.3-.4-1.8-.1"/>
      <path class="st2" d="M472.5,417c0,1,.2,2.1.8,3.1"/>
      <path class="st2" d="M481.7,409.4c-.7-.4-1.3-.4-1.8-.1"/>
      <line class="st2" x1="477.6" y1="412" x2="481.8" y2="409.4"/>
      <path class="st2" d="M484.5,409.2c-.3-.2-.7,0-1.1.2"/>
      <path class="st2" d="M483.1,409c-.3-.3-.8-.3-1.1,0"/>
      <line class="st2" x1="483.4" y1="409.4" x2="506.2" y2="422.4"/>
      <path class="st2" d="M491.1,404.3c-1,.7-1.9,2.3-2,3.5"/>
      <line class="st2" x1="489.1" y1="407.8" x2="506.7" y2="417.7"/>
      <line class="st2" x1="507.2" y1="413" x2="491.1" y2="404.2"/>
      <path class="st2" d="M491.1,403.2c-.7-.4-1.3-.4-1.8-.1"/>
      <path class="st2" d="M488,405.7c0,.7.5,1.5,1.4,2"/>
      <path class="st2" d="M491.3,402.9c-.3.3-.3.8,0,1.1"/>
      <path class="st2" d="M493.9,400.3c-.1,0-.3,0-.4.2"/>
      <line class="st2" x1="490.6" y1="403.1" x2="494.3" y2="401.1"/>
      <path class="st2" d="M505.5,465.4c-1.5.2-2.8,1.5-2.8,2.8"/>
      <path class="st2" d="M502.4,468.4c12.5,20.4,46.6,34,81.7,32.6s61.5-17.5,63.2-38.5"/>
      <path class="st2" d="M505.8,465.4c13.4,22,52.3,35.4,88.7,30.5,36.3-4.9,57.5-26.4,48.2-49"/>
      <polyline class="st2" points="473 420.3 478.7 429.6 502.6 468.6"/>
      <line class="st2" x1="505.7" y1="465.5" x2="476.1" y2="417.2"/>
      <line class="st2" x1="488.5" y1="411.5" x2="489.1" y2="407.8"/>
      <line class="st2" x1="502.6" y1="468.6" x2="500.5" y2="496.1"/>
      <path class="st2" d="M500.3,495.9c12.5,20.4,46.6,34,81.7,32.6s61.5-17.5,63.2-38.5"/>
      <line class="st2" x1="473" y1="426" x2="473" y2="420.3"/>
      <path class="st2" d="M479,429.5c-2.1-3.5-4.3-4.9-5.9-3.8"/>
      <path class="st2" d="M477.1,457.8c3.8,5.9,7.3,4.5,7.8-3.2.5-7.7-2.1-18.8-5.9-25.1"/>
      <line class="st2" x1="500.5" y1="496.1" x2="477.1" y2="458.2"/>
      <path class="st2" d="M500.6,495.7c0,.4,0,.8.3,1.1"/>
      <polyline class="st2" points="472.4 417.2 472.4 416.6 472.4 416.1 473 415.6 473 415.1 473.5 414 474 413.5 474.5 413 475 412.5 476.1 412 479.7 409.4 480.2 408.9 480.8 408.9 481.3 408.9 481.8 408.3 482.3 408.3 482.8 408.3 483.4 408.9 483.9 408.9 484.4 408.9 506.2 421.3"/>
      <polyline class="st2" points="487.5 405.7 487.5 405.2 487.5 404.7 488 404.2 488 403.7 488.5 403.7 488.5 403.1 489.1 403.1 492.7 400.5 493.2 400.5"/>
      <polyline class="st2" points="642.3 443.7 642.8 444.7 643.9 446.3 644.4 447.3 644.9 448.3 644.9 449.4 645.5 450.9 646 452 646.5 453 646.5 454.1 647 455.6 647 456.7 647 457.7 647 459.2 647 460.3 647 461.3 647 462.4"/>
      <line class="st2" x1="487.5" y1="405.7" x2="487" y2="410.4"/>
      <line class="st2" x1="647" y1="462.4" x2="644.9" y2="490.4"/>
      <line class="st2" x1="472.4" y1="417.2" x2="471.4" y2="427"/>
      <polyline class="st2" points="644.9 490.4 644.9 491.5 644.4 492.5 644.4 493.5 644.4 494.6 643.9 495.6 643.4 496.7 643.4 497.7 642.8 498.2 642.3 499.3 642.3 500.3 641.8 501.3 641.3 502.4 640.8 503.4 640.2 503.9 639.7 505 638.7 506 638.2 507 637.7 507.6 636.6 508.6 636.1 509.1 635.6 510.2 634.5 511.2 633.5 511.7 633 512.8 631.9 513.3 630.9 514.3 630.4 514.8 629.3 515.9 628.3 516.4 627.3 516.9 626.2 518 625.2 518.5 624.2 519 623.1 519.5 621.5 520.6 620.5 521.1 619.5 521.6 618.4 522.1 616.9 522.6 615.8 523.2 614.3 523.7 613.2 524.2 611.7 524.7 610.6 525.2 609.1 525.8 608 525.8 606.5 526.3 604.9 526.8 603.9 527.3 602.3 527.3 600.8 527.8 599.2 528.3 598.2 528.3 596.6 528.9 595 528.9 593.5 529.4 591.9 529.4 590.4 529.4 588.8 529.9 587.8 529.9 586.2 529.9 584.7 530.4 583.1 530.4 581.5 530.4 580 530.4 578.4 530.4 576.9 530.4 575.3 530.4 573.8 530.4 572.2 530.4 570.6 530.4 569.1 530.4 567.5 529.9 566 529.9 564.4 529.9 562.8 529.9 561.3 529.4 559.7 529.4 558.2 528.9 556.6 528.9 555 528.3 553.5 528.3 551.9 527.8 550.4 527.8 548.8 527.3 547.2 526.8 545.7 526.8 544.1 526.3 543.1 525.8 541.5 525.2 540 524.7 538.4 524.2 536.9 523.7 535.8 523.2 534.3 522.6 532.7 522.1 531.7 521.6 530.1 521.1 529.1 520.6 527.5 520 526.5 519.5 524.9 519 523.9 518 522.8 517.4 521.3 516.9 520.2 515.9 519.2 515.4 518.2 514.8 516.6 513.8 515.6 513.3 514.5 512.2 513.5 511.7 512.4 510.7 511.4 510.2 510.4 509.1 509.8 508.1 508.8 507.6 507.8 506.5 506.7 505.5 506.2 505 505.2 503.9 504.6 502.9 503.6 502.4 503.1 501.3 502.6 500.3 501.5 499.3 501 498.2 500.5 497.7 476.6 457.7"/>
      <path class="st2" d="M520.5,298.8c-1.4,16.8,15.2,33.2,41.3,40.7,26,7.5,55.7,4.5,73.6-7.6"/>
      <path class="st2" d="M543.4,285.1c-1.4,2.3-2.3,4.7-2.7,7.1"/>
      <polyline class="st2" points="550.9 276.4 550.9 275.9 550.9 275.3 550.4 275.3 549.8 274.8 549.3 274.8 547.2 274.3 545.2 273.8 543.1 273.2 541.5 272.7 539.5 272.2 537.4 272.2 536.3 271.7 535.8 271.7 535.3 271.7"/>
      <polyline class="st2" points="620.5 314.3 621 314.3 622.1 314.8 623.1 315.9 625.7 317.9 627.8 320 630.4 322.1 632.5 324.2 635.1 326.8 635.6 327.3 635.6 327.8 635.6 329.4 635.1 332"/>
      <path class="st2" d="M635.4,332c9.1-6.1,14.3-14,15-22.5"/>
      <path class="st2" d="M631.3,299.7c0-2.5-.4-5-1.5-7.4"/>
      <polyline class="st2" points="519.7 298.7 519.7 296.6 520.2 295.1 520.2 294.5 520.2 294 520.2 293.5 520.2 292.5 520.8 291.4 520.8 290.4 520.8 289.9 521.3 288.8 521.8 287.8 521.8 287.3 522.3 286.2 522.8 285.2 523.3 284.7 523.3 283.6 523.9 282.6 524.4 282.1 525.4 281 526 280.5 526.5 279.5 527 279 528 277.9 528.5 277.4 529.1 276.4 530.1 275.9 530.6 275.3 531.7 274.3 532.7 273.8 533.2 273.2 534.3 272.2 535.3 271.7"/>
      <polyline class="st2" points="540.5 291.4 540.5 292.5 540.5 293 540.5 293.5 540.5 294 540.5 295.1 540.5 295.6 540.5 296.1 541 296.6 541 297.7 541 298.2 541.5 298.7 541.5 299.2 542.1 299.7 542.1 300.8 542.6 301.3 543.1 301.8"/>
      <polyline class="st2" points="620.5 314.3 621.5 313.3 623.1 312.7 623.6 311.7 624.7 310.7 625.7 310.1 626.7 309.1 627.3 308.1 627.8 307 628.8 306 629.3 305.5 629.9 304.4 629.9 303.4 630.4 302.4 630.4 301.3 630.9 300.3 630.9 299.2"/>
      <polyline class="st2" points="535.3 271.7 536.3 271.2 536.9 270.7 537.9 270.1 538.9 269.6 541 268.6 542.6 267.5 544.7 266.5 546.7 266 547.8 265.5 548.8 264.9 549.8 264.9 551.4 264.4 552.5 263.9 553.5 263.9 554.5 263.4 555.6 262.9 558.2 262.3 560.8 261.8 562.8 261.3 565.4 261.3 567 260.8 568 260.8 569.1 260.8 570.6 260.8 571.7 260.3 573.2 260.3 574.3 260.3 575.8 260.3 576.9 260.3 578.4 260.3 581 260.3 583.6 260.3 586.2 260.3 587.3 260.3 588.8 260.8 590.4 260.8 591.4 260.8 593 260.8 594 261.3 595.6 261.3 596.6 261.3 598.2 261.8 599.2 261.8 601.8 262.3 604.4 262.9 607 263.9 608 263.9 609.1 264.4 610.6 264.9 611.7 264.9 612.7 265.5 614.3 266 615.3 266.5 616.3 266.5 617.4 267 618.4 267.5 621 268.6 623.1 269.6 625.2 270.7 627.3 271.7 628.3 272.2 629.3 272.7 630.4 273.2 630.9 274.3 631.9 274.8 633 275.3 634 275.9 634.5 276.4 636.6 277.9 638.2 279 639.7 280.5 640.8 282.1 641.8 282.6 642.3 283.6 642.8 284.2 643.4 284.7 643.9 285.7 644.4 286.2 645.5 287.3 646 287.8 646 288.8 646.5 289.4 647 290.4 647.5 290.9 648 292 648 292.5 648.6 293.5 649.1 294 649.1 295.1 649.6 295.6 649.6 296.6 650.1 297.1 650.1 298.2 650.1 298.7 650.6 299.7 650.6 300.8 650.6 301.3 650.6 302.4 650.6 302.9 650.6 303.9 650.6 304.4 650.6 305 650.6 305.5 650.6 306 650.6 306.5 650.1 307.5 650.1 309.6"/>
      <path class="st2" d="M482.1,586.7c6.6,22.8,38.3,41.2,76.5,44.3s72.5-9.8,82.7-31.2"/>
      <line class="st2" x1="433.5" y1="1147.1" x2="460" y2="827.6"/>
      <line class="st2" x1="466.2" y1="751.2" x2="479.7" y2="584.5"/>
      <line class="st2" x1="580" y1="1362.8" x2="627.8" y2="779.3"/>
      <line class="st2" x1="639.7" y1="639.5" x2="642.8" y2="598"/>
      <path class="st2" d="M621.5,294.3c.7-11.5-14.2-22-33.2-23.5s-35.4,6.4-36.7,17.8"/>
      <path class="st2" d="M564,306.2c14.8,8.2,36.9,8.2,49.3,0,12.4-8.3,10.4-21.7-4.4-29.9s-36.9-8.2-49.3,0c-12.4,8.3-10.4,21.7,4.4,29.9"/>
      <path class="st2" d="M541.7,293.3c-.2,2.8.3,5.6,1.6,8.4"/>
      <path class="st2" d="M627.3,308.5c1.7-2.5,2.7-5.2,2.9-8"/>
      <path class="st2" d="M557.6,313c18.8,10.3,46.8,10.3,62.4,0,15.7-10.3,13.1-27-5.7-37.3-18.8-10.3-46.8-10.3-62.4,0-15.7,10.3-13.1,27,5.7,37.3"/>
      <path class="st2" d="M563.1,306.5c15.5,8.5,38.5,8.5,51.5,0,12.9-8.5,10.8-22.2-4.7-30.7s-38.5-8.5-51.5,0c-12.9,8.5-10.8,22.2,4.7,30.7"/>
      <path class="st2" d="M556.7,289.2c-.8,9.9,11.9,19,28.3,20.3,16.4,1.4,30.4-5.5,31.2-15.4"/>
      <path class="st2" d="M567.4,304c12.6,7,31.4,7,42,0,10.5-7.1,8.9-18.5-3.8-25.5s-31.4-7-42,0c-10.5,7.1-8.9,18.5,3.8,25.5"/>
      <line class="st2" x1="541.5" y1="293.5" x2="541.5" y2="290.9"/>
      <line class="st2" x1="629.9" y1="300.8" x2="629.9" y2="298.2"/>
      <line class="st2" x1="556.1" y1="289.4" x2="556.1" y2="288.8"/>
      <line class="st2" x1="615.8" y1="294.5" x2="615.8" y2="294"/>
      <path class="st2" d="M478.6,63c13.3-8.8,12.7-32.9-1.2-53.8-13.9-20.9-35.9-30.7-49.2-21.9"/>
      <path class="st2" d="M475.2,53.3c1.2-15.3-7-34.2-20.5-47-13.5-12.9-29.2-16.9-39.4-10.1"/>
      <path class="st2" d="M465.7,71.8c5.5-3.7,8.9-10.2,9.5-18.5"/>
      <path class="st2" d="M503.8,48.2c13.1-6.9,14.1-30.5,2.4-52.7-11.7-22.2-31.9-34.6-44.9-27.7"/>
      <path class="st2" d="M192.7,247.3c1.5-17.7-7.9-39.4-23.4-54.1-15.5-14.7-33.8-19.3-45.6-11.5"/>
      <path class="st2" d="M181.6,268.7c6.4-4.2,10.3-11.8,11.1-21.4"/>
      <path class="st2" d="M428,90.9c1.5-17.7-7.9-39.4-23.4-54.1-15.5-14.7-33.8-19.3-45.6-11.5"/>
      <path class="st2" d="M416.9,112.3c6.4-4.2,10.3-11.8,11.1-21.4"/>
      <polyline class="st2" points="427.8 90.9 429.3 89.8 430.9 88.8 432.4 87.8 434 86.7 435.5 85.2 437.1 84.1 440.2 82.1 442.8 79.5 445.9 77.4 451.1 72.2 456.9 67.5 460 64.9 462.6 62.8 465.7 60.2 467.2 59.2 468.8 58.2 470.4 56.6 471.9 55.6 473.5 54.5 475 53.5"/>
      <path class="st2" d="M112.4,306.7c13.3-8.8,12.7-32.9-1.2-53.8-13.9-20.9-35.9-30.7-49.2-21.9"/>
      <path class="st2" d="M125.4,297.9c5.5-3.7,8.9-10.2,9.5-18.5"/>
      <path class="st2" d="M134.9,279.4c1.2-15.4-7-34.2-20.5-47.1s-29.2-16.9-39.4-10.1"/>
      <path class="st2" d="M91,322.9c13.3-11.2,11-35.8-5.2-55s-40-25.7-53.3-14.6"/>
      <polyline class="st2" points="192.4 247.8 190.8 248.8 188.8 249.9 187.2 250.9 185.6 251.9 183.6 253 182 254 178.4 256.1 174.7 257.7 171.1 259.7 163.8 263.9 156 267.5 152.4 269.6 148.8 271.2 145.1 273.2 143.6 274.3 141.5 275.3 139.9 276.4 138.4 277.4 136.8 278.5 134.7 279.5"/>
      <line class="st2" x1="478.1" y1="63.3" x2="465.2" y2="72.2"/>
      <polyline class="st2" points="478.1 63.3 481.3 61.3 484.4 59.7 487.5 57.6 490.6 55.6 493.7 54 496.9 51.9 500 50.4 503.6 48.3"/>
      <line class="st2" x1="503.6" y1="48.3" x2="661" y2="-34.8"/>
      <line class="st2" x1="123.8" y1="182.3" x2="193.9" y2="135.6"/>
      <line class="st2" x1="312.9" y1="56.6" x2="359.2" y2="25.9"/>
      <line class="st2" x1="181.5" y1="269.1" x2="246.4" y2="225.4"/>
      <polyline class="st2" points="376.3 139.2 416.8 112.2 418.4 111.1 420.5 109.6 422 108.5 424.1 107 425.7 105.4 427.8 104.4 429.3 102.8 430.9 101.3 432.4 99.7 434.5 98.7 436.1 97.1 437.6 95.6 439.2 94.5 440.2 93 441.8 91.4 443.3 90.4 444.9 88.8 446.5 87.8 447.5 86.2 449.1 85.2 450.6 83.6 452.2 82.6 453.2 81.5 454.8 80.5 455.8 78.9 457.4 77.9 458.9 76.9 460 75.8 461.5 74.8 462.6 73.7 464.1 72.7 465.2 72.2"/>
      <line class="st2" x1="62" y1="231.2" x2="75" y2="222.9"/>
      <polyline class="st2" points="90.6 323.1 93.2 321 95.8 319 98.4 316.9 100.9 314.8 103.6 312.7 106.7 310.7 109.3 309.1 112.4 307 125.4 298.2"/>
      <polyline class="st2" points="32.4 253.5 36 250.4 39.1 247.8 42.8 244.7 46.4 242.1 50.6 239.5 54.2 236.9 57.8 233.8 62 231.2"/>
      <line class="st2" x1="90.6" y1="323.1" x2="-7.1" y2="405.2"/>
      <line class="st2" x1="32.4" y1="253.5" x2="-68.9" y2="338.2"/>
      <polyline class="st2" points="75 222.9 76.5 221.8 77.6 220.8 79.1 219.7 80.2 218.7 81.7 217.7 82.8 216.6 84.3 215.6 85.9 214.5 86.9 213.5 88.5 211.9 90 210.9 91.1 209.9 92.6 208.3 94.2 207.3 95.2 205.7 96.8 204.7 98.4 203.1 99.9 201.5 101.5 200.5 103 199 104.6 197.4 106.2 196.4 107.7 194.8 109.3 193.2 110.8 191.7 112.9 190.6 114.5 189.1 116 187.5 118.1 186.5 119.7 184.9 121.7 183.9 123.8 182.3"/>
      <polyline class="st2" points="359.2 25.9 361.2 24.4 362.8 23.3 364.9 22.3 367 20.7 369 19.7 370.6 18.7 372.7 17.6 374.8 16.6 376.8 15.5 378.4 15 380.5 14 382.5 13 384.1 11.9 386.2 11.4 387.8 10.4 389.8 9.8 391.4 8.8 393.5 7.8 395 7.2 396.6 6.2 398.7 5.7 400.2 4.6 401.8 4.1 403.3 3.1 404.9 2.6 406.5 1.5 408 .5 409.6 0 411.1 -1.1 412.2 -1.6 413.7 -2.6 414.8 -3.7"/>
      <polyline class="st2" points="181.5 269.1 179.4 270.1 177.3 271.2 175.2 272.7 173.2 273.8 171.6 274.8 169.5 275.9 167.5 276.9 165.4 277.9 163.8 279 161.7 280 159.7 281 158.1 281.6 156 282.6 153.9 283.6 152.4 284.2 150.3 285.2 148.8 285.7 147.2 286.8 145.1 287.8 143.6 288.3 142 289.4 140.4 289.9 138.4 290.9 136.8 291.4 135.2 292.5 133.7 293 132.1 294 131.1 295.1 129.5 295.6 128 296.6 126.4 297.1 125.4 298.2"/>
      <path class="st2" d="M526.2,280.4c-16.5,15.9-10.9,37.5,13.3,51.8s60.5,17.2,86.7,7.1c26.2-10.1,35.3-30.5,21.6-48.9"/>
      <polyline class="st2" points="534.3 396.4 533.7 395.9 533.2 395.9 532.7 394.8 532.2 393.8 531.2 392.7 530.6 391.7 530.1 390.7 529.6 390.1 529.1 389.1 528 387 527 385 526 382.4 524.9 380.3 524.4 378.2 523.3 375.6 522.3 373.5 521.8 370.9 520.8 368.3 520.2 365.7 519.7 363.1 518.7 360.5 518.2 357.9 517.6 355.3 517.1 352.7 516.6 350.1 516.1 347.5 516.1 345 515.6 342.4 515 339.8 515 337.2 514.5 334.6 514.5 332 514.5 329.4 514.5 326.8 514.5 324.2 514.5 321.6 515 319"/>
      <path class="st2" d="M534.7,396c-1.5,5.6-3.1,11.3-4.5,16.9"/>
      <polyline class="st2" points="529.6 413.5 528.5 413 528 413 527 413 526 412.5 524.9 412.5 524.4 412.5 523.3 412.5 522.8 412.5 521.8 412.5 520.8 412.5 520.2 412.5 519.2 412.5 518.7 412.5 517.6 413 517.1 413 516.6 413 515.6 413 515 413 514.5 413 514 413 513 412.5 512.4 412.5 511.9 412.5 511.4 412.5 510.9 412.5 510.4 412.5 509.8 412.5 509.8 412 509.3 412 508.8 412 508.8 411.5 508.3 411.5"/>
      <path class="st2" d="M504.4,448.2c-1.8,22.5,27.4,43.2,65.3,46.3s70.1-12.6,72-35"/>
      <path class="st2" d="M534.6,396c-2.4,6.1-3.9,11.8-4.5,16.8"/>
      <path class="st2" d="M306,90.8c-10.6,1.3-25.4,11.2-40,26.7"/>
      <polyline class="st2" points="265.6 117.9 266.2 118.4 266.7 118.9 267.2 120 267.7 120.5 268.2 121.5 268.8 122.1 269.3 123.1 269.8 123.6 270.9 125.2 271.4 126.7 271.9 128.8 272.9 130.4 273.5 131.9 274 134 274.5 136.1 275 137.6 275 139.7 275.5 141.8 276 143.9 276 145.4 276 147.5 276.6 149.6 276.6 151.7 276.6 153.8 277.1 155.8 277.1 157.9 277.1 160 277.1 162.1 277.1 164.1 277.1 166.2 277.1 168.3 277.1 170.4 277.1 172.5 277.1 174.5 277.1 176.6 276.6 179.2 276.6 181.3 276.6 183.4 276 185.4 276 187.5 276 189.6 275.5 191.7 275.5 193.8 275 195.8 274.5 197.4 274.5 199.5 274 201.5 274 203.1 273.5 204.7 272.9 206.7 272.4 208.3 272.4 209.9 271.9 210.9 271.4 212.5 270.9 214 270.3 215.1 270.3 216.6 269.8 217.7 269.3 218.7 268.8 219.7 268.2 220.8 267.7 221.3 267.2 222.3 266.7 222.9 266.2 223.4 265.6 223.9 265.1 224.4 264.6 224.9"/>
      <polyline class="st2" points="341.5 112.7 339.4 111.1 337.4 110.1 335.3 108.5 332.7 107 330.6 106 328.5 104.4 325.9 102.8 323.8 101.8 322.8 101.3 321.2 100.2 320.2 99.7 319.2 99.2 318.1 98.7 316.6 97.6 315.5 97.1 314.5 96.6 313.5 96.1 312.4 95 310.9 94.5 309.8 94 308.8 93 307.7 92.4 306.7 91.9 305.7 90.9"/>
      <path class="st2" d="M229.6,236.5c23.2,4.5,38.5-12.2,36-39.1s-22.2-55.6-46-67.4c-23.9-11.8-44.6-2.9-48.5,20.8"/>
      <path class="st2" d="M258.1,203.5c1.8-18.9-9-42.3-26.1-57s-36.4-16.9-46.8-5.5"/>
      <path class="st2" d="M370.3,134.2c.3-21.1-11.4-45.8-29.5-62.2-18.1-16.5-39-21.3-52.6-12.3"/>
      <line class="st2" x1="653.2" y1="310.1" x2="641.3" y2="459.8"/>
      <line class="st2" x1="516.6" y1="298.7" x2="515" y2="319"/>
      <line class="st2" x1="507.2" y1="410.9" x2="504.1" y2="448.3"/>
      <line class="st2" x1="508.3" y1="411.5" x2="261.5" y2="227"/>
      <line class="st2" x1="546.2" y1="266" x2="341.5" y2="112.7"/>
      <line class="st2" x1="264.6" y1="224.9" x2="252.1" y2="233.2"/>
      <line class="st2" x1="288" y1="59.7" x2="183.6" y2="129.3"/>
      <path class="st2" d="M498.6,513.6c-1.9,22.7,27.6,43.7,65.8,46.8,38.2,3.1,70.6-12.8,72.5-35.5"/>
      <line class="st2" x1="497.9" y1="513.8" x2="499.5" y2="495.6"/>
      <line class="st2" x1="636.6" y1="525.2" x2="638.2" y2="507"/>
      <path class="st2" d="M506.5,613c28.9,18.7,74.8,22.5,106.3,8.7"/>
      <path class="st2" d="M483.3,588c8.6,21.4,39.3,38,75.3,41,36.1,3,69-8.5,81-28.2"/>
      <path class="st2" d="M547.5,621.3c7.7,1.3,15.6,2,23.4,1.9"/>
      <line class="st2" x1="506.2" y1="613.6" x2="504.6" y2="612.5"/>
      <line class="st2" x1="612.2" y1="622.4" x2="613.8" y2="621.9"/>
      <path class="st2" d="M496.6,490.8c-28.3,19.9-25.1,50.8,7.6,71.6s84.2,24.9,119.5,9.4,42.9-45.5,17.7-69.6"/>
      <path class="st2" d="M499.4,500.7c-10.7,17-1.5,37.2,23,50.1,24.5,13,58.7,15.8,85,7s38.7-27.2,30.9-45.7"/>
      <path class="st2" d="M471.2,525c-2.6,31.3,37.9,60.2,90.4,64.5s97.1-17.6,99.7-48.9"/>
      <path class="st2" d="M471.2,525.5c-2.6,31.3,37.9,60.2,90.4,64.5s97.1-17.6,99.7-48.9"/>
      <path class="st2" d="M471.6,532.5c0,30.1,39.6,57,90,61.1,50.4,4.1,93.8-15.9,98.8-45.6"/>
      <path class="st2" d="M474.7,513c-14.1,22.7-1.6,49.5,31.1,66.7,32.6,17.2,78.1,20.9,113.2,9.3s51.7-36.1,41.5-60.8"/>
      <path class="st2" d="M489.6,595.5c15.4,14.8,41.1,24.9,69.2,27.2,28.1,2.3,55.1-3.5,72.7-15.6"/>
      <path class="st2" d="M469.4,522.9c-6.4,22.2,9.3,45.7,40.3,60.4,31,14.8,71.8,18.1,104.9,8.6,33-9.5,52.3-30.1,49.7-53"/>
      <polyline class="st2" points="661 540.8 661 539.3 661.5 538.2 661 536.7 661 535.1 661 534.1 661 532.5 660.5 531.5 660.5 529.9 660 528.3 660 527.3 659.5 525.8 659 524.7 658.4 523.2 657.9 522.1 657.4 520.6 656.9 519.5 656.4 518 655.8 516.9 654.8 515.4 654.3 514.3 653.2 513.3 652.7 511.7 651.7 510.7 650.6 509.6 649.6 508.1 648.6 507 647.5 506 646.5 505 645.5 503.9 644.4 502.9 643.4 501.3 642.3 500.3"/>
      <polyline class="st2" points="495.3 489.4 494.3 489.9 492.7 491 491.7 492 490.6 492.5 489.1 493.5 488 494.6 487 495.6 485.9 496.7 484.9 497.7 483.9 498.7 482.8 499.8 481.8 500.8 481.3 501.9 480.2 502.9 479.2 503.9 478.7 505 477.6 506.5 477.1 507.6 476.1 508.6 475.5 509.6 475 511.2 474.5 512.2 474 513.3 473.5 514.8 473 515.9 472.4 517.4 472.4 518.5 471.9 520 471.9 521.1 471.4 522.6 471.4 523.7 471.4 525.2"/>
      <line class="st2" x1="661" y1="540.8" x2="661" y2="541.3"/>
      <line class="st2" x1="471.4" y1="525.2" x2="470.9" y2="525.8"/>
      <polyline class="st2" points="489.6 595.9 488 594.3 487 592.8 485.4 591.2 483.9 589.7 482.3 588.1 481.3 586 479.7 584.5 478.7 582.4 477.1 580.3 476.1 578.7 475 576.7 473.5 574.1 472.4 572 471.9 569.9 470.9 567.3 469.8 565.2 469.3 562.6 468.3 560 467.8 557.5 467.2 555.4 466.7 552.2 466.7 549.7 466.2 547.1 466.2 544.5 466.2 542.9 466.2 541.9 466.2 540.3 466.2 539.3 466.2 537.7 466.2 536.2 466.7 535.1 466.7 533.5 467.2 531 467.8 528.3 468.3 525.8 468.3 524.2 468.8 523.2"/>
      <polyline class="st2" points="663.6 539.3 664.2 540.3 664.2 541.9 664.2 544.5 664.2 547.1 664.2 549.7 664.2 551.2 664.2 552.8 664.2 553.8 663.6 555.4 663.6 556.9 663.6 558 663.1 559.5 663.1 560.6 662.6 563.2 661.5 565.8 661 568.4 660 571 659 573.6 657.9 575.6 656.9 578.2 655.8 580.3 654.8 582.4 653.2 585 652.2 587.1 650.6 588.6 649.1 590.7 647.5 592.8 646 594.3 644.4 595.9 642.8 598 641.3 599.5 639.7 601.1 638.2 602.1 636.6 603.7 634.5 605.2 633 606.3 631.4 607.3 629.3 608.9 627.8 609.9 626.2 611 624.2 612 622.1 613 620.5 613.6 618.4 614.6 616.3 615.6 614.3 616.2 612.2 617.2 609.6 617.7 607.5 618.8 605.4 619.3 603.4 619.8 600.8 620.3 598.7 620.8 596.1 621.3 594 621.9 591.4 622.4 588.8 622.9 586.2 622.9 584.1 623.4 581.5 623.4 578.9 623.4 576.3 624 573.8 624 571.7 624 569.1 624 566.5 624 563.9 624 561.3 623.4 558.7 623.4 556.1 623.4 553.5 622.9 550.9 622.4 548.8 622.4 546.2 621.9 543.6 621.3 541 620.8 538.9 620.3 536.3 619.8 533.7 619.3 531.7 618.2 529.1 617.7 526.5 617.2 524.4 616.2 522.3 615.6 519.7 614.6 517.6 613.6 515.6 612.5 513.5 611.5 511.4 611 509.3 609.4 507.2 608.4 505.2 607.3 503.1 606.3 501.5 605.2 499.5 603.7 497.9 602.7 496.3 601.1 494.3 600 492.7 598.5 491.1 597.5 489.6 595.9"/>
      <polyline class="st2" points="661 541.3 661 542.9 660.5 544.5 660.5 545.5 660 547.1 660 548.6 659.5 549.7 659 551.2 658.4 552.8 657.9 553.8 656.9 555.4 656.4 556.4 655.3 558 654.8 559 653.8 560.6 652.7 561.6 652.2 563.2 651.2 564.2 649.6 565.2 648.6 566.3 647.5 567.8 646.5 568.9 644.9 569.9 643.9 571 642.3 572 640.8 573 639.2 574.1 637.7 575.1 636.6 576.2 634.5 577.2 633 578.2 631.4 578.7 629.9 579.8 627.8 580.8 626.2 581.3 624.2 582.4 622.6 582.9 620.5 583.4 619 584.5 616.9 585 614.8 585.5 612.7 586 610.6 586.5 608.6 587.1 606.5 587.6 604.4 588.1 602.3 588.6 600.2 589.1 598.2 589.7 595.6 589.7 593.5 590.2 591.4 590.2 588.8 590.7 586.7 590.7 584.7 591.2 582.1 591.2 580 591.2 577.9 591.2 575.3 591.2 573.2 591.2 570.6 591.2 568.5 591.2 566 591.2 563.9 591.2 561.3 590.7 559.2 590.7 556.6 590.2 554.5 590.2 551.9 589.7 549.8 589.7 547.8 589.1 545.2 588.6 543.1 588.1 541 587.6 538.4 587.1 536.3 586.5 534.3 586 532.2 585.5 529.6 585 527.5 584.5 525.4 583.4 523.3 582.9 521.3 581.9 519.2 581.3 517.1 580.3 515.6 579.8 513.5 578.7 511.4 577.7 509.8 577.2 507.8 576.2 505.7 575.1 504.1 574.1 502.6 573 500.5 572 498.9 571 497.4 569.9 495.8 568.9 494.3 567.8 492.7 566.3 491.1 565.2 490.1 564.2 488.5 562.6 487 561.6 485.9 560.6 484.9 559 483.4 558 482.3 556.4 481.3 555.4 480.2 553.8 479.2 552.8 478.1 551.2 477.6 549.7 476.6 548.6 476.1 547.1 475 546 474.5 544.5 474 542.9 473.5 541.3 473 540.3 472.4 538.7 471.9 537.2 471.9 536.2 471.4 534.6 471.4 533 470.9 531.5 470.9 530.4 470.9 528.9 470.9 527.3 470.9 525.8"/>
      <polyline class="st2" points="663.6 539.3 663.6 537.2 663.1 535.6 662.6 533.5 662.1 531.5 661.5 529.9 661 527.8 660 526.3 659 524.2"/>
      <polyline class="st2" points="476.1 509.1 474.5 511.2 473.5 512.8 472.4 514.3 471.4 515.9 470.9 518 469.8 519.5 469.3 521.1 468.8 523.2"/>
      <path class="st2" d="M496.6,490.8c-28.3,19.9-25.1,50.8,7.6,71.6s84.2,24.9,119.5,9.4,42.9-45.5,17.7-69.6"/>
      <path class="st2" d="M499.4,500.7c-10.7,17-1.5,37.2,23,50.1,24.5,13,58.7,15.8,85,7s38.7-27.2,30.9-45.7"/>
      <path class="st2" d="M471.2,525c-2.6,31.3,37.9,60.2,90.4,64.5s97.1-17.6,99.7-48.9"/>
      <path class="st2" d="M471.2,525.5c-2.6,31.3,37.9,60.2,90.4,64.5s97.1-17.6,99.7-48.9"/>
      <path class="st2" d="M471.6,532.5c0,30.1,39.6,57,90,61.1,50.4,4.1,93.8-15.9,98.8-45.6"/>
      <path class="st2" d="M474.7,513c-14.1,22.7-1.6,49.5,31.1,66.7,32.6,17.2,78.1,20.9,113.2,9.3s51.7-36.1,41.5-60.8"/>
      <path class="st2" d="M489.6,595.5c15.4,14.8,41.1,24.9,69.2,27.2,28.1,2.3,55.1-3.5,72.7-15.6"/>
      <path class="st2" d="M469.4,522.9c-6.4,22.2,9.3,45.7,40.3,60.4,31,14.8,71.8,18.1,104.9,8.6,33-9.5,52.3-30.1,49.7-53"/>
      <polyline class="st2" points="661 540.8 661 539.3 661.5 538.2 661 536.7 661 535.1 661 534.1 661 532.5 660.5 531.5 660.5 529.9 660 528.3 660 527.3 659.5 525.8 659 524.7 658.4 523.2 657.9 522.1 657.4 520.6 656.9 519.5 656.4 518 655.8 516.9 654.8 515.4 654.3 514.3 653.2 513.3 652.7 511.7 651.7 510.7 650.6 509.6 649.6 508.1 648.6 507 647.5 506 646.5 505 645.5 503.9 644.4 502.9 643.4 501.3 642.3 500.3"/>
      <polyline class="st2" points="495.3 489.4 494.3 489.9 492.7 491 491.7 492 490.6 492.5 489.1 493.5 488 494.6 487 495.6 485.9 496.7 484.9 497.7 483.9 498.7 482.8 499.8 481.8 500.8 481.3 501.9 480.2 502.9 479.2 503.9 478.7 505 477.6 506.5 477.1 507.6 476.1 508.6 475.5 509.6 475 511.2 474.5 512.2 474 513.3 473.5 514.8 473 515.9 472.4 517.4 472.4 518.5 471.9 520 471.9 521.1 471.4 522.6 471.4 523.7 471.4 525.2"/>
      <line class="st2" x1="661" y1="540.8" x2="661" y2="541.3"/>
      <line class="st2" x1="471.4" y1="525.2" x2="470.9" y2="525.8"/>
      <polyline class="st2" points="489.6 595.9 488 594.3 487 592.8 485.4 591.2 483.9 589.7 482.3 588.1 481.3 586 479.7 584.5 478.7 582.4 477.1 580.3 476.1 578.7 475 576.7 473.5 574.1 472.4 572 471.9 569.9 470.9 567.3 469.8 565.2 469.3 562.6 468.3 560 467.8 557.5 467.2 555.4 466.7 552.2 466.7 549.7 466.2 547.1 466.2 544.5 466.2 542.9 466.2 541.9 466.2 540.3 466.2 539.3 466.2 537.7 466.2 536.2 466.7 535.1 466.7 533.5 467.2 531 467.8 528.3 468.3 525.8 468.3 524.2 468.8 523.2"/>
      <polyline class="st2" points="663.6 539.3 664.2 540.3 664.2 541.9 664.2 544.5 664.2 547.1 664.2 549.7 664.2 551.2 664.2 552.8 664.2 553.8 663.6 555.4 663.6 556.9 663.6 558 663.1 559.5 663.1 560.6 662.6 563.2 661.5 565.8 661 568.4 660 571 659 573.6 657.9 575.6 656.9 578.2 655.8 580.3 654.8 582.4 653.2 585 652.2 587.1 650.6 588.6 649.1 590.7 647.5 592.8 646 594.3 644.4 595.9 642.8 598 641.3 599.5 639.7 601.1 638.2 602.1 636.6 603.7 634.5 605.2 633 606.3 631.4 607.3 629.3 608.9 627.8 609.9 626.2 611 624.2 612 622.1 613 620.5 613.6 618.4 614.6 616.3 615.6 614.3 616.2 612.2 617.2 609.6 617.7 607.5 618.8 605.4 619.3 603.4 619.8 600.8 620.3 598.7 620.8 596.1 621.3 594 621.9 591.4 622.4 588.8 622.9 586.2 622.9 584.1 623.4 581.5 623.4 578.9 623.4 576.3 624 573.8 624 571.7 624 569.1 624 566.5 624 563.9 624 561.3 623.4 558.7 623.4 556.1 623.4 553.5 622.9 550.9 622.4 548.8 622.4 546.2 621.9 543.6 621.3 541 620.8 538.9 620.3 536.3 619.8 533.7 619.3 531.7 618.2 529.1 617.7 526.5 617.2 524.4 616.2 522.3 615.6 519.7 614.6 517.6 613.6 515.6 612.5 513.5 611.5 511.4 611 509.3 609.4 507.2 608.4 505.2 607.3 503.1 606.3 501.5 605.2 499.5 603.7 497.9 602.7 496.3 601.1 494.3 600 492.7 598.5 491.1 597.5 489.6 595.9"/>
      <polyline class="st2" points="661 541.3 661 542.9 660.5 544.5 660.5 545.5 660 547.1 660 548.6 659.5 549.7 659 551.2 658.4 552.8 657.9 553.8 656.9 555.4 656.4 556.4 655.3 558 654.8 559 653.8 560.6 652.7 561.6 652.2 563.2 651.2 564.2 649.6 565.2 648.6 566.3 647.5 567.8 646.5 568.9 644.9 569.9 643.9 571 642.3 572 640.8 573 639.2 574.1 637.7 575.1 636.6 576.2 634.5 577.2 633 578.2 631.4 578.7 629.9 579.8 627.8 580.8 626.2 581.3 624.2 582.4 622.6 582.9 620.5 583.4 619 584.5 616.9 585 614.8 585.5 612.7 586 610.6 586.5 608.6 587.1 606.5 587.6 604.4 588.1 602.3 588.6 600.2 589.1 598.2 589.7 595.6 589.7 593.5 590.2 591.4 590.2 588.8 590.7 586.7 590.7 584.7 591.2 582.1 591.2 580 591.2 577.9 591.2 575.3 591.2 573.2 591.2 570.6 591.2 568.5 591.2 566 591.2 563.9 591.2 561.3 590.7 559.2 590.7 556.6 590.2 554.5 590.2 551.9 589.7 549.8 589.7 547.8 589.1 545.2 588.6 543.1 588.1 541 587.6 538.4 587.1 536.3 586.5 534.3 586 532.2 585.5 529.6 585 527.5 584.5 525.4 583.4 523.3 582.9 521.3 581.9 519.2 581.3 517.1 580.3 515.6 579.8 513.5 578.7 511.4 577.7 509.8 577.2 507.8 576.2 505.7 575.1 504.1 574.1 502.6 573 500.5 572 498.9 571 497.4 569.9 495.8 568.9 494.3 567.8 492.7 566.3 491.1 565.2 490.1 564.2 488.5 562.6 487 561.6 485.9 560.6 484.9 559 483.4 558 482.3 556.4 481.3 555.4 480.2 553.8 479.2 552.8 478.1 551.2 477.6 549.7 476.6 548.6 476.1 547.1 475 546 474.5 544.5 474 542.9 473.5 541.3 473 540.3 472.4 538.7 471.9 537.2 471.9 536.2 471.4 534.6 471.4 533 470.9 531.5 470.9 530.4 470.9 528.9 470.9 527.3 470.9 525.8"/>
      <polyline class="st2" points="663.6 539.3 663.6 537.2 663.1 535.6 662.6 533.5 662.1 531.5 661.5 529.9 661 527.8 660 526.3 659 524.2"/>
      <polyline class="st2" points="476.1 509.1 474.5 511.2 473.5 512.8 472.4 514.3 471.4 515.9 470.9 518 469.8 519.5 469.3 521.1 468.8 523.2"/>
      <polyline class="st2" points="582.1 50.9 583.1 56.6 585.2 62.8 586.7 65.9 590.4 72.2 595 77.9 596.1 78.9 640.8 109.1 645.5 110.1 649.6 109.6 651.7 109.1 653.8 108 655.3 106.5 657.9 101.8 656.9 96.1 654.8 89.8 653.2 86.7 651.7 83.6 648 78.4 643.9 73.7 599.2 43.6 594.5 42.6 592.5 42.6 590.4 43.1 588.3 43.6 586.7 44.6 584.7 46.2 582.1 50.9"/>
      <polyline class="st2" points="791.4 -101.4 793 -95.6 795.6 -91.5 802.3 -82.6 807.5 -74.3 808.1 -73.3 808.6 -71.7 809.1 -67.6 808.1 -60.8 806.5 -54.6 804.4 -48.9 803.9 -46.3 802.9 -44.7 796.1 -30.2 788.8 -15.1 780.5 1 776.4 8.8 771.7 16.1 767.5 22.8 762.3 29.1 757.7 35.3 753 40 749.4 44.1 746.8 47.2 741 52.4 735.8 57.6 730.1 62.3 724.4 66.5 718.2 70.6 711.4 74.3 705.2 78.4 692.7 85.2"/>
      <path class="st2" d="M742.2,8.4c0,0,0,.1.2.2"/>
      <line class="st2" x1="742.1" y1="8.8" x2="765" y2="-13.5"/>
      <line class="st2" x1="763.4" y1="-13.5" x2="742.1" y2="8.3"/>
      <polyline class="st2" points="686.5 -28.6 695.3 -22.4 702.6 -18.2 742.1 8.3"/>
      <line class="st2" x1="690.1" y1="86.7" x2="689.6" y2="86.7"/>
      <path class="st2" d="M690.4,86.9c0,0,0-.2,0-.3"/>
      <polyline class="st2" points="682.3 95.6 684.4 93 687.5 89.8 689.6 87.2 690.1 86.7 692.7 85.2"/>
      <polyline class="st2" points="742.1 8.8 742.1 8.8 739.5 11.4 735.8 14.5 732.2 17.6 728.1 20.7 719.2 27 710.4 33.7 705.7 36.9 700.5 40 695.8 43.1 691.2 46.2 686.5 48.8 682.3 50.9 674 55.6 676.6 59.2 679.7 62.3 682.3 66.5 684.4 70.6 686.5 74.3 688 78.4"/>
      <path class="st2" d="M690.3,86.4c-.4-2.9-1.1-5.7-1.9-8.5"/>
      <polyline class="st2" points="742.1 8.3 739 10.9 735.3 14 727.5 20.2 719.2 27 709.9 33.2 705.2 36.3 700.5 40 695.8 43.1 691.2 45.7 686.5 48.3 682.3 50.9 673.5 55.6"/>
      <polyline class="st2" points="673.5 55.6 675.1 55 674 55.6"/>
      <polyline class="st2" points="673.5 55.6 628.3 25.4 637.1 19.7 641.3 16.6 645.5 12.4 648.6 7.8 651.7 2.6 653.8 -3.2 655.3 -8.9"/>
      <polyline class="st2" points="654.8 -9.4 653.2 -3.2 651.2 2.6 648.6 7.8 644.9 12.4 641.3 16.1 637.1 19.7 628.3 24.9"/>
      <polyline class="st2" points="628.3 24.9 629.3 24.4 628.3 25.4"/>
      <polyline class="st2" points="682.3 95.6 680.8 97.6 678.7 98.7"/>
      <polyline class="st2" points="615.3 24.9 616.3 24.9 619 23.9 621.5 23.9 624.7 24.4 628.3 24.9"/>
      <line class="st2" x1="689.6" y1="86.7" x2="663.1" y2="100.8"/>
      <path class="st2" d="M663.2,102.3c.2-.5.2-1.1,0-1.8"/>
      <line class="st2" x1="663.1" y1="102.3" x2="687.5" y2="89.8"/>
      <line class="st2" x1="675.1" y1="55" x2="647.5" y2="69.6"/>
      <polyline class="st2" points="647.5 69.6 650.1 73.2 653.2 76.3 655.8 80.5 657.9 84.6 684.4 70.6"/>
      <polyline class="st2" points="663.1 102.3 660.5 107 658.4 109.1 656.4 110.1"/>
      <polyline class="st2" points="657.9 84.6 660 88.8 661.5 92.4 663.1 100.8"/>
      <line class="st2" x1="629.3" y1="24.4" x2="601.8" y2="39.4"/>
      <line class="st2" x1="601.8" y1="39.4" x2="647.5" y2="69.6"/>
      <polyline class="st2" points="601.8 39.4 598.7 38.4 595.6 37.9 592.5 37.9 589.9 38.9 616.3 24.9"/>
      <line class="st2" x1="589.9" y1="38.9" x2="589.3" y2="39.4"/>
      <line class="st2" x1="661.5" y1="102.8" x2="663.1" y2="102.3"/>
      <polyline class="st2" points="663.1 100.8 661.5 101.3 661.5 102.8"/>
      <polyline class="st2" points="582.6 47.8 582.6 47.8 582.1 48.8"/>
      <path class="st2" d="M647.6,69.6c-.3.2-.7.5-1,.9"/>
      <polyline class="st2" points="646 70.6 649.1 73.7 652.2 77.4 654.3 81 656.9 85.2 657.9 84.6"/>
      <line class="st2" x1="642.8" y1="110.1" x2="643.4" y2="110.1"/>
      <polyline class="st2" points="642.8 110.1 646 111.1 649.1 111.7 652.2 111.1 654.8 110.6 655.8 110.6"/>
      <polyline class="st2" points="661.5 102.8 659 107.5 656.9 109.1 654.8 110.6"/>
      <path class="st2" d="M601.9,39.1c-.4.2-.7.5-1,.9"/>
      <line class="st2" x1="600.8" y1="40.5" x2="646" y2="70.6"/>
      <line class="st2" x1="656.9" y1="85.2" x2="653.2" y2="86.7"/>
      <line class="st2" x1="643.9" y1="73.7" x2="646" y2="70.6"/>
      <polyline class="st2" points="589.9 38.9 589.3 40 591.9 39.4 594.5 38.9 597.7 39.4 600.8 40.5"/>
      <line class="st2" x1="600.8" y1="40.5" x2="599.2" y2="43.6"/>
      <line class="st2" x1="642.8" y1="110.1" x2="640.8" y2="109.1"/>
      <line class="st2" x1="651.7" y1="109.1" x2="654.8" y2="110.6"/>
      <line class="st2" x1="582.6" y1="47.8" x2="582.1" y2="50.9"/>
      <polyline class="st2" points="582.6 47.8 585.2 43.1 587.3 41.5 589.3 40 588.3 43.6"/>
      <polyline class="st2" points="656.9 85.2 658.4 89.3 660 93 661.5 101.3"/>
      <polyline class="st2" points="661.5 102.8 657.9 101.8 661.5 101.3"/>
      <polyline class="st2" points="615.3 24.9 624.2 20.2 632.5 14.5 636.6 10.9 640.2 6.7 643.9 2 647 -3.2"/>
      <line class="st2" x1="678.7" y1="98.7" x2="656.4" y2="110.1"/>
      <line class="st2" x1="589.3" y1="39.4" x2="615.3" y2="24.9"/>
      <line class="st2" x1="582.1" y1="48.8" x2="582.6" y2="47.8"/>
      <polyline class="st2" points="656.4 110.1 655.8 110.6 652.7 111.7 649.6 111.7 646.5 111.1 643.4 110.1"/>
      <line class="st2" x1="582.1" y1="50.9" x2="582.1" y2="48.8"/>
      <polyline class="st2" points="582.6 47.8 585.2 42.6 587.3 41 589.3 39.4"/>
      <path class="st2" d="M468.2,766.2c-.2-9.5-1.2-16.5-2.3-16.5"/>
      <path class="st2" d="M465.1,756.5c-.6-6-1.6-8.3-2.5-5.9"/>
      <line class="st2" x1="463.1" y1="750.2" x2="465.2" y2="750.2"/>
      <line class="st2" x1="462" y1="751.8" x2="462.6" y2="750.7"/>
      <path class="st2" d="M449.8,758.5c.2.8.8,1.7,1.7,2.5"/>
      <path class="st2" d="M451,761.3c2.7,2.6,6.3,5,10.7,7.3"/>
      <line class="st2" x1="461.5" y1="768.9" x2="477.1" y2="768.9"/>
      <path class="st2" d="M479.6,767.6c-1,.2-1.8.4-2.5.7"/>
      <path class="st2" d="M479.5,767.8c.6,0,1-.3,1.2-.5s0-.5-.5-.7"/>
      <path class="st2" d="M478.3,765.3c.7.4,1.5.8,2.2,1.2"/>
      <path class="st2" d="M478.3,765.1c-.3-.2-.9-.3-1.5-.4-.6,0-1.1,0-1.5.2"/>
      <path class="st2" d="M465.8,759.6c-3.5.3-5.8,1.5-5.9,3,0,1.5,2.3,2.8,5.8,3.4,3.5.6,7.3.3,9.6-.8"/>
      <path class="st2" d="M466,759.5c.5,0,.9-.2,1.1-.4s.2-.4,0-.6"/>
      <path class="st2" d="M466.6,758.4c0,0,.2.2.3.3"/>
      <line class="st2" x1="466.7" y1="759" x2="449.6" y2="759"/>
      <polyline class="st2" points="492.2 831.3 492.2 830.7 496.9 776.2 496.3 775.1 495.3 774.1"/>
      <path class="st2" d="M494.8,773.2c.3.1.5.3.8.4"/>
      <line class="st2" x1="478.1" y1="775.1" x2="472.4" y2="775.1"/>
      <path class="st2" d="M472.7,774.6c1,.6,2.1,1.2,3.1,1.7"/>
      <path class="st2" d="M475.9,776.3c3.3,1.7,7.5,2.4,11.5,1.8s7-2.1,8.4-4.4"/>
      <path class="st2" d="M495,773.4c-.5-.3-1.2-.4-1.9-.4-.7,0-1.3.2-1.6.6"/>
      <path class="st2" d="M478.6,774.5c2,.9,4.5,1.4,6.9,1.2s4.5-1,5.6-2.2"/>
      <line class="st2" x1="462" y1="728.9" x2="460.5" y2="746"/>
      <line class="st2" x1="458.4" y1="770" x2="458.4" y2="770"/>
      <path class="st2" d="M462.1,728.6c-2.7,7.6-2.5,15.7.5,23.6"/>
      <polyline class="st2" points="466.7 759 464.1 755.9 462.6 752.3"/>
      <line class="st2" x1="457.9" y1="769.4" x2="457.9" y2="769.4"/>
      <path class="st2" d="M470.6,698.2c-2.9.2-5.6.9-7.6,2.1"/>
      <path class="st2" d="M462.9,700.1c-8.8,5.1-15.1,11.5-18.4,18.7"/>
      <path class="st2" d="M444.7,718.7c-.7,1.5-.9,3.1-.7,4.7"/>
      <polyline class="st2" points="443.9 723.7 448 752.3 462.6 752.3"/>
      <path class="st2" d="M462.5,728.9c.1-.2,0-.5-.4-.7s-.9-.3-1.4-.4"/>
      <path class="st2" d="M467,716.7c-3.6-2-8.8-2.4-12.7-1s-5.6,4.3-4.2,7.1,5.6,4.9,10.3,5.1"/>
      <path class="st2" d="M466.9,716.2c.7.3,1.7.3,2.3.1"/>
      <path class="st2" d="M470.5,700.5c-4.2.6-7.1,2.8-7.4,5.5-.2,2.7,2.3,5.3,6.4,6.6"/>
      <path class="st2" d="M474.9,778.6c3.6,1.8,8.2,2.6,12.6,2.1,4.3-.5,7.9-2.3,9.5-4.7"/>
      <line class="st2" x1="474.5" y1="778.8" x2="470.4" y2="833.3"/>
      <path class="st2" d="M470.2,833.2c3.6,1.8,8.2,2.6,12.6,2.1,4.3-.5,7.9-2.3,9.5-4.7"/>
      <line class="st2" x1="438.1" y1="773.1" x2="442.3" y2="725.3"/>
      <path class="st2" d="M439.5,779c-.4-2.6-.8-4.7-1.2-6.3"/>
      <polyline class="st2" points="447.5 760.6 447.5 760.6 443.9 808.4 439.2 779.3"/>
      <path class="st2" d="M446.6,753.6c.4,2.7.8,4.8,1.2,6.5"/>
      <line class="st2" x1="442.3" y1="725.3" x2="446.5" y2="753.8"/>
      <path class="st2" d="M441.5,759.9c-.5,10.8,0,23.6,1.1,28.7s2.6.5,3.1-10.2,0-23.6-1.1-28.7-2.6-.5-3.1,10.2"/>
      <path class="st2" d="M471.7,776.9c1,.6,2.1,1.2,3.2,1.7"/>
      <polyline class="st2" points="471.4 777.2 465.7 773.6 460.5 771"/>
      <path class="st2" d="M449.5,763c2.8,2.7,6.4,5.2,10.9,7.6"/>
      <line class="st2" x1="449.6" y1="763.2" x2="445.4" y2="812.5"/>
      <path class="st2" d="M445.5,812.3c5.2,8,13.7,15.2,24.8,20.9"/>
      <line class="st2" x1="465.7" y1="760.1" x2="465.2" y2="765.8"/>
      <polyline class="st2" points="478.1 775.1 476.1 773.6 475 771.5 475 770 477.1 768.9"/>
      <line class="st2" x1="479.2" y1="767.9" x2="478.7" y2="775.1"/>
      <path class="st2" d="M448.2,752.3c.4,2.6.8,4.7,1.2,6.3"/>
      <polyline class="st2" points="461.5 768.9 466.7 771.5 472.4 775.1"/>
      <path class="st2" d="M454.3,767h0"/>
      <path class="st2" d="M445.8,761.5c-.2,2-.4,4.8-.4,7.7s.1,5.7.4,7.7"/>
      <line class="st1" x1="448.5" y1="762.7" x2="448.5" y2="762.7"/>
      <path class="st2" d="M445.2,752.6c-.5,4.1-.8,10.2-.8,16.6s.3,12.5.9,16.6"/>
      <line class="st2" x1="466.7" y1="717" x2="464.1" y2="750.2"/>
      <path class="st2" d="M441.9,723c0,.7,0,1.4,0,2.1"/>
      <path class="st2" d="M438.2,771.5h0"/>
      <path class="st2" d="M438.2,771.5c0,.4,0,.8,0,1.2"/>
      <line class="st2" x1="438.1" y1="772.5" x2="438.1" y2="773.1"/>
      <path class="st2" d="M447.7,760.3c.3.9.9,1.9,1.8,2.8"/>
      <path class="st2" d="M444,808.2c.2,1.5.8,2.9,1.7,4.3"/>
      <path class="st2" d="M470.1,833.4c0,.4,0,.7.2.8"/>
      <path class="st2" d="M445.6,812.6c0,.2,0,.5.1.7"/>
      <path class="st2" d="M443.9,808.2v.2"/>
      <path class="st2" d="M439.7,779.1v.2"/>
      <path class="st2" d="M438.2,772.9c0,.1,0,.2,0,.4"/>
      <path class="st2" d="M438.2,772.4c0,.1,0,.2,0,.3"/>
      <path class="st2" d="M476,776.6c-.6.5-1.1,1.5-1.2,2.3"/>
      <path class="st2" d="M472.9,774.5c-.6.4-1.2,1.4-1.3,2.2"/>
      <path class="st2" d="M461.9,768.5c-.4.1-.8.4-1.1.8-.3.4-.4,1-.4,1.4"/>
      <path class="st2" d="M451.6,761.4c-.4,0-.9.3-1.2.7-.3.4-.5.8-.6,1.3"/>
      <path class="st2" d="M449.5,759c-1,0-1.9.7-2,1.5"/>
      <path class="st2" d="M449.5,759c-1,0-1.9.7-2,1.5"/>
      <path class="st2" d="M462.7,700.3c-.3-.3-.6-.4-.8-.2"/>
      <path class="st2" d="M448.4,752.3c-1,0-1.9.6-1.9,1.3"/>
      <path class="st2" d="M444.7,719c-.8-.2-1.5,0-1.7.6"/>
      <path class="st2" d="M444.3,723.7c-1,0-1.9.6-1.9,1.3"/>
      <line class="st2" x1="466.7" y1="759.6" x2="466.2" y2="766.3"/>
      <line class="st2" x1="480.2" y1="775.7" x2="480.8" y2="767.3"/>
      <line class="st2" x1="462" y1="728.9" x2="460.5" y2="746"/>
      <line class="st2" x1="458.4" y1="770" x2="458.4" y2="770"/>
      <line class="st2" x1="438.1" y1="771.5" x2="441.8" y2="723.2"/>
      <polyline class="st2" points="438.1 771.5 438.1 773.1 438.1 773.6 438.7 776.2 439.2 779.3 443.9 808.4 444.4 811 445.4 813.1 450.1 819.3 455.8 824.5 462.6 829.7 470.4 834.4 473 835.4 476.1 835.9 479.2 836.5 482.3 836.5 485.4 835.9 488 834.9 490.6 833.3 492.2 831.3"/>
      <polyline class="st2" points="441.8 723.2 442.8 719.5 445.9 714.4 450.1 709.2 455.8 704.5 462 700.3 465.7 698.8 470.4 697.7"/>
      <line class="st2" x1="660" y1="89.3" x2="660" y2="89.3"/>
      <line class="st2" x1="661" y1="91.9" x2="661" y2="91.9"/>
      <line class="st2" x1="650.1" y1="72.7" x2="650.1" y2="72.7"/>
      <line class="st2" x1="648.6" y1="73.2" x2="648.6" y2="73.2"/>
      <line class="st2" x1="653.8" y1="76.9" x2="653.8" y2="76.9"/>
      <line class="st2" x1="659.5" y1="87.2" x2="659.5" y2="87.2"/>
      <line class="st2" x1="682.9" y1="96.1" x2="682.3" y2="95.6"/>
      <line class="st2" x1="660" y1="94.5" x2="660" y2="94.5"/>
      <polyline class="st2" points="677.7 99.2 680.3 98.2 682.9 96.1"/>
      <path class="st2" d="M687.1,92.9c-.9.5-1.9,1-2.8,1.5"/>
      <polyline class="st2" points="687 93 689.1 89.8 686.5 92.4 683.9 94.5"/>
      <path class="st2" d="M692.5,84.5c-.4.2-.8.4-1.1.7"/>
      <line class="st2" x1="692.2" y1="85.2" x2="692.2" y2="85.2"/>
      <line class="st2" x1="697.9" y1="41.5" x2="697.9" y2="41.5"/>
      <line class="st2" x1="680.8" y1="63.9" x2="680.8" y2="63.9"/>
      <line class="st1" x1="699.5" y1="40" x2="699.5" y2="40"/>
      <line class="st2" x1="693.8" y1="86.2" x2="692.2" y2="85.2"/>
      <line class="st2" x1="682.9" y1="96.1" x2="683.9" y2="94.5"/>
      <polyline class="st2" points="689.1 89.8 691.7 87.8 693.8 86.2"/>
      <polyline class="st2" points="686.5 94 687 93.5 687 93"/>
      <line class="st2" x1="686.5" y1="94" x2="699.5" y2="85.2"/>
      <line class="st2" x1="722.3" y1="69.1" x2="720.3" y2="71.7"/>
      <polyline class="st2" points="693.8 86.2 707.8 78.4 715.1 74.3 722.3 69.1"/>
      <line class="st2" x1="639.2" y1="18.1" x2="639.2" y2="18.1"/>
      <line class="st2" x1="630.9" y1="23.9" x2="630.9" y2="23.9"/>
      <line class="st2" x1="692.2" y1="85.2" x2="696.9" y2="82.6"/>
      <polyline class="st2" points="803.9 -45.2 791.4 -18.2 784.7 -4.2 781 2.6 776.9 9.8 772.2 17.6 766.5 25.4 760.3 33.2 753.5 41 746.8 48.8 739 56.6 734.8 59.7 730.7 63.3 722.3 69.1"/>
      <line class="st2" x1="687.5" y1="77.4" x2="687.5" y2="77.4"/>
      <line class="st2" x1="645.5" y1="11.9" x2="645.5" y2="11.9"/>
      <line class="st2" x1="642.8" y1="14.5" x2="642.8" y2="14.5"/>
      <polyline class="st2" points="686.5 94 686 94.5 684.9 95.6 682.9 97.1"/>
      <polyline class="st2" points="720.3 71.7 710.4 78.4 699.5 85.2"/>
      <line class="st2" x1="682.9" y1="97.1" x2="679.7" y2="98.7"/>
      <polyline class="st2" points="796.6 -20.3 789.9 -8.9 782.6 3.1 774.8 15 765.5 27.5 755.6 39.4 744.7 50.9 739 56.6 733.2 61.8 727 67 720.3 71.7"/>
      <polyline class="st2" points="699.5 85.2 695.8 87.8 692.2 90.4 684.4 96.1"/>
      <line class="st2" x1="589.3" y1="20.2" x2="589.3" y2="20.2"/>
      <polyline class="st2" points="607.5 27.5 602.8 30.1 598.7 32.2 596.1 33.2 584.1 37.4 573.2 41.5 570.1 42.6 566.5 44.1 562.3 46.2 557.6 48.8"/>
      <polyline class="st2" points="649.6 -5.8 644.9 -1.6 642.8 0 642.3 1 642.8 2.6 640.8 3.6 638.7 4.1 634.5 6.2 630.4 8.3 627.3 10.4 624.2 11.9 621 14 617.4 16.1 613.8 18.7 609.6 21.3 606.5 23.9 604.4 25.9 603.4 27 603.4 28 603.9 28 604.9 28 606.5 27.5"/>
      <polyline class="st2" points="564.9 41 591.4 25.9 653.8 -10.4"/>
      <polyline class="st2" points="527 65.9 464.1 101.8 401.8 136.6 399.2 137.6 398.1 137.6 397.6 137.6 398.7 136.6 524.4 64.4"/>
      <line class="st1" x1="402.8" y1="135.6" x2="402.8" y2="135.6"/>
      <path class="st2" d="M402.3,136.2c.2,0,.4-.1.5-.2"/>
      <polyline class="st2" points="575.3 12.4 581 8.8 582.1 6.7"/>
      <polyline class="st2" points="559.2 28.5 561.3 27.5 562.8 26.5 563.4 26.5 563.9 26.5 564.4 27 564.4 27.5 567 24.4 570.6 20.7 575.3 15.5 579.5 10.9 580 9.8"/>
      <path class="st2" d="M581.4,8.3c-.4.4-.7.8-1,1.2"/>
      <polyline class="st2" points="543.1 44.6 543.6 45.2 544.7 46.2 548.3 42.6 550.9 40 553 37.9 555 35.8 557.6 33.2 559.7 32.2 561.8 30.6 562.3 30.6 563.4 31.1"/>
      <line class="st2" x1="563.5" y1="29.2" x2="563.5" y2="29.2"/>
      <path class="st2" d="M564.7,27.2c-.5.5-1,1.2-1.2,2"/>
      <path class="st2" d="M538.4,51.6c-.6-.9-1.3-1.7-1.8-2.2"/>
      <polyline class="st2" points="538.4 51.4 541.5 49.3 544.7 46.2"/>
      <polyline class="st2" points="418.4 116.3 409.6 125.7 400.2 135 523.9 63.9"/>
      <polyline class="st2" points="522.3 63.3 520.8 63.9 519.2 63.9 518.7 63.9 518.7 62.8 519.2 61.8 519.7 61.3 521.3 59.7 523.9 57.6 525.4 56.1 528 54.5"/>
      <path class="st2" d="M399.4,135.3c.4,0,.7-.1,1-.3"/>
      <path class="st2" d="M397.9,136.3c.3,0,.7-.2,1-.3"/>
      <path class="st2" d="M395.2,135.7h0"/>
      <path class="st2" d="M398.8,136.3c.5-.4,1-.9,1.4-1.4"/>
      <path class="st2" d="M399.1,136.3s0,0,0,0"/>
      <path class="st2" d="M397.9,136.3c.3,0,.7-.2,1-.3"/>
      <path class="st2" d="M395.2,135.7h0"/>
      <path class="st2" d="M398.6,137.4c.2,0,.5-.2.7-.4"/>
      <path class="st2" d="M401.2,136.4c.2,0,.5-.2.7-.4"/>
      <line class="st1" x1="400.7" y1="136.6" x2="400.7" y2="136.6"/>
      <line class="st2" x1="591.4" y1="24.4" x2="564.9" y2="40"/>
      <path class="st2" d="M591.7,25.6c0-.2,0-.6,0-1.1"/>
      <polyline class="st2" points="591.4 24.4 590.4 22.3 589.9 20.2 585.7 23.9 581 28 577.9 30.1 573.8 33.2 564.9 38.9"/>
      <polyline class="st2" points="621 -13.5 619 -9.9 616.3 -5.8 614.3 -3.7 612.2 -1.6 601.8 8.3 598.7 11.4 596.6 13.5 594.5 15.5 593 17.1 590.9 18.7 589.9 20.2"/>
      <polyline class="st2" points="591.4 24.4 606 16.1 621 7.2 653.2 -10.9"/>
      <line class="st2" x1="535.8" y1="53.5" x2="535.8" y2="53.5"/>
      <line class="st2" x1="568.5" y1="37.9" x2="568.5" y2="37.9"/>
      <line class="st2" x1="604.4" y1="28" x2="604.4" y2="28"/>
      <polyline class="st2" points="606 26.5 608 27 608 27.5 608.6 27.5"/>
      <polyline class="st2" points="603.4 27 606 26.5 606 27 606.5 27.5"/>
      <line class="st2" x1="602.3" y1="30.6" x2="602.8" y2="30.1"/>
      <path class="st2" d="M594.8,34.2c.5-.2,1-.5,1.5-.8"/>
      <path class="st2" d="M571.9,42c.5-.2,1.1-.5,1.6-.8"/>
      <line class="st2" x1="521.3" y1="59.7" x2="521.3" y2="59.7"/>
      <polyline class="st2" points="587.8 4.1 590.9 2.6 595 1.5 600.2 -.6 606.5 -2.6"/>
      <polyline class="st2" points="582.6 9.3 584.1 7.8 585.2 6.7 586.7 4.6"/>
      <path class="st2" d="M582.8,9c-.7-.3-1.2-.4-1.5-.3"/>
      <path class="st2" d="M607.7,0c0-.8-.3-2-.8-3.2"/>
      <path class="st2" d="M582.4,8.8c-.4.3-.8.6-1.2.9"/>
      <polyline class="st2" points="607.5 .5 600.8 3.1 595.6 4.6 591.4 6.2 588.3 7.8 585.7 8.3 584.1 9.3 581.5 9.8"/>
      <polyline class="st2" points="581 10.9 599.7 8.3 603.9 4.1 607.5 .5"/>
      <path class="st2" d="M581.3,9.7c-.2.3-.4.5-.6.8"/>
      <polyline class="st2" points="581 10.9 576.3 15.5 571.7 20.7 588.8 19.7 589.9 18.7 591.9 16.6 593 15 594.5 13.5 597.1 11.4 599.7 8.3"/>
      <path class="st2" d="M581.1,10.7c-.6-.2-1.1-.2-1.4,0"/>
      <path class="st2" d="M571.9,20.6c-.4-.2-.8-.2-1-.1"/>
      <path class="st2" d="M581.6,9.6c-.6-.2-1.1-.2-1.4,0"/>
      <polyline class="st2" points="564.9 28 568 24.9 571.7 20.7"/>
      <path class="st2" d="M565.5,27.3c-.3-.1-.6-.1-.8,0"/>
      <path class="st2" d="M565.5,27.8v-.4"/>
      <polyline class="st2" points="563.9 34.3 564.9 31.1 564.9 28.5"/>
      <polyline class="st2" points="588.8 19.7 588.3 20.2 584.7 23.3 580 27.5 577.4 29.6 573.2 32.2 564.4 38.4"/>
      <path class="st2" d="M565.4,27.5c-1,.5-1.7,1.3-2,2.2"/>
      <path class="st2" d="M565.4,28c-1,.5-1.7,1.3-2,2.1"/>
      <polyline class="st2" points="526 64.9 527.5 63.3 530.1 61.3 533.2 58.7 535.8 56.6 539.5 54.5 543.1 51.9 546.2 49.8 549.8 47.8 553.5 45.7 556.6 44.1 559.2 42.6 561.8 41.5 563.4 41 564.4 40.5 564.9 41 564.9 41.5"/>
      <polyline class="st2" points="538.4 51.4 534.3 54.5 531.2 56.6 528.5 58.2 527 59.2 524.9 61.3 523.9 62.3 523.3 63.3 526 64.9"/>
      <polyline class="st2" points="564.9 41.5 564.4 42.6 562.8 43.6 560.8 45.7 558.7 47.2"/>
      <polyline class="st2" points="534.8 62.3 530.6 64.4 527.5 65.4 526 65.9 526 64.9"/>
      <path class="st2" d="M559.5,45.9c4.4-3.7,2.9-4-3.5-.6s-15.7,9.2-21.4,13.6-6.2,5.9-1,3.5"/>
      <path class="st2" d="M560.2,43.7c.5-.5.7-.8.8-1.1"/>
      <path class="st2" d="M530.1,62.2c.3,0,.7,0,1.3-.3"/>
      <line class="st2" x1="523.3" y1="63.3" x2="523.9" y2="63.9"/>
      <line class="st2" x1="559.7" y1="43.6" x2="559.7" y2="43.6"/>
      <path class="st2" d="M523.7,62.7c-1.4-1.1-3.4-1.2-4.9-.3"/>
      <path class="st2" d="M588.6,20c.4.1.8.2,1.2.2"/>
      <line class="st2" x1="588.8" y1="19.7" x2="589.9" y2="20.2"/>
      <path class="st2" d="M599.9,7.9c.8.2,1.5.3,2.2.2"/>
      <polyline class="st2" points="607.5 .5 610.1 -.6 611.2 -1.1 611.7 -3.7 611.2 -5.2 611.2 -7.3"/>
      <path class="st2" d="M610.2-1c0-.7-.5-2-1.2-3.3"/>
      <polyline class="st2" points="606 26.5 607 25.4 609.1 23.9 611.7 21.8 615.3 19.2 619 16.6 622.1 15 627.3 11.4 627.3 10.4"/>
      <polyline class="st2" points="627.3 11.4 627.8 12.4 622.1 16.1 619.5 18.1 616.3 20.2 613.2 22.3 610.6 24.4 609.1 25.9 608 27"/>
      <line class="st2" x1="627.8" y1="12.4" x2="628.3" y2="14"/>
      <path class="st2" d="M608.7,26.4c.9.2,1.9,0,2.7-.5"/>
      <polyline class="st2" points="639.7 7.8 637.1 8.8 634 10.4 630.9 12.4 628.3 14 623.1 17.1 620.5 18.7 617.9 20.7 615.3 22.3 613.2 24.4 611.7 25.4 611.2 26.5 611.2 27 611.7 27"/>
      <path class="st2" d="M638.5,9.1c-2.8.6-10.3,4.8-17,9.4-6.6,4.6-9.8,7.8-7,7.2"/>
      <line class="st2" x1="645.5" y1="-2.1" x2="645.5" y2="0"/>
      <line class="st2" x1="644.9" y1="-1.6" x2="644.9" y2="0"/>
      <line class="st2" x1="644.9" y1="0" x2="644.9" y2=".5"/>
      <line class="st2" x1="642.8" y1="2.6" x2="643.4" y2="2.6"/>
      <line class="st2" x1="644.9" y1=".5" x2="644.9" y2="0"/>
      <path class="st2" d="M642.8.9c.8-.5,1.5-1.2,1.8-2.1"/>
      <path class="st2" d="M643.2,2.6c-.7.5-1.1,1.2-1.3,2"/>
      <polyline class="st2" points="627.3 11.4 630.4 9.8 634 8.3 637.7 6.2 639.7 5.7 641.3 4.6 642.3 4.1"/>
      <polyline class="st2" points="641.3 5.7 638.7 6.7 635.1 8.3 631.4 10.4 627.8 12.4"/>
      <path class="st2" d="M638.5,9.1c-2.7.6-10.1,4.6-16.7,9.2s-10,7.8-7.5,7.4"/>
      <line class="st2" x1="527.5" y1="65.4" x2="402.3" y2="136.6"/>
      <polyline class="st2" points="563.4 29.6 562.8 30.1 563.4 31.1"/>
      <line class="st2" x1="398.7" y1="138.2" x2="396.1" y2="138.7"/>
      <line class="st2" x1="392.4" y1="137.1" x2="392.4" y2="137.1"/>
      <polyline class="st2" points="398.7 138.2 401.3 137.1 402.3 136.6"/>
      <polyline class="st2" points="608.6 27.5 606.5 27.5 606 27.5"/>
      <polyline class="st2" points="607.5 27.5 602.3 30.6 598.2 32.7 594.5 34.3 571.7 42.6 569.1 43.6 566 44.6 561.8 46.7 557.6 48.8"/>
      <line class="st2" x1="563.4" y1="31.1" x2="565.4" y2="41"/>
      <polyline class="st2" points="529.6 62.8 530.1 62.3 531.2 61.3 532.2 60.2 534.3 58.7 536.3 57.1 538.9 55 541.5 53.5 544.7 51.4 547.2 49.8 550.4 48.3 553 46.7 555 45.2 557.1 44.1 559.2 43.6 560.2 43.1 560.8 43.1"/>
      <polyline class="st2" points="526 65.9 523.9 63.9 522.3 63.3 521.8 63.3"/>
      <line class="st2" x1="610.6" y1="27.5" x2="608.6" y2="27.5"/>
      <polyline class="st2" points="644.4 -.6 644.4 -1.1 645.5 -2.1 645.5 0"/>
      <path class="st2" d="M635.2,12c-2.1.7-6.3,3.1-10.4,5.7-4.1,2.7-7,5.1-7.2,5.9"/>
      <line class="st2" x1="617.6" y1="23.9" x2="617.6" y2="23.9"/>
      <path class="st2" d="M619.3,23.5h0"/>
      <path class="st2" d="M620.9,23h0"/>
      <path class="st2" d="M636.5,11c-2.9,1.4-7.8,4.2-12.5,7.2-4.6,3-8.2,5.7-9,6.8"/>
      <line class="st2" x1="610.6" y1="13.5" x2="610.6" y2="13.5"/>
      <line class="st2" x1="613.8" y1="25.9" x2="613.2" y2="25.4"/>
      <polyline class="st2" points="402.8 121.5 410.6 120 417.9 116.9 535.8 49.8 539.5 47.2 543.1 44.6 573.2 15 575.8 11.9"/>
      <polyline class="st2" points="573.8 14.5 575.3 12.4 576.9 9.8"/>
      <line class="st2" x1="573.2" y1="15" x2="573.8" y2="14.5"/>
      <line class="st2" x1="417.9" y1="115.8" x2="417.9" y2="116.9"/>
      <polyline class="st2" points="404.4 120.5 411.1 118.9 417.9 115.8"/>
      <line class="st2" x1="536.3" y1="48.8" x2="535.8" y2="49.8"/>
      <line class="st2" x1="417.9" y1="115.8" x2="536.3" y2="48.8"/>
      <line class="st2" x1="543.6" y1="43.6" x2="543.1" y2="44.6"/>
      <polyline class="st2" points="536.3 48.8 540 46.7 543.6 43.6 573.8 14.5"/>
      <polyline class="st2" points="573.8 14.5 569.1 17.6 562.3 23.9 555.6 30.6 554 31.7 552.5 33.2 549.3 35.8 546.7 37.9 542.1 42 543.6 43.6"/>
      <polyline class="st2" points="571.2 13 570.1 15.5 569.1 17.6"/>
      <polyline class="st2" points="417.9 115.8 423.1 110.6 416.8 113.7 412.2 115.3"/>
      <polyline class="st2" points="536.3 48.8 535.8 46.7 508.8 62.3 482.3 77.4 468.8 85.2 454.8 93 439.2 101.8 423.1 110.6"/>
      <polyline class="st2" points="542.1 42 539.5 44.6 535.8 46.7"/>
      <path class="st2" d="M536,46.5c.2-.5-.8-2.8-2.1-5.1"/>
      <path class="st2" d="M542.2,42c.2-.7-1-2.7-2.8-4.5"/>
      <polyline class="st2" points="436.1 97.1 449.6 89.3 462.6 82.1 485.9 68.5 509.3 55.6 533.7 41.5 536.9 39.4 538.9 37.9 543.6 33.2 541 28.5"/>
      <path class="st2" d="M545.8,31.8c-.6.3-1.3.6-2,1.1"/>
      <line class="st2" x1="543.1" y1="27.5" x2="545.7" y2="32.2"/>
      <path class="st2" d="M546.9,37.4c.2-.7-1-2.7-2.8-4.5"/>
      <path class="st2" d="M546.9,37.4c1-1.3.6-3.7-.9-5.5"/>
      <path class="st2" d="M552.6,32.7c1-1.4.6-3.7-.9-5.5"/>
      <polyline class="st2" points="545.7 32.2 548.3 30.1 551.4 27.5 549.3 24.4"/>
      <polyline class="st2" points="551.4 27.5 552.5 25.9 550.9 23.3"/>
      <polyline class="st2" points="559.7 18.7 556.1 22.3 552.5 25.9"/>
      <path class="st2" d="M555.7,30.1c.2-.7-1-2.7-2.8-4.5"/>
      <path class="st2" d="M569.2,17.1c.1-.5-.3-1.5-1.3-2.8"/>
      <polyline class="st2" points="415.8 112.7 416.8 113.7 416.8 112.2"/>
      <path class="st2" d="M423.2,110.4c.1-.3-.2-1.2-.7-2.4"/>
      <line class="st2" x1="575.8" y1="11.4" x2="575.8" y2="11.9"/>
      <path class="st2" d="M554.5,54.1c1.9-1.6.8-1.5-2.5.3s-7.4,4.5-9.3,6.2c-1.9,1.6-.8,1.5,2.5-.3s7.4-4.5,9.3-6.2"/>
      <path class="st2" d="M559.7,45.4c.7-1.3-2.1-.4-6.9,2.2-4.8,2.6-10.9,6.4-15.3,9.7s-6.4,5.4-5,5.3"/>
      <path class="st2" d="M559.7,43.1s0,0,0,0"/>
      <path class="st2" d="M531.1,61.1s0,0,0,0"/>
      <path class="st2" d="M546.5,57.8c-1.7,1.2-2.8,2.2-3,2.6"/>
      <path class="st2" d="M551.6,54.8c-1.5.7-3.4,1.8-5,3"/>
      <path class="st2" d="M553.6,54.4c.2-.5-.6-.3-2,.4"/>
      <path class="st2" d="M550.6,57c1.7-1.2,2.8-2.2,3-2.6"/>
      <path class="st2" d="M545.5,60c1.5-.7,3.4-1.8,5-3"/>
      <path class="st2" d="M543.5,60.4c-.2.5.6.3,2-.4"/>
      <polyline class="st2" points="553 54.5 553 55 552.5 55"/>
      <polyline class="st2" points="548.3 57.1 548.8 57.1 549.3 57.6 550.4 57.1 550.4 56.6 550.4 56.1"/>
      <polyline class="st2" points="546.2 58.2 546.2 58.7 545.7 59.7 545.2 60.2 544.7 59.7"/>
      <line class="st2" x1="546.2" y1="58.7" x2="546.2" y2="58.7"/>
      <line class="st2" x1="548.3" y1="57.1" x2="548.8" y2="57.1"/>
      <line class="st2" x1="542.1" y1="62.3" x2="532.7" y2="62.3"/>
      <polyline class="st2" points="555 53.5 559.2 45.7 559.7 44.6 559.2 43.6"/>
      <polyline class="st2" points="532.7 62.3 531.7 62.3 530.6 61.8"/>
      <line class="st2" x1="550.4" y1="56.1" x2="550.4" y2="56.1"/>
      <path class="st2" d="M619.6,22c1-.3,4-1.9,7.3-3.9,3.3-2.1,6-4.1,6.7-4.9"/>
      <line class="st2" x1="398.7" y1="134.5" x2="415.3" y2="117.9"/>
      <polyline class="st2" points="395.5 126.2 384.6 138.7 391.9 137.1 398.7 134.5"/>
      <line class="st2" x1="398.7" y1="136.1" x2="416.8" y2="116.9"/>
      <polyline class="st2" points="398.7 134.5 396.6 137.1 398.7 136.1"/>
      <line class="st2" x1="396.1" y1="137.6" x2="396.6" y2="137.1"/>
      <polyline class="st2" points="384.6 138.7 381.5 141.8 384.1 141.3 387.8 140.2 395 138.2 395.5 137.6 396.1 137.6"/>
      <line class="st2" x1="396.1" y1="137.1" x2="398.1" y2="136.6"/>
      <path class="st2" d="M398,136.3c.1-.1.2-.2.3-.3"/>
      <polyline class="st2" points="396.1 137.6 395.5 138.2 397.1 137.1"/>
      <path class="st2" d="M397.7,136.9c.3-.2.5-.5.8-.7"/>
      <path class="st2" d="M395.7,137.9c0-.1,0-.3.1-.4"/>
      <polyline class="st2" points="394.5 138.7 395 138.7 395.5 138.2"/>
      <path class="st2" d="M395.2,138.7c.1-.2.2-.5.3-.8"/>
      <line class="st2" x1="396.6" y1="137.6" x2="394.5" y2="138.7"/>
      <line class="st2" x1="397.1" y1="137.6" x2="396.6" y2="137.6"/>
      <line class="st2" x1="395" y1="138.7" x2="397.1" y2="137.6"/>
      <line class="st2" x1="394.5" y1="138.7" x2="394.5" y2="138.7"/>
      <line class="st2" x1="395" y1="138.2" x2="383.1" y2="143.9"/>
      <line class="st2" x1="383.6" y1="144.4" x2="394.5" y2="138.7"/>
      <polyline class="st2" points="380.5 142.3 381.5 141.8 381.5 143.4"/>
      <polyline class="st2" points="394.5 138.7 393.5 140.2 393.5 140.8 394.5 140.8 394 140.8 385.1 146"/>
      <line class="st2" x1="394.5" y1="140.8" x2="396.1" y2="139.2"/>
      <polyline class="st2" points="396.1 139.2 395.5 139.7 395.5 139.2 395.5 138.7 396.6 137.6"/>
      <polyline class="st2" points="394.5 140.8 395 140.8 397.1 139.2"/>
      <path class="st2" d="M396.7,139.3c.1,0,.3,0,.5-.2"/>
      <line class="st2" x1="394.5" y1="140.8" x2="394" y2="140.8"/>
      <line class="st2" x1="395" y1="140.8" x2="394.5" y2="140.8"/>
      <path class="st2" d="M395.9,139.9s0,0,.3-.2"/>
      <polyline class="st2" points="395.5 140.2 395.5 140.2 395 140.8"/>
      <line class="st1" x1="394" y1="141.3" x2="394" y2="141.3"/>
      <path class="st2" d="M394.5,141.2c.1,0,.2-.1.3-.3"/>
      <line class="st2" x1="397.1" y1="139.2" x2="397.1" y2="139.2"/>
      <line class="st2" x1="394.5" y1="140.8" x2="394.5" y2="140.8"/>
      <line class="st2" x1="396.1" y1="140.2" x2="396.1" y2="140.2"/>
      <line class="st2" x1="397.1" y1="139.2" x2="397.1" y2="139.2"/>
      <path class="st2" d="M398.8,138.4c.4-.2.8-.6,1.1-.9"/>
      <line class="st2" x1="398.1" y1="138.7" x2="396.1" y2="140.2"/>
      <line class="st2" x1="397.1" y1="139.2" x2="399.7" y2="137.6"/>
      <polyline class="st2" points="398.1 138.7 397.6 139.2 395.5 140.2"/>
      <line class="st2" x1="395.5" y1="140.2" x2="397.1" y2="139.2"/>
      <line class="st2" x1="397.1" y1="139.2" x2="397.6" y2="139.2"/>
      <path class="st2" d="M397.2,139.1c.1,0,.3,0,.4-.1"/>
      <line class="st2" x1="399.7" y1="137.6" x2="399.7" y2="137.6"/>
      <line class="st2" x1="397.1" y1="139.2" x2="397.6" y2="138.2"/>
      <line class="st2" x1="388.8" y1="138.2" x2="388.8" y2="138.2"/>
      <path class="st2" d="M394.5,141.2c0,0,.2-.1.2-.2"/>
      <path class="st2" d="M394.2,141.3h0"/>
      <line class="st2" x1="381.5" y1="141.8" x2="380.5" y2="141.8"/>
      <line class="st2" x1="376.8" y1="139.2" x2="384.6" y2="138.7"/>
      <line class="st2" x1="396.1" y1="139.2" x2="396.1" y2="138.7"/>
      <path class="st2" d="M397,136.9c.2-.1.3-.3.5-.4"/>
      <line class="st2" x1="395.5" y1="140.2" x2="394" y2="141.3"/>
      <line class="st2" x1="398.7" y1="138.7" x2="396.1" y2="140.2"/>
      <line class="st2" x1="394" y1="141.3" x2="385.7" y2="146"/>
      <line class="st2" x1="395" y1="138.2" x2="395" y2="138.2"/>
      <polyline class="st2" points="2219.7 1408.5 639.2 639 638.7 639 637.7 639.5 636.1 640.1 634.5 641.6 631.9 642.7 629.3 644.7 625.7 646.8 622.1 649.4 619 651.5 614.8 654.1 611.2 656.7 607 659.8 598.2 665.5 589.3 671.7 581 678 573.2 684.7 566 691.5 559.2 698.2 554 706 552.5 709.7 551.4 713.8 550.9 718 550.9 722.2 551.4 726.3 553 729.9 557.1 737.7 562.8 744.5 570.1 750.2 577.4 754.9 2215.5 1552.4"/>
      <line class="st2" x1="395" y1="138.2" x2="395" y2="138.2"/>
      <path class="st2" d="M247,225.5c6.5-4.3,10.4-12,11.2-21.8"/>
    </g>
  </g>
  <path class="st4" d="M787.6,237.9h-4.6v-34.5h13.2c7.3,0,12,3.4,12,10s-4.7,10-12,10h-8.5v14.4h0ZM796,219.4c4.9,0,7.6-2.2,7.6-6.1s-2.7-6-7.6-6h-8.3v12.1h8.3Z"/>
  <path class="st4" d="M826.4,202.9c9,0,15.6,7.2,15.6,17.8s-6.6,17.8-15.6,17.8-15.7-7.2-15.7-17.8,6.6-17.8,15.7-17.8ZM826.4,207c-6.5,0-11,5.5-11,13.7s4.6,13.7,11,13.7,11-5.5,11-13.7-4.6-13.7-11-13.7Z"/>
  <path class="st4" d="M866.7,203.4l7.3,27.6,7.3-27.6h4.6l-9.5,34.5h-4.5l-7.3-26.8-7.3,26.8h-4.5l-9.5-34.5h4.8l7.3,27.6,7.2-27.6h4.1Z"/>
  <path class="st4" d="M912.2,203.4v4h-18v10.6h15.2v4h-15.2v11.8h18v4h-22.5v-34.5h22.5Z"/>
  <path class="st4" d="M921.6,237.9h-4.6v-34.5h13.2c7.3,0,12,3.4,12,10s-3.4,8.9-8.8,9.8l9.5,14.7h-5.3l-9.3-14.4h-6.7v14.4h0ZM929.9,219.4c4.9,0,7.6-2.2,7.6-6.1s-2.7-6-7.6-6h-8.3v12.1h8.3Z"/>
  <path class="st4" d="M958.7,203.4h12.7c7.3,0,11.2,3.2,11.2,9s-2.7,6.6-5.3,7.5c3.9,1.1,6.5,4.1,6.5,8.4s-4.4,9.5-11.3,9.5h-13.7v-34.5h0ZM971,218.2c4.6,0,7.2-1.8,7.2-5.4s-2.5-5.5-7.2-5.5h-7.9v10.9h7.9ZM963.1,234h9.1c4.6,0,7.1-2.4,7.1-5.9s-2.5-5.9-7.1-5.9h-9.1v11.9h0Z"/>
  <path class="st4" d="M988.5,224.2v-20.8h4.6v20.7c0,7.1,3.7,10.1,8.9,10.1s9-3.1,9-10.1v-20.7h4.6v20.8c0,9.5-5.8,14.1-13.6,14.1s-13.5-4.6-13.5-14.1h0Z"/>
  <path class="st4" d="M1035.3,207.4v30.4h-4.6v-30.4h-11.7v-4h27.9v4h-11.7,0Z"/>
  <path class="st4" d="M1065.7,207.4v30.4h-4.6v-30.4h-11.7v-4h27.9v4h-11.7,0Z"/>
  <path class="st4" d="M1093.7,202.9c9,0,15.6,7.2,15.6,17.8s-6.6,17.8-15.6,17.8-15.7-7.2-15.7-17.8,6.6-17.8,15.7-17.8ZM1093.7,207c-6.5,0-11,5.5-11,13.7s4.6,13.7,11,13.7,11-5.5,11-13.7-4.6-13.7-11-13.7Z"/>
  <path class="st4" d="M1141.8,237.9h-4l-18.8-27.8v27.8h-4.4v-34.5h4.8l17.9,26.6v-26.6h4.5v34.5Z"/>
  <g>
    <path class="st4" d="M911.2,290.1h-3.9v-3.7h3.9v-7.3h4.3v7.3h5.7v3.7h-5.7v14.7c0,2.6,1.3,3.1,3.5,3.1s1.7,0,2.7-.3v3.7c-1.1.2-2.3.4-3.8.4-4.3,0-6.7-1.4-6.7-6.2v-15.4h0Z"/>
    <path class="st4" d="M925.8,277h4.3v12.8c1.4-2.1,3.9-3.9,7.5-3.9,5.3,0,8.3,3.7,8.3,9v16.6h-4.3v-15.4c0-3.5-1.5-6.1-5.2-6.1s-6.3,2.4-6.3,6.6v15h-4.3v-34.5h0Z"/>
    <path class="st4" d="M950.6,299c0-7.5,4.8-13.1,11.6-13.1s10.7,5.3,10.7,12.3v1.4h-18.2c.2,5.3,3.3,8.6,7.6,8.6s5.8-1.8,6.5-4.8l3.8,1.3c-1.5,4.5-5.3,7.2-10.3,7.2s-11.8-5.3-11.8-13.1h0ZM955,296.3h13.5c0-3.5-2-6.7-6.4-6.7s-6.4,2.5-7.2,6.7h0Z"/>
    <path class="st4" d="M987.1,299c0-7.1,4-13.1,11-13.1s6.3,1.7,7.8,4.1v-13h4.3v34.5h-4.3v-3.6c-1.5,2.5-4.3,4.2-7.8,4.2-7,0-11-6-11-13.1ZM998.8,289.7c-4.7,0-7.3,3.8-7.3,9.3s2.6,9.3,7.3,9.3,7.1-2.6,7.1-8.4v-1.8c0-5.9-3.5-8.4-7.1-8.4h0Z"/>
    <path class="st4" d="M1029.5,290.6c-.7-.1-1.3-.2-2.1-.2-3.7,0-6.6,2.9-6.6,7.3v13.7h-4.3v-25.1h4.3v4.3c1.1-2.5,3.5-4.5,7-4.5s1.3,0,1.7.1v4.4h0Z"/>
    <path class="st4" d="M1033.2,277h4.7v5h-4.7v-5ZM1037.7,311.5h-4.3v-25.1h4.3v25.1h0Z"/>
    <path class="st4" d="M1050.7,311.5l-9.4-25.1h4.6l7.1,19.8,7-19.8h4.5l-9.4,25.1h-4.3Z"/>
    <path class="st4" d="M1065.6,299c0-7.5,4.8-13.1,11.6-13.1s10.7,5.3,10.7,12.3v1.4h-18.2c.2,5.3,3.3,8.6,7.6,8.6s5.8-1.8,6.5-4.8l3.8,1.3c-1.5,4.5-5.3,7.2-10.3,7.2s-11.8-5.3-11.8-13.1h0ZM1069.9,296.3h13.5c0-3.5-2-6.7-6.4-6.7s-6.4,2.5-7.2,6.7h0Z"/>
  </g>
  <path class="st4" d="M801.4,361.3c1.3,2.9,4.4,4.7,7.7,4.7s5.5-1.2,5.5-4-2.4-3.1-6.5-4c-4.1-.9-8.5-1.8-8.5-7s3.9-7.6,9.2-7.6,8.2,2.2,9.7,5.2l-3.1,2.5c-1.3-2.5-3.7-4.1-6.8-4.1s-4.8,1.4-4.8,3.7,2.2,2.8,5.7,3.5c4.3,1,9.3,1.9,9.3,7.3s-4.4,8-9.7,8-9.1-2-11-5.9l3.4-2.5h0Z"/>
  <path class="st4" d="M825.2,378c-1.1,0-1.6,0-2.3-.2v-3.7c.8.2,1.3.2,2.1.2,1.9,0,2.9-.7,3.9-3.2l1.2-3-9.3-24.2h4.6l7.1,19.2,7-19.2h4.5l-10.8,27.8c-1.4,3.8-3.4,6.2-7.8,6.2h0Z"/>
  <path class="st4" d="M847.7,361.3c1.3,2.9,4.4,4.7,7.7,4.7s5.5-1.2,5.5-4-2.4-3.1-6.5-4c-4.1-.9-8.5-1.8-8.5-7s3.9-7.6,9.2-7.6,8.2,2.2,9.7,5.2l-3.1,2.5c-1.3-2.5-3.7-4.1-6.8-4.1s-4.8,1.4-4.8,3.7,2.2,2.8,5.7,3.5c4.3,1,9.3,1.9,9.3,7.3s-4.4,8-9.7,8-9.1-2-11-5.9l3.4-2.5h0Z"/>
  <path class="st4" d="M871.6,347.7h-3.9v-3.7h3.9v-7.3h4.3v7.3h5.7v3.7h-5.7v14.7c0,2.6,1.3,3.1,3.5,3.1s1.7,0,2.7-.3v3.7c-1.1.2-2.3.4-3.8.4-4.3,0-6.7-1.4-6.7-6.2v-15.4h0Z"/>
  <path class="st4" d="M884.3,356.5c0-7.5,4.8-13.1,11.6-13.1s10.7,5.3,10.7,12.3v1.4h-18.2c.2,5.3,3.3,8.6,7.6,8.6s5.8-1.8,6.5-4.8l3.8,1.3c-1.5,4.5-5.3,7.2-10.3,7.2s-11.8-5.3-11.8-13.1h0ZM888.7,353.9h13.5c0-3.5-2-6.7-6.4-6.7s-6.4,2.5-7.2,6.7h0Z"/>
  <path class="st4" d="M915.8,369.1h-4.3v-25.1h4.3v3.4c1.3-2.1,3.7-3.9,7.2-3.9s5.7,1.7,7,4.3c1.4-2.1,4.1-4.3,8-4.3s8.3,3.7,8.3,9v16.6h-4.3v-15.4c0-3.5-1.4-6.1-5-6.1s-6,2.5-6,6.5v15h-4.3v-15.4c0-3.5-1.4-6.1-5-6.1s-6,2.5-6,6.5v15h0Z"/>
  <path class="st4" d="M973.8,369.6c-6.9,0-11.7-5.3-11.7-13.1s4.8-13.1,11.7-13.1,11.7,5.3,11.7,13.1-4.8,13.1-11.7,13.1ZM973.8,365.9c4.4,0,7.3-3.6,7.3-9.4s-2.9-9.4-7.3-9.4-7.3,3.6-7.3,9.4,2.9,9.4,7.3,9.4Z"/>
  <path class="st4" d="M990.3,344h4.3v3.4c1.4-2.1,3.9-3.9,7.5-3.9,5.3,0,8.3,3.7,8.3,9v16.6h-4.3v-15.4c0-3.5-1.5-6.1-5.2-6.1s-6.3,2.4-6.3,6.6v15h-4.3v-25.1h0Z"/>
  <path class="st4" d="M1037.9,369.6c-6.9,0-11.7-5.3-11.7-13.1s4.8-13.1,11.7-13.1,11.7,5.3,11.7,13.1-4.8,13.1-11.7,13.1ZM1037.9,365.9c4.4,0,7.3-3.6,7.3-9.4s-2.9-9.4-7.3-9.4-7.3,3.6-7.3,9.4,2.9,9.4,7.3,9.4Z"/>
  <path class="st4" d="M1067.5,348.2c-.7-.1-1.3-.2-2.1-.2-3.7,0-6.6,2.9-6.6,7.3v13.7h-4.3v-25.1h4.3v4.3c1.1-2.5,3.6-4.5,7-4.5s1.3,0,1.7.1v4.4h0Z"/>
  <path class="st4" d="M1092.8,369.6c-6.9,0-11.7-5.3-11.7-13.1s4.8-13.1,11.7-13.1,11.7,5.3,11.7,13.1-4.8,13.1-11.7,13.1ZM1092.8,365.9c4.4,0,7.3-3.6,7.3-9.4s-2.9-9.4-7.3-9.4-7.3,3.6-7.3,9.4,2.9,9.4,7.3,9.4Z"/>
  <path class="st4" d="M1120.1,338c-.7-.1-1.2-.1-1.9-.1-2.5,0-3.9,1.1-3.9,4.3v1.7h5.6v3.7h-5.6v21.4h-4.3v-21.4h-3.8v-3.7h3.8v-2c0-4.9,2.7-7.9,7.8-7.9s1.3,0,2.3.1v3.8h0Z"/>
  <path class="st4" d="M1135.9,338c-.7-.1-1.2-.1-1.9-.1-2.5,0-3.9,1.1-3.9,4.3v1.7h5.6v3.7h-5.6v21.4h-4.3v-21.4h-3.8v-3.7h3.8v-2c0-4.9,2.7-7.9,7.8-7.9s1.3,0,2.3.1v3.8h0Z"/>
  <path class="st4" d="M781.7,426.7h13.1v3.9h-13.1v-3.9Z"/>
  <path class="st4" d="M821.3,439.4c3.5,0,5.5-2.2,6.2-5.3l3.8,1.8c-1.2,4.2-4.8,7.3-10.1,7.3s-11.9-5.3-11.9-13.1,4.8-13.1,11.9-13.1,8.8,3,10,7.2l-3.7,1.9c-.7-3.1-2.8-5.3-6.2-5.3s-7.5,3.5-7.5,9.3,3.1,9.3,7.5,9.3h0Z"/>
  <path class="st4" d="M835.7,408.2h4.3v12.8c1.4-2.1,3.9-3.9,7.5-3.9,5.3,0,8.3,3.7,8.3,9v16.6h-4.3v-15.4c0-3.5-1.5-6.1-5.2-6.1s-6.3,2.4-6.3,6.6v15h-4.3v-34.5h0Z"/>
  <path class="st4" d="M860.3,435.9c0-5,3.9-7.1,9.5-8.2l6.1-1.2v-1.1c0-2.9-1.6-4.5-4.9-4.5s-5,1.5-5.8,4.3l-4.1-1.1c1.2-4.1,4.9-7,10-7s9.1,2.7,9.1,8.1v12.2c0,1.6,1,2.2,2.7,1.8v3.5c-3.8.5-6-.4-6.6-2.8-1.5,2-4.3,3.3-7.7,3.3s-8.3-2.7-8.3-7.2h0ZM875.9,429.8l-4.9,1.1c-3.8.8-6.4,1.8-6.4,4.9s1.8,3.9,4.5,3.9,6.8-2.3,6.8-5.5v-4.3h0Z"/>
  <path class="st4" d="M886.9,417.6h4.3v3.4c1.4-2.1,3.9-3.9,7.5-3.9,5.3,0,8.3,3.7,8.3,9v16.6h-4.3v-15.4c0-3.5-1.5-6.1-5.2-6.1s-6.3,2.4-6.3,6.6v15h-4.3v-25.1h0Z"/>
  <path class="st4" d="M923,451.9c-5.5,0-9.5-2.5-11-7.1l4-1.5c.8,3.2,3.4,5.1,6.9,5.1s7.3-2.3,7.3-7.5v-2.8c-1.3,2.5-4.2,4.2-7.7,4.2-6.9,0-10.9-5.7-10.9-12.5s4-12.5,10.9-12.5,6.3,1.7,7.7,4.2v-3.7h4.3v22.9c0,7.3-4.8,11.4-11.7,11.4h0ZM923.4,420.9c-4.6,0-7.3,3.4-7.3,8.7s2.8,8.7,7.3,8.7,7-2.7,7-8.2v-.9c0-5.6-3.4-8.3-7-8.3h0Z"/>
  <path class="st4" d="M939.5,430.1c0-7.5,4.8-13.1,11.6-13.1s10.7,5.3,10.7,12.3v1.4h-18.2c.2,5.3,3.3,8.6,7.6,8.6s5.8-1.8,6.5-4.8l3.8,1.3c-1.5,4.5-5.3,7.2-10.3,7.2s-11.8-5.3-11.8-13.1h0ZM943.9,427.5h13.5c0-3.5-2-6.7-6.4-6.7s-6.4,2.5-7.2,6.7h0Z"/>
  <path class="st4" d="M978.5,421.3h-3.9v-3.7h3.9v-7.3h4.3v7.3h5.7v3.7h-5.7v14.7c0,2.6,1.3,3.1,3.5,3.1s1.7,0,2.7-.3v3.7c-1.1.2-2.3.4-3.8.4-4.3,0-6.7-1.4-6.7-6.2v-15.4h0Z"/>
  <path class="st4" d="M993.1,408.2h4.3v12.8c1.4-2.1,3.9-3.9,7.5-3.9,5.3,0,8.3,3.7,8.3,9v16.6h-4.3v-15.4c0-3.5-1.5-6.1-5.2-6.1s-6.3,2.4-6.3,6.6v15h-4.3v-34.5h0Z"/>
  <path class="st4" d="M1017.9,430.1c0-7.5,4.8-13.1,11.6-13.1s10.7,5.3,10.7,12.3v1.4h-18.2c.2,5.3,3.3,8.6,7.6,8.6s5.8-1.8,6.5-4.8l3.8,1.3c-1.5,4.5-5.3,7.2-10.3,7.2s-11.8-5.3-11.8-13.1h0ZM1022.2,427.5h13.5c0-3.5-2-6.7-6.4-6.7s-6.4,2.5-7.2,6.7h0Z"/>
  <path class="st4" d="M801.4,492.5c1.3,2.9,4.4,4.7,7.7,4.7s5.5-1.2,5.5-4-2.4-3.1-6.5-4c-4.1-.9-8.5-1.8-8.5-7s3.9-7.6,9.2-7.6,8.2,2.2,9.7,5.2l-3.1,2.5c-1.3-2.5-3.7-4.1-6.8-4.1s-4.8,1.4-4.8,3.7,2.2,2.8,5.7,3.5c4.3,1,9.3,1.9,9.3,7.3s-4.4,8-9.7,8-9.1-2-11-5.9l3.4-2.5h0Z"/>
  <path class="st4" d="M843.4,500.3h-4.3v-3.5c-1.4,2.1-3.9,4-7.4,4-5.4,0-8.4-3.7-8.4-9v-16.6h4.3v15.7c0,3.5,1.5,6,5.2,6s6.3-2.4,6.3-6.5v-15.1h4.3v25.1h0Z"/>
  <path class="st4" d="M854,496.6v12.3h-4.3v-33.8h4.3v3.6c1.5-2.5,4.3-4.1,7.8-4.1,7,0,11,5.9,11,13.1s-4,13.1-11,13.1-6.3-1.7-7.8-4.2ZM853.9,488.7c0,5.8,3.5,8.4,7.1,8.4s7.3-3.9,7.3-9.3-2.6-9.3-7.3-9.3-7.1,2.5-7.1,8.4v1.8h0Z"/>
  <path class="st4" d="M882,496.6v12.3h-4.3v-33.8h4.3v3.6c1.5-2.5,4.3-4.1,7.8-4.1,7,0,11,5.9,11,13.1s-4,13.1-11,13.1-6.3-1.7-7.8-4.2ZM881.9,488.7c0,5.8,3.5,8.4,7.1,8.4s7.3-3.9,7.3-9.3-2.6-9.3-7.3-9.3-7.1,2.5-7.1,8.4v1.8h0Z"/>
  <path class="st4" d="M915.8,500.8c-6.9,0-11.7-5.3-11.7-13.1s4.8-13.1,11.7-13.1,11.7,5.3,11.7,13.1-4.8,13.1-11.7,13.1ZM915.8,497.1c4.4,0,7.3-3.6,7.3-9.4s-2.9-9.4-7.3-9.4-7.3,3.6-7.3,9.4,2.9,9.4,7.3,9.4Z"/>
  <path class="st4" d="M945.4,479.5c-.7-.1-1.3-.2-2.1-.2-3.7,0-6.6,2.9-6.6,7.3v13.7h-4.3v-25.1h4.3v4.3c1.1-2.5,3.5-4.5,7-4.5s1.3,0,1.7.1v4.4h0Z"/>
  <path class="st4" d="M951.7,478.9h-3.9v-3.7h3.9v-7.3h4.3v7.3h5.7v3.7h-5.7v14.7c0,2.6,1.3,3.1,3.5,3.1s1.7,0,2.7-.3v3.7c-1.1.2-2.3.4-3.8.4-4.3,0-6.7-1.4-6.7-6.2v-15.4h0Z"/>
  <path class="st4" d="M982.2,500.3h-4.3v-34.5h4.3v34.5Z"/>
  <path class="st4" d="M987.1,487.7c0-7.5,4.8-13.1,11.6-13.1s10.7,5.3,10.7,12.3v1.4h-18.2c.2,5.3,3.3,8.6,7.6,8.6s5.8-1.8,6.5-4.8l3.8,1.3c-1.5,4.5-5.3,7.2-10.3,7.2s-11.8-5.3-11.8-13.1h0ZM991.5,485.1h13.5c0-3.5-2-6.7-6.4-6.7s-6.4,2.5-7.2,6.7h0Z"/>
  <path class="st4" d="M1020.1,500.3l-9.4-25.1h4.6l7.1,19.8,7-19.8h4.5l-9.4,25.1h-4.3,0Z"/>
  <path class="st4" d="M1034.9,487.7c0-7.5,4.8-13.1,11.6-13.1s10.7,5.3,10.7,12.3v1.4h-18.2c.2,5.3,3.3,8.6,7.6,8.6s5.8-1.8,6.5-4.8l3.8,1.3c-1.5,4.5-5.3,7.2-10.3,7.2s-11.8-5.3-11.8-13.1h0ZM1039.3,485.1h13.5c0-3.5-2-6.7-6.4-6.7s-6.4,2.5-7.2,6.7h0Z"/>
  <path class="st4" d="M1066.4,500.3h-4.3v-34.5h4.3v34.5Z"/>
  <g>
    <line class="st0" x1="747.4" y1="233.2" x2="656" y2="269.3"/>
    <g>
      <line class="st3" x1="747.4" y1="233.2" x2="659.3" y2="268"/>
      <path class="st4" d="M673.1,247c.7.5.8,1.4.3,2.1l-13.5,18.6,22.5,4.4c.8.2,1.3.9,1.2,1.8-.2.8-1,1.3-1.8,1.2l-24.8-4.8c-.5-.1-.9-.5-1.1-.9-.2-.5-.1-1,.2-1.4l14.8-20.5c.2-.2.4-.4.7-.5.5-.2,1-.1,1.4.2h0Z"/>
    </g>
  </g>
  <g>
    <path class="st5" d="M1607.5,259.9h13.1v3.9h-13.1v-3.9Z"/>
    <path class="st5" d="M1637.7,254.5h-3.9v-3.7h3.9v-7.3h4.3v7.3h5.7v3.7h-5.7v14.7c0,2.6,1.3,3.1,3.5,3.1s1.7,0,2.7-.3v3.7c-1.1.2-2.4.4-3.8.4-4.3,0-6.7-1.4-6.7-6.2v-15.4Z"/>
    <path class="st5" d="M1672.1,275.9h-4.3v-3.5c-1.4,2.1-3.9,4-7.4,4-5.4,0-8.4-3.7-8.4-9v-16.6h4.3v15.7c0,3.6,1.5,6,5.2,6s6.3-2.4,6.3-6.5v-15.1h4.3v25.1Z"/>
    <path class="st5" d="M1691.4,255c-.7-.1-1.3-.2-2.1-.2-3.6,0-6.6,2.9-6.6,7.3v13.7h-4.3v-25.1h4.3v4.3c1.1-2.5,3.6-4.5,7-4.5s1.3,0,1.7,0v4.4Z"/>
    <path class="st5" d="M1695.3,250.8h4.3v3.4c1.4-2.1,3.9-3.9,7.5-3.9,5.3,0,8.4,3.7,8.4,9v16.6h-4.3v-15.4c0-3.5-1.5-6.1-5.2-6.1s-6.3,2.4-6.3,6.6v15h-4.3v-25.1Z"/>
  </g>
  <g>
    <path class="st5" d="M781.7,295.5h13.1v3.9h-13.1v-3.9Z"/>
    <path class="st5" d="M811.9,290.1h-3.9v-3.7h3.9v-7.3h4.3v7.3h5.7v3.7h-5.7v14.7c0,2.6,1.3,3.1,3.5,3.1s1.7,0,2.7-.3v3.7c-1.1.2-2.4.4-3.8.4-4.3,0-6.7-1.4-6.7-6.2v-15.4Z"/>
    <path class="st5" d="M846.3,311.5h-4.3v-3.5c-1.4,2.1-3.9,4-7.4,4-5.4,0-8.4-3.7-8.4-9v-16.6h4.3v15.7c0,3.6,1.5,6,5.2,6s6.3-2.4,6.3-6.5v-15.1h4.3v25.1Z"/>
    <path class="st5" d="M865.6,290.6c-.7-.1-1.3-.2-2.1-.2-3.6,0-6.6,2.9-6.6,7.3v13.7h-4.3v-25.1h4.3v4.3c1.1-2.5,3.6-4.5,7-4.5s1.3,0,1.7,0v4.4Z"/>
    <path class="st5" d="M869.5,286.4h4.3v3.4c1.4-2.1,3.9-3.9,7.5-3.9,5.3,0,8.4,3.7,8.4,9v16.6h-4.3v-15.4c0-3.5-1.5-6.1-5.2-6.1s-6.3,2.4-6.3,6.6v15h-4.3v-25.1Z"/>
  </g>
</svg>